<?xml version="1.0" encoding="utf-8" ?>
<svg xmlns="http://www.w3.org/2000/svg" xmlns:cc="http://creativecommons.org/ns" xmlns:dc="http://purl.org/dc/elements/1.1/" xmlns:ev="http://www.w3.org/2001/xml-events" xmlns:inkscape="http://www.inkscape.org/namespaces/inkscape" xmlns:rdf="http://www.w3.org/1999/02/22-rdf-syntax-ns" xmlns:sodipodi="http://sodipodi.sourceforge.net/DTD/sodipodi-0.dtd" xmlns:xlink="http://www.w3.org/1999/xlink" baseProfile="tiny" height="9.94736842cm" version="1.2" viewBox="0 0 566.9291338582677 375.96353087443043" width="15.0cm">
  <metadata>
    <rdf:RDF>
      <cc:Work>
        <dc:format>image/svg+xml</dc:format>
        <dc:source>vpype dragon -d 12 -s 150mm color '#2a9d8f' write dragon.svg
</dc:source>
        <dc:date>2026-04-03T00:17:39.682523</dc:date>
      </cc:Work>
    </rdf:RDF>
  </metadata>
  <defs/>
  <g fill="none" id="layer1" inkscape:groupmode="layer" inkscape:label="1" stroke="#2a9d8f" style="display:inline">
    <polyline points="441.608,125.3212 447.5756,125.3212 447.5756,131.2889 441.608,131.2889 441.608,137.2565 435.6403,137.2565 435.6403,131.2889 429.6726,131.2889 429.6726,137.2565 423.7049,137.2565 423.7049,131.2889 429.6726,131.2889 429.6726,125.3212 423.7049,125.3212 423.7049,119.3535 417.7373,119.3535 417.7373,125.3212 411.7696,125.3212 411.7696,119.3535 417.7373,119.3535 417.7373,113.3858 423.7049,113.3858 423.7049,119.3535 429.6726,119.3535 429.6726,113.3858 423.7049,113.3858 423.7049,107.4182 429.6726,107.4182 429.6726,101.4505 423.7049,101.4505 423.7049,95.4828 417.7373,95.4828 417.7373,101.4505 411.7696,101.4505 411.7696,95.4828 417.7373,95.4828 417.7373,89.5151 423.7049,89.5151 423.7049,95.4828 429.6726,95.4828 429.6726,89.5151 435.6403,89.5151 435.6403,95.4828 429.6726,95.4828 429.6726,101.4505 435.6403,101.4505 435.6403,107.4182 441.608,107.4182 441.608,101.4505 435.6403,101.4505 435.6403,95.4828 441.608,95.4828 441.608,89.5151 447.5756,89.5151 447.5756,95.4828 453.5433,95.4828 453.5433,89.5151 447.5756,89.5151 447.5756,83.5475 453.5433,83.5475 453.5433,77.5798 447.5756,77.5798 447.5756,71.6121 441.608,71.6121 441.608,77.5798 435.6403,77.5798 435.6403,71.6121 441.608,71.6121 441.608,65.6444 447.5756,65.6444 447.5756,71.6121 453.5433,71.6121 453.5433,65.6444 459.511,65.6444 459.511,71.6121 453.5433,71.6121 453.5433,77.5798 459.511,77.5798 459.511,83.5475 465.4787,83.5475 465.4787,77.5798 471.4463,77.5798 471.4463,83.5475 465.4787,83.5475 465.4787,89.5151 459.511,89.5151 459.511,83.5475 453.5433,83.5475 453.5433,89.5151 459.511,89.5151 459.511,95.4828 453.5433,95.4828 453.5433,101.4505 459.511,101.4505 459.511,107.4182 465.4787,107.4182 465.4787,101.4505 459.511,101.4505 459.511,95.4828 465.4787,95.4828 465.4787,89.5151 471.4463,89.5151 471.4463,95.4828 477.414,95.4828 477.414,89.5151 483.3817,89.5151 483.3817,95.4828 477.414,95.4828 477.414,101.4505 483.3817,101.4505 483.3817,107.4182 489.3494,107.4182 489.3494,101.4505 483.3817,101.4505 483.3817,95.4828 489.3494,95.4828 489.3494,89.5151 495.317,89.5151 495.317,95.4828 501.2847,95.4828 501.2847,89.5151 495.317,89.5151 495.317,83.5475 501.2847,83.5475 501.2847,77.5798 495.317,77.5798 495.317,71.6121 489.3494,71.6121 489.3494,77.5798 483.3817,77.5798 483.3817,71.6121 489.3494,71.6121 489.3494,65.6444 495.317,65.6444 495.317,71.6121 501.2847,71.6121 501.2847,65.6444 507.2524,65.6444 507.2524,71.6121 501.2847,71.6121 501.2847,77.5798 507.2524,77.5798 507.2524,83.5475 513.2201,83.5475 513.2201,77.5798 519.1877,77.5798 519.1877,83.5475 513.2201,83.5475 513.2201,89.5151 507.2524,89.5151 507.2524,83.5475 501.2847,83.5475 501.2847,89.5151 507.2524,89.5151 507.2524,95.4828 501.2847,95.4828 501.2847,101.4505 507.2524,101.4505 507.2524,107.4182 513.2201,107.4182 513.2201,101.4505 519.1877,101.4505 519.1877,107.4182 513.2201,107.4182 513.2201,113.3858 507.2524,113.3858 507.2524,107.4182 501.2847,107.4182 501.2847,113.3858 495.317,113.3858 495.317,107.4182 501.2847,107.4182 501.2847,101.4505 495.317,101.4505 495.317,95.4828 489.3494,95.4828 489.3494,101.4505 495.317,101.4505 495.317,107.4182 489.3494,107.4182 489.3494,113.3858 483.3817,113.3858 483.3817,107.4182 477.414,107.4182 477.414,113.3858 483.3817,113.3858 483.3817,119.3535 477.414,119.3535 477.414,125.3212 483.3817,125.3212 483.3817,131.2889 489.3494,131.2889 489.3494,125.3212 483.3817,125.3212 483.3817,119.3535 489.3494,119.3535 489.3494,113.3858 495.317,113.3858 495.317,119.3535 501.2847,119.3535 501.2847,113.3858 507.2524,113.3858 507.2524,119.3535 501.2847,119.3535 501.2847,125.3212 507.2524,125.3212 507.2524,131.2889 513.2201,131.2889 513.2201,125.3212 519.1877,125.3212 519.1877,131.2889 513.2201,131.2889 513.2201,137.2565 507.2524,137.2565 507.2524,131.2889 501.2847,131.2889 501.2847,137.2565 507.2524,137.2565 507.2524,143.2242 501.2847,143.2242 501.2847,149.1919 507.2524,149.1919 507.2524,155.1596 513.2201,155.1596 513.2201,149.1919 507.2524,149.1919 507.2524,143.2242 513.2201,143.2242 513.2201,137.2565 519.1877,137.2565 519.1877,143.2242 525.1554,143.2242 525.1554,137.2565 531.1231,137.2565 531.1231,143.2242 525.1554,143.2242 525.1554,149.1919 531.1231,149.1919 531.1231,155.1596 537.0908,155.1596 537.0908,149.1919 531.1231,149.1919 531.1231,143.2242 537.0908,143.2242 537.0908,137.2565 543.0584,137.2565 543.0584,143.2242 549.0261,143.2242 549.0261,137.2565 543.0584,137.2565 543.0584,131.2889 549.0261,131.2889 549.0261,125.3212 543.0584,125.3212 543.0584,119.3535 537.0908,119.3535 537.0908,125.3212 531.1231,125.3212 531.1231,119.3535 537.0908,119.3535 537.0908,113.3858 543.0584,113.3858 543.0584,119.3535 549.0261,119.3535 549.0261,113.3858 554.9938,113.3858 554.9938,119.3535 549.0261,119.3535 549.0261,125.3212 554.9938,125.3212 554.9938,131.2889 560.9615,131.2889 560.9615,125.3212 566.9291,125.3212 566.9291,131.2889 560.9615,131.2889 560.9615,137.2565 554.9938,137.2565 554.9938,131.2889 549.0261,131.2889 549.0261,137.2565 554.9938,137.2565 554.9938,143.2242 549.0261,143.2242 549.0261,149.1919 554.9938,149.1919 554.9938,155.1596 560.9615,155.1596 560.9615,149.1919 566.9291,149.1919 566.9291,155.1596 560.9615,155.1596 560.9615,161.1272 554.9938,161.1272 554.9938,155.1596 549.0261,155.1596 549.0261,161.1272 543.0584,161.1272 543.0584,155.1596 549.0261,155.1596 549.0261,149.1919 543.0584,149.1919 543.0584,143.2242 537.0908,143.2242 537.0908,149.1919 543.0584,149.1919 543.0584,155.1596 537.0908,155.1596 537.0908,161.1272 531.1231,161.1272 531.1231,155.1596 525.1554,155.1596 525.1554,161.1272 531.1231,161.1272 531.1231,167.0949 525.1554,167.0949 525.1554,173.0626 531.1231,173.0626 531.1231,179.0303 537.0908,179.0303 537.0908,173.0626 543.0584,173.0626 543.0584,179.0303 537.0908,179.0303 537.0908,184.9979 531.1231,184.9979 531.1231,179.0303 525.1554,179.0303 525.1554,184.9979 519.1877,184.9979 519.1877,179.0303 525.1554,179.0303 525.1554,173.0626 519.1877,173.0626 519.1877,167.0949 513.2201,167.0949 513.2201,173.0626 507.2524,173.0626 507.2524,167.0949 513.2201,167.0949 513.2201,161.1272 519.1877,161.1272 519.1877,167.0949 525.1554,167.0949 525.1554,161.1272 519.1877,161.1272 519.1877,155.1596 525.1554,155.1596 525.1554,149.1919 519.1877,149.1919 519.1877,143.2242 513.2201,143.2242 513.2201,149.1919 519.1877,149.1919 519.1877,155.1596 513.2201,155.1596 513.2201,161.1272 507.2524,161.1272 507.2524,155.1596 501.2847,155.1596 501.2847,161.1272 495.317,161.1272 495.317,155.1596 501.2847,155.1596 501.2847,149.1919 495.317,149.1919 495.317,143.2242 489.3494,143.2242 489.3494,149.1919 495.317,149.1919 495.317,155.1596 489.3494,155.1596 489.3494,161.1272 483.3817,161.1272 483.3817,155.1596 477.414,155.1596 477.414,161.1272 483.3817,161.1272 483.3817,167.0949 477.414,167.0949 477.414,173.0626 483.3817,173.0626 483.3817,179.0303 489.3494,179.0303 489.3494,173.0626 483.3817,173.0626 483.3817,167.0949 489.3494,167.0949 489.3494,161.1272 495.317,161.1272 495.317,167.0949 501.2847,167.0949 501.2847,161.1272 507.2524,161.1272 507.2524,167.0949 501.2847,167.0949 501.2847,173.0626 507.2524,173.0626 507.2524,179.0303 513.2201,179.0303 513.2201,173.0626 519.1877,173.0626 519.1877,179.0303 513.2201,179.0303 513.2201,184.9979 507.2524,184.9979 507.2524,179.0303 501.2847,179.0303 501.2847,184.9979 507.2524,184.9979 507.2524,190.9656 501.2847,190.9656 501.2847,196.9333 507.2524,196.9333 507.2524,202.901 513.2201,202.901 513.2201,196.9333 519.1877,196.9333 519.1877,202.901 513.2201,202.901 513.2201,208.8686 507.2524,208.8686 507.2524,202.901 501.2847,202.901 501.2847,208.8686 495.317,208.8686 495.317,202.901 501.2847,202.901 501.2847,196.9333 495.317,196.9333 495.317,190.9656 489.3494,190.9656 489.3494,196.9333 495.317,196.9333 495.317,202.901 489.3494,202.901 489.3494,208.8686 483.3817,208.8686 483.3817,202.901 477.414,202.901 477.414,208.8686 483.3817,208.8686 483.3817,214.8363 477.414,214.8363 477.414,220.804 483.3817,220.804 483.3817,226.7717 489.3494,226.7717 489.3494,220.804 483.3817,220.804 483.3817,214.8363 489.3494,214.8363 489.3494,208.8686 495.317,208.8686 495.317,214.8363 501.2847,214.8363 501.2847,208.8686 507.2524,208.8686 507.2524,214.8363 501.2847,214.8363 501.2847,220.804 507.2524,220.804 507.2524,226.7717 513.2201,226.7717 513.2201,220.804 519.1877,220.804 519.1877,226.7717 513.2201,226.7717 513.2201,232.7393 507.2524,232.7393 507.2524,226.7717 501.2847,226.7717 501.2847,232.7393 507.2524,232.7393 507.2524,238.707 501.2847,238.707 501.2847,244.6747 507.2524,244.6747 507.2524,250.6424 513.2201,250.6424 513.2201,244.6747 507.2524,244.6747 507.2524,238.707 513.2201,238.707 513.2201,232.7393 519.1877,232.7393 519.1877,238.707 525.1554,238.707 525.1554,232.7393 531.1231,232.7393 531.1231,238.707 525.1554,238.707 525.1554,244.6747 531.1231,244.6747 531.1231,250.6424 537.0908,250.6424 537.0908,244.6747 531.1231,244.6747 531.1231,238.707 537.0908,238.707 537.0908,232.7393 543.0584,232.7393 543.0584,238.707 549.0261,238.707 549.0261,232.7393 543.0584,232.7393 543.0584,226.7717 549.0261,226.7717 549.0261,220.804 543.0584,220.804 543.0584,214.8363 537.0908,214.8363 537.0908,220.804 531.1231,220.804 531.1231,214.8363 537.0908,214.8363 537.0908,208.8686 543.0584,208.8686 543.0584,214.8363 549.0261,214.8363 549.0261,208.8686 554.9938,208.8686 554.9938,214.8363 549.0261,214.8363 549.0261,220.804 554.9938,220.804 554.9938,226.7717 560.9615,226.7717 560.9615,220.804 566.9291,220.804 566.9291,226.7717 560.9615,226.7717 560.9615,232.7393 554.9938,232.7393 554.9938,226.7717 549.0261,226.7717 549.0261,232.7393 554.9938,232.7393 554.9938,238.707 549.0261,238.707 549.0261,244.6747 554.9938,244.6747 554.9938,250.6424 560.9615,250.6424 560.9615,244.6747 566.9291,244.6747 566.9291,250.6424 560.9615,250.6424 560.9615,256.61 554.9938,256.61 554.9938,250.6424 549.0261,250.6424 549.0261,256.61 543.0584,256.61 543.0584,250.6424 549.0261,250.6424 549.0261,244.6747 543.0584,244.6747 543.0584,238.707 537.0908,238.707 537.0908,244.6747 543.0584,244.6747 543.0584,250.6424 537.0908,250.6424 537.0908,256.61 531.1231,256.61 531.1231,250.6424 525.1554,250.6424 525.1554,256.61 531.1231,256.61 531.1231,262.5777 525.1554,262.5777 525.1554,268.5454 531.1231,268.5454 531.1231,274.5131 537.0908,274.5131 537.0908,268.5454 543.0584,268.5454 543.0584,274.5131 537.0908,274.5131 537.0908,280.4807 531.1231,280.4807 531.1231,274.5131 525.1554,274.5131 525.1554,280.4807 519.1877,280.4807 519.1877,274.5131 525.1554,274.5131 525.1554,268.5454 519.1877,268.5454 519.1877,262.5777 513.2201,262.5777 513.2201,268.5454 507.2524,268.5454 507.2524,262.5777 513.2201,262.5777 513.2201,256.61 519.1877,256.61 519.1877,262.5777 525.1554,262.5777 525.1554,256.61 519.1877,256.61 519.1877,250.6424 525.1554,250.6424 525.1554,244.6747 519.1877,244.6747 519.1877,238.707 513.2201,238.707 513.2201,244.6747 519.1877,244.6747 519.1877,250.6424 513.2201,250.6424 513.2201,256.61 507.2524,256.61 507.2524,250.6424 501.2847,250.6424 501.2847,256.61 495.317,256.61 495.317,250.6424 501.2847,250.6424 501.2847,244.6747 495.317,244.6747 495.317,238.707 489.3494,238.707 489.3494,244.6747 495.317,244.6747 495.317,250.6424 489.3494,250.6424 489.3494,256.61 483.3817,256.61 483.3817,250.6424 477.414,250.6424 477.414,256.61 483.3817,256.61 483.3817,262.5777 477.414,262.5777 477.414,268.5454 483.3817,268.5454 483.3817,274.5131 489.3494,274.5131 489.3494,268.5454 495.317,268.5454 495.317,274.5131 489.3494,274.5131 489.3494,280.4807 483.3817,280.4807 483.3817,274.5131 477.414,274.5131 477.414,280.4807 471.4463,280.4807 471.4463,274.5131 477.414,274.5131 477.414,268.5454 471.4463,268.5454 471.4463,262.5777 465.4787,262.5777 465.4787,268.5454 459.511,268.5454 459.511,262.5777 465.4787,262.5777 465.4787,256.61 471.4463,256.61 471.4463,262.5777 477.414,262.5777 477.414,256.61 471.4463,256.61 471.4463,250.6424 477.414,250.6424 477.414,244.6747 471.4463,244.6747 471.4463,238.707 465.4787,238.707 465.4787,244.6747 459.511,244.6747 459.511,238.707 465.4787,238.707 465.4787,232.7393 471.4463,232.7393 471.4463,238.707 477.414,238.707 477.414,232.7393 483.3817,232.7393 483.3817,238.707 477.414,238.707 477.414,244.6747 483.3817,244.6747 483.3817,250.6424 489.3494,250.6424 489.3494,244.6747 483.3817,244.6747 483.3817,238.707 489.3494,238.707 489.3494,232.7393 495.317,232.7393 495.317,238.707 501.2847,238.707 501.2847,232.7393 495.317,232.7393 495.317,226.7717 501.2847,226.7717 501.2847,220.804 495.317,220.804 495.317,214.8363 489.3494,214.8363 489.3494,220.804 495.317,220.804 495.317,226.7717 489.3494,226.7717 489.3494,232.7393 483.3817,232.7393 483.3817,226.7717 477.414,226.7717 477.414,232.7393 471.4463,232.7393 471.4463,226.7717 477.414,226.7717 477.414,220.804 471.4463,220.804 471.4463,214.8363 465.4787,214.8363 465.4787,220.804 459.511,220.804 459.511,214.8363 465.4787,214.8363 465.4787,208.8686 471.4463,208.8686 471.4463,214.8363 477.414,214.8363 477.414,208.8686 471.4463,208.8686 471.4463,202.901 477.414,202.901 477.414,196.9333 471.4463,196.9333 471.4463,190.9656 465.4787,190.9656 465.4787,196.9333 471.4463,196.9333 471.4463,202.901 465.4787,202.901 465.4787,208.8686 459.511,208.8686 459.511,202.901 453.5433,202.901 453.5433,208.8686 447.5756,208.8686 447.5756,202.901 453.5433,202.901 453.5433,196.9333 447.5756,196.9333 447.5756,190.9656 441.608,190.9656 441.608,196.9333 447.5756,196.9333 447.5756,202.901 441.608,202.901 441.608,208.8686 435.6403,208.8686 435.6403,202.901 429.6726,202.901 429.6726,208.8686 435.6403,208.8686 435.6403,214.8363 429.6726,214.8363 429.6726,220.804 435.6403,220.804 435.6403,226.7717 441.608,226.7717 441.608,220.804 435.6403,220.804 435.6403,214.8363 441.608,214.8363 441.608,208.8686 447.5756,208.8686 447.5756,214.8363 453.5433,214.8363 453.5433,208.8686 459.511,208.8686 459.511,214.8363 453.5433,214.8363 453.5433,220.804 459.511,220.804 459.511,226.7717 465.4787,226.7717 465.4787,220.804 471.4463,220.804 471.4463,226.7717 465.4787,226.7717 465.4787,232.7393 459.511,232.7393 459.511,226.7717 453.5433,226.7717 453.5433,232.7393 459.511,232.7393 459.511,238.707 453.5433,238.707 453.5433,244.6747 459.511,244.6747 459.511,250.6424 465.4787,250.6424 465.4787,244.6747 471.4463,244.6747 471.4463,250.6424 465.4787,250.6424 465.4787,256.61 459.511,256.61 459.511,250.6424 453.5433,250.6424 453.5433,256.61 447.5756,256.61 447.5756,250.6424 453.5433,250.6424 453.5433,244.6747 447.5756,244.6747 447.5756,238.707 441.608,238.707 441.608,244.6747 447.5756,244.6747 447.5756,250.6424 441.608,250.6424 441.608,256.61 435.6403,256.61 435.6403,250.6424 429.6726,250.6424 429.6726,256.61 435.6403,256.61 435.6403,262.5777 429.6726,262.5777 429.6726,268.5454 435.6403,268.5454 435.6403,274.5131 441.608,274.5131 441.608,268.5454 447.5756,268.5454 447.5756,274.5131 441.608,274.5131 441.608,280.4807 435.6403,280.4807 435.6403,274.5131 429.6726,274.5131 429.6726,280.4807 423.7049,280.4807 423.7049,274.5131 429.6726,274.5131 429.6726,268.5454 423.7049,268.5454 423.7049,262.5777 417.7373,262.5777 417.7373,268.5454 411.7696,268.5454 411.7696,262.5777 417.7373,262.5777 417.7373,256.61 423.7049,256.61 423.7049,262.5777 429.6726,262.5777 429.6726,256.61 423.7049,256.61 423.7049,250.6424 429.6726,250.6424 429.6726,244.6747 423.7049,244.6747 423.7049,238.707 417.7373,238.707 417.7373,244.6747 423.7049,244.6747 423.7049,250.6424 417.7373,250.6424 417.7373,256.61 411.7696,256.61 411.7696,250.6424 405.8019,250.6424 405.8019,256.61 399.8342,256.61 399.8342,250.6424 405.8019,250.6424 405.8019,244.6747 399.8342,244.6747 399.8342,238.707 393.8666,238.707 393.8666,244.6747 399.8342,244.6747 399.8342,250.6424 393.8666,250.6424 393.8666,256.61 387.8989,256.61 387.8989,250.6424 381.9312,250.6424 381.9312,256.61 387.8989,256.61 387.8989,262.5777 381.9312,262.5777 381.9312,268.5454 387.8989,268.5454 387.8989,274.5131 393.8666,274.5131 393.8666,268.5454 387.8989,268.5454 387.8989,262.5777 393.8666,262.5777 393.8666,256.61 399.8342,256.61 399.8342,262.5777 405.8019,262.5777 405.8019,256.61 411.7696,256.61 411.7696,262.5777 405.8019,262.5777 405.8019,268.5454 411.7696,268.5454 411.7696,274.5131 417.7373,274.5131 417.7373,268.5454 423.7049,268.5454 423.7049,274.5131 417.7373,274.5131 417.7373,280.4807 411.7696,280.4807 411.7696,274.5131 405.8019,274.5131 405.8019,280.4807 411.7696,280.4807 411.7696,286.4484 405.8019,286.4484 405.8019,292.4161 411.7696,292.4161 411.7696,298.3838 417.7373,298.3838 417.7373,292.4161 423.7049,292.4161 423.7049,298.3838 417.7373,298.3838 417.7373,304.3514 411.7696,304.3514 411.7696,298.3838 405.8019,298.3838 405.8019,304.3514 399.8342,304.3514 399.8342,298.3838 405.8019,298.3838 405.8019,292.4161 399.8342,292.4161 399.8342,286.4484 393.8666,286.4484 393.8666,292.4161 399.8342,292.4161 399.8342,298.3838 393.8666,298.3838 393.8666,304.3514 387.8989,304.3514 387.8989,298.3838 381.9312,298.3838 381.9312,304.3514 387.8989,304.3514 387.8989,310.3191 381.9312,310.3191 381.9312,316.2868 387.8989,316.2868 387.8989,322.2545 393.8666,322.2545 393.8666,316.2868 387.8989,316.2868 387.8989,310.3191 393.8666,310.3191 393.8666,304.3514 399.8342,304.3514 399.8342,310.3191 405.8019,310.3191 405.8019,304.3514 411.7696,304.3514 411.7696,310.3191 405.8019,310.3191 405.8019,316.2868 411.7696,316.2868 411.7696,322.2545 417.7373,322.2545 417.7373,316.2868 423.7049,316.2868 423.7049,322.2545 417.7373,322.2545 417.7373,328.2221 411.7696,328.2221 411.7696,322.2545 405.8019,322.2545 405.8019,328.2221 411.7696,328.2221 411.7696,334.1898 405.8019,334.1898 405.8019,340.1575 411.7696,340.1575 411.7696,346.1252 417.7373,346.1252 417.7373,340.1575 411.7696,340.1575 411.7696,334.1898 417.7373,334.1898 417.7373,328.2221 423.7049,328.2221 423.7049,334.1898 429.6726,334.1898 429.6726,328.2221 435.6403,328.2221 435.6403,334.1898 429.6726,334.1898 429.6726,340.1575 435.6403,340.1575 435.6403,346.1252 441.608,346.1252 441.608,340.1575 435.6403,340.1575 435.6403,334.1898 441.608,334.1898 441.608,328.2221 447.5756,328.2221 447.5756,334.1898 453.5433,334.1898 453.5433,328.2221 447.5756,328.2221 447.5756,322.2545 453.5433,322.2545 453.5433,316.2868 447.5756,316.2868 447.5756,310.3191 441.608,310.3191 441.608,316.2868 435.6403,316.2868 435.6403,310.3191 441.608,310.3191 441.608,304.3514 447.5756,304.3514 447.5756,310.3191 453.5433,310.3191 453.5433,304.3514 459.511,304.3514 459.511,310.3191 453.5433,310.3191 453.5433,316.2868 459.511,316.2868 459.511,322.2545 465.4787,322.2545 465.4787,316.2868 471.4463,316.2868 471.4463,322.2545 465.4787,322.2545 465.4787,328.2221 459.511,328.2221 459.511,322.2545 453.5433,322.2545 453.5433,328.2221 459.511,328.2221 459.511,334.1898 453.5433,334.1898 453.5433,340.1575 459.511,340.1575 459.511,346.1252 465.4787,346.1252 465.4787,340.1575 471.4463,340.1575 471.4463,346.1252 465.4787,346.1252 465.4787,352.0928 459.511,352.0928 459.511,346.1252 453.5433,346.1252 453.5433,352.0928 447.5756,352.0928 447.5756,346.1252 453.5433,346.1252 453.5433,340.1575 447.5756,340.1575 447.5756,334.1898 441.608,334.1898 441.608,340.1575 447.5756,340.1575 447.5756,346.1252 441.608,346.1252 441.608,352.0928 435.6403,352.0928 435.6403,346.1252 429.6726,346.1252 429.6726,352.0928 435.6403,352.0928 435.6403,358.0605 429.6726,358.0605 429.6726,364.0282 435.6403,364.0282 435.6403,369.9959 441.608,369.9959 441.608,364.0282 447.5756,364.0282 447.5756,369.9959 441.608,369.9959 441.608,375.9635 435.6403,375.9635 435.6403,369.9959 429.6726,369.9959 429.6726,375.9635 423.7049,375.9635 423.7049,369.9959 429.6726,369.9959 429.6726,364.0282 423.7049,364.0282 423.7049,358.0605 417.7373,358.0605 417.7373,364.0282 411.7696,364.0282 411.7696,358.0605 417.7373,358.0605 417.7373,352.0928 423.7049,352.0928 423.7049,358.0605 429.6726,358.0605 429.6726,352.0928 423.7049,352.0928 423.7049,346.1252 429.6726,346.1252 429.6726,340.1575 423.7049,340.1575 423.7049,334.1898 417.7373,334.1898 417.7373,340.1575 423.7049,340.1575 423.7049,346.1252 417.7373,346.1252 417.7373,352.0928 411.7696,352.0928 411.7696,346.1252 405.8019,346.1252 405.8019,352.0928 399.8342,352.0928 399.8342,346.1252 405.8019,346.1252 405.8019,340.1575 399.8342,340.1575 399.8342,334.1898 393.8666,334.1898 393.8666,340.1575 399.8342,340.1575 399.8342,346.1252 393.8666,346.1252 393.8666,352.0928 387.8989,352.0928 387.8989,346.1252 381.9312,346.1252 381.9312,352.0928 387.8989,352.0928 387.8989,358.0605 381.9312,358.0605 381.9312,364.0282 387.8989,364.0282 387.8989,369.9959 393.8666,369.9959 393.8666,364.0282 399.8342,364.0282 399.8342,369.9959 393.8666,369.9959 393.8666,375.9635 387.8989,375.9635 387.8989,369.9959 381.9312,369.9959 381.9312,375.9635 375.9635,375.9635 375.9635,369.9959 381.9312,369.9959 381.9312,364.0282 375.9635,364.0282 375.9635,358.0605 369.9959,358.0605 369.9959,364.0282 364.0282,364.0282 364.0282,358.0605 369.9959,358.0605 369.9959,352.0928 375.9635,352.0928 375.9635,358.0605 381.9312,358.0605 381.9312,352.0928 375.9635,352.0928 375.9635,346.1252 381.9312,346.1252 381.9312,340.1575 375.9635,340.1575 375.9635,334.1898 369.9959,334.1898 369.9959,340.1575 364.0282,340.1575 364.0282,334.1898 369.9959,334.1898 369.9959,328.2221 375.9635,328.2221 375.9635,334.1898 381.9312,334.1898 381.9312,328.2221 387.8989,328.2221 387.8989,334.1898 381.9312,334.1898 381.9312,340.1575 387.8989,340.1575 387.8989,346.1252 393.8666,346.1252 393.8666,340.1575 387.8989,340.1575 387.8989,334.1898 393.8666,334.1898 393.8666,328.2221 399.8342,328.2221 399.8342,334.1898 405.8019,334.1898 405.8019,328.2221 399.8342,328.2221 399.8342,322.2545 405.8019,322.2545 405.8019,316.2868 399.8342,316.2868 399.8342,310.3191 393.8666,310.3191 393.8666,316.2868 399.8342,316.2868 399.8342,322.2545 393.8666,322.2545 393.8666,328.2221 387.8989,328.2221 387.8989,322.2545 381.9312,322.2545 381.9312,328.2221 375.9635,328.2221 375.9635,322.2545 381.9312,322.2545 381.9312,316.2868 375.9635,316.2868 375.9635,310.3191 369.9959,310.3191 369.9959,316.2868 364.0282,316.2868 364.0282,310.3191 369.9959,310.3191 369.9959,304.3514 375.9635,304.3514 375.9635,310.3191 381.9312,310.3191 381.9312,304.3514 375.9635,304.3514 375.9635,298.3838 381.9312,298.3838 381.9312,292.4161 375.9635,292.4161 375.9635,286.4484 369.9959,286.4484 369.9959,292.4161 375.9635,292.4161 375.9635,298.3838 369.9959,298.3838 369.9959,304.3514 364.0282,304.3514 364.0282,298.3838 358.0605,298.3838 358.0605,304.3514 352.0928,304.3514 352.0928,298.3838 358.0605,298.3838 358.0605,292.4161 352.0928,292.4161 352.0928,286.4484 346.1252,286.4484 346.1252,292.4161 352.0928,292.4161 352.0928,298.3838 346.1252,298.3838 346.1252,304.3514 340.1575,304.3514 340.1575,298.3838 334.1898,298.3838 334.1898,304.3514 340.1575,304.3514 340.1575,310.3191 334.1898,310.3191 334.1898,316.2868 340.1575,316.2868 340.1575,322.2545 346.1252,322.2545 346.1252,316.2868 352.0928,316.2868 352.0928,322.2545 346.1252,322.2545 346.1252,328.2221 340.1575,328.2221 340.1575,322.2545 334.1898,322.2545 334.1898,328.2221 328.2221,328.2221 328.2221,322.2545 334.1898,322.2545 334.1898,316.2868 328.2221,316.2868 328.2221,310.3191 322.2545,310.3191 322.2545,316.2868 316.2868,316.2868 316.2868,310.3191 322.2545,310.3191 322.2545,304.3514 328.2221,304.3514 328.2221,310.3191 334.1898,310.3191 334.1898,304.3514 328.2221,304.3514 328.2221,298.3838 334.1898,298.3838 334.1898,292.4161 328.2221,292.4161 328.2221,286.4484 322.2545,286.4484 322.2545,292.4161 316.2868,292.4161 316.2868,286.4484 322.2545,286.4484 322.2545,280.4807 328.2221,280.4807 328.2221,286.4484 334.1898,286.4484 334.1898,280.4807 340.1575,280.4807 340.1575,286.4484 334.1898,286.4484 334.1898,292.4161 340.1575,292.4161 340.1575,298.3838 346.1252,298.3838 346.1252,292.4161 340.1575,292.4161 340.1575,286.4484 346.1252,286.4484 346.1252,280.4807 352.0928,280.4807 352.0928,286.4484 358.0605,286.4484 358.0605,280.4807 352.0928,280.4807 352.0928,274.5131 358.0605,274.5131 358.0605,268.5454 352.0928,268.5454 352.0928,262.5777 346.1252,262.5777 346.1252,268.5454 340.1575,268.5454 340.1575,262.5777 346.1252,262.5777 346.1252,256.61 352.0928,256.61 352.0928,262.5777 358.0605,262.5777 358.0605,256.61 364.0282,256.61 364.0282,262.5777 358.0605,262.5777 358.0605,268.5454 364.0282,268.5454 364.0282,274.5131 369.9959,274.5131 369.9959,268.5454 375.9635,268.5454 375.9635,274.5131 369.9959,274.5131 369.9959,280.4807 364.0282,280.4807 364.0282,274.5131 358.0605,274.5131 358.0605,280.4807 364.0282,280.4807 364.0282,286.4484 358.0605,286.4484 358.0605,292.4161 364.0282,292.4161 364.0282,298.3838 369.9959,298.3838 369.9959,292.4161 364.0282,292.4161 364.0282,286.4484 369.9959,286.4484 369.9959,280.4807 375.9635,280.4807 375.9635,286.4484 381.9312,286.4484 381.9312,280.4807 387.8989,280.4807 387.8989,286.4484 381.9312,286.4484 381.9312,292.4161 387.8989,292.4161 387.8989,298.3838 393.8666,298.3838 393.8666,292.4161 387.8989,292.4161 387.8989,286.4484 393.8666,286.4484 393.8666,280.4807 399.8342,280.4807 399.8342,286.4484 405.8019,286.4484 405.8019,280.4807 399.8342,280.4807 399.8342,274.5131 405.8019,274.5131 405.8019,268.5454 399.8342,268.5454 399.8342,262.5777 393.8666,262.5777 393.8666,268.5454 399.8342,268.5454 399.8342,274.5131 393.8666,274.5131 393.8666,280.4807 387.8989,280.4807 387.8989,274.5131 381.9312,274.5131 381.9312,280.4807 375.9635,280.4807 375.9635,274.5131 381.9312,274.5131 381.9312,268.5454 375.9635,268.5454 375.9635,262.5777 369.9959,262.5777 369.9959,268.5454 364.0282,268.5454 364.0282,262.5777 369.9959,262.5777 369.9959,256.61 375.9635,256.61 375.9635,262.5777 381.9312,262.5777 381.9312,256.61 375.9635,256.61 375.9635,250.6424 381.9312,250.6424 381.9312,244.6747 375.9635,244.6747 375.9635,238.707 369.9959,238.707 369.9959,244.6747 364.0282,244.6747 364.0282,238.707 369.9959,238.707 369.9959,232.7393 375.9635,232.7393 375.9635,238.707 381.9312,238.707 381.9312,232.7393 387.8989,232.7393 387.8989,238.707 381.9312,238.707 381.9312,244.6747 387.8989,244.6747 387.8989,250.6424 393.8666,250.6424 393.8666,244.6747 387.8989,244.6747 387.8989,238.707 393.8666,238.707 393.8666,232.7393 399.8342,232.7393 399.8342,238.707 405.8019,238.707 405.8019,232.7393 399.8342,232.7393 399.8342,226.7717 405.8019,226.7717 405.8019,220.804 399.8342,220.804 399.8342,214.8363 393.8666,214.8363 393.8666,220.804 399.8342,220.804 399.8342,226.7717 393.8666,226.7717 393.8666,232.7393 387.8989,232.7393 387.8989,226.7717 381.9312,226.7717 381.9312,232.7393 375.9635,232.7393 375.9635,226.7717 381.9312,226.7717 381.9312,220.804 375.9635,220.804 375.9635,214.8363 369.9959,214.8363 369.9959,220.804 364.0282,220.804 364.0282,214.8363 369.9959,214.8363 369.9959,208.8686 375.9635,208.8686 375.9635,214.8363 381.9312,214.8363 381.9312,208.8686 375.9635,208.8686 375.9635,202.901 381.9312,202.901 381.9312,196.9333 375.9635,196.9333 375.9635,190.9656 369.9959,190.9656 369.9959,196.9333 375.9635,196.9333 375.9635,202.901 369.9959,202.901 369.9959,208.8686 364.0282,208.8686 364.0282,202.901 358.0605,202.901 358.0605,208.8686 352.0928,208.8686 352.0928,202.901 358.0605,202.901 358.0605,196.9333 352.0928,196.9333 352.0928,190.9656 346.1252,190.9656 346.1252,196.9333 352.0928,196.9333 352.0928,202.901 346.1252,202.901 346.1252,208.8686 340.1575,208.8686 340.1575,202.901 334.1898,202.901 334.1898,208.8686 340.1575,208.8686 340.1575,214.8363 334.1898,214.8363 334.1898,220.804 340.1575,220.804 340.1575,226.7717 346.1252,226.7717 346.1252,220.804 340.1575,220.804 340.1575,214.8363 346.1252,214.8363 346.1252,208.8686 352.0928,208.8686 352.0928,214.8363 358.0605,214.8363 358.0605,208.8686 364.0282,208.8686 364.0282,214.8363 358.0605,214.8363 358.0605,220.804 364.0282,220.804 364.0282,226.7717 369.9959,226.7717 369.9959,220.804 375.9635,220.804 375.9635,226.7717 369.9959,226.7717 369.9959,232.7393 364.0282,232.7393 364.0282,226.7717 358.0605,226.7717 358.0605,232.7393 364.0282,232.7393 364.0282,238.707 358.0605,238.707 358.0605,244.6747 364.0282,244.6747 364.0282,250.6424 369.9959,250.6424 369.9959,244.6747 375.9635,244.6747 375.9635,250.6424 369.9959,250.6424 369.9959,256.61 364.0282,256.61 364.0282,250.6424 358.0605,250.6424 358.0605,256.61 352.0928,256.61 352.0928,250.6424 358.0605,250.6424 358.0605,244.6747 352.0928,244.6747 352.0928,238.707 346.1252,238.707 346.1252,244.6747 352.0928,244.6747 352.0928,250.6424 346.1252,250.6424 346.1252,256.61 340.1575,256.61 340.1575,250.6424 334.1898,250.6424 334.1898,256.61 340.1575,256.61 340.1575,262.5777 334.1898,262.5777 334.1898,268.5454 340.1575,268.5454 340.1575,274.5131 346.1252,274.5131 346.1252,268.5454 352.0928,268.5454 352.0928,274.5131 346.1252,274.5131 346.1252,280.4807 340.1575,280.4807 340.1575,274.5131 334.1898,274.5131 334.1898,280.4807 328.2221,280.4807 328.2221,274.5131 334.1898,274.5131 334.1898,268.5454 328.2221,268.5454 328.2221,262.5777 322.2545,262.5777 322.2545,268.5454 316.2868,268.5454 316.2868,262.5777 322.2545,262.5777 322.2545,256.61 328.2221,256.61 328.2221,262.5777 334.1898,262.5777 334.1898,256.61 328.2221,256.61 328.2221,250.6424 334.1898,250.6424 334.1898,244.6747 328.2221,244.6747 328.2221,238.707 322.2545,238.707 322.2545,244.6747 328.2221,244.6747 328.2221,250.6424 322.2545,250.6424 322.2545,256.61 316.2868,256.61 316.2868,250.6424 310.3191,250.6424 310.3191,256.61 304.3514,256.61 304.3514,250.6424 310.3191,250.6424 310.3191,244.6747 304.3514,244.6747 304.3514,238.707 298.3838,238.707 298.3838,244.6747 304.3514,244.6747 304.3514,250.6424 298.3838,250.6424 298.3838,256.61 292.4161,256.61 292.4161,250.6424 286.4484,250.6424 286.4484,256.61 292.4161,256.61 292.4161,262.5777 286.4484,262.5777 286.4484,268.5454 292.4161,268.5454 292.4161,274.5131 298.3838,274.5131 298.3838,268.5454 304.3514,268.5454 304.3514,274.5131 298.3838,274.5131 298.3838,280.4807 292.4161,280.4807 292.4161,274.5131 286.4484,274.5131 286.4484,280.4807 280.4807,280.4807 280.4807,274.5131 286.4484,274.5131 286.4484,268.5454 280.4807,268.5454 280.4807,262.5777 274.5131,262.5777 274.5131,268.5454 268.5454,268.5454 268.5454,262.5777 274.5131,262.5777 274.5131,256.61 280.4807,256.61 280.4807,262.5777 286.4484,262.5777 286.4484,256.61 280.4807,256.61 280.4807,250.6424 286.4484,250.6424 286.4484,244.6747 280.4807,244.6747 280.4807,238.707 274.5131,238.707 274.5131,244.6747 268.5454,244.6747 268.5454,238.707 274.5131,238.707 274.5131,232.7393 280.4807,232.7393 280.4807,238.707 286.4484,238.707 286.4484,232.7393 292.4161,232.7393 292.4161,238.707 286.4484,238.707 286.4484,244.6747 292.4161,244.6747 292.4161,250.6424 298.3838,250.6424 298.3838,244.6747 292.4161,244.6747 292.4161,238.707 298.3838,238.707 298.3838,232.7393 304.3514,232.7393 304.3514,238.707 310.3191,238.707 310.3191,232.7393 304.3514,232.7393 304.3514,226.7717 310.3191,226.7717 310.3191,220.804 304.3514,220.804 304.3514,214.8363 298.3838,214.8363 298.3838,220.804 304.3514,220.804 304.3514,226.7717 298.3838,226.7717 298.3838,232.7393 292.4161,232.7393 292.4161,226.7717 286.4484,226.7717 286.4484,232.7393 280.4807,232.7393 280.4807,226.7717 286.4484,226.7717 286.4484,220.804 280.4807,220.804 280.4807,214.8363 274.5131,214.8363 274.5131,220.804 268.5454,220.804 268.5454,214.8363 274.5131,214.8363 274.5131,208.8686 280.4807,208.8686 280.4807,214.8363 286.4484,214.8363 286.4484,208.8686 280.4807,208.8686 280.4807,202.901 286.4484,202.901 286.4484,196.9333 280.4807,196.9333 280.4807,190.9656 274.5131,190.9656 274.5131,196.9333 280.4807,196.9333 280.4807,202.901 274.5131,202.901 274.5131,208.8686 268.5454,208.8686 268.5454,202.901 262.5777,202.901 262.5777,208.8686 256.61,208.8686 256.61,202.901 262.5777,202.901 262.5777,196.9333 256.61,196.9333 256.61,190.9656 250.6424,190.9656 250.6424,196.9333 256.61,196.9333 256.61,202.901 250.6424,202.901 250.6424,208.8686 244.6747,208.8686 244.6747,202.901 238.707,202.901 238.707,208.8686 244.6747,208.8686 244.6747,214.8363 238.707,214.8363 238.707,220.804 244.6747,220.804 244.6747,226.7717 250.6424,226.7717 250.6424,220.804 244.6747,220.804 244.6747,214.8363 250.6424,214.8363 250.6424,208.8686 256.61,208.8686 256.61,214.8363 262.5777,214.8363 262.5777,208.8686 268.5454,208.8686 268.5454,214.8363 262.5777,214.8363 262.5777,220.804 268.5454,220.804 268.5454,226.7717 274.5131,226.7717 274.5131,220.804 280.4807,220.804 280.4807,226.7717 274.5131,226.7717 274.5131,232.7393 268.5454,232.7393 268.5454,226.7717 262.5777,226.7717 262.5777,232.7393 268.5454,232.7393 268.5454,238.707 262.5777,238.707 262.5777,244.6747 268.5454,244.6747 268.5454,250.6424 274.5131,250.6424 274.5131,244.6747 280.4807,244.6747 280.4807,250.6424 274.5131,250.6424 274.5131,256.61 268.5454,256.61 268.5454,250.6424 262.5777,250.6424 262.5777,256.61 256.61,256.61 256.61,250.6424 262.5777,250.6424 262.5777,244.6747 256.61,244.6747 256.61,238.707 250.6424,238.707 250.6424,244.6747 256.61,244.6747 256.61,250.6424 250.6424,250.6424 250.6424,256.61 244.6747,256.61 244.6747,250.6424 238.707,250.6424 238.707,256.61 244.6747,256.61 244.6747,262.5777 238.707,262.5777 238.707,268.5454 244.6747,268.5454 244.6747,274.5131 250.6424,274.5131 250.6424,268.5454 256.61,268.5454 256.61,274.5131 250.6424,274.5131 250.6424,280.4807 244.6747,280.4807 244.6747,274.5131 238.707,274.5131 238.707,280.4807 232.7393,280.4807 232.7393,274.5131 238.707,274.5131 238.707,268.5454 232.7393,268.5454 232.7393,262.5777 226.7717,262.5777 226.7717,268.5454 220.804,268.5454 220.804,262.5777 226.7717,262.5777 226.7717,256.61 232.7393,256.61 232.7393,262.5777 238.707,262.5777 238.707,256.61 232.7393,256.61 232.7393,250.6424 238.707,250.6424 238.707,244.6747 232.7393,244.6747 232.7393,238.707 226.7717,238.707 226.7717,244.6747 232.7393,244.6747 232.7393,250.6424 226.7717,250.6424 226.7717,256.61 220.804,256.61 220.804,250.6424 214.8363,250.6424 214.8363,256.61 208.8686,256.61 208.8686,250.6424 214.8363,250.6424 214.8363,244.6747 208.8686,244.6747 208.8686,238.707 202.901,238.707 202.901,244.6747 208.8686,244.6747 208.8686,250.6424 202.901,250.6424 202.901,256.61 196.9333,256.61 196.9333,250.6424 190.9656,250.6424 190.9656,256.61 196.9333,256.61 196.9333,262.5777 190.9656,262.5777 190.9656,268.5454 196.9333,268.5454 196.9333,274.5131 202.901,274.5131 202.901,268.5454 196.9333,268.5454 196.9333,262.5777 202.901,262.5777 202.901,256.61 208.8686,256.61 208.8686,262.5777 214.8363,262.5777 214.8363,256.61 220.804,256.61 220.804,262.5777 214.8363,262.5777 214.8363,268.5454 220.804,268.5454 220.804,274.5131 226.7717,274.5131 226.7717,268.5454 232.7393,268.5454 232.7393,274.5131 226.7717,274.5131 226.7717,280.4807 220.804,280.4807 220.804,274.5131 214.8363,274.5131 214.8363,280.4807 220.804,280.4807 220.804,286.4484 214.8363,286.4484 214.8363,292.4161 220.804,292.4161 220.804,298.3838 226.7717,298.3838 226.7717,292.4161 232.7393,292.4161 232.7393,298.3838 226.7717,298.3838 226.7717,304.3514 220.804,304.3514 220.804,298.3838 214.8363,298.3838 214.8363,304.3514 208.8686,304.3514 208.8686,298.3838 214.8363,298.3838 214.8363,292.4161 208.8686,292.4161 208.8686,286.4484 202.901,286.4484 202.901,292.4161 208.8686,292.4161 208.8686,298.3838 202.901,298.3838 202.901,304.3514 196.9333,304.3514 196.9333,298.3838 190.9656,298.3838 190.9656,304.3514 196.9333,304.3514 196.9333,310.3191 190.9656,310.3191 190.9656,316.2868 196.9333,316.2868 196.9333,322.2545 202.901,322.2545 202.901,316.2868 196.9333,316.2868 196.9333,310.3191 202.901,310.3191 202.901,304.3514 208.8686,304.3514 208.8686,310.3191 214.8363,310.3191 214.8363,304.3514 220.804,304.3514 220.804,310.3191 214.8363,310.3191 214.8363,316.2868 220.804,316.2868 220.804,322.2545 226.7717,322.2545 226.7717,316.2868 232.7393,316.2868 232.7393,322.2545 226.7717,322.2545 226.7717,328.2221 220.804,328.2221 220.804,322.2545 214.8363,322.2545 214.8363,328.2221 220.804,328.2221 220.804,334.1898 214.8363,334.1898 214.8363,340.1575 220.804,340.1575 220.804,346.1252 226.7717,346.1252 226.7717,340.1575 220.804,340.1575 220.804,334.1898 226.7717,334.1898 226.7717,328.2221 232.7393,328.2221 232.7393,334.1898 238.707,334.1898 238.707,328.2221 244.6747,328.2221 244.6747,334.1898 238.707,334.1898 238.707,340.1575 244.6747,340.1575 244.6747,346.1252 250.6424,346.1252 250.6424,340.1575 244.6747,340.1575 244.6747,334.1898 250.6424,334.1898 250.6424,328.2221 256.61,328.2221 256.61,334.1898 262.5777,334.1898 262.5777,328.2221 256.61,328.2221 256.61,322.2545 262.5777,322.2545 262.5777,316.2868 256.61,316.2868 256.61,310.3191 250.6424,310.3191 250.6424,316.2868 244.6747,316.2868 244.6747,310.3191 250.6424,310.3191 250.6424,304.3514 256.61,304.3514 256.61,310.3191 262.5777,310.3191 262.5777,304.3514 268.5454,304.3514 268.5454,310.3191 262.5777,310.3191 262.5777,316.2868 268.5454,316.2868 268.5454,322.2545 274.5131,322.2545 274.5131,316.2868 280.4807,316.2868 280.4807,322.2545 274.5131,322.2545 274.5131,328.2221 268.5454,328.2221 268.5454,322.2545 262.5777,322.2545 262.5777,328.2221 268.5454,328.2221 268.5454,334.1898 262.5777,334.1898 262.5777,340.1575 268.5454,340.1575 268.5454,346.1252 274.5131,346.1252 274.5131,340.1575 280.4807,340.1575 280.4807,346.1252 274.5131,346.1252 274.5131,352.0928 268.5454,352.0928 268.5454,346.1252 262.5777,346.1252 262.5777,352.0928 256.61,352.0928 256.61,346.1252 262.5777,346.1252 262.5777,340.1575 256.61,340.1575 256.61,334.1898 250.6424,334.1898 250.6424,340.1575 256.61,340.1575 256.61,346.1252 250.6424,346.1252 250.6424,352.0928 244.6747,352.0928 244.6747,346.1252 238.707,346.1252 238.707,352.0928 244.6747,352.0928 244.6747,358.0605 238.707,358.0605 238.707,364.0282 244.6747,364.0282 244.6747,369.9959 250.6424,369.9959 250.6424,364.0282 256.61,364.0282 256.61,369.9959 250.6424,369.9959 250.6424,375.9635 244.6747,375.9635 244.6747,369.9959 238.707,369.9959 238.707,375.9635 232.7393,375.9635 232.7393,369.9959 238.707,369.9959 238.707,364.0282 232.7393,364.0282 232.7393,358.0605 226.7717,358.0605 226.7717,364.0282 220.804,364.0282 220.804,358.0605 226.7717,358.0605 226.7717,352.0928 232.7393,352.0928 232.7393,358.0605 238.707,358.0605 238.707,352.0928 232.7393,352.0928 232.7393,346.1252 238.707,346.1252 238.707,340.1575 232.7393,340.1575 232.7393,334.1898 226.7717,334.1898 226.7717,340.1575 232.7393,340.1575 232.7393,346.1252 226.7717,346.1252 226.7717,352.0928 220.804,352.0928 220.804,346.1252 214.8363,346.1252 214.8363,352.0928 208.8686,352.0928 208.8686,346.1252 214.8363,346.1252 214.8363,340.1575 208.8686,340.1575 208.8686,334.1898 202.901,334.1898 202.901,340.1575 208.8686,340.1575 208.8686,346.1252 202.901,346.1252 202.901,352.0928 196.9333,352.0928 196.9333,346.1252 190.9656,346.1252 190.9656,352.0928 196.9333,352.0928 196.9333,358.0605 190.9656,358.0605 190.9656,364.0282 196.9333,364.0282 196.9333,369.9959 202.901,369.9959 202.901,364.0282 208.8686,364.0282 208.8686,369.9959 202.901,369.9959 202.901,375.9635 196.9333,375.9635 196.9333,369.9959 190.9656,369.9959 190.9656,375.9635 184.9979,375.9635 184.9979,369.9959 190.9656,369.9959 190.9656,364.0282 184.9979,364.0282 184.9979,358.0605 179.0303,358.0605 179.0303,364.0282 173.0626,364.0282 173.0626,358.0605 179.0303,358.0605 179.0303,352.0928 184.9979,352.0928 184.9979,358.0605 190.9656,358.0605 190.9656,352.0928 184.9979,352.0928 184.9979,346.1252 190.9656,346.1252 190.9656,340.1575 184.9979,340.1575 184.9979,334.1898 179.0303,334.1898 179.0303,340.1575 173.0626,340.1575 173.0626,334.1898 179.0303,334.1898 179.0303,328.2221 184.9979,328.2221 184.9979,334.1898 190.9656,334.1898 190.9656,328.2221 196.9333,328.2221 196.9333,334.1898 190.9656,334.1898 190.9656,340.1575 196.9333,340.1575 196.9333,346.1252 202.901,346.1252 202.901,340.1575 196.9333,340.1575 196.9333,334.1898 202.901,334.1898 202.901,328.2221 208.8686,328.2221 208.8686,334.1898 214.8363,334.1898 214.8363,328.2221 208.8686,328.2221 208.8686,322.2545 214.8363,322.2545 214.8363,316.2868 208.8686,316.2868 208.8686,310.3191 202.901,310.3191 202.901,316.2868 208.8686,316.2868 208.8686,322.2545 202.901,322.2545 202.901,328.2221 196.9333,328.2221 196.9333,322.2545 190.9656,322.2545 190.9656,328.2221 184.9979,328.2221 184.9979,322.2545 190.9656,322.2545 190.9656,316.2868 184.9979,316.2868 184.9979,310.3191 179.0303,310.3191 179.0303,316.2868 173.0626,316.2868 173.0626,310.3191 179.0303,310.3191 179.0303,304.3514 184.9979,304.3514 184.9979,310.3191 190.9656,310.3191 190.9656,304.3514 184.9979,304.3514 184.9979,298.3838 190.9656,298.3838 190.9656,292.4161 184.9979,292.4161 184.9979,286.4484 179.0303,286.4484 179.0303,292.4161 184.9979,292.4161 184.9979,298.3838 179.0303,298.3838 179.0303,304.3514 173.0626,304.3514 173.0626,298.3838 167.0949,298.3838 167.0949,304.3514 161.1272,304.3514 161.1272,298.3838 167.0949,298.3838 167.0949,292.4161 161.1272,292.4161 161.1272,286.4484 155.1596,286.4484 155.1596,292.4161 161.1272,292.4161 161.1272,298.3838 155.1596,298.3838 155.1596,304.3514 149.1919,304.3514 149.1919,298.3838 143.2242,298.3838 143.2242,304.3514 149.1919,304.3514 149.1919,310.3191 143.2242,310.3191 143.2242,316.2868 149.1919,316.2868 149.1919,322.2545 155.1596,322.2545 155.1596,316.2868 161.1272,316.2868 161.1272,322.2545 155.1596,322.2545 155.1596,328.2221 149.1919,328.2221 149.1919,322.2545 143.2242,322.2545 143.2242,328.2221 137.2565,328.2221 137.2565,322.2545 143.2242,322.2545 143.2242,316.2868 137.2565,316.2868 137.2565,310.3191 131.2889,310.3191 131.2889,316.2868 125.3212,316.2868 125.3212,310.3191 131.2889,310.3191 131.2889,304.3514 137.2565,304.3514 137.2565,310.3191 143.2242,310.3191 143.2242,304.3514 137.2565,304.3514 137.2565,298.3838 143.2242,298.3838 143.2242,292.4161 137.2565,292.4161 137.2565,286.4484 131.2889,286.4484 131.2889,292.4161 125.3212,292.4161 125.3212,286.4484 131.2889,286.4484 131.2889,280.4807 137.2565,280.4807 137.2565,286.4484 143.2242,286.4484 143.2242,280.4807 149.1919,280.4807 149.1919,286.4484 143.2242,286.4484 143.2242,292.4161 149.1919,292.4161 149.1919,298.3838 155.1596,298.3838 155.1596,292.4161 149.1919,292.4161 149.1919,286.4484 155.1596,286.4484 155.1596,280.4807 161.1272,280.4807 161.1272,286.4484 167.0949,286.4484 167.0949,280.4807 161.1272,280.4807 161.1272,274.5131 167.0949,274.5131 167.0949,268.5454 161.1272,268.5454 161.1272,262.5777 155.1596,262.5777 155.1596,268.5454 149.1919,268.5454 149.1919,262.5777 155.1596,262.5777 155.1596,256.61 161.1272,256.61 161.1272,262.5777 167.0949,262.5777 167.0949,256.61 173.0626,256.61 173.0626,262.5777 167.0949,262.5777 167.0949,268.5454 173.0626,268.5454 173.0626,274.5131 179.0303,274.5131 179.0303,268.5454 184.9979,268.5454 184.9979,274.5131 179.0303,274.5131 179.0303,280.4807 173.0626,280.4807 173.0626,274.5131 167.0949,274.5131 167.0949,280.4807 173.0626,280.4807 173.0626,286.4484 167.0949,286.4484 167.0949,292.4161 173.0626,292.4161 173.0626,298.3838 179.0303,298.3838 179.0303,292.4161 173.0626,292.4161 173.0626,286.4484 179.0303,286.4484 179.0303,280.4807 184.9979,280.4807 184.9979,286.4484 190.9656,286.4484 190.9656,280.4807 196.9333,280.4807 196.9333,286.4484 190.9656,286.4484 190.9656,292.4161 196.9333,292.4161 196.9333,298.3838 202.901,298.3838 202.901,292.4161 196.9333,292.4161 196.9333,286.4484 202.901,286.4484 202.901,280.4807 208.8686,280.4807 208.8686,286.4484 214.8363,286.4484 214.8363,280.4807 208.8686,280.4807 208.8686,274.5131 214.8363,274.5131 214.8363,268.5454 208.8686,268.5454 208.8686,262.5777 202.901,262.5777 202.901,268.5454 208.8686,268.5454 208.8686,274.5131 202.901,274.5131 202.901,280.4807 196.9333,280.4807 196.9333,274.5131 190.9656,274.5131 190.9656,280.4807 184.9979,280.4807 184.9979,274.5131 190.9656,274.5131 190.9656,268.5454 184.9979,268.5454 184.9979,262.5777 179.0303,262.5777 179.0303,268.5454 173.0626,268.5454 173.0626,262.5777 179.0303,262.5777 179.0303,256.61 184.9979,256.61 184.9979,262.5777 190.9656,262.5777 190.9656,256.61 184.9979,256.61 184.9979,250.6424 190.9656,250.6424 190.9656,244.6747 184.9979,244.6747 184.9979,238.707 179.0303,238.707 179.0303,244.6747 173.0626,244.6747 173.0626,238.707 179.0303,238.707 179.0303,232.7393 184.9979,232.7393 184.9979,238.707 190.9656,238.707 190.9656,232.7393 196.9333,232.7393 196.9333,238.707 190.9656,238.707 190.9656,244.6747 196.9333,244.6747 196.9333,250.6424 202.901,250.6424 202.901,244.6747 196.9333,244.6747 196.9333,238.707 202.901,238.707 202.901,232.7393 208.8686,232.7393 208.8686,238.707 214.8363,238.707 214.8363,232.7393 208.8686,232.7393 208.8686,226.7717 214.8363,226.7717 214.8363,220.804 208.8686,220.804 208.8686,214.8363 202.901,214.8363 202.901,220.804 208.8686,220.804 208.8686,226.7717 202.901,226.7717 202.901,232.7393 196.9333,232.7393 196.9333,226.7717 190.9656,226.7717 190.9656,232.7393 184.9979,232.7393 184.9979,226.7717 190.9656,226.7717 190.9656,220.804 184.9979,220.804 184.9979,214.8363 179.0303,214.8363 179.0303,220.804 173.0626,220.804 173.0626,214.8363 179.0303,214.8363 179.0303,208.8686 184.9979,208.8686 184.9979,214.8363 190.9656,214.8363 190.9656,208.8686 184.9979,208.8686 184.9979,202.901 190.9656,202.901 190.9656,196.9333 184.9979,196.9333 184.9979,190.9656 179.0303,190.9656 179.0303,196.9333 184.9979,196.9333 184.9979,202.901 179.0303,202.901 179.0303,208.8686 173.0626,208.8686 173.0626,202.901 167.0949,202.901 167.0949,208.8686 161.1272,208.8686 161.1272,202.901 167.0949,202.901 167.0949,196.9333 161.1272,196.9333 161.1272,190.9656 155.1596,190.9656 155.1596,196.9333 161.1272,196.9333 161.1272,202.901 155.1596,202.901 155.1596,208.8686 149.1919,208.8686 149.1919,202.901 143.2242,202.901 143.2242,208.8686 149.1919,208.8686 149.1919,214.8363 143.2242,214.8363 143.2242,220.804 149.1919,220.804 149.1919,226.7717 155.1596,226.7717 155.1596,220.804 161.1272,220.804 161.1272,226.7717 155.1596,226.7717 155.1596,232.7393 149.1919,232.7393 149.1919,226.7717 143.2242,226.7717 143.2242,232.7393 137.2565,232.7393 137.2565,226.7717 143.2242,226.7717 143.2242,220.804 137.2565,220.804 137.2565,214.8363 131.2889,214.8363 131.2889,220.804 125.3212,220.804 125.3212,214.8363 131.2889,214.8363 131.2889,208.8686 137.2565,208.8686 137.2565,214.8363 143.2242,214.8363 143.2242,208.8686 137.2565,208.8686 137.2565,202.901 143.2242,202.901 143.2242,196.9333 137.2565,196.9333 137.2565,190.9656 131.2889,190.9656 131.2889,196.9333 125.3212,196.9333 125.3212,190.9656 131.2889,190.9656 131.2889,184.9979 137.2565,184.9979 137.2565,190.9656 143.2242,190.9656 143.2242,184.9979 149.1919,184.9979 149.1919,190.9656 143.2242,190.9656 143.2242,196.9333 149.1919,196.9333 149.1919,202.901 155.1596,202.901 155.1596,196.9333 149.1919,196.9333 149.1919,190.9656 155.1596,190.9656 155.1596,184.9979 161.1272,184.9979 161.1272,190.9656 167.0949,190.9656 167.0949,184.9979 161.1272,184.9979 161.1272,179.0303 167.0949,179.0303 167.0949,173.0626 161.1272,173.0626 161.1272,167.0949 155.1596,167.0949 155.1596,173.0626 149.1919,173.0626 149.1919,167.0949 155.1596,167.0949 155.1596,161.1272 161.1272,161.1272 161.1272,167.0949 167.0949,167.0949 167.0949,161.1272 173.0626,161.1272 173.0626,167.0949 167.0949,167.0949 167.0949,173.0626 173.0626,173.0626 173.0626,179.0303 179.0303,179.0303 179.0303,173.0626 184.9979,173.0626 184.9979,179.0303 179.0303,179.0303 179.0303,184.9979 173.0626,184.9979 173.0626,179.0303 167.0949,179.0303 167.0949,184.9979 173.0626,184.9979 173.0626,190.9656 167.0949,190.9656 167.0949,196.9333 173.0626,196.9333 173.0626,202.901 179.0303,202.901 179.0303,196.9333 173.0626,196.9333 173.0626,190.9656 179.0303,190.9656 179.0303,184.9979 184.9979,184.9979 184.9979,190.9656 190.9656,190.9656 190.9656,184.9979 196.9333,184.9979 196.9333,190.9656 190.9656,190.9656 190.9656,196.9333 196.9333,196.9333 196.9333,202.901 202.901,202.901 202.901,196.9333 196.9333,196.9333 196.9333,190.9656 202.901,190.9656 202.901,184.9979 208.8686,184.9979 208.8686,190.9656 214.8363,190.9656 214.8363,184.9979 208.8686,184.9979 208.8686,179.0303 214.8363,179.0303 214.8363,173.0626 208.8686,173.0626 208.8686,167.0949 202.901,167.0949 202.901,173.0626 196.9333,173.0626 196.9333,167.0949 202.901,167.0949 202.901,161.1272 208.8686,161.1272 208.8686,167.0949 214.8363,167.0949 214.8363,161.1272 220.804,161.1272 220.804,167.0949 214.8363,167.0949 214.8363,173.0626 220.804,173.0626 220.804,179.0303 226.7717,179.0303 226.7717,173.0626 232.7393,173.0626 232.7393,179.0303 226.7717,179.0303 226.7717,184.9979 220.804,184.9979 220.804,179.0303 214.8363,179.0303 214.8363,184.9979 220.804,184.9979 220.804,190.9656 214.8363,190.9656 214.8363,196.9333 220.804,196.9333 220.804,202.901 226.7717,202.901 226.7717,196.9333 232.7393,196.9333 232.7393,202.901 226.7717,202.901 226.7717,208.8686 220.804,208.8686 220.804,202.901 214.8363,202.901 214.8363,208.8686 208.8686,208.8686 208.8686,202.901 214.8363,202.901 214.8363,196.9333 208.8686,196.9333 208.8686,190.9656 202.901,190.9656 202.901,196.9333 208.8686,196.9333 208.8686,202.901 202.901,202.901 202.901,208.8686 196.9333,208.8686 196.9333,202.901 190.9656,202.901 190.9656,208.8686 196.9333,208.8686 196.9333,214.8363 190.9656,214.8363 190.9656,220.804 196.9333,220.804 196.9333,226.7717 202.901,226.7717 202.901,220.804 196.9333,220.804 196.9333,214.8363 202.901,214.8363 202.901,208.8686 208.8686,208.8686 208.8686,214.8363 214.8363,214.8363 214.8363,208.8686 220.804,208.8686 220.804,214.8363 214.8363,214.8363 214.8363,220.804 220.804,220.804 220.804,226.7717 226.7717,226.7717 226.7717,220.804 232.7393,220.804 232.7393,226.7717 226.7717,226.7717 226.7717,232.7393 220.804,232.7393 220.804,226.7717 214.8363,226.7717 214.8363,232.7393 220.804,232.7393 220.804,238.707 214.8363,238.707 214.8363,244.6747 220.804,244.6747 220.804,250.6424 226.7717,250.6424 226.7717,244.6747 220.804,244.6747 220.804,238.707 226.7717,238.707 226.7717,232.7393 232.7393,232.7393 232.7393,238.707 238.707,238.707 238.707,232.7393 244.6747,232.7393 244.6747,238.707 238.707,238.707 238.707,244.6747 244.6747,244.6747 244.6747,250.6424 250.6424,250.6424 250.6424,244.6747 244.6747,244.6747 244.6747,238.707 250.6424,238.707 250.6424,232.7393 256.61,232.7393 256.61,238.707 262.5777,238.707 262.5777,232.7393 256.61,232.7393 256.61,226.7717 262.5777,226.7717 262.5777,220.804 256.61,220.804 256.61,214.8363 250.6424,214.8363 250.6424,220.804 256.61,220.804 256.61,226.7717 250.6424,226.7717 250.6424,232.7393 244.6747,232.7393 244.6747,226.7717 238.707,226.7717 238.707,232.7393 232.7393,232.7393 232.7393,226.7717 238.707,226.7717 238.707,220.804 232.7393,220.804 232.7393,214.8363 226.7717,214.8363 226.7717,220.804 220.804,220.804 220.804,214.8363 226.7717,214.8363 226.7717,208.8686 232.7393,208.8686 232.7393,214.8363 238.707,214.8363 238.707,208.8686 232.7393,208.8686 232.7393,202.901 238.707,202.901 238.707,196.9333 232.7393,196.9333 232.7393,190.9656 226.7717,190.9656 226.7717,196.9333 220.804,196.9333 220.804,190.9656 226.7717,190.9656 226.7717,184.9979 232.7393,184.9979 232.7393,190.9656 238.707,190.9656 238.707,184.9979 244.6747,184.9979 244.6747,190.9656 238.707,190.9656 238.707,196.9333 244.6747,196.9333 244.6747,202.901 250.6424,202.901 250.6424,196.9333 244.6747,196.9333 244.6747,190.9656 250.6424,190.9656 250.6424,184.9979 256.61,184.9979 256.61,190.9656 262.5777,190.9656 262.5777,184.9979 256.61,184.9979 256.61,179.0303 262.5777,179.0303 262.5777,173.0626 256.61,173.0626 256.61,167.0949 250.6424,167.0949 250.6424,173.0626 244.6747,173.0626 244.6747,167.0949 250.6424,167.0949 250.6424,161.1272 256.61,161.1272 256.61,167.0949 262.5777,167.0949 262.5777,161.1272 268.5454,161.1272 268.5454,167.0949 262.5777,167.0949 262.5777,173.0626 268.5454,173.0626 268.5454,179.0303 274.5131,179.0303 274.5131,173.0626 280.4807,173.0626 280.4807,179.0303 274.5131,179.0303 274.5131,184.9979 268.5454,184.9979 268.5454,179.0303 262.5777,179.0303 262.5777,184.9979 268.5454,184.9979 268.5454,190.9656 262.5777,190.9656 262.5777,196.9333 268.5454,196.9333 268.5454,202.901 274.5131,202.901 274.5131,196.9333 268.5454,196.9333 268.5454,190.9656 274.5131,190.9656 274.5131,184.9979 280.4807,184.9979 280.4807,190.9656 286.4484,190.9656 286.4484,184.9979 292.4161,184.9979 292.4161,190.9656 286.4484,190.9656 286.4484,196.9333 292.4161,196.9333 292.4161,202.901 298.3838,202.901 298.3838,196.9333 292.4161,196.9333 292.4161,190.9656 298.3838,190.9656 298.3838,184.9979 304.3514,184.9979 304.3514,190.9656 310.3191,190.9656 310.3191,184.9979 304.3514,184.9979 304.3514,179.0303 310.3191,179.0303 310.3191,173.0626 304.3514,173.0626 304.3514,167.0949 298.3838,167.0949 298.3838,173.0626 304.3514,173.0626 304.3514,179.0303 298.3838,179.0303 298.3838,184.9979 292.4161,184.9979 292.4161,179.0303 286.4484,179.0303 286.4484,184.9979 280.4807,184.9979 280.4807,179.0303 286.4484,179.0303 286.4484,173.0626 280.4807,173.0626 280.4807,167.0949 274.5131,167.0949 274.5131,173.0626 268.5454,173.0626 268.5454,167.0949 274.5131,167.0949 274.5131,161.1272 280.4807,161.1272 280.4807,167.0949 286.4484,167.0949 286.4484,161.1272 280.4807,161.1272 280.4807,155.1596 286.4484,155.1596 286.4484,149.1919 280.4807,149.1919 280.4807,143.2242 274.5131,143.2242 274.5131,149.1919 268.5454,149.1919 268.5454,143.2242 274.5131,143.2242 274.5131,137.2565 280.4807,137.2565 280.4807,143.2242 286.4484,143.2242 286.4484,137.2565 292.4161,137.2565 292.4161,143.2242 286.4484,143.2242 286.4484,149.1919 292.4161,149.1919 292.4161,155.1596 298.3838,155.1596 298.3838,149.1919 292.4161,149.1919 292.4161,143.2242 298.3838,143.2242 298.3838,137.2565 304.3514,137.2565 304.3514,143.2242 310.3191,143.2242 310.3191,137.2565 304.3514,137.2565 304.3514,131.2889 310.3191,131.2889 310.3191,125.3212 304.3514,125.3212 304.3514,119.3535 298.3838,119.3535 298.3838,125.3212 304.3514,125.3212 304.3514,131.2889 298.3838,131.2889 298.3838,137.2565 292.4161,137.2565 292.4161,131.2889 286.4484,131.2889 286.4484,137.2565 280.4807,137.2565 280.4807,131.2889 286.4484,131.2889 286.4484,125.3212 280.4807,125.3212 280.4807,119.3535 274.5131,119.3535 274.5131,125.3212 268.5454,125.3212 268.5454,119.3535 274.5131,119.3535 274.5131,113.3858 280.4807,113.3858 280.4807,119.3535 286.4484,119.3535 286.4484,113.3858 280.4807,113.3858 280.4807,107.4182 286.4484,107.4182 286.4484,101.4505 280.4807,101.4505 280.4807,95.4828 274.5131,95.4828 274.5131,101.4505 280.4807,101.4505 280.4807,107.4182 274.5131,107.4182 274.5131,113.3858 268.5454,113.3858 268.5454,107.4182 262.5777,107.4182 262.5777,113.3858 256.61,113.3858 256.61,107.4182 262.5777,107.4182 262.5777,101.4505 256.61,101.4505 256.61,95.4828 250.6424,95.4828 250.6424,101.4505 256.61,101.4505 256.61,107.4182 250.6424,107.4182 250.6424,113.3858 244.6747,113.3858 244.6747,107.4182 238.707,107.4182 238.707,113.3858 244.6747,113.3858 244.6747,119.3535 238.707,119.3535 238.707,125.3212 244.6747,125.3212 244.6747,131.2889 250.6424,131.2889 250.6424,125.3212 244.6747,125.3212 244.6747,119.3535 250.6424,119.3535 250.6424,113.3858 256.61,113.3858 256.61,119.3535 262.5777,119.3535 262.5777,113.3858 268.5454,113.3858 268.5454,119.3535 262.5777,119.3535 262.5777,125.3212 268.5454,125.3212 268.5454,131.2889 274.5131,131.2889 274.5131,125.3212 280.4807,125.3212 280.4807,131.2889 274.5131,131.2889 274.5131,137.2565 268.5454,137.2565 268.5454,131.2889 262.5777,131.2889 262.5777,137.2565 268.5454,137.2565 268.5454,143.2242 262.5777,143.2242 262.5777,149.1919 268.5454,149.1919 268.5454,155.1596 274.5131,155.1596 274.5131,149.1919 280.4807,149.1919 280.4807,155.1596 274.5131,155.1596 274.5131,161.1272 268.5454,161.1272 268.5454,155.1596 262.5777,155.1596 262.5777,161.1272 256.61,161.1272 256.61,155.1596 262.5777,155.1596 262.5777,149.1919 256.61,149.1919 256.61,143.2242 250.6424,143.2242 250.6424,149.1919 256.61,149.1919 256.61,155.1596 250.6424,155.1596 250.6424,161.1272 244.6747,161.1272 244.6747,155.1596 238.707,155.1596 238.707,161.1272 244.6747,161.1272 244.6747,167.0949 238.707,167.0949 238.707,173.0626 244.6747,173.0626 244.6747,179.0303 250.6424,179.0303 250.6424,173.0626 256.61,173.0626 256.61,179.0303 250.6424,179.0303 250.6424,184.9979 244.6747,184.9979 244.6747,179.0303 238.707,179.0303 238.707,184.9979 232.7393,184.9979 232.7393,179.0303 238.707,179.0303 238.707,173.0626 232.7393,173.0626 232.7393,167.0949 226.7717,167.0949 226.7717,173.0626 220.804,173.0626 220.804,167.0949 226.7717,167.0949 226.7717,161.1272 232.7393,161.1272 232.7393,167.0949 238.707,167.0949 238.707,161.1272 232.7393,161.1272 232.7393,155.1596 238.707,155.1596 238.707,149.1919 232.7393,149.1919 232.7393,143.2242 226.7717,143.2242 226.7717,149.1919 232.7393,149.1919 232.7393,155.1596 226.7717,155.1596 226.7717,161.1272 220.804,161.1272 220.804,155.1596 214.8363,155.1596 214.8363,161.1272 208.8686,161.1272 208.8686,155.1596 214.8363,155.1596 214.8363,149.1919 208.8686,149.1919 208.8686,143.2242 202.901,143.2242 202.901,149.1919 208.8686,149.1919 208.8686,155.1596 202.901,155.1596 202.901,161.1272 196.9333,161.1272 196.9333,155.1596 190.9656,155.1596 190.9656,161.1272 196.9333,161.1272 196.9333,167.0949 190.9656,167.0949 190.9656,173.0626 196.9333,173.0626 196.9333,179.0303 202.901,179.0303 202.901,173.0626 208.8686,173.0626 208.8686,179.0303 202.901,179.0303 202.901,184.9979 196.9333,184.9979 196.9333,179.0303 190.9656,179.0303 190.9656,184.9979 184.9979,184.9979 184.9979,179.0303 190.9656,179.0303 190.9656,173.0626 184.9979,173.0626 184.9979,167.0949 179.0303,167.0949 179.0303,173.0626 173.0626,173.0626 173.0626,167.0949 179.0303,167.0949 179.0303,161.1272 184.9979,161.1272 184.9979,167.0949 190.9656,167.0949 190.9656,161.1272 184.9979,161.1272 184.9979,155.1596 190.9656,155.1596 190.9656,149.1919 184.9979,149.1919 184.9979,143.2242 179.0303,143.2242 179.0303,149.1919 173.0626,149.1919 173.0626,143.2242 179.0303,143.2242 179.0303,137.2565 184.9979,137.2565 184.9979,143.2242 190.9656,143.2242 190.9656,137.2565 196.9333,137.2565 196.9333,143.2242 190.9656,143.2242 190.9656,149.1919 196.9333,149.1919 196.9333,155.1596 202.901,155.1596 202.901,149.1919 196.9333,149.1919 196.9333,143.2242 202.901,143.2242 202.901,137.2565 208.8686,137.2565 208.8686,143.2242 214.8363,143.2242 214.8363,137.2565 208.8686,137.2565 208.8686,131.2889 214.8363,131.2889 214.8363,125.3212 208.8686,125.3212 208.8686,119.3535 202.901,119.3535 202.901,125.3212 208.8686,125.3212 208.8686,131.2889 202.901,131.2889 202.901,137.2565 196.9333,137.2565 196.9333,131.2889 190.9656,131.2889 190.9656,137.2565 184.9979,137.2565 184.9979,131.2889 190.9656,131.2889 190.9656,125.3212 184.9979,125.3212 184.9979,119.3535 179.0303,119.3535 179.0303,125.3212 173.0626,125.3212 173.0626,119.3535 179.0303,119.3535 179.0303,113.3858 184.9979,113.3858 184.9979,119.3535 190.9656,119.3535 190.9656,113.3858 184.9979,113.3858 184.9979,107.4182 190.9656,107.4182 190.9656,101.4505 184.9979,101.4505 184.9979,95.4828 179.0303,95.4828 179.0303,101.4505 184.9979,101.4505 184.9979,107.4182 179.0303,107.4182 179.0303,113.3858 173.0626,113.3858 173.0626,107.4182 167.0949,107.4182 167.0949,113.3858 161.1272,113.3858 161.1272,107.4182 167.0949,107.4182 167.0949,101.4505 161.1272,101.4505 161.1272,95.4828 155.1596,95.4828 155.1596,101.4505 161.1272,101.4505 161.1272,107.4182 155.1596,107.4182 155.1596,113.3858 149.1919,113.3858 149.1919,107.4182 143.2242,107.4182 143.2242,113.3858 149.1919,113.3858 149.1919,119.3535 143.2242,119.3535 143.2242,125.3212 149.1919,125.3212 149.1919,131.2889 155.1596,131.2889 155.1596,125.3212 161.1272,125.3212 161.1272,131.2889 155.1596,131.2889 155.1596,137.2565 149.1919,137.2565 149.1919,131.2889 143.2242,131.2889 143.2242,137.2565 137.2565,137.2565 137.2565,131.2889 143.2242,131.2889 143.2242,125.3212 137.2565,125.3212 137.2565,119.3535 131.2889,119.3535 131.2889,125.3212 125.3212,125.3212 125.3212,119.3535 131.2889,119.3535 131.2889,113.3858 137.2565,113.3858 137.2565,119.3535 143.2242,119.3535 143.2242,113.3858 137.2565,113.3858 137.2565,107.4182 143.2242,107.4182 143.2242,101.4505 137.2565,101.4505 137.2565,95.4828 131.2889,95.4828 131.2889,101.4505 125.3212,101.4505 125.3212,95.4828 131.2889,95.4828 131.2889,89.5151 137.2565,89.5151 137.2565,95.4828 143.2242,95.4828 143.2242,89.5151 149.1919,89.5151 149.1919,95.4828 143.2242,95.4828 143.2242,101.4505 149.1919,101.4505 149.1919,107.4182 155.1596,107.4182 155.1596,101.4505 149.1919,101.4505 149.1919,95.4828 155.1596,95.4828 155.1596,89.5151 161.1272,89.5151 161.1272,95.4828 167.0949,95.4828 167.0949,89.5151 161.1272,89.5151 161.1272,83.5475 167.0949,83.5475 167.0949,77.5798 161.1272,77.5798 161.1272,71.6121 155.1596,71.6121 155.1596,77.5798 149.1919,77.5798 149.1919,71.6121 155.1596,71.6121 155.1596,65.6444 161.1272,65.6444 161.1272,71.6121 167.0949,71.6121 167.0949,65.6444 173.0626,65.6444 173.0626,71.6121 167.0949,71.6121 167.0949,77.5798 173.0626,77.5798 173.0626,83.5475 179.0303,83.5475 179.0303,77.5798 184.9979,77.5798 184.9979,83.5475 179.0303,83.5475 179.0303,89.5151 173.0626,89.5151 173.0626,83.5475 167.0949,83.5475 167.0949,89.5151 173.0626,89.5151 173.0626,95.4828 167.0949,95.4828 167.0949,101.4505 173.0626,101.4505 173.0626,107.4182 179.0303,107.4182 179.0303,101.4505 173.0626,101.4505 173.0626,95.4828 179.0303,95.4828 179.0303,89.5151 184.9979,89.5151 184.9979,95.4828 190.9656,95.4828 190.9656,89.5151 196.9333,89.5151 196.9333,95.4828 190.9656,95.4828 190.9656,101.4505 196.9333,101.4505 196.9333,107.4182 202.901,107.4182 202.901,101.4505 196.9333,101.4505 196.9333,95.4828 202.901,95.4828 202.901,89.5151 208.8686,89.5151 208.8686,95.4828 214.8363,95.4828 214.8363,89.5151 208.8686,89.5151 208.8686,83.5475 214.8363,83.5475 214.8363,77.5798 208.8686,77.5798 208.8686,71.6121 202.901,71.6121 202.901,77.5798 208.8686,77.5798 208.8686,83.5475 202.901,83.5475 202.901,89.5151 196.9333,89.5151 196.9333,83.5475 190.9656,83.5475 190.9656,89.5151 184.9979,89.5151 184.9979,83.5475 190.9656,83.5475 190.9656,77.5798 184.9979,77.5798 184.9979,71.6121 179.0303,71.6121 179.0303,77.5798 173.0626,77.5798 173.0626,71.6121 179.0303,71.6121 179.0303,65.6444 184.9979,65.6444 184.9979,71.6121 190.9656,71.6121 190.9656,65.6444 184.9979,65.6444 184.9979,59.6768 190.9656,59.6768 190.9656,53.7091 184.9979,53.7091 184.9979,47.7414 179.0303,47.7414 179.0303,53.7091 173.0626,53.7091 173.0626,47.7414 179.0303,47.7414 179.0303,41.7737 184.9979,41.7737 184.9979,47.7414 190.9656,47.7414 190.9656,41.7737 196.9333,41.7737 196.9333,47.7414 190.9656,47.7414 190.9656,53.7091 196.9333,53.7091 196.9333,59.6768 202.901,59.6768 202.901,53.7091 196.9333,53.7091 196.9333,47.7414 202.901,47.7414 202.901,41.7737 208.8686,41.7737 208.8686,47.7414 214.8363,47.7414 214.8363,41.7737 208.8686,41.7737 208.8686,35.8061 214.8363,35.8061 214.8363,29.8384 208.8686,29.8384 208.8686,23.8707 202.901,23.8707 202.901,29.8384 208.8686,29.8384 208.8686,35.8061 202.901,35.8061 202.901,41.7737 196.9333,41.7737 196.9333,35.8061 190.9656,35.8061 190.9656,41.7737 184.9979,41.7737 184.9979,35.8061 190.9656,35.8061 190.9656,29.8384 184.9979,29.8384 184.9979,23.8707 179.0303,23.8707 179.0303,29.8384 173.0626,29.8384 173.0626,23.8707 179.0303,23.8707 179.0303,17.903 184.9979,17.903 184.9979,23.8707 190.9656,23.8707 190.9656,17.903 184.9979,17.903 184.9979,11.9354 190.9656,11.9354 190.9656,5.9677 184.9979,5.9677 184.9979,0.0 179.0303,0.0 179.0303,5.9677 184.9979,5.9677 184.9979,11.9354 179.0303,11.9354 179.0303,17.903 173.0626,17.903 173.0626,11.9354 167.0949,11.9354 167.0949,17.903 161.1272,17.903 161.1272,11.9354 167.0949,11.9354 167.0949,5.9677 161.1272,5.9677 161.1272,0.0 155.1596,0.0 155.1596,5.9677 161.1272,5.9677 161.1272,11.9354 155.1596,11.9354 155.1596,17.903 149.1919,17.903 149.1919,11.9354 143.2242,11.9354 143.2242,17.903 149.1919,17.903 149.1919,23.8707 143.2242,23.8707 143.2242,29.8384 149.1919,29.8384 149.1919,35.8061 155.1596,35.8061 155.1596,29.8384 149.1919,29.8384 149.1919,23.8707 155.1596,23.8707 155.1596,17.903 161.1272,17.903 161.1272,23.8707 167.0949,23.8707 167.0949,17.903 173.0626,17.903 173.0626,23.8707 167.0949,23.8707 167.0949,29.8384 173.0626,29.8384 173.0626,35.8061 179.0303,35.8061 179.0303,29.8384 184.9979,29.8384 184.9979,35.8061 179.0303,35.8061 179.0303,41.7737 173.0626,41.7737 173.0626,35.8061 167.0949,35.8061 167.0949,41.7737 173.0626,41.7737 173.0626,47.7414 167.0949,47.7414 167.0949,53.7091 173.0626,53.7091 173.0626,59.6768 179.0303,59.6768 179.0303,53.7091 184.9979,53.7091 184.9979,59.6768 179.0303,59.6768 179.0303,65.6444 173.0626,65.6444 173.0626,59.6768 167.0949,59.6768 167.0949,65.6444 161.1272,65.6444 161.1272,59.6768 167.0949,59.6768 167.0949,53.7091 161.1272,53.7091 161.1272,47.7414 155.1596,47.7414 155.1596,53.7091 161.1272,53.7091 161.1272,59.6768 155.1596,59.6768 155.1596,65.6444 149.1919,65.6444 149.1919,59.6768 143.2242,59.6768 143.2242,65.6444 149.1919,65.6444 149.1919,71.6121 143.2242,71.6121 143.2242,77.5798 149.1919,77.5798 149.1919,83.5475 155.1596,83.5475 155.1596,77.5798 161.1272,77.5798 161.1272,83.5475 155.1596,83.5475 155.1596,89.5151 149.1919,89.5151 149.1919,83.5475 143.2242,83.5475 143.2242,89.5151 137.2565,89.5151 137.2565,83.5475 143.2242,83.5475 143.2242,77.5798 137.2565,77.5798 137.2565,71.6121 131.2889,71.6121 131.2889,77.5798 125.3212,77.5798 125.3212,71.6121 131.2889,71.6121 131.2889,65.6444 137.2565,65.6444 137.2565,71.6121 143.2242,71.6121 143.2242,65.6444 137.2565,65.6444 137.2565,59.6768 143.2242,59.6768 143.2242,53.7091 137.2565,53.7091 137.2565,47.7414 131.2889,47.7414 131.2889,53.7091 137.2565,53.7091 137.2565,59.6768 131.2889,59.6768 131.2889,65.6444 125.3212,65.6444 125.3212,59.6768 119.3535,59.6768 119.3535,65.6444 113.3858,65.6444 113.3858,59.6768 119.3535,59.6768 119.3535,53.7091 113.3858,53.7091 113.3858,47.7414 107.4182,47.7414 107.4182,53.7091 113.3858,53.7091 113.3858,59.6768 107.4182,59.6768 107.4182,65.6444 101.4505,65.6444 101.4505,59.6768 95.4828,59.6768 95.4828,65.6444 101.4505,65.6444 101.4505,71.6121 95.4828,71.6121 95.4828,77.5798 101.4505,77.5798 101.4505,83.5475 107.4182,83.5475 107.4182,77.5798 113.3858,77.5798 113.3858,83.5475 107.4182,83.5475 107.4182,89.5151 101.4505,89.5151 101.4505,83.5475 95.4828,83.5475 95.4828,89.5151 89.5151,89.5151 89.5151,83.5475 95.4828,83.5475 95.4828,77.5798 89.5151,77.5798 89.5151,71.6121 83.5475,71.6121 83.5475,77.5798 77.5798,77.5798 77.5798,71.6121 83.5475,71.6121 83.5475,65.6444 89.5151,65.6444 89.5151,71.6121 95.4828,71.6121 95.4828,65.6444 89.5151,65.6444 89.5151,59.6768 95.4828,59.6768 95.4828,53.7091 89.5151,53.7091 89.5151,47.7414 83.5475,47.7414 83.5475,53.7091 77.5798,53.7091 77.5798,47.7414 83.5475,47.7414 83.5475,41.7737 89.5151,41.7737 89.5151,47.7414 95.4828,47.7414 95.4828,41.7737 101.4505,41.7737 101.4505,47.7414 95.4828,47.7414 95.4828,53.7091 101.4505,53.7091 101.4505,59.6768 107.4182,59.6768 107.4182,53.7091 101.4505,53.7091 101.4505,47.7414 107.4182,47.7414 107.4182,41.7737 113.3858,41.7737 113.3858,47.7414 119.3535,47.7414 119.3535,41.7737 113.3858,41.7737 113.3858,35.8061 119.3535,35.8061 119.3535,29.8384 113.3858,29.8384 113.3858,23.8707 107.4182,23.8707 107.4182,29.8384 113.3858,29.8384 113.3858,35.8061 107.4182,35.8061 107.4182,41.7737 101.4505,41.7737 101.4505,35.8061 95.4828,35.8061 95.4828,41.7737 89.5151,41.7737 89.5151,35.8061 95.4828,35.8061 95.4828,29.8384 89.5151,29.8384 89.5151,23.8707 83.5475,23.8707 83.5475,29.8384 77.5798,29.8384 77.5798,23.8707 83.5475,23.8707 83.5475,17.903 89.5151,17.903 89.5151,23.8707 95.4828,23.8707 95.4828,17.903 89.5151,17.903 89.5151,11.9354 95.4828,11.9354 95.4828,5.9677 89.5151,5.9677 89.5151,0.0 83.5475,0.0 83.5475,5.9677 89.5151,5.9677 89.5151,11.9354 83.5475,11.9354 83.5475,17.903 77.5798,17.903 77.5798,11.9354 71.6121,11.9354 71.6121,17.903 65.6444,17.903 65.6444,11.9354 71.6121,11.9354 71.6121,5.9677 65.6444,5.9677 65.6444,0.0 59.6768,0.0 59.6768,5.9677 65.6444,5.9677 65.6444,11.9354 59.6768,11.9354 59.6768,17.903 53.7091,17.903 53.7091,11.9354 47.7414,11.9354 47.7414,17.903 53.7091,17.903 53.7091,23.8707 47.7414,23.8707 47.7414,29.8384 53.7091,29.8384 53.7091,35.8061 59.6768,35.8061 59.6768,29.8384 53.7091,29.8384 53.7091,23.8707 59.6768,23.8707 59.6768,17.903 65.6444,17.903 65.6444,23.8707 71.6121,23.8707 71.6121,17.903 77.5798,17.903 77.5798,23.8707 71.6121,23.8707 71.6121,29.8384 77.5798,29.8384 77.5798,35.8061 83.5475,35.8061 83.5475,29.8384 89.5151,29.8384 89.5151,35.8061 83.5475,35.8061 83.5475,41.7737 77.5798,41.7737 77.5798,35.8061 71.6121,35.8061 71.6121,41.7737 77.5798,41.7737 77.5798,47.7414 71.6121,47.7414 71.6121,53.7091 77.5798,53.7091 77.5798,59.6768 83.5475,59.6768 83.5475,53.7091 89.5151,53.7091 89.5151,59.6768 83.5475,59.6768 83.5475,65.6444 77.5798,65.6444 77.5798,59.6768 71.6121,59.6768 71.6121,65.6444 65.6444,65.6444 65.6444,59.6768 71.6121,59.6768 71.6121,53.7091 65.6444,53.7091 65.6444,47.7414 59.6768,47.7414 59.6768,53.7091 65.6444,53.7091 65.6444,59.6768 59.6768,59.6768 59.6768,65.6444 53.7091,65.6444 53.7091,59.6768 47.7414,59.6768 47.7414,65.6444 53.7091,65.6444 53.7091,71.6121 47.7414,71.6121 47.7414,77.5798 53.7091,77.5798 53.7091,83.5475 59.6768,83.5475 59.6768,77.5798 65.6444,77.5798 65.6444,83.5475 59.6768,83.5475 59.6768,89.5151 53.7091,89.5151 53.7091,83.5475 47.7414,83.5475 47.7414,89.5151 41.7737,89.5151 41.7737,83.5475 47.7414,83.5475 47.7414,77.5798 41.7737,77.5798 41.7737,71.6121 35.8061,71.6121 35.8061,77.5798 29.8384,77.5798 29.8384,71.6121 35.8061,71.6121 35.8061,65.6444 41.7737,65.6444 41.7737,71.6121 47.7414,71.6121 47.7414,65.6444 41.7737,65.6444 41.7737,59.6768 47.7414,59.6768 47.7414,53.7091 41.7737,53.7091 41.7737,47.7414 35.8061,47.7414 35.8061,53.7091 41.7737,53.7091 41.7737,59.6768 35.8061,59.6768 35.8061,65.6444 29.8384,65.6444 29.8384,59.6768 23.8707,59.6768 23.8707,65.6444 17.903,65.6444 17.903,59.6768 23.8707,59.6768 23.8707,53.7091 17.903,53.7091 17.903,47.7414 11.9354,47.7414 11.9354,53.7091 17.903,53.7091 17.903,59.6768 11.9354,59.6768 11.9354,65.6444 5.9677,65.6444 5.9677,59.6768 0.0,59.6768 0.0,65.6444 5.9677,65.6444 5.9677,71.6121 0.0,71.6121 0.0,77.5798 5.9677,77.5798 5.9677,83.5475 11.9354,83.5475 11.9354,77.5798 5.9677,77.5798 5.9677,71.6121 11.9354,71.6121 11.9354,65.6444 17.903,65.6444 17.903,71.6121 23.8707,71.6121 23.8707,65.6444 29.8384,65.6444 29.8384,71.6121 23.8707,71.6121 23.8707,77.5798 29.8384,77.5798 29.8384,83.5475 35.8061,83.5475 35.8061,77.5798 41.7737,77.5798 41.7737,83.5475 35.8061,83.5475 35.8061,89.5151 29.8384,89.5151 29.8384,83.5475 23.8707,83.5475 23.8707,89.5151 29.8384,89.5151 29.8384,95.4828 23.8707,95.4828 23.8707,101.4505 29.8384,101.4505 29.8384,107.4182 35.8061,107.4182 35.8061,101.4505 41.7737,101.4505 41.7737,107.4182 35.8061,107.4182 35.8061,113.3858 29.8384,113.3858 29.8384,107.4182 23.8707,107.4182 23.8707,113.3858 17.903,113.3858 17.903,107.4182 23.8707,107.4182 23.8707,101.4505 17.903,101.4505 17.903,95.4828 11.9354,95.4828 11.9354,101.4505 17.903,101.4505 17.903,107.4182 11.9354,107.4182 11.9354,113.3858 5.9677,113.3858 5.9677,107.4182 0.0,107.4182 0.0,113.3858 5.9677,113.3858 5.9677,119.3535 0.0,119.3535 0.0,125.3212 5.9677,125.3212 5.9677,131.2889 11.9354,131.2889 11.9354,125.3212 5.9677,125.3212 5.9677,119.3535 11.9354,119.3535 11.9354,113.3858 17.903,113.3858 17.903,119.3535 23.8707,119.3535 23.8707,113.3858 29.8384,113.3858 29.8384,119.3535 23.8707,119.3535 23.8707,125.3212 29.8384,125.3212 29.8384,131.2889 35.8061,131.2889 35.8061,125.3212 41.7737,125.3212 41.7737,131.2889 35.8061,131.2889 35.8061,137.2565 29.8384,137.2565 29.8384,131.2889 23.8707,131.2889 23.8707,137.2565 29.8384,137.2565 29.8384,143.2242 23.8707,143.2242 23.8707,149.1919 29.8384,149.1919 29.8384,155.1596 35.8061,155.1596 35.8061,149.1919 29.8384,149.1919 29.8384,143.2242 35.8061,143.2242 35.8061,137.2565 41.7737,137.2565 41.7737,143.2242 47.7414,143.2242 47.7414,137.2565 53.7091,137.2565 53.7091,143.2242 47.7414,143.2242 47.7414,149.1919 53.7091,149.1919 53.7091,155.1596 59.6768,155.1596 59.6768,149.1919 53.7091,149.1919 53.7091,143.2242 59.6768,143.2242 59.6768,137.2565 65.6444,137.2565 65.6444,143.2242 71.6121,143.2242 71.6121,137.2565 65.6444,137.2565 65.6444,131.2889 71.6121,131.2889 71.6121,125.3212 65.6444,125.3212 65.6444,119.3535 59.6768,119.3535 59.6768,125.3212"/>
  </g>
</svg>
