<?xml version="1.0" encoding="utf-8" ?>
<svg xmlns="http://www.w3.org/2000/svg" xmlns:cc="http://creativecommons.org/ns" xmlns:dc="http://purl.org/dc/elements/1.1/" xmlns:ev="http://www.w3.org/2001/xml-events" xmlns:inkscape="http://www.inkscape.org/namespaces/inkscape" xmlns:rdf="http://www.w3.org/1999/02/22-rdf-syntax-ns" xmlns:sodipodi="http://sodipodi.sourceforge.net/DTD/sodipodi-0.dtd" xmlns:xlink="http://www.w3.org/1999/xlink" baseProfile="tiny" height="14.12988817cm" version="1.2" viewBox="0 0 566.9291338582677 534.043017335785" width="15.0cm">
  <metadata>
    <rdf:RDF>
      <cc:Work>
        <dc:format>image/svg+xml</dc:format>
        <dc:source>vpype gosper -d 4 -s 150mm color '#f4a261' write gosper.svg
</dc:source>
        <dc:date>2026-04-03T00:17:41.057669</dc:date>
      </cc:Work>
    </rdf:RDF>
  </metadata>
  <defs/>
  <g fill="none" id="layer1" inkscape:groupmode="layer" inkscape:label="1" stroke="#f4a261" style="display:inline">
    <polyline points="363.0336,534.043 372.9797,534.043 377.9528,525.4294 368.0066,525.4294 363.0336,516.8158 372.9797,516.8158 382.9258,516.8158 387.8989,525.4294 397.845,525.4294 402.8181,516.8158 407.7911,508.2022 397.845,508.2022 392.8719,516.8158 387.8989,508.2022 392.8719,499.5886 387.8989,490.975 377.9528,490.975 368.0066,490.975 372.9797,499.5886 382.9258,499.5886 377.9528,508.2022 368.0066,508.2022 363.0336,499.5886 353.0874,499.5886 358.0605,508.2022 353.0874,516.8158 348.1144,508.2022 343.1413,499.5886 348.1144,490.975 358.0605,490.975 363.0336,482.3614 353.0874,482.3614 348.1144,473.7478 358.0605,473.7478 368.0066,473.7478 372.9797,482.3614 382.9258,482.3614 387.8989,473.7478 377.9528,473.7478 372.9797,465.1342 382.9258,465.1342 392.8719,465.1342 397.845,473.7478 392.8719,482.3614 397.845,490.975 402.8181,499.5886 407.7911,490.975 402.8181,482.3614 412.7642,482.3614 417.7373,490.975 427.6834,490.975 432.6564,482.3614 422.7103,482.3614 417.7373,473.7478 427.6834,473.7478 437.6295,473.7478 442.6026,482.3614 452.5487,482.3614 457.5218,473.7478 462.4948,465.1342 452.5487,465.1342 447.5756,473.7478 442.6026,465.1342 447.5756,456.5206 457.5218,456.5206 462.4948,447.907 467.4679,439.2934 457.5218,439.2934 452.5487,447.907 447.5756,439.2934 452.5487,430.6799 447.5756,422.0663 437.6295,422.0663 427.6834,422.0663 432.6564,430.6799 442.6026,430.6799 437.6295,439.2934 427.6834,439.2934 422.7103,447.907 427.6834,456.5206 432.6564,447.907 442.6026,447.907 437.6295,456.5206 432.6564,465.1342 422.7103,465.1342 417.7373,456.5206 407.7911,456.5206 412.7642,465.1342 407.7911,473.7478 402.8181,465.1342 397.845,456.5206 402.8181,447.907 412.7642,447.907 417.7373,439.2934 422.7103,430.6799 412.7642,430.6799 407.7911,439.2934 402.8181,430.6799 407.7911,422.0663 402.8181,413.4527 392.8719,413.4527 397.845,422.0663 392.8719,430.6799 387.8989,422.0663 382.9258,413.4527 387.8989,404.8391 382.9258,396.2255 372.9797,396.2255 363.0336,396.2255 368.0066,404.8391 377.9528,404.8391 372.9797,413.4527 363.0336,413.4527 358.0605,404.8391 348.1144,404.8391 338.1683,404.8391 343.1413,413.4527 353.0874,413.4527 348.1144,422.0663 338.1683,422.0663 333.1952,430.6799 338.1683,439.2934 343.1413,447.907 348.1144,439.2934 343.1413,430.6799 353.0874,430.6799 358.0605,439.2934 368.0066,439.2934 372.9797,430.6799 363.0336,430.6799 358.0605,422.0663 368.0066,422.0663 377.9528,422.0663 382.9258,430.6799 377.9528,439.2934 382.9258,447.907 387.8989,439.2934 397.845,439.2934 392.8719,447.907 387.8989,456.5206 377.9528,456.5206 372.9797,447.907 363.0336,447.907 353.0874,447.907 358.0605,456.5206 368.0066,456.5206 363.0336,465.1342 353.0874,465.1342 348.1144,456.5206 338.1683,456.5206 343.1413,465.1342 338.1683,473.7478 333.1952,465.1342 328.2221,456.5206 333.1952,447.907 328.2221,439.2934 318.276,439.2934 308.3299,439.2934 313.3029,447.907 323.2491,447.907 318.276,456.5206 308.3299,456.5206 303.3568,465.1342 308.3299,473.7478 313.3029,482.3614 318.276,473.7478 313.3029,465.1342 323.2491,465.1342 328.2221,473.7478 323.2491,482.3614 328.2221,490.975 333.1952,482.3614 343.1413,482.3614 338.1683,490.975 333.1952,499.5886 323.2491,499.5886 318.276,490.975 308.3299,490.975 313.3029,499.5886 308.3299,508.2022 303.3568,499.5886 298.3838,490.975 303.3568,482.3614 298.3838,473.7478 288.4376,473.7478 293.4107,482.3614 288.4376,490.975 283.4646,482.3614 278.4915,473.7478 283.4646,465.1342 293.4107,465.1342 298.3838,456.5206 303.3568,447.907 293.4107,447.907 288.4376,456.5206 283.4646,447.907 288.4376,439.2934 298.3838,439.2934 303.3568,430.6799 293.4107,430.6799 288.4376,422.0663 298.3838,422.0663 308.3299,422.0663 313.3029,430.6799 323.2491,430.6799 328.2221,422.0663 333.1952,413.4527 323.2491,413.4527 318.276,422.0663 313.3029,413.4527 318.276,404.8391 313.3029,396.2255 303.3568,396.2255 293.4107,396.2255 298.3838,404.8391 308.3299,404.8391 303.3568,413.4527 293.4107,413.4527 288.4376,404.8391 278.4915,404.8391 283.4646,413.4527 278.4915,422.0663 273.5184,413.4527 268.5454,404.8391 273.5184,396.2255 283.4646,396.2255 288.4376,387.6119 278.4915,387.6119 273.5184,378.9983 283.4646,378.9983 293.4107,378.9983 298.3838,387.6119 308.3299,387.6119 313.3029,378.9983 303.3568,378.9983 298.3838,370.3847 308.3299,370.3847 318.276,370.3847 323.2491,378.9983 318.276,387.6119 323.2491,396.2255 328.2221,404.8391 333.1952,396.2255 328.2221,387.6119 338.1683,387.6119 343.1413,396.2255 353.0874,396.2255 358.0605,387.6119 348.1144,387.6119 343.1413,378.9983 353.0874,378.9983 363.0336,378.9983 368.0066,387.6119 377.9528,387.6119 382.9258,378.9983 387.8989,370.3847 377.9528,370.3847 372.9797,378.9983 368.0066,370.3847 372.9797,361.7711 368.0066,353.1575 358.0605,353.1575 348.1144,353.1575 353.0874,361.7711 363.0336,361.7711 358.0605,370.3847 348.1144,370.3847 343.1413,361.7711 333.1952,361.7711 338.1683,370.3847 333.1952,378.9983 328.2221,370.3847 323.2491,361.7711 328.2221,353.1575 338.1683,353.1575 343.1413,344.5439 333.1952,344.5439 328.2221,335.9303 338.1683,335.9303 348.1144,335.9303 353.0874,344.5439 363.0336,344.5439 368.0066,335.9303 358.0605,335.9303 353.0874,327.3167 363.0336,327.3167 372.9797,327.3167 377.9528,335.9303 372.9797,344.5439 377.9528,353.1575 382.9258,361.7711 387.8989,353.1575 382.9258,344.5439 392.8719,344.5439 397.845,353.1575 392.8719,361.7711 397.845,370.3847 402.8181,361.7711 412.7642,361.7711 407.7911,370.3847 402.8181,378.9983 392.8719,378.9983 387.8989,387.6119 392.8719,396.2255 397.845,404.8391 402.8181,396.2255 397.845,387.6119 407.7911,387.6119 412.7642,396.2255 407.7911,404.8391 412.7642,413.4527 417.7373,422.0663 422.7103,413.4527 417.7373,404.8391 427.6834,404.8391 432.6564,413.4527 442.6026,413.4527 447.5756,404.8391 452.5487,396.2255 442.6026,396.2255 437.6295,404.8391 432.6564,396.2255 437.6295,387.6119 432.6564,378.9983 422.7103,378.9983 427.6834,387.6119 422.7103,396.2255 417.7373,387.6119 412.7642,378.9983 417.7373,370.3847 427.6834,370.3847 432.6564,361.7711 422.7103,361.7711 417.7373,353.1575 427.6834,353.1575 437.6295,353.1575 442.6026,361.7711 437.6295,370.3847 442.6026,378.9983 447.5756,387.6119 452.5487,378.9983 447.5756,370.3847 457.5218,370.3847 462.4948,378.9983 472.4409,378.9983 477.414,370.3847 467.4679,370.3847 462.4948,361.7711 472.4409,361.7711 482.3871,361.7711 487.3601,370.3847 497.3063,370.3847 502.2793,361.7711 507.2524,353.1575 497.3063,353.1575 492.3332,361.7711 487.3601,353.1575 492.3332,344.5439 487.3601,335.9303 477.414,335.9303 467.4679,335.9303 472.4409,344.5439 482.3871,344.5439 477.414,353.1575 467.4679,353.1575 462.4948,344.5439 452.5487,344.5439 457.5218,353.1575 452.5487,361.7711 447.5756,353.1575 442.6026,344.5439 447.5756,335.9303 457.5218,335.9303 462.4948,327.3167 452.5487,327.3167 447.5756,318.7031 457.5218,318.7031 467.4679,318.7031 472.4409,327.3167 482.3871,327.3167 487.3601,318.7031 477.414,318.7031 472.4409,310.0895 482.3871,310.0895 492.3332,310.0895 497.3063,318.7031 492.3332,327.3167 497.3063,335.9303 502.2793,344.5439 507.2524,335.9303 502.2793,327.3167 512.2254,327.3167 517.1985,335.9303 527.1446,335.9303 532.1177,327.3167 522.1716,327.3167 517.1985,318.7031 527.1446,318.7031 537.0908,318.7031 542.0638,327.3167 552.0099,327.3167 556.983,318.7031 561.9561,310.0895 552.0099,310.0895 547.0369,318.7031 542.0638,310.0895 547.0369,301.4759 556.983,301.4759 561.9561,292.8623 566.9291,284.2487 556.983,284.2487 552.0099,292.8623 547.0369,284.2487 552.0099,275.6351 547.0369,267.0215 537.0908,267.0215 527.1446,267.0215 532.1177,275.6351 542.0638,275.6351 537.0908,284.2487 527.1446,284.2487 522.1716,292.8623 527.1446,301.4759 532.1177,292.8623 542.0638,292.8623 537.0908,301.4759 532.1177,310.0895 522.1716,310.0895 517.1985,301.4759 507.2524,301.4759 512.2254,310.0895 507.2524,318.7031 502.2793,310.0895 497.3063,301.4759 502.2793,292.8623 512.2254,292.8623 517.1985,284.2487 522.1716,275.6351 512.2254,275.6351 507.2524,284.2487 502.2793,275.6351 507.2524,267.0215 517.1985,267.0215 522.1716,258.4079 512.2254,258.4079 507.2524,249.7943 517.1985,249.7943 527.1446,249.7943 532.1177,258.4079 542.0638,258.4079 547.0369,249.7943 552.0099,241.1807 542.0638,241.1807 537.0908,249.7943 532.1177,241.1807 537.0908,232.5671 547.0369,232.5671 552.0099,223.9535 556.983,215.3399 547.0369,215.3399 542.0638,223.9535 537.0908,215.3399 542.0638,206.7263 537.0908,198.1127 527.1446,198.1127 517.1985,198.1127 522.1716,206.7263 532.1177,206.7263 527.1446,215.3399 517.1985,215.3399 512.2254,223.9535 517.1985,232.5671 522.1716,223.9535 532.1177,223.9535 527.1446,232.5671 522.1716,241.1807 512.2254,241.1807 507.2524,232.5671 497.3063,232.5671 502.2793,241.1807 497.3063,249.7943 492.3332,241.1807 487.3601,232.5671 492.3332,223.9535 502.2793,223.9535 507.2524,215.3399 512.2254,206.7263 502.2793,206.7263 497.3063,215.3399 492.3332,206.7263 497.3063,198.1127 492.3332,189.4991 482.3871,189.4991 487.3601,198.1127 482.3871,206.7263 477.414,198.1127 472.4409,189.4991 477.414,180.8855 472.4409,172.2719 462.4948,172.2719 452.5487,172.2719 457.5218,180.8855 467.4679,180.8855 462.4948,189.4991 452.5487,189.4991 447.5756,180.8855 437.6295,180.8855 427.6834,180.8855 432.6564,189.4991 442.6026,189.4991 437.6295,198.1127 427.6834,198.1127 422.7103,206.7263 427.6834,215.3399 432.6564,223.9535 437.6295,215.3399 432.6564,206.7263 442.6026,206.7263 447.5756,215.3399 457.5218,215.3399 462.4948,206.7263 452.5487,206.7263 447.5756,198.1127 457.5218,198.1127 467.4679,198.1127 472.4409,206.7263 467.4679,215.3399 472.4409,223.9535 477.414,215.3399 487.3601,215.3399 482.3871,223.9535 477.414,232.5671 467.4679,232.5671 462.4948,223.9535 452.5487,223.9535 442.6026,223.9535 447.5756,232.5671 457.5218,232.5671 452.5487,241.1807 442.6026,241.1807 437.6295,249.7943 442.6026,258.4079 447.5756,249.7943 457.5218,249.7943 452.5487,258.4079 447.5756,267.0215 437.6295,267.0215 432.6564,275.6351 437.6295,284.2487 442.6026,292.8623 447.5756,284.2487 442.6026,275.6351 452.5487,275.6351 457.5218,284.2487 467.4679,284.2487 472.4409,275.6351 477.414,267.0215 467.4679,267.0215 462.4948,275.6351 457.5218,267.0215 462.4948,258.4079 472.4409,258.4079 477.414,249.7943 467.4679,249.7943 462.4948,241.1807 472.4409,241.1807 482.3871,241.1807 487.3601,249.7943 482.3871,258.4079 487.3601,267.0215 492.3332,258.4079 502.2793,258.4079 497.3063,267.0215 492.3332,275.6351 482.3871,275.6351 477.414,284.2487 482.3871,292.8623 487.3601,284.2487 497.3063,284.2487 492.3332,292.8623 487.3601,301.4759 477.414,301.4759 472.4409,292.8623 462.4948,292.8623 452.5487,292.8623 457.5218,301.4759 467.4679,301.4759 462.4948,310.0895 452.5487,310.0895 447.5756,301.4759 437.6295,301.4759 442.6026,310.0895 437.6295,318.7031 432.6564,310.0895 427.6834,301.4759 432.6564,292.8623 427.6834,284.2487 417.7373,284.2487 407.7911,284.2487 412.7642,292.8623 422.7103,292.8623 417.7373,301.4759 407.7911,301.4759 402.8181,310.0895 407.7911,318.7031 412.7642,327.3167 417.7373,318.7031 412.7642,310.0895 422.7103,310.0895 427.6834,318.7031 422.7103,327.3167 427.6834,335.9303 432.6564,327.3167 442.6026,327.3167 437.6295,335.9303 432.6564,344.5439 422.7103,344.5439 417.7373,335.9303 407.7911,335.9303 412.7642,344.5439 407.7911,353.1575 402.8181,344.5439 397.845,335.9303 402.8181,327.3167 397.845,318.7031 387.8989,318.7031 392.8719,327.3167 387.8989,335.9303 382.9258,327.3167 377.9528,318.7031 382.9258,310.0895 392.8719,310.0895 397.845,301.4759 402.8181,292.8623 392.8719,292.8623 387.8989,301.4759 382.9258,292.8623 387.8989,284.2487 397.845,284.2487 402.8181,275.6351 392.8719,275.6351 387.8989,267.0215 397.845,267.0215 407.7911,267.0215 412.7642,275.6351 422.7103,275.6351 427.6834,267.0215 432.6564,258.4079 422.7103,258.4079 417.7373,267.0215 412.7642,258.4079 417.7373,249.7943 427.6834,249.7943 432.6564,241.1807 437.6295,232.5671 427.6834,232.5671 422.7103,241.1807 417.7373,232.5671 422.7103,223.9535 417.7373,215.3399 407.7911,215.3399 397.845,215.3399 402.8181,223.9535 412.7642,223.9535 407.7911,232.5671 397.845,232.5671 392.8719,241.1807 397.845,249.7943 402.8181,241.1807 412.7642,241.1807 407.7911,249.7943 402.8181,258.4079 392.8719,258.4079 387.8989,249.7943 377.9528,249.7943 382.9258,258.4079 377.9528,267.0215 372.9797,258.4079 368.0066,249.7943 372.9797,241.1807 382.9258,241.1807 387.8989,232.5671 392.8719,223.9535 382.9258,223.9535 377.9528,232.5671 372.9797,223.9535 377.9528,215.3399 372.9797,206.7263 363.0336,206.7263 368.0066,215.3399 363.0336,223.9535 358.0605,215.3399 353.0874,206.7263 358.0605,198.1127 353.0874,189.4991 343.1413,189.4991 333.1952,189.4991 338.1683,198.1127 348.1144,198.1127 343.1413,206.7263 333.1952,206.7263 328.2221,215.3399 333.1952,223.9535 338.1683,232.5671 343.1413,223.9535 338.1683,215.3399 348.1144,215.3399 353.0874,223.9535 348.1144,232.5671 353.0874,241.1807 358.0605,232.5671 368.0066,232.5671 363.0336,241.1807 358.0605,249.7943 348.1144,249.7943 343.1413,241.1807 333.1952,241.1807 338.1683,249.7943 333.1952,258.4079 328.2221,249.7943 323.2491,241.1807 328.2221,232.5671 323.2491,223.9535 313.3029,223.9535 318.276,232.5671 313.3029,241.1807 308.3299,232.5671 303.3568,223.9535 308.3299,215.3399 318.276,215.3399 323.2491,206.7263 328.2221,198.1127 318.276,198.1127 313.3029,206.7263 308.3299,198.1127 313.3029,189.4991 308.3299,180.8855 298.3838,180.8855 303.3568,189.4991 298.3838,198.1127 293.4107,189.4991 288.4376,180.8855 293.4107,172.2719 288.4376,163.6583 278.4915,163.6583 268.5454,163.6583 273.5184,172.2719 283.4646,172.2719 278.4915,180.8855 268.5454,180.8855 263.5723,172.2719 253.6262,172.2719 243.6801,172.2719 248.6531,180.8855 258.5993,180.8855 253.6262,189.4991 243.6801,189.4991 238.707,198.1127 243.6801,206.7263 248.6531,215.3399 253.6262,206.7263 248.6531,198.1127 258.5993,198.1127 263.5723,206.7263 273.5184,206.7263 278.4915,198.1127 268.5454,198.1127 263.5723,189.4991 273.5184,189.4991 283.4646,189.4991 288.4376,198.1127 283.4646,206.7263 288.4376,215.3399 293.4107,206.7263 303.3568,206.7263 298.3838,215.3399 293.4107,223.9535 283.4646,223.9535 278.4915,215.3399 268.5454,215.3399 258.5993,215.3399 263.5723,223.9535 273.5184,223.9535 268.5454,232.5671 258.5993,232.5671 253.6262,223.9535 243.6801,223.9535 248.6531,232.5671 243.6801,241.1807 238.707,232.5671 233.7339,223.9535 238.707,215.3399 233.7339,206.7263 223.7878,206.7263 213.8417,206.7263 218.8148,215.3399 228.7609,215.3399 223.7878,223.9535 213.8417,223.9535 208.8686,215.3399 198.9225,215.3399 188.9764,215.3399 193.9494,223.9535 203.8956,223.9535 198.9225,232.5671 188.9764,232.5671 184.0033,241.1807 188.9764,249.7943 193.9494,258.4079 198.9225,249.7943 193.9494,241.1807 203.8956,241.1807 208.8686,249.7943 218.8148,249.7943 223.7878,241.1807 213.8417,241.1807 208.8686,232.5671 218.8148,232.5671 228.7609,232.5671 233.7339,241.1807 228.7609,249.7943 233.7339,258.4079 238.707,249.7943 248.6531,249.7943 243.6801,258.4079 238.707,267.0215 228.7609,267.0215 223.7878,258.4079 213.8417,258.4079 203.8956,258.4079 208.8686,267.0215 218.8148,267.0215 213.8417,275.6351 203.8956,275.6351 198.9225,284.2487 203.8956,292.8623 208.8686,284.2487 218.8148,284.2487 213.8417,292.8623 208.8686,301.4759 198.9225,301.4759 193.9494,310.0895 198.9225,318.7031 203.8956,327.3167 208.8686,318.7031 203.8956,310.0895 213.8417,310.0895 218.8148,318.7031 213.8417,327.3167 218.8148,335.9303 223.7878,344.5439 228.7609,335.9303 223.7878,327.3167 233.7339,327.3167 238.707,335.9303 248.6531,335.9303 253.6262,327.3167 258.5993,318.7031 248.6531,318.7031 243.6801,327.3167 238.707,318.7031 243.6801,310.0895 238.707,301.4759 228.7609,301.4759 233.7339,310.0895 228.7609,318.7031 223.7878,310.0895 218.8148,301.4759 223.7878,292.8623 233.7339,292.8623 238.707,284.2487 228.7609,284.2487 223.7878,275.6351 233.7339,275.6351 243.6801,275.6351 248.6531,284.2487 243.6801,292.8623 248.6531,301.4759 253.6262,310.0895 258.5993,301.4759 253.6262,292.8623 263.5723,292.8623 268.5454,301.4759 278.4915,301.4759 283.4646,292.8623 273.5184,292.8623 268.5454,284.2487 278.4915,284.2487 288.4376,284.2487 293.4107,292.8623 303.3568,292.8623 308.3299,284.2487 313.3029,275.6351 303.3568,275.6351 298.3838,284.2487 293.4107,275.6351 298.3838,267.0215 293.4107,258.4079 283.4646,258.4079 273.5184,258.4079 278.4915,267.0215 288.4376,267.0215 283.4646,275.6351 273.5184,275.6351 268.5454,267.0215 258.5993,267.0215 263.5723,275.6351 258.5993,284.2487 253.6262,275.6351 248.6531,267.0215 253.6262,258.4079 263.5723,258.4079 268.5454,249.7943 258.5993,249.7943 253.6262,241.1807 263.5723,241.1807 273.5184,241.1807 278.4915,249.7943 288.4376,249.7943 293.4107,241.1807 283.4646,241.1807 278.4915,232.5671 288.4376,232.5671 298.3838,232.5671 303.3568,241.1807 298.3838,249.7943 303.3568,258.4079 308.3299,267.0215 313.3029,258.4079 308.3299,249.7943 318.276,249.7943 323.2491,258.4079 318.276,267.0215 323.2491,275.6351 328.2221,267.0215 338.1683,267.0215 333.1952,275.6351 328.2221,284.2487 318.276,284.2487 313.3029,292.8623 318.276,301.4759 323.2491,310.0895 328.2221,301.4759 323.2491,292.8623 333.1952,292.8623 338.1683,301.4759 348.1144,301.4759 353.0874,292.8623 358.0605,284.2487 348.1144,284.2487 343.1413,292.8623 338.1683,284.2487 343.1413,275.6351 353.0874,275.6351 358.0605,267.0215 348.1144,267.0215 343.1413,258.4079 353.0874,258.4079 363.0336,258.4079 368.0066,267.0215 363.0336,275.6351 368.0066,284.2487 372.9797,275.6351 382.9258,275.6351 377.9528,284.2487 372.9797,292.8623 363.0336,292.8623 358.0605,301.4759 363.0336,310.0895 368.0066,301.4759 377.9528,301.4759 372.9797,310.0895 368.0066,318.7031 358.0605,318.7031 353.0874,310.0895 343.1413,310.0895 333.1952,310.0895 338.1683,318.7031 348.1144,318.7031 343.1413,327.3167 333.1952,327.3167 328.2221,318.7031 318.276,318.7031 323.2491,327.3167 318.276,335.9303 313.3029,327.3167 308.3299,318.7031 313.3029,310.0895 308.3299,301.4759 298.3838,301.4759 288.4376,301.4759 293.4107,310.0895 303.3568,310.0895 298.3838,318.7031 288.4376,318.7031 283.4646,310.0895 273.5184,310.0895 263.5723,310.0895 268.5454,318.7031 278.4915,318.7031 273.5184,327.3167 263.5723,327.3167 258.5993,335.9303 263.5723,344.5439 268.5454,353.1575 273.5184,344.5439 268.5454,335.9303 278.4915,335.9303 283.4646,344.5439 293.4107,344.5439 298.3838,335.9303 288.4376,335.9303 283.4646,327.3167 293.4107,327.3167 303.3568,327.3167 308.3299,335.9303 303.3568,344.5439 308.3299,353.1575 313.3029,344.5439 323.2491,344.5439 318.276,353.1575 313.3029,361.7711 303.3568,361.7711 298.3838,353.1575 288.4376,353.1575 278.4915,353.1575 283.4646,361.7711 293.4107,361.7711 288.4376,370.3847 278.4915,370.3847 273.5184,361.7711 263.5723,361.7711 268.5454,370.3847 263.5723,378.9983 258.5993,370.3847 253.6262,361.7711 258.5993,353.1575 253.6262,344.5439 243.6801,344.5439 233.7339,344.5439 238.707,353.1575 248.6531,353.1575 243.6801,361.7711 233.7339,361.7711 228.7609,370.3847 233.7339,378.9983 238.707,387.6119 243.6801,378.9983 238.707,370.3847 248.6531,370.3847 253.6262,378.9983 248.6531,387.6119 253.6262,396.2255 258.5993,387.6119 268.5454,387.6119 263.5723,396.2255 258.5993,404.8391 248.6531,404.8391 243.6801,396.2255 233.7339,396.2255 238.707,404.8391 233.7339,413.4527 228.7609,404.8391 223.7878,396.2255 228.7609,387.6119 223.7878,378.9983 213.8417,378.9983 218.8148,387.6119 213.8417,396.2255 208.8686,387.6119 203.8956,378.9983 208.8686,370.3847 218.8148,370.3847 223.7878,361.7711 228.7609,353.1575 218.8148,353.1575 213.8417,361.7711 208.8686,353.1575 213.8417,344.5439 208.8686,335.9303 198.9225,335.9303 203.8956,344.5439 198.9225,353.1575 193.9494,344.5439 188.9764,335.9303 193.9494,327.3167 188.9764,318.7031 179.0303,318.7031 169.0841,318.7031 174.0572,327.3167 184.0033,327.3167 179.0303,335.9303 169.0841,335.9303 164.1111,327.3167 154.1649,327.3167 144.2188,327.3167 149.1919,335.9303 159.138,335.9303 154.1649,344.5439 144.2188,344.5439 139.2458,353.1575 144.2188,361.7711 149.1919,370.3847 154.1649,361.7711 149.1919,353.1575 159.138,353.1575 164.1111,361.7711 174.0572,361.7711 179.0303,353.1575 169.0841,353.1575 164.1111,344.5439 174.0572,344.5439 184.0033,344.5439 188.9764,353.1575 184.0033,361.7711 188.9764,370.3847 193.9494,361.7711 203.8956,361.7711 198.9225,370.3847 193.9494,378.9983 184.0033,378.9983 179.0303,370.3847 169.0841,370.3847 159.138,370.3847 164.1111,378.9983 174.0572,378.9983 169.0841,387.6119 159.138,387.6119 154.1649,396.2255 159.138,404.8391 164.1111,396.2255 174.0572,396.2255 169.0841,404.8391 164.1111,413.4527 154.1649,413.4527 149.1919,422.0663 154.1649,430.6799 159.138,439.2934 164.1111,430.6799 159.138,422.0663 169.0841,422.0663 174.0572,430.6799 169.0841,439.2934 174.0572,447.907 179.0303,456.5206 184.0033,447.907 179.0303,439.2934 188.9764,439.2934 193.9494,447.907 203.8956,447.907 208.8686,439.2934 213.8417,430.6799 203.8956,430.6799 198.9225,439.2934 193.9494,430.6799 198.9225,422.0663 193.9494,413.4527 184.0033,413.4527 188.9764,422.0663 184.0033,430.6799 179.0303,422.0663 174.0572,413.4527 179.0303,404.8391 188.9764,404.8391 193.9494,396.2255 184.0033,396.2255 179.0303,387.6119 188.9764,387.6119 198.9225,387.6119 203.8956,396.2255 198.9225,404.8391 203.8956,413.4527 208.8686,422.0663 213.8417,413.4527 208.8686,404.8391 218.8148,404.8391 223.7878,413.4527 218.8148,422.0663 223.7878,430.6799 228.7609,422.0663 238.707,422.0663 233.7339,430.6799 228.7609,439.2934 218.8148,439.2934 213.8417,447.907 218.8148,456.5206 223.7878,465.1342 228.7609,456.5206 223.7878,447.907 233.7339,447.907 238.707,456.5206 248.6531,456.5206 253.6262,447.907 258.5993,439.2934 248.6531,439.2934 243.6801,447.907 238.707,439.2934 243.6801,430.6799 253.6262,430.6799 258.5993,422.0663 248.6531,422.0663 243.6801,413.4527 253.6262,413.4527 263.5723,413.4527 268.5454,422.0663 263.5723,430.6799 268.5454,439.2934 273.5184,430.6799 283.4646,430.6799 278.4915,439.2934 273.5184,447.907 263.5723,447.907 258.5993,456.5206 263.5723,465.1342 268.5454,456.5206 278.4915,456.5206 273.5184,465.1342 268.5454,473.7478 258.5993,473.7478 253.6262,465.1342 243.6801,465.1342 233.7339,465.1342 238.707,473.7478 248.6531,473.7478 243.6801,482.3614 233.7339,482.3614 228.7609,473.7478 218.8148,473.7478 223.7878,482.3614 218.8148,490.975 213.8417,482.3614 208.8686,473.7478 213.8417,465.1342 208.8686,456.5206 198.9225,456.5206 188.9764,456.5206 193.9494,465.1342 203.8956,465.1342 198.9225,473.7478 188.9764,473.7478 184.0033,482.3614 188.9764,490.975 193.9494,499.5886 198.9225,490.975 193.9494,482.3614 203.8956,482.3614 208.8686,490.975 203.8956,499.5886 208.8686,508.2022 213.8417,499.5886 223.7878,499.5886 218.8148,508.2022 213.8417,516.8158 203.8956,516.8158 198.9225,508.2022 188.9764,508.2022 193.9494,516.8158 188.9764,525.4294 184.0033,516.8158 179.0303,508.2022 184.0033,499.5886 179.0303,490.975 169.0841,490.975 174.0572,499.5886 169.0841,508.2022 164.1111,499.5886 159.138,490.975 164.1111,482.3614 174.0572,482.3614 179.0303,473.7478 184.0033,465.1342 174.0572,465.1342 169.0841,473.7478 164.1111,465.1342 169.0841,456.5206 164.1111,447.907 154.1649,447.907 159.138,456.5206 154.1649,465.1342 149.1919,456.5206 144.2188,447.907 149.1919,439.2934 144.2188,430.6799 134.2727,430.6799 124.3266,430.6799 129.2996,439.2934 139.2458,439.2934 134.2727,447.907 124.3266,447.907 119.3535,456.5206 124.3266,465.1342 129.2996,473.7478 134.2727,465.1342 129.2996,456.5206 139.2458,456.5206 144.2188,465.1342 139.2458,473.7478 144.2188,482.3614 149.1919,473.7478 159.138,473.7478 154.1649,482.3614 149.1919,490.975 139.2458,490.975 134.2727,482.3614 124.3266,482.3614 129.2996,490.975 124.3266,499.5886 119.3535,490.975 114.3804,482.3614 119.3535,473.7478 114.3804,465.1342 104.4343,465.1342 109.4074,473.7478 104.4343,482.3614 99.4613,473.7478 94.4882,465.1342 99.4613,456.5206 109.4074,456.5206 114.3804,447.907 119.3535,439.2934 109.4074,439.2934 104.4343,447.907 99.4613,439.2934 104.4343,430.6799 114.3804,430.6799 119.3535,422.0663 109.4074,422.0663 104.4343,413.4527 114.3804,413.4527 124.3266,413.4527 129.2996,422.0663 139.2458,422.0663 144.2188,413.4527 149.1919,404.8391 139.2458,404.8391 134.2727,413.4527 129.2996,404.8391 134.2727,396.2255 144.2188,396.2255 149.1919,387.6119 154.1649,378.9983 144.2188,378.9983 139.2458,387.6119 134.2727,378.9983 139.2458,370.3847 134.2727,361.7711 124.3266,361.7711 114.3804,361.7711 119.3535,370.3847 129.2996,370.3847 124.3266,378.9983 114.3804,378.9983 109.4074,387.6119 114.3804,396.2255 119.3535,387.6119 129.2996,387.6119 124.3266,396.2255 119.3535,404.8391 109.4074,404.8391 104.4343,396.2255 94.4882,396.2255 99.4613,404.8391 94.4882,413.4527 89.5151,404.8391 84.5421,396.2255 89.5151,387.6119 99.4613,387.6119 104.4343,378.9983 109.4074,370.3847 99.4613,370.3847 94.4882,378.9983 89.5151,370.3847 94.4882,361.7711 104.4343,361.7711 109.4074,353.1575 99.4613,353.1575 94.4882,344.5439 104.4343,344.5439 114.3804,344.5439 119.3535,353.1575 129.2996,353.1575 134.2727,344.5439 139.2458,335.9303 129.2996,335.9303 124.3266,344.5439 119.3535,335.9303 124.3266,327.3167 119.3535,318.7031 109.4074,318.7031 99.4613,318.7031 104.4343,327.3167 114.3804,327.3167 109.4074,335.9303 99.4613,335.9303 94.4882,327.3167 84.5421,327.3167 89.5151,335.9303 84.5421,344.5439 79.569,335.9303 74.5959,327.3167 79.569,318.7031 89.5151,318.7031 94.4882,310.0895 84.5421,310.0895 79.569,301.4759 89.5151,301.4759 99.4613,301.4759 104.4343,310.0895 114.3804,310.0895 119.3535,301.4759 109.4074,301.4759 104.4343,292.8623 114.3804,292.8623 124.3266,292.8623 129.2996,301.4759 124.3266,310.0895 129.2996,318.7031 134.2727,327.3167 139.2458,318.7031 134.2727,310.0895 144.2188,310.0895 149.1919,318.7031 159.138,318.7031 164.1111,310.0895 154.1649,310.0895 149.1919,301.4759 159.138,301.4759 169.0841,301.4759 174.0572,310.0895 184.0033,310.0895 188.9764,301.4759 193.9494,292.8623 184.0033,292.8623 179.0303,301.4759 174.0572,292.8623 179.0303,284.2487 188.9764,284.2487 193.9494,275.6351 198.9225,267.0215 188.9764,267.0215 184.0033,275.6351 179.0303,267.0215 184.0033,258.4079 179.0303,249.7943 169.0841,249.7943 159.138,249.7943 164.1111,258.4079 174.0572,258.4079 169.0841,267.0215 159.138,267.0215 154.1649,275.6351 159.138,284.2487 164.1111,275.6351 174.0572,275.6351 169.0841,284.2487 164.1111,292.8623 154.1649,292.8623 149.1919,284.2487 139.2458,284.2487 144.2188,292.8623 139.2458,301.4759 134.2727,292.8623 129.2996,284.2487 134.2727,275.6351 144.2188,275.6351 149.1919,267.0215 154.1649,258.4079 144.2188,258.4079 139.2458,267.0215 134.2727,258.4079 139.2458,249.7943 134.2727,241.1807 124.3266,241.1807 129.2996,249.7943 124.3266,258.4079 119.3535,249.7943 114.3804,241.1807 119.3535,232.5671 114.3804,223.9535 104.4343,223.9535 94.4882,223.9535 99.4613,232.5671 109.4074,232.5671 104.4343,241.1807 94.4882,241.1807 89.5151,232.5671 79.569,232.5671 69.6229,232.5671 74.5959,241.1807 84.5421,241.1807 79.569,249.7943 69.6229,249.7943 64.6498,258.4079 69.6229,267.0215 74.5959,275.6351 79.569,267.0215 74.5959,258.4079 84.5421,258.4079 89.5151,267.0215 99.4613,267.0215 104.4343,258.4079 94.4882,258.4079 89.5151,249.7943 99.4613,249.7943 109.4074,249.7943 114.3804,258.4079 109.4074,267.0215 114.3804,275.6351 119.3535,267.0215 129.2996,267.0215 124.3266,275.6351 119.3535,284.2487 109.4074,284.2487 104.4343,275.6351 94.4882,275.6351 84.5421,275.6351 89.5151,284.2487 99.4613,284.2487 94.4882,292.8623 84.5421,292.8623 79.569,284.2487 69.6229,284.2487 74.5959,292.8623 69.6229,301.4759 64.6498,292.8623 59.6768,284.2487 64.6498,275.6351 59.6768,267.0215 49.7306,267.0215 39.7845,267.0215 44.7576,275.6351 54.7037,275.6351 49.7306,284.2487 39.7845,284.2487 34.8114,292.8623 39.7845,301.4759 44.7576,310.0895 49.7306,301.4759 44.7576,292.8623 54.7037,292.8623 59.6768,301.4759 54.7037,310.0895 59.6768,318.7031 64.6498,310.0895 74.5959,310.0895 69.6229,318.7031 64.6498,327.3167 54.7037,327.3167 49.7306,318.7031 39.7845,318.7031 44.7576,327.3167 39.7845,335.9303 34.8114,327.3167 29.8384,318.7031 34.8114,310.0895 29.8384,301.4759 19.8923,301.4759 24.8653,310.0895 19.8923,318.7031 14.9192,310.0895 9.9461,301.4759 14.9192,292.8623 24.8653,292.8623 29.8384,284.2487 34.8114,275.6351 24.8653,275.6351 19.8923,284.2487 14.9192,275.6351 19.8923,267.0215 29.8384,267.0215 34.8114,258.4079 24.8653,258.4079 19.8923,249.7943 29.8384,249.7943 39.7845,249.7943 44.7576,258.4079 54.7037,258.4079 59.6768,249.7943 64.6498,241.1807 54.7037,241.1807 49.7306,249.7943 44.7576,241.1807 49.7306,232.5671 44.7576,223.9535 34.8114,223.9535 24.8653,223.9535 29.8384,232.5671 39.7845,232.5671 34.8114,241.1807 24.8653,241.1807 19.8923,232.5671 9.9461,232.5671 14.9192,241.1807 9.9461,249.7943 4.9731,241.1807 0.0,232.5671 4.9731,223.9535 14.9192,223.9535 19.8923,215.3399 9.9461,215.3399 4.9731,206.7263 14.9192,206.7263 24.8653,206.7263 29.8384,215.3399 39.7845,215.3399 44.7576,206.7263 34.8114,206.7263 29.8384,198.1127 39.7845,198.1127 49.7306,198.1127 54.7037,206.7263 49.7306,215.3399 54.7037,223.9535 59.6768,232.5671 64.6498,223.9535 59.6768,215.3399 69.6229,215.3399 74.5959,223.9535 84.5421,223.9535 89.5151,215.3399 79.569,215.3399 74.5959,206.7263 84.5421,206.7263 94.4882,206.7263 99.4613,215.3399 109.4074,215.3399 114.3804,206.7263 119.3535,198.1127 109.4074,198.1127 104.4343,206.7263 99.4613,198.1127 104.4343,189.4991 99.4613,180.8855 89.5151,180.8855 79.569,180.8855 84.5421,189.4991 94.4882,189.4991 89.5151,198.1127 79.569,198.1127 74.5959,189.4991 64.6498,189.4991 69.6229,198.1127 64.6498,206.7263 59.6768,198.1127 54.7037,189.4991 59.6768,180.8855 69.6229,180.8855 74.5959,172.2719 64.6498,172.2719 59.6768,163.6583 69.6229,163.6583 79.569,163.6583 84.5421,172.2719 94.4882,172.2719 99.4613,163.6583 89.5151,163.6583 84.5421,155.0447 94.4882,155.0447 104.4343,155.0447 109.4074,163.6583 104.4343,172.2719 109.4074,180.8855 114.3804,189.4991 119.3535,180.8855 114.3804,172.2719 124.3266,172.2719 129.2996,180.8855 124.3266,189.4991 129.2996,198.1127 134.2727,189.4991 144.2188,189.4991 139.2458,198.1127 134.2727,206.7263 124.3266,206.7263 119.3535,215.3399 124.3266,223.9535 129.2996,232.5671 134.2727,223.9535 129.2996,215.3399 139.2458,215.3399 144.2188,223.9535 139.2458,232.5671 144.2188,241.1807 149.1919,249.7943 154.1649,241.1807 149.1919,232.5671 159.138,232.5671 164.1111,241.1807 174.0572,241.1807 179.0303,232.5671 184.0033,223.9535 174.0572,223.9535 169.0841,232.5671 164.1111,223.9535 169.0841,215.3399 164.1111,206.7263 154.1649,206.7263 159.138,215.3399 154.1649,223.9535 149.1919,215.3399 144.2188,206.7263 149.1919,198.1127 159.138,198.1127 164.1111,189.4991 154.1649,189.4991 149.1919,180.8855 159.138,180.8855 169.0841,180.8855 174.0572,189.4991 169.0841,198.1127 174.0572,206.7263 179.0303,215.3399 184.0033,206.7263 179.0303,198.1127 188.9764,198.1127 193.9494,206.7263 203.8956,206.7263 208.8686,198.1127 198.9225,198.1127 193.9494,189.4991 203.8956,189.4991 213.8417,189.4991 218.8148,198.1127 228.7609,198.1127 233.7339,189.4991 238.707,180.8855 228.7609,180.8855 223.7878,189.4991 218.8148,180.8855 223.7878,172.2719 218.8148,163.6583 208.8686,163.6583 198.9225,163.6583 203.8956,172.2719 213.8417,172.2719 208.8686,180.8855 198.9225,180.8855 193.9494,172.2719 184.0033,172.2719 188.9764,180.8855 184.0033,189.4991 179.0303,180.8855 174.0572,172.2719 179.0303,163.6583 188.9764,163.6583 193.9494,155.0447 184.0033,155.0447 179.0303,146.4311 188.9764,146.4311 198.9225,146.4311 203.8956,155.0447 213.8417,155.0447 218.8148,146.4311 208.8686,146.4311 203.8956,137.8176 213.8417,137.8176 223.7878,137.8176 228.7609,146.4311 223.7878,155.0447 228.7609,163.6583 233.7339,172.2719 238.707,163.6583 233.7339,155.0447 243.6801,155.0447 248.6531,163.6583 258.5993,163.6583 263.5723,155.0447 253.6262,155.0447 248.6531,146.4311 258.5993,146.4311 268.5454,146.4311 273.5184,155.0447 283.4646,155.0447 288.4376,146.4311 293.4107,137.8176 283.4646,137.8176 278.4915,146.4311 273.5184,137.8176 278.4915,129.204 288.4376,129.204 293.4107,120.5904 298.3838,111.9768 288.4376,111.9768 283.4646,120.5904 278.4915,111.9768 283.4646,103.3632 278.4915,94.7496 268.5454,94.7496 258.5993,94.7496 263.5723,103.3632 273.5184,103.3632 268.5454,111.9768 258.5993,111.9768 253.6262,120.5904 258.5993,129.204 263.5723,120.5904 273.5184,120.5904 268.5454,129.204 263.5723,137.8176 253.6262,137.8176 248.6531,129.204 238.707,129.204 243.6801,137.8176 238.707,146.4311 233.7339,137.8176 228.7609,129.204 233.7339,120.5904 243.6801,120.5904 248.6531,111.9768 253.6262,103.3632 243.6801,103.3632 238.707,111.9768 233.7339,103.3632 238.707,94.7496 233.7339,86.136 223.7878,86.136 228.7609,94.7496 223.7878,103.3632 218.8148,94.7496 213.8417,86.136 218.8148,77.5224 213.8417,68.9088 203.8956,68.9088 193.9494,68.9088 198.9225,77.5224 208.8686,77.5224 203.8956,86.136 193.9494,86.136 188.9764,77.5224 179.0303,77.5224 169.0841,77.5224 174.0572,86.136 184.0033,86.136 179.0303,94.7496 169.0841,94.7496 164.1111,103.3632 169.0841,111.9768 174.0572,120.5904 179.0303,111.9768 174.0572,103.3632 184.0033,103.3632 188.9764,111.9768 198.9225,111.9768 203.8956,103.3632 193.9494,103.3632 188.9764,94.7496 198.9225,94.7496 208.8686,94.7496 213.8417,103.3632 208.8686,111.9768 213.8417,120.5904 218.8148,111.9768 228.7609,111.9768 223.7878,120.5904 218.8148,129.204 208.8686,129.204 203.8956,120.5904 193.9494,120.5904 184.0033,120.5904 188.9764,129.204 198.9225,129.204 193.9494,137.8176 184.0033,137.8176 179.0303,129.204 169.0841,129.204 174.0572,137.8176 169.0841,146.4311 164.1111,137.8176 159.138,129.204 164.1111,120.5904 159.138,111.9768 149.1919,111.9768 139.2458,111.9768 144.2188,120.5904 154.1649,120.5904 149.1919,129.204 139.2458,129.204 134.2727,137.8176 139.2458,146.4311 144.2188,155.0447 149.1919,146.4311 144.2188,137.8176 154.1649,137.8176 159.138,146.4311 154.1649,155.0447 159.138,163.6583 164.1111,155.0447 174.0572,155.0447 169.0841,163.6583 164.1111,172.2719 154.1649,172.2719 149.1919,163.6583 139.2458,163.6583 144.2188,172.2719 139.2458,180.8855 134.2727,172.2719 129.2996,163.6583 134.2727,155.0447 129.2996,146.4311 119.3535,146.4311 124.3266,155.0447 119.3535,163.6583 114.3804,155.0447 109.4074,146.4311 114.3804,137.8176 124.3266,137.8176 129.2996,129.204 134.2727,120.5904 124.3266,120.5904 119.3535,129.204 114.3804,120.5904 119.3535,111.9768 129.2996,111.9768 134.2727,103.3632 124.3266,103.3632 119.3535,94.7496 129.2996,94.7496 139.2458,94.7496 144.2188,103.3632 154.1649,103.3632 159.138,94.7496 164.1111,86.136 154.1649,86.136 149.1919,94.7496 144.2188,86.136 149.1919,77.5224 144.2188,68.9088 134.2727,68.9088 124.3266,68.9088 129.2996,77.5224 139.2458,77.5224 134.2727,86.136 124.3266,86.136 119.3535,77.5224 109.4074,77.5224 114.3804,86.136 109.4074,94.7496 104.4343,86.136 99.4613,77.5224 104.4343,68.9088 114.3804,68.9088 119.3535,60.2952 109.4074,60.2952 104.4343,51.6816 114.3804,51.6816 124.3266,51.6816 129.2996,60.2952 139.2458,60.2952 144.2188,51.6816 134.2727,51.6816 129.2996,43.068 139.2458,43.068 149.1919,43.068 154.1649,51.6816 149.1919,60.2952 154.1649,68.9088 159.138,77.5224 164.1111,68.9088 159.138,60.2952 169.0841,60.2952 174.0572,68.9088 184.0033,68.9088 188.9764,60.2952 179.0303,60.2952 174.0572,51.6816 184.0033,51.6816 193.9494,51.6816 198.9225,60.2952 208.8686,60.2952 213.8417,51.6816 218.8148,43.068 208.8686,43.068 203.8956,51.6816 198.9225,43.068 203.8956,34.4544 198.9225,25.8408 188.9764,25.8408 179.0303,25.8408 184.0033,34.4544 193.9494,34.4544 188.9764,43.068 179.0303,43.068 174.0572,34.4544 164.1111,34.4544 169.0841,43.068 164.1111,51.6816 159.138,43.068 154.1649,34.4544 159.138,25.8408 169.0841,25.8408 174.0572,17.2272 164.1111,17.2272 159.138,8.6136 169.0841,8.6136 179.0303,8.6136 184.0033,17.2272 193.9494,17.2272 198.9225,8.6136 188.9764,8.6136 184.0033,0.0 193.9494,0.0 203.8956,0.0 208.8686,8.6136 203.8956,17.2272 208.8686,25.8408 213.8417,34.4544 218.8148,25.8408 213.8417,17.2272 223.7878,17.2272 228.7609,25.8408 223.7878,34.4544 228.7609,43.068 233.7339,34.4544 243.6801,34.4544 238.707,43.068 233.7339,51.6816 223.7878,51.6816 218.8148,60.2952 223.7878,68.9088 228.7609,77.5224 233.7339,68.9088 228.7609,60.2952 238.707,60.2952 243.6801,68.9088 238.707,77.5224 243.6801,86.136 248.6531,94.7496 253.6262,86.136 248.6531,77.5224 258.5993,77.5224 263.5723,86.136 273.5184,86.136 278.4915,77.5224 283.4646,68.9088 273.5184,68.9088 268.5454,77.5224 263.5723,68.9088 268.5454,60.2952 263.5723,51.6816 253.6262,51.6816 258.5993,60.2952 253.6262,68.9088 248.6531,60.2952 243.6801,51.6816 248.6531,43.068 258.5993,43.068 263.5723,34.4544 253.6262,34.4544 248.6531,25.8408 258.5993,25.8408 268.5454,25.8408 273.5184,34.4544 268.5454,43.068 273.5184,51.6816 278.4915,60.2952 283.4646,51.6816 278.4915,43.068 288.4376,43.068 293.4107,51.6816 288.4376,60.2952 293.4107,68.9088 298.3838,60.2952 308.3299,60.2952 303.3568,68.9088 298.3838,77.5224 288.4376,77.5224 283.4646,86.136 288.4376,94.7496 293.4107,103.3632 298.3838,94.7496 293.4107,86.136 303.3568,86.136 308.3299,94.7496 318.276,94.7496 323.2491,86.136 328.2221,77.5224 318.276,77.5224 313.3029,86.136 308.3299,77.5224 313.3029,68.9088 323.2491,68.9088 328.2221,60.2952 318.276,60.2952 313.3029,51.6816 323.2491,51.6816 333.1952,51.6816 338.1683,60.2952 333.1952,68.9088 338.1683,77.5224 343.1413,68.9088 353.0874,68.9088 348.1144,77.5224 343.1413,86.136 333.1952,86.136 328.2221,94.7496 333.1952,103.3632 338.1683,94.7496 348.1144,94.7496 343.1413,103.3632 338.1683,111.9768 328.2221,111.9768 323.2491,103.3632 313.3029,103.3632 303.3568,103.3632 308.3299,111.9768 318.276,111.9768 313.3029,120.5904 303.3568,120.5904 298.3838,129.204 303.3568,137.8176 308.3299,129.204 318.276,129.204 313.3029,137.8176 308.3299,146.4311 298.3838,146.4311 293.4107,155.0447 298.3838,163.6583 303.3568,172.2719 308.3299,163.6583 303.3568,155.0447 313.3029,155.0447 318.276,163.6583 313.3029,172.2719 318.276,180.8855 323.2491,189.4991 328.2221,180.8855 323.2491,172.2719 333.1952,172.2719 338.1683,180.8855 348.1144,180.8855 353.0874,172.2719 358.0605,163.6583 348.1144,163.6583 343.1413,172.2719 338.1683,163.6583 343.1413,155.0447 338.1683,146.4311 328.2221,146.4311 333.1952,155.0447 328.2221,163.6583 323.2491,155.0447 318.276,146.4311 323.2491,137.8176 333.1952,137.8176 338.1683,129.204 328.2221,129.204 323.2491,120.5904 333.1952,120.5904 343.1413,120.5904 348.1144,129.204 343.1413,137.8176 348.1144,146.4311 353.0874,155.0447 358.0605,146.4311 353.0874,137.8176 363.0336,137.8176 368.0066,146.4311 363.0336,155.0447 368.0066,163.6583 372.9797,155.0447 382.9258,155.0447 377.9528,163.6583 372.9797,172.2719 363.0336,172.2719 358.0605,180.8855 363.0336,189.4991 368.0066,198.1127 372.9797,189.4991 368.0066,180.8855 377.9528,180.8855 382.9258,189.4991 377.9528,198.1127 382.9258,206.7263 387.8989,215.3399 392.8719,206.7263 387.8989,198.1127 397.845,198.1127 402.8181,206.7263 412.7642,206.7263 417.7373,198.1127 422.7103,189.4991 412.7642,189.4991 407.7911,198.1127 402.8181,189.4991 407.7911,180.8855 402.8181,172.2719 392.8719,172.2719 397.845,180.8855 392.8719,189.4991 387.8989,180.8855 382.9258,172.2719 387.8989,163.6583 397.845,163.6583 402.8181,155.0447 392.8719,155.0447 387.8989,146.4311 397.845,146.4311 407.7911,146.4311 412.7642,155.0447 407.7911,163.6583 412.7642,172.2719 417.7373,180.8855 422.7103,172.2719 417.7373,163.6583 427.6834,163.6583 432.6564,172.2719 442.6026,172.2719 447.5756,163.6583 437.6295,163.6583 432.6564,155.0447 442.6026,155.0447 452.5487,155.0447 457.5218,163.6583 467.4679,163.6583 472.4409,155.0447 477.414,146.4311 467.4679,146.4311 462.4948,155.0447 457.5218,146.4311 462.4948,137.8176 472.4409,137.8176 477.414,129.204 482.3871,120.5904 472.4409,120.5904 467.4679,129.204 462.4948,120.5904 467.4679,111.9768 462.4948,103.3632 452.5487,103.3632 442.6026,103.3632 447.5756,111.9768 457.5218,111.9768 452.5487,120.5904 442.6026,120.5904 437.6295,129.204 442.6026,137.8176 447.5756,129.204 457.5218,129.204 452.5487,137.8176 447.5756,146.4311 437.6295,146.4311 432.6564,137.8176 422.7103,137.8176 427.6834,146.4311 422.7103,155.0447 417.7373,146.4311 412.7642,137.8176 417.7373,129.204 427.6834,129.204 432.6564,120.5904 437.6295,111.9768 427.6834,111.9768 422.7103,120.5904 417.7373,111.9768 422.7103,103.3632 417.7373,94.7496 407.7911,94.7496 412.7642,103.3632 407.7911,111.9768 402.8181,103.3632 397.845,94.7496 402.8181,86.136 397.845,77.5224 387.8989,77.5224 377.9528,77.5224 382.9258,86.136 392.8719,86.136 387.8989,94.7496 377.9528,94.7496 372.9797,103.3632 377.9528,111.9768 382.9258,120.5904 387.8989,111.9768 382.9258,103.3632 392.8719,103.3632 397.845,111.9768 392.8719,120.5904 397.845,129.204 402.8181,120.5904 412.7642,120.5904 407.7911,129.204 402.8181,137.8176 392.8719,137.8176 387.8989,129.204 377.9528,129.204 382.9258,137.8176 377.9528,146.4311 372.9797,137.8176 368.0066,129.204 372.9797,120.5904 368.0066,111.9768 358.0605,111.9768 363.0336,120.5904 358.0605,129.204 353.0874,120.5904 348.1144,111.9768 353.0874,103.3632 363.0336,103.3632 368.0066,94.7496 372.9797,86.136 363.0336,86.136 358.0605,94.7496 353.0874,86.136 358.0605,77.5224 368.0066,77.5224 372.9797,68.9088 363.0336,68.9088 358.0605,60.2952 368.0066,60.2952 377.9528,60.2952 382.9258,68.9088 392.8719,68.9088 397.845,60.2952 402.8181,51.6816 392.8719,51.6816 387.8989,60.2952 382.9258,51.6816 387.8989,43.068 382.9258,34.4544 372.9797,34.4544 363.0336,34.4544 368.0066,43.068 377.9528,43.068 372.9797,51.6816 363.0336,51.6816 358.0605,43.068 348.1144,43.068 353.0874,51.6816 348.1144,60.2952 343.1413,51.6816 338.1683,43.068 343.1413,34.4544 353.0874,34.4544 358.0605,25.8408 348.1144,25.8408 343.1413,17.2272 353.0874,17.2272 363.0336,17.2272 368.0066,25.8408 377.9528,25.8408 382.9258,17.2272 372.9797,17.2272 368.0066,8.6136 377.9528,8.6136 387.8989,8.6136 392.8719,17.2272 387.8989,25.8408 392.8719,34.4544 397.845,43.068 402.8181,34.4544 397.845,25.8408 407.7911,25.8408 412.7642,34.4544 407.7911,43.068 412.7642,51.6816 417.7373,43.068 427.6834,43.068 422.7103,51.6816 417.7373,60.2952 407.7911,60.2952 402.8181,68.9088 407.7911,77.5224 412.7642,86.136 417.7373,77.5224 412.7642,68.9088 422.7103,68.9088 427.6834,77.5224 422.7103,86.136 427.6834,94.7496 432.6564,103.3632 437.6295,94.7496 432.6564,86.136 442.6026,86.136 447.5756,94.7496 457.5218,94.7496 462.4948,86.136 467.4679,77.5224 457.5218,77.5224 452.5487,86.136 447.5756,77.5224 452.5487,68.9088 447.5756,60.2952 437.6295,60.2952 442.6026,68.9088 437.6295,77.5224 432.6564,68.9088 427.6834,60.2952 432.6564,51.6816 442.6026,51.6816 447.5756,43.068 437.6295,43.068 432.6564,34.4544 442.6026,34.4544 452.5487,34.4544 457.5218,43.068 452.5487,51.6816 457.5218,60.2952 462.4948,68.9088 467.4679,60.2952 462.4948,51.6816 472.4409,51.6816 477.414,60.2952"/>
  </g>
</svg>
