<?xml version="1.0" encoding="utf-8" ?>
<svg xmlns="http://www.w3.org/2000/svg" xmlns:cc="http://creativecommons.org/ns" xmlns:dc="http://purl.org/dc/elements/1.1/" xmlns:ev="http://www.w3.org/2001/xml-events" xmlns:inkscape="http://www.inkscape.org/namespaces/inkscape" xmlns:rdf="http://www.w3.org/1999/02/22-rdf-syntax-ns" xmlns:sodipodi="http://sodipodi.sourceforge.net/DTD/sodipodi-0.dtd" xmlns:xlink="http://www.w3.org/1999/xlink" baseProfile="tiny" height="14.76190476cm" version="1.2" viewBox="0 0 566.9291338582677 557.9302587176603" width="15.0cm">
  <metadata>
    <rdf:RDF>
      <cc:Work>
        <dc:format>image/svg+xml</dc:format>
        <dc:source>vpype hilbert -d 5 -s 150mm color '#e9c46a' write hilbert.svg
</dc:source>
        <dc:date>2026-04-03T00:17:40.149015</dc:date>
      </cc:Work>
    </rdf:RDF>
  </metadata>
  <defs/>
  <g fill="none" id="layer1" inkscape:groupmode="layer" inkscape:label="1" stroke="#e9c46a" style="display:inline">
    <polyline points="0.0,557.9303 0.0,548.9314 0.0,539.9325 8.9989,539.9325 17.9978,539.9325 26.9966,539.9325 26.9966,548.9314 26.9966,557.9303 35.9955,557.9303 44.9944,557.9303 53.9933,557.9303 53.9933,548.9314 53.9933,539.9325 53.9933,530.9336 44.9944,530.9336 35.9955,530.9336 35.9955,521.9348 44.9944,521.9348 53.9933,521.9348 53.9933,512.9359 53.9933,503.937 53.9933,494.9381 44.9944,494.9381 35.9955,494.9381 26.9966,494.9381 26.9966,503.937 26.9966,512.9359 17.9978,512.9359 8.9989,512.9359 0.0,512.9359 0.0,503.937 0.0,494.9381 0.0,485.9393 8.9989,485.9393 17.9978,485.9393 17.9978,476.9404 17.9978,467.9415 17.9978,458.9426 8.9989,458.9426 0.0,458.9426 0.0,449.9438 0.0,440.9449 0.0,431.946 8.9989,431.946 17.9978,431.946 26.9966,431.946 26.9966,440.9449 26.9966,449.9438 35.9955,449.9438 35.9955,440.9449 35.9955,431.946 44.9944,431.946 53.9933,431.946 62.9921,431.946 62.9921,440.9449 62.9921,449.9438 62.9921,458.9426 53.9933,458.9426 44.9944,458.9426 44.9944,467.9415 44.9944,476.9404 44.9944,485.9393 53.9933,485.9393 62.9921,485.9393 71.991,485.9393 80.9899,485.9393 89.9888,485.9393 89.9888,476.9404 89.9888,467.9415 89.9888,458.9426 80.9899,458.9426 71.991,458.9426 71.991,449.9438 71.991,440.9449 71.991,431.946 80.9899,431.946 89.9888,431.946 98.9876,431.946 98.9876,440.9449 98.9876,449.9438 107.9865,449.9438 107.9865,440.9449 107.9865,431.946 116.9854,431.946 125.9843,431.946 134.9831,431.946 134.9831,440.9449 134.9831,449.9438 134.9831,458.9426 125.9843,458.9426 116.9854,458.9426 116.9854,467.9415 116.9854,476.9404 116.9854,485.9393 125.9843,485.9393 134.9831,485.9393 134.9831,494.9381 134.9831,503.937 134.9831,512.9359 125.9843,512.9359 116.9854,512.9359 107.9865,512.9359 107.9865,503.937 107.9865,494.9381 98.9876,494.9381 89.9888,494.9381 80.9899,494.9381 80.9899,503.937 80.9899,512.9359 80.9899,521.9348 89.9888,521.9348 98.9876,521.9348 98.9876,530.9336 89.9888,530.9336 80.9899,530.9336 80.9899,539.9325 80.9899,548.9314 80.9899,557.9303 89.9888,557.9303 98.9876,557.9303 107.9865,557.9303 107.9865,548.9314 107.9865,539.9325 116.9854,539.9325 125.9843,539.9325 134.9831,539.9325 134.9831,548.9314 134.9831,557.9303 143.982,557.9303 152.9809,557.9303 161.9798,557.9303 161.9798,548.9314 161.9798,539.9325 161.9798,530.9336 152.9809,530.9336 143.982,530.9336 143.982,521.9348 143.982,512.9359 143.982,503.937 152.9809,503.937 161.9798,503.937 170.9786,503.937 170.9786,512.9359 170.9786,521.9348 179.9775,521.9348 179.9775,512.9359 179.9775,503.937 188.9764,503.937 197.9753,503.937 206.9741,503.937 206.9741,512.9359 206.9741,521.9348 206.9741,530.9336 197.9753,530.9336 188.9764,530.9336 188.9764,539.9325 188.9764,548.9314 188.9764,557.9303 197.9753,557.9303 206.9741,557.9303 215.973,557.9303 215.973,548.9314 215.973,539.9325 224.9719,539.9325 233.9708,539.9325 242.9696,539.9325 242.9696,548.9314 242.9696,557.9303 251.9685,557.9303 260.9674,557.9303 269.9663,557.9303 269.9663,548.9314 269.9663,539.9325 269.9663,530.9336 260.9674,530.9336 251.9685,530.9336 251.9685,521.9348 260.9674,521.9348 269.9663,521.9348 269.9663,512.9359 269.9663,503.937 269.9663,494.9381 260.9674,494.9381 251.9685,494.9381 242.9696,494.9381 242.9696,503.937 242.9696,512.9359 233.9708,512.9359 224.9719,512.9359 215.973,512.9359 215.973,503.937 215.973,494.9381 215.973,485.9393 215.973,476.9404 215.973,467.9415 224.9719,467.9415 233.9708,467.9415 242.9696,467.9415 242.9696,476.9404 242.9696,485.9393 251.9685,485.9393 260.9674,485.9393 269.9663,485.9393 269.9663,476.9404 269.9663,467.9415 269.9663,458.9426 260.9674,458.9426 251.9685,458.9426 251.9685,449.9438 260.9674,449.9438 269.9663,449.9438 269.9663,440.9449 269.9663,431.946 269.9663,422.9471 260.9674,422.9471 251.9685,422.9471 242.9696,422.9471 242.9696,431.946 242.9696,440.9449 233.9708,440.9449 224.9719,440.9449 215.973,440.9449 215.973,431.946 215.973,422.9471 206.9741,422.9471 197.9753,422.9471 188.9764,422.9471 188.9764,431.946 188.9764,440.9449 188.9764,449.9438 197.9753,449.9438 206.9741,449.9438 206.9741,458.9426 206.9741,467.9415 206.9741,476.9404 197.9753,476.9404 188.9764,476.9404 179.9775,476.9404 179.9775,467.9415 179.9775,458.9426 170.9786,458.9426 170.9786,467.9415 170.9786,476.9404 161.9798,476.9404 152.9809,476.9404 143.982,476.9404 143.982,467.9415 143.982,458.9426 143.982,449.9438 152.9809,449.9438 161.9798,449.9438 161.9798,440.9449 161.9798,431.946 161.9798,422.9471 152.9809,422.9471 143.982,422.9471 143.982,413.9483 152.9809,413.9483 161.9798,413.9483 161.9798,404.9494 161.9798,395.9505 161.9798,386.9516 152.9809,386.9516 143.982,386.9516 143.982,377.9528 143.982,368.9539 143.982,359.955 152.9809,359.955 161.9798,359.955 170.9786,359.955 170.9786,368.9539 170.9786,377.9528 179.9775,377.9528 179.9775,368.9539 179.9775,359.955 188.9764,359.955 197.9753,359.955 206.9741,359.955 206.9741,368.9539 206.9741,377.9528 206.9741,386.9516 197.9753,386.9516 188.9764,386.9516 188.9764,395.9505 188.9764,404.9494 188.9764,413.9483 197.9753,413.9483 206.9741,413.9483 215.973,413.9483 215.973,404.9494 215.973,395.9505 224.9719,395.9505 233.9708,395.9505 242.9696,395.9505 242.9696,404.9494 242.9696,413.9483 251.9685,413.9483 260.9674,413.9483 269.9663,413.9483 269.9663,404.9494 269.9663,395.9505 269.9663,386.9516 260.9674,386.9516 251.9685,386.9516 251.9685,377.9528 260.9674,377.9528 269.9663,377.9528 269.9663,368.9539 269.9663,359.955 269.9663,350.9561 260.9674,350.9561 251.9685,350.9561 242.9696,350.9561 242.9696,359.955 242.9696,368.9539 233.9708,368.9539 224.9719,368.9539 215.973,368.9539 215.973,359.955 215.973,350.9561 215.973,341.9573 215.973,332.9584 215.973,323.9595 224.9719,323.9595 233.9708,323.9595 242.9696,323.9595 242.9696,332.9584 242.9696,341.9573 251.9685,341.9573 260.9674,341.9573 269.9663,341.9573 269.9663,332.9584 269.9663,323.9595 269.9663,314.9606 260.9674,314.9606 251.9685,314.9606 251.9685,305.9618 260.9674,305.9618 269.9663,305.9618 269.9663,296.9629 269.9663,287.964 269.9663,278.9651 260.9674,278.9651 251.9685,278.9651 242.9696,278.9651 242.9696,287.964 242.9696,296.9629 233.9708,296.9629 224.9719,296.9629 215.973,296.9629 215.973,287.964 215.973,278.9651 206.9741,278.9651 197.9753,278.9651 188.9764,278.9651 188.9764,287.964 188.9764,296.9629 188.9764,305.9618 197.9753,305.9618 206.9741,305.9618 206.9741,314.9606 206.9741,323.9595 206.9741,332.9584 197.9753,332.9584 188.9764,332.9584 179.9775,332.9584 179.9775,323.9595 179.9775,314.9606 170.9786,314.9606 170.9786,323.9595 170.9786,332.9584 161.9798,332.9584 152.9809,332.9584 143.982,332.9584 143.982,323.9595 143.982,314.9606 143.982,305.9618 152.9809,305.9618 161.9798,305.9618 161.9798,296.9629 161.9798,287.964 161.9798,278.9651 152.9809,278.9651 143.982,278.9651 134.9831,278.9651 134.9831,287.964 134.9831,296.9629 125.9843,296.9629 116.9854,296.9629 107.9865,296.9629 107.9865,287.964 107.9865,278.9651 98.9876,278.9651 89.9888,278.9651 80.9899,278.9651 80.9899,287.964 80.9899,296.9629 80.9899,305.9618 89.9888,305.9618 98.9876,305.9618 98.9876,314.9606 89.9888,314.9606 80.9899,314.9606 80.9899,323.9595 80.9899,332.9584 80.9899,341.9573 89.9888,341.9573 98.9876,341.9573 107.9865,341.9573 107.9865,332.9584 107.9865,323.9595 116.9854,323.9595 125.9843,323.9595 134.9831,323.9595 134.9831,332.9584 134.9831,341.9573 134.9831,350.9561 125.9843,350.9561 116.9854,350.9561 116.9854,359.955 116.9854,368.9539 116.9854,377.9528 125.9843,377.9528 134.9831,377.9528 134.9831,386.9516 134.9831,395.9505 134.9831,404.9494 125.9843,404.9494 116.9854,404.9494 107.9865,404.9494 107.9865,395.9505 107.9865,386.9516 98.9876,386.9516 98.9876,395.9505 98.9876,404.9494 89.9888,404.9494 80.9899,404.9494 71.991,404.9494 71.991,395.9505 71.991,386.9516 71.991,377.9528 80.9899,377.9528 89.9888,377.9528 89.9888,368.9539 89.9888,359.955 89.9888,350.9561 80.9899,350.9561 71.991,350.9561 62.9921,350.9561 53.9933,350.9561 44.9944,350.9561 44.9944,359.955 44.9944,368.9539 44.9944,377.9528 53.9933,377.9528 62.9921,377.9528 62.9921,386.9516 62.9921,395.9505 62.9921,404.9494 53.9933,404.9494 44.9944,404.9494 35.9955,404.9494 35.9955,395.9505 35.9955,386.9516 26.9966,386.9516 26.9966,395.9505 26.9966,404.9494 17.9978,404.9494 8.9989,404.9494 0.0,404.9494 0.0,395.9505 0.0,386.9516 0.0,377.9528 8.9989,377.9528 17.9978,377.9528 17.9978,368.9539 17.9978,359.955 17.9978,350.9561 8.9989,350.9561 0.0,350.9561 0.0,341.9573 0.0,332.9584 0.0,323.9595 8.9989,323.9595 17.9978,323.9595 26.9966,323.9595 26.9966,332.9584 26.9966,341.9573 35.9955,341.9573 44.9944,341.9573 53.9933,341.9573 53.9933,332.9584 53.9933,323.9595 53.9933,314.9606 44.9944,314.9606 35.9955,314.9606 35.9955,305.9618 44.9944,305.9618 53.9933,305.9618 53.9933,296.9629 53.9933,287.964 53.9933,278.9651 44.9944,278.9651 35.9955,278.9651 26.9966,278.9651 26.9966,287.964 26.9966,296.9629 17.9978,296.9629 8.9989,296.9629 0.0,296.9629 0.0,287.964 0.0,278.9651 0.0,269.9663 8.9989,269.9663 17.9978,269.9663 17.9978,260.9674 17.9978,251.9685 17.9978,242.9696 8.9989,242.9696 0.0,242.9696 0.0,233.9708 0.0,224.9719 0.0,215.973 8.9989,215.973 17.9978,215.973 26.9966,215.973 26.9966,224.9719 26.9966,233.9708 35.9955,233.9708 35.9955,224.9719 35.9955,215.973 44.9944,215.973 53.9933,215.973 62.9921,215.973 62.9921,224.9719 62.9921,233.9708 62.9921,242.9696 53.9933,242.9696 44.9944,242.9696 44.9944,251.9685 44.9944,260.9674 44.9944,269.9663 53.9933,269.9663 62.9921,269.9663 71.991,269.9663 71.991,260.9674 71.991,251.9685 80.9899,251.9685 89.9888,251.9685 98.9876,251.9685 98.9876,260.9674 98.9876,269.9663 107.9865,269.9663 116.9854,269.9663 125.9843,269.9663 125.9843,260.9674 125.9843,251.9685 125.9843,242.9696 116.9854,242.9696 107.9865,242.9696 107.9865,233.9708 116.9854,233.9708 125.9843,233.9708 125.9843,224.9719 125.9843,215.973 125.9843,206.9741 116.9854,206.9741 107.9865,206.9741 98.9876,206.9741 98.9876,215.973 98.9876,224.9719 89.9888,224.9719 80.9899,224.9719 71.991,224.9719 71.991,215.973 71.991,206.9741 71.991,197.9753 71.991,188.9764 71.991,179.9775 80.9899,179.9775 89.9888,179.9775 98.9876,179.9775 98.9876,188.9764 98.9876,197.9753 107.9865,197.9753 116.9854,197.9753 125.9843,197.9753 125.9843,188.9764 125.9843,179.9775 125.9843,170.9786 116.9854,170.9786 107.9865,170.9786 107.9865,161.9798 116.9854,161.9798 125.9843,161.9798 125.9843,152.9809 125.9843,143.982 125.9843,134.9831 116.9854,134.9831 107.9865,134.9831 98.9876,134.9831 98.9876,143.982 98.9876,152.9809 89.9888,152.9809 80.9899,152.9809 71.991,152.9809 71.991,143.982 71.991,134.9831 62.9921,134.9831 53.9933,134.9831 44.9944,134.9831 44.9944,143.982 44.9944,152.9809 44.9944,161.9798 53.9933,161.9798 62.9921,161.9798 62.9921,170.9786 62.9921,179.9775 62.9921,188.9764 53.9933,188.9764 44.9944,188.9764 35.9955,188.9764 35.9955,179.9775 35.9955,170.9786 26.9966,170.9786 26.9966,179.9775 26.9966,188.9764 17.9978,188.9764 8.9989,188.9764 0.0,188.9764 0.0,179.9775 0.0,170.9786 0.0,161.9798 8.9989,161.9798 17.9978,161.9798 17.9978,152.9809 17.9978,143.982 17.9978,134.9831 8.9989,134.9831 0.0,134.9831 0.0,125.9843 0.0,116.9854 0.0,107.9865 8.9989,107.9865 17.9978,107.9865 26.9966,107.9865 26.9966,116.9854 26.9966,125.9843 35.9955,125.9843 44.9944,125.9843 53.9933,125.9843 53.9933,116.9854 53.9933,107.9865 53.9933,98.9876 44.9944,98.9876 35.9955,98.9876 35.9955,89.9888 44.9944,89.9888 53.9933,89.9888 53.9933,80.9899 53.9933,71.991 53.9933,62.9921 44.9944,62.9921 35.9955,62.9921 26.9966,62.9921 26.9966,71.991 26.9966,80.9899 17.9978,80.9899 8.9989,80.9899 0.0,80.9899 0.0,71.991 0.0,62.9921 0.0,53.9933 8.9989,53.9933 17.9978,53.9933 17.9978,44.9944 17.9978,35.9955 17.9978,26.9966 8.9989,26.9966 0.0,26.9966 0.0,17.9978 0.0,8.9989 0.0,0.0 8.9989,0.0 17.9978,0.0 26.9966,0.0 26.9966,8.9989 26.9966,17.9978 35.9955,17.9978 35.9955,8.9989 35.9955,0.0 44.9944,0.0 53.9933,0.0 62.9921,0.0 62.9921,8.9989 62.9921,17.9978 62.9921,26.9966 53.9933,26.9966 44.9944,26.9966 44.9944,35.9955 44.9944,44.9944 44.9944,53.9933 53.9933,53.9933 62.9921,53.9933 71.991,53.9933 80.9899,53.9933 89.9888,53.9933 89.9888,44.9944 89.9888,35.9955 89.9888,26.9966 80.9899,26.9966 71.991,26.9966 71.991,17.9978 71.991,8.9989 71.991,0.0 80.9899,0.0 89.9888,0.0 98.9876,0.0 98.9876,8.9989 98.9876,17.9978 107.9865,17.9978 107.9865,8.9989 107.9865,0.0 116.9854,0.0 125.9843,0.0 134.9831,0.0 134.9831,8.9989 134.9831,17.9978 134.9831,26.9966 125.9843,26.9966 116.9854,26.9966 116.9854,35.9955 116.9854,44.9944 116.9854,53.9933 125.9843,53.9933 134.9831,53.9933 134.9831,62.9921 134.9831,71.991 134.9831,80.9899 125.9843,80.9899 116.9854,80.9899 107.9865,80.9899 107.9865,71.991 107.9865,62.9921 98.9876,62.9921 89.9888,62.9921 80.9899,62.9921 80.9899,71.991 80.9899,80.9899 80.9899,89.9888 89.9888,89.9888 98.9876,89.9888 98.9876,98.9876 89.9888,98.9876 80.9899,98.9876 80.9899,107.9865 80.9899,116.9854 80.9899,125.9843 89.9888,125.9843 98.9876,125.9843 107.9865,125.9843 107.9865,116.9854 107.9865,107.9865 116.9854,107.9865 125.9843,107.9865 134.9831,107.9865 134.9831,116.9854 134.9831,125.9843 143.982,125.9843 143.982,116.9854 143.982,107.9865 152.9809,107.9865 161.9798,107.9865 170.9786,107.9865 170.9786,116.9854 170.9786,125.9843 179.9775,125.9843 188.9764,125.9843 197.9753,125.9843 197.9753,116.9854 197.9753,107.9865 197.9753,98.9876 188.9764,98.9876 179.9775,98.9876 179.9775,89.9888 188.9764,89.9888 197.9753,89.9888 197.9753,80.9899 197.9753,71.991 197.9753,62.9921 188.9764,62.9921 179.9775,62.9921 170.9786,62.9921 170.9786,71.991 170.9786,80.9899 161.9798,80.9899 152.9809,80.9899 143.982,80.9899 143.982,71.991 143.982,62.9921 143.982,53.9933 152.9809,53.9933 161.9798,53.9933 161.9798,44.9944 161.9798,35.9955 161.9798,26.9966 152.9809,26.9966 143.982,26.9966 143.982,17.9978 143.982,8.9989 143.982,0.0 152.9809,0.0 161.9798,0.0 170.9786,0.0 170.9786,8.9989 170.9786,17.9978 179.9775,17.9978 179.9775,8.9989 179.9775,0.0 188.9764,0.0 197.9753,0.0 206.9741,0.0 206.9741,8.9989 206.9741,17.9978 206.9741,26.9966 197.9753,26.9966 188.9764,26.9966 188.9764,35.9955 188.9764,44.9944 188.9764,53.9933 197.9753,53.9933 206.9741,53.9933 215.973,53.9933 224.9719,53.9933 233.9708,53.9933 233.9708,44.9944 233.9708,35.9955 233.9708,26.9966 224.9719,26.9966 215.973,26.9966 215.973,17.9978 215.973,8.9989 215.973,0.0 224.9719,0.0 233.9708,0.0 242.9696,0.0 242.9696,8.9989 242.9696,17.9978 251.9685,17.9978 251.9685,8.9989 251.9685,0.0 260.9674,0.0 269.9663,0.0 278.9651,0.0 278.9651,8.9989 278.9651,17.9978 278.9651,26.9966 269.9663,26.9966 260.9674,26.9966 260.9674,35.9955 260.9674,44.9944 260.9674,53.9933 269.9663,53.9933 278.9651,53.9933 278.9651,62.9921 278.9651,71.991 278.9651,80.9899 269.9663,80.9899 260.9674,80.9899 251.9685,80.9899 251.9685,71.991 251.9685,62.9921 242.9696,62.9921 233.9708,62.9921 224.9719,62.9921 224.9719,71.991 224.9719,80.9899 224.9719,89.9888 233.9708,89.9888 242.9696,89.9888 242.9696,98.9876 233.9708,98.9876 224.9719,98.9876 224.9719,107.9865 224.9719,116.9854 224.9719,125.9843 233.9708,125.9843 242.9696,125.9843 251.9685,125.9843 251.9685,116.9854 251.9685,107.9865 260.9674,107.9865 269.9663,107.9865 278.9651,107.9865 278.9651,116.9854 278.9651,125.9843 278.9651,134.9831 269.9663,134.9831 260.9674,134.9831 260.9674,143.982 260.9674,152.9809 260.9674,161.9798 269.9663,161.9798 278.9651,161.9798 278.9651,170.9786 278.9651,179.9775 278.9651,188.9764 269.9663,188.9764 260.9674,188.9764 251.9685,188.9764 251.9685,179.9775 251.9685,170.9786 242.9696,170.9786 242.9696,179.9775 242.9696,188.9764 233.9708,188.9764 224.9719,188.9764 215.973,188.9764 215.973,179.9775 215.973,170.9786 215.973,161.9798 224.9719,161.9798 233.9708,161.9798 233.9708,152.9809 233.9708,143.982 233.9708,134.9831 224.9719,134.9831 215.973,134.9831 206.9741,134.9831 206.9741,143.982 206.9741,152.9809 197.9753,152.9809 188.9764,152.9809 179.9775,152.9809 179.9775,143.982 179.9775,134.9831 170.9786,134.9831 161.9798,134.9831 152.9809,134.9831 152.9809,143.982 152.9809,152.9809 152.9809,161.9798 161.9798,161.9798 170.9786,161.9798 170.9786,170.9786 161.9798,170.9786 152.9809,170.9786 152.9809,179.9775 152.9809,188.9764 152.9809,197.9753 161.9798,197.9753 170.9786,197.9753 179.9775,197.9753 179.9775,188.9764 179.9775,179.9775 188.9764,179.9775 197.9753,179.9775 206.9741,179.9775 206.9741,188.9764 206.9741,197.9753 206.9741,206.9741 206.9741,215.973 206.9741,224.9719 197.9753,224.9719 188.9764,224.9719 179.9775,224.9719 179.9775,215.973 179.9775,206.9741 170.9786,206.9741 161.9798,206.9741 152.9809,206.9741 152.9809,215.973 152.9809,224.9719 152.9809,233.9708 161.9798,233.9708 170.9786,233.9708 170.9786,242.9696 161.9798,242.9696 152.9809,242.9696 152.9809,251.9685 152.9809,260.9674 152.9809,269.9663 161.9798,269.9663 170.9786,269.9663 179.9775,269.9663 179.9775,260.9674 179.9775,251.9685 188.9764,251.9685 197.9753,251.9685 206.9741,251.9685 206.9741,260.9674 206.9741,269.9663 215.973,269.9663 224.9719,269.9663 233.9708,269.9663 233.9708,260.9674 233.9708,251.9685 233.9708,242.9696 224.9719,242.9696 215.973,242.9696 215.973,233.9708 215.973,224.9719 215.973,215.973 224.9719,215.973 233.9708,215.973 242.9696,215.973 242.9696,224.9719 242.9696,233.9708 251.9685,233.9708 251.9685,224.9719 251.9685,215.973 260.9674,215.973 269.9663,215.973 278.9651,215.973 278.9651,224.9719 278.9651,233.9708 278.9651,242.9696 269.9663,242.9696 260.9674,242.9696 260.9674,251.9685 260.9674,260.9674 260.9674,269.9663 269.9663,269.9663 278.9651,269.9663 287.964,269.9663 296.9629,269.9663 305.9618,269.9663 305.9618,260.9674 305.9618,251.9685 305.9618,242.9696 296.9629,242.9696 287.964,242.9696 287.964,233.9708 287.964,224.9719 287.964,215.973 296.9629,215.973 305.9618,215.973 314.9606,215.973 314.9606,224.9719 314.9606,233.9708 323.9595,233.9708 323.9595,224.9719 323.9595,215.973 332.9584,215.973 341.9573,215.973 350.9561,215.973 350.9561,224.9719 350.9561,233.9708 350.9561,242.9696 341.9573,242.9696 332.9584,242.9696 332.9584,251.9685 332.9584,260.9674 332.9584,269.9663 341.9573,269.9663 350.9561,269.9663 359.955,269.9663 359.955,260.9674 359.955,251.9685 368.9539,251.9685 377.9528,251.9685 386.9516,251.9685 386.9516,260.9674 386.9516,269.9663 395.9505,269.9663 404.9494,269.9663 413.9483,269.9663 413.9483,260.9674 413.9483,251.9685 413.9483,242.9696 404.9494,242.9696 395.9505,242.9696 395.9505,233.9708 404.9494,233.9708 413.9483,233.9708 413.9483,224.9719 413.9483,215.973 413.9483,206.9741 404.9494,206.9741 395.9505,206.9741 386.9516,206.9741 386.9516,215.973 386.9516,224.9719 377.9528,224.9719 368.9539,224.9719 359.955,224.9719 359.955,215.973 359.955,206.9741 359.955,197.9753 359.955,188.9764 359.955,179.9775 368.9539,179.9775 377.9528,179.9775 386.9516,179.9775 386.9516,188.9764 386.9516,197.9753 395.9505,197.9753 404.9494,197.9753 413.9483,197.9753 413.9483,188.9764 413.9483,179.9775 413.9483,170.9786 404.9494,170.9786 395.9505,170.9786 395.9505,161.9798 404.9494,161.9798 413.9483,161.9798 413.9483,152.9809 413.9483,143.982 413.9483,134.9831 404.9494,134.9831 395.9505,134.9831 386.9516,134.9831 386.9516,143.982 386.9516,152.9809 377.9528,152.9809 368.9539,152.9809 359.955,152.9809 359.955,143.982 359.955,134.9831 350.9561,134.9831 341.9573,134.9831 332.9584,134.9831 332.9584,143.982 332.9584,152.9809 332.9584,161.9798 341.9573,161.9798 350.9561,161.9798 350.9561,170.9786 350.9561,179.9775 350.9561,188.9764 341.9573,188.9764 332.9584,188.9764 323.9595,188.9764 323.9595,179.9775 323.9595,170.9786 314.9606,170.9786 314.9606,179.9775 314.9606,188.9764 305.9618,188.9764 296.9629,188.9764 287.964,188.9764 287.964,179.9775 287.964,170.9786 287.964,161.9798 296.9629,161.9798 305.9618,161.9798 305.9618,152.9809 305.9618,143.982 305.9618,134.9831 296.9629,134.9831 287.964,134.9831 287.964,125.9843 287.964,116.9854 287.964,107.9865 296.9629,107.9865 305.9618,107.9865 314.9606,107.9865 314.9606,116.9854 314.9606,125.9843 323.9595,125.9843 332.9584,125.9843 341.9573,125.9843 341.9573,116.9854 341.9573,107.9865 341.9573,98.9876 332.9584,98.9876 323.9595,98.9876 323.9595,89.9888 332.9584,89.9888 341.9573,89.9888 341.9573,80.9899 341.9573,71.991 341.9573,62.9921 332.9584,62.9921 323.9595,62.9921 314.9606,62.9921 314.9606,71.991 314.9606,80.9899 305.9618,80.9899 296.9629,80.9899 287.964,80.9899 287.964,71.991 287.964,62.9921 287.964,53.9933 296.9629,53.9933 305.9618,53.9933 305.9618,44.9944 305.9618,35.9955 305.9618,26.9966 296.9629,26.9966 287.964,26.9966 287.964,17.9978 287.964,8.9989 287.964,0.0 296.9629,0.0 305.9618,0.0 314.9606,0.0 314.9606,8.9989 314.9606,17.9978 323.9595,17.9978 323.9595,8.9989 323.9595,0.0 332.9584,0.0 341.9573,0.0 350.9561,0.0 350.9561,8.9989 350.9561,17.9978 350.9561,26.9966 341.9573,26.9966 332.9584,26.9966 332.9584,35.9955 332.9584,44.9944 332.9584,53.9933 341.9573,53.9933 350.9561,53.9933 359.955,53.9933 368.9539,53.9933 377.9528,53.9933 377.9528,44.9944 377.9528,35.9955 377.9528,26.9966 368.9539,26.9966 359.955,26.9966 359.955,17.9978 359.955,8.9989 359.955,0.0 368.9539,0.0 377.9528,0.0 386.9516,0.0 386.9516,8.9989 386.9516,17.9978 395.9505,17.9978 395.9505,8.9989 395.9505,0.0 404.9494,0.0 413.9483,0.0 422.9471,0.0 422.9471,8.9989 422.9471,17.9978 422.9471,26.9966 413.9483,26.9966 404.9494,26.9966 404.9494,35.9955 404.9494,44.9944 404.9494,53.9933 413.9483,53.9933 422.9471,53.9933 422.9471,62.9921 422.9471,71.991 422.9471,80.9899 413.9483,80.9899 404.9494,80.9899 395.9505,80.9899 395.9505,71.991 395.9505,62.9921 386.9516,62.9921 377.9528,62.9921 368.9539,62.9921 368.9539,71.991 368.9539,80.9899 368.9539,89.9888 377.9528,89.9888 386.9516,89.9888 386.9516,98.9876 377.9528,98.9876 368.9539,98.9876 368.9539,107.9865 368.9539,116.9854 368.9539,125.9843 377.9528,125.9843 386.9516,125.9843 395.9505,125.9843 395.9505,116.9854 395.9505,107.9865 404.9494,107.9865 413.9483,107.9865 422.9471,107.9865 422.9471,116.9854 422.9471,125.9843 431.946,125.9843 431.946,116.9854 431.946,107.9865 440.9449,107.9865 449.9438,107.9865 458.9426,107.9865 458.9426,116.9854 458.9426,125.9843 467.9415,125.9843 476.9404,125.9843 485.9393,125.9843 485.9393,116.9854 485.9393,107.9865 485.9393,98.9876 476.9404,98.9876 467.9415,98.9876 467.9415,89.9888 476.9404,89.9888 485.9393,89.9888 485.9393,80.9899 485.9393,71.991 485.9393,62.9921 476.9404,62.9921 467.9415,62.9921 458.9426,62.9921 458.9426,71.991 458.9426,80.9899 449.9438,80.9899 440.9449,80.9899 431.946,80.9899 431.946,71.991 431.946,62.9921 431.946,53.9933 440.9449,53.9933 449.9438,53.9933 449.9438,44.9944 449.9438,35.9955 449.9438,26.9966 440.9449,26.9966 431.946,26.9966 431.946,17.9978 431.946,8.9989 431.946,0.0 440.9449,0.0 449.9438,0.0 458.9426,0.0 458.9426,8.9989 458.9426,17.9978 467.9415,17.9978 467.9415,8.9989 467.9415,0.0 476.9404,0.0 485.9393,0.0 494.9381,0.0 494.9381,8.9989 494.9381,17.9978 494.9381,26.9966 485.9393,26.9966 476.9404,26.9966 476.9404,35.9955 476.9404,44.9944 476.9404,53.9933 485.9393,53.9933 494.9381,53.9933 503.937,53.9933 512.9359,53.9933 521.9348,53.9933 521.9348,44.9944 521.9348,35.9955 521.9348,26.9966 512.9359,26.9966 503.937,26.9966 503.937,17.9978 503.937,8.9989 503.937,0.0 512.9359,0.0 521.9348,0.0 530.9336,0.0 530.9336,8.9989 530.9336,17.9978 539.9325,17.9978 539.9325,8.9989 539.9325,0.0 548.9314,0.0 557.9303,0.0 566.9291,0.0 566.9291,8.9989 566.9291,17.9978 566.9291,26.9966 557.9303,26.9966 548.9314,26.9966 548.9314,35.9955 548.9314,44.9944 548.9314,53.9933 557.9303,53.9933 566.9291,53.9933 566.9291,62.9921 566.9291,71.991 566.9291,80.9899 557.9303,80.9899 548.9314,80.9899 539.9325,80.9899 539.9325,71.991 539.9325,62.9921 530.9336,62.9921 521.9348,62.9921 512.9359,62.9921 512.9359,71.991 512.9359,80.9899 512.9359,89.9888 521.9348,89.9888 530.9336,89.9888 530.9336,98.9876 521.9348,98.9876 512.9359,98.9876 512.9359,107.9865 512.9359,116.9854 512.9359,125.9843 521.9348,125.9843 530.9336,125.9843 539.9325,125.9843 539.9325,116.9854 539.9325,107.9865 548.9314,107.9865 557.9303,107.9865 566.9291,107.9865 566.9291,116.9854 566.9291,125.9843 566.9291,134.9831 557.9303,134.9831 548.9314,134.9831 548.9314,143.982 548.9314,152.9809 548.9314,161.9798 557.9303,161.9798 566.9291,161.9798 566.9291,170.9786 566.9291,179.9775 566.9291,188.9764 557.9303,188.9764 548.9314,188.9764 539.9325,188.9764 539.9325,179.9775 539.9325,170.9786 530.9336,170.9786 530.9336,179.9775 530.9336,188.9764 521.9348,188.9764 512.9359,188.9764 503.937,188.9764 503.937,179.9775 503.937,170.9786 503.937,161.9798 512.9359,161.9798 521.9348,161.9798 521.9348,152.9809 521.9348,143.982 521.9348,134.9831 512.9359,134.9831 503.937,134.9831 494.9381,134.9831 494.9381,143.982 494.9381,152.9809 485.9393,152.9809 476.9404,152.9809 467.9415,152.9809 467.9415,143.982 467.9415,134.9831 458.9426,134.9831 449.9438,134.9831 440.9449,134.9831 440.9449,143.982 440.9449,152.9809 440.9449,161.9798 449.9438,161.9798 458.9426,161.9798 458.9426,170.9786 449.9438,170.9786 440.9449,170.9786 440.9449,179.9775 440.9449,188.9764 440.9449,197.9753 449.9438,197.9753 458.9426,197.9753 467.9415,197.9753 467.9415,188.9764 467.9415,179.9775 476.9404,179.9775 485.9393,179.9775 494.9381,179.9775 494.9381,188.9764 494.9381,197.9753 494.9381,206.9741 494.9381,215.973 494.9381,224.9719 485.9393,224.9719 476.9404,224.9719 467.9415,224.9719 467.9415,215.973 467.9415,206.9741 458.9426,206.9741 449.9438,206.9741 440.9449,206.9741 440.9449,215.973 440.9449,224.9719 440.9449,233.9708 449.9438,233.9708 458.9426,233.9708 458.9426,242.9696 449.9438,242.9696 440.9449,242.9696 440.9449,251.9685 440.9449,260.9674 440.9449,269.9663 449.9438,269.9663 458.9426,269.9663 467.9415,269.9663 467.9415,260.9674 467.9415,251.9685 476.9404,251.9685 485.9393,251.9685 494.9381,251.9685 494.9381,260.9674 494.9381,269.9663 503.937,269.9663 512.9359,269.9663 521.9348,269.9663 521.9348,260.9674 521.9348,251.9685 521.9348,242.9696 512.9359,242.9696 503.937,242.9696 503.937,233.9708 503.937,224.9719 503.937,215.973 512.9359,215.973 521.9348,215.973 530.9336,215.973 530.9336,224.9719 530.9336,233.9708 539.9325,233.9708 539.9325,224.9719 539.9325,215.973 548.9314,215.973 557.9303,215.973 566.9291,215.973 566.9291,224.9719 566.9291,233.9708 566.9291,242.9696 557.9303,242.9696 548.9314,242.9696 548.9314,251.9685 548.9314,260.9674 548.9314,269.9663 557.9303,269.9663 566.9291,269.9663 566.9291,278.9651 566.9291,287.964 566.9291,296.9629 557.9303,296.9629 548.9314,296.9629 539.9325,296.9629 539.9325,287.964 539.9325,278.9651 530.9336,278.9651 521.9348,278.9651 512.9359,278.9651 512.9359,287.964 512.9359,296.9629 512.9359,305.9618 521.9348,305.9618 530.9336,305.9618 530.9336,314.9606 521.9348,314.9606 512.9359,314.9606 512.9359,323.9595 512.9359,332.9584 512.9359,341.9573 521.9348,341.9573 530.9336,341.9573 539.9325,341.9573 539.9325,332.9584 539.9325,323.9595 548.9314,323.9595 557.9303,323.9595 566.9291,323.9595 566.9291,332.9584 566.9291,341.9573 566.9291,350.9561 557.9303,350.9561 548.9314,350.9561 548.9314,359.955 548.9314,368.9539 548.9314,377.9528 557.9303,377.9528 566.9291,377.9528 566.9291,386.9516 566.9291,395.9505 566.9291,404.9494 557.9303,404.9494 548.9314,404.9494 539.9325,404.9494 539.9325,395.9505 539.9325,386.9516 530.9336,386.9516 530.9336,395.9505 530.9336,404.9494 521.9348,404.9494 512.9359,404.9494 503.937,404.9494 503.937,395.9505 503.937,386.9516 503.937,377.9528 512.9359,377.9528 521.9348,377.9528 521.9348,368.9539 521.9348,359.955 521.9348,350.9561 512.9359,350.9561 503.937,350.9561 494.9381,350.9561 485.9393,350.9561 476.9404,350.9561 476.9404,359.955 476.9404,368.9539 476.9404,377.9528 485.9393,377.9528 494.9381,377.9528 494.9381,386.9516 494.9381,395.9505 494.9381,404.9494 485.9393,404.9494 476.9404,404.9494 467.9415,404.9494 467.9415,395.9505 467.9415,386.9516 458.9426,386.9516 458.9426,395.9505 458.9426,404.9494 449.9438,404.9494 440.9449,404.9494 431.946,404.9494 431.946,395.9505 431.946,386.9516 431.946,377.9528 440.9449,377.9528 449.9438,377.9528 449.9438,368.9539 449.9438,359.955 449.9438,350.9561 440.9449,350.9561 431.946,350.9561 431.946,341.9573 431.946,332.9584 431.946,323.9595 440.9449,323.9595 449.9438,323.9595 458.9426,323.9595 458.9426,332.9584 458.9426,341.9573 467.9415,341.9573 476.9404,341.9573 485.9393,341.9573 485.9393,332.9584 485.9393,323.9595 485.9393,314.9606 476.9404,314.9606 467.9415,314.9606 467.9415,305.9618 476.9404,305.9618 485.9393,305.9618 485.9393,296.9629 485.9393,287.964 485.9393,278.9651 476.9404,278.9651 467.9415,278.9651 458.9426,278.9651 458.9426,287.964 458.9426,296.9629 449.9438,296.9629 440.9449,296.9629 431.946,296.9629 431.946,287.964 431.946,278.9651 422.9471,278.9651 413.9483,278.9651 404.9494,278.9651 404.9494,287.964 404.9494,296.9629 404.9494,305.9618 413.9483,305.9618 422.9471,305.9618 422.9471,314.9606 422.9471,323.9595 422.9471,332.9584 413.9483,332.9584 404.9494,332.9584 395.9505,332.9584 395.9505,323.9595 395.9505,314.9606 386.9516,314.9606 386.9516,323.9595 386.9516,332.9584 377.9528,332.9584 368.9539,332.9584 359.955,332.9584 359.955,323.9595 359.955,314.9606 359.955,305.9618 368.9539,305.9618 377.9528,305.9618 377.9528,296.9629 377.9528,287.964 377.9528,278.9651 368.9539,278.9651 359.955,278.9651 350.9561,278.9651 350.9561,287.964 350.9561,296.9629 341.9573,296.9629 332.9584,296.9629 323.9595,296.9629 323.9595,287.964 323.9595,278.9651 314.9606,278.9651 305.9618,278.9651 296.9629,278.9651 296.9629,287.964 296.9629,296.9629 296.9629,305.9618 305.9618,305.9618 314.9606,305.9618 314.9606,314.9606 305.9618,314.9606 296.9629,314.9606 296.9629,323.9595 296.9629,332.9584 296.9629,341.9573 305.9618,341.9573 314.9606,341.9573 323.9595,341.9573 323.9595,332.9584 323.9595,323.9595 332.9584,323.9595 341.9573,323.9595 350.9561,323.9595 350.9561,332.9584 350.9561,341.9573 350.9561,350.9561 350.9561,359.955 350.9561,368.9539 341.9573,368.9539 332.9584,368.9539 323.9595,368.9539 323.9595,359.955 323.9595,350.9561 314.9606,350.9561 305.9618,350.9561 296.9629,350.9561 296.9629,359.955 296.9629,368.9539 296.9629,377.9528 305.9618,377.9528 314.9606,377.9528 314.9606,386.9516 305.9618,386.9516 296.9629,386.9516 296.9629,395.9505 296.9629,404.9494 296.9629,413.9483 305.9618,413.9483 314.9606,413.9483 323.9595,413.9483 323.9595,404.9494 323.9595,395.9505 332.9584,395.9505 341.9573,395.9505 350.9561,395.9505 350.9561,404.9494 350.9561,413.9483 359.955,413.9483 368.9539,413.9483 377.9528,413.9483 377.9528,404.9494 377.9528,395.9505 377.9528,386.9516 368.9539,386.9516 359.955,386.9516 359.955,377.9528 359.955,368.9539 359.955,359.955 368.9539,359.955 377.9528,359.955 386.9516,359.955 386.9516,368.9539 386.9516,377.9528 395.9505,377.9528 395.9505,368.9539 395.9505,359.955 404.9494,359.955 413.9483,359.955 422.9471,359.955 422.9471,368.9539 422.9471,377.9528 422.9471,386.9516 413.9483,386.9516 404.9494,386.9516 404.9494,395.9505 404.9494,404.9494 404.9494,413.9483 413.9483,413.9483 422.9471,413.9483 422.9471,422.9471 413.9483,422.9471 404.9494,422.9471 404.9494,431.946 404.9494,440.9449 404.9494,449.9438 413.9483,449.9438 422.9471,449.9438 422.9471,458.9426 422.9471,467.9415 422.9471,476.9404 413.9483,476.9404 404.9494,476.9404 395.9505,476.9404 395.9505,467.9415 395.9505,458.9426 386.9516,458.9426 386.9516,467.9415 386.9516,476.9404 377.9528,476.9404 368.9539,476.9404 359.955,476.9404 359.955,467.9415 359.955,458.9426 359.955,449.9438 368.9539,449.9438 377.9528,449.9438 377.9528,440.9449 377.9528,431.946 377.9528,422.9471 368.9539,422.9471 359.955,422.9471 350.9561,422.9471 350.9561,431.946 350.9561,440.9449 341.9573,440.9449 332.9584,440.9449 323.9595,440.9449 323.9595,431.946 323.9595,422.9471 314.9606,422.9471 305.9618,422.9471 296.9629,422.9471 296.9629,431.946 296.9629,440.9449 296.9629,449.9438 305.9618,449.9438 314.9606,449.9438 314.9606,458.9426 305.9618,458.9426 296.9629,458.9426 296.9629,467.9415 296.9629,476.9404 296.9629,485.9393 305.9618,485.9393 314.9606,485.9393 323.9595,485.9393 323.9595,476.9404 323.9595,467.9415 332.9584,467.9415 341.9573,467.9415 350.9561,467.9415 350.9561,476.9404 350.9561,485.9393 350.9561,494.9381 350.9561,503.937 350.9561,512.9359 341.9573,512.9359 332.9584,512.9359 323.9595,512.9359 323.9595,503.937 323.9595,494.9381 314.9606,494.9381 305.9618,494.9381 296.9629,494.9381 296.9629,503.937 296.9629,512.9359 296.9629,521.9348 305.9618,521.9348 314.9606,521.9348 314.9606,530.9336 305.9618,530.9336 296.9629,530.9336 296.9629,539.9325 296.9629,548.9314 296.9629,557.9303 305.9618,557.9303 314.9606,557.9303 323.9595,557.9303 323.9595,548.9314 323.9595,539.9325 332.9584,539.9325 341.9573,539.9325 350.9561,539.9325 350.9561,548.9314 350.9561,557.9303 359.955,557.9303 368.9539,557.9303 377.9528,557.9303 377.9528,548.9314 377.9528,539.9325 377.9528,530.9336 368.9539,530.9336 359.955,530.9336 359.955,521.9348 359.955,512.9359 359.955,503.937 368.9539,503.937 377.9528,503.937 386.9516,503.937 386.9516,512.9359 386.9516,521.9348 395.9505,521.9348 395.9505,512.9359 395.9505,503.937 404.9494,503.937 413.9483,503.937 422.9471,503.937 422.9471,512.9359 422.9471,521.9348 422.9471,530.9336 413.9483,530.9336 404.9494,530.9336 404.9494,539.9325 404.9494,548.9314 404.9494,557.9303 413.9483,557.9303 422.9471,557.9303 431.946,557.9303 431.946,548.9314 431.946,539.9325 440.9449,539.9325 449.9438,539.9325 458.9426,539.9325 458.9426,548.9314 458.9426,557.9303 467.9415,557.9303 476.9404,557.9303 485.9393,557.9303 485.9393,548.9314 485.9393,539.9325 485.9393,530.9336 476.9404,530.9336 467.9415,530.9336 467.9415,521.9348 476.9404,521.9348 485.9393,521.9348 485.9393,512.9359 485.9393,503.937 485.9393,494.9381 476.9404,494.9381 467.9415,494.9381 458.9426,494.9381 458.9426,503.937 458.9426,512.9359 449.9438,512.9359 440.9449,512.9359 431.946,512.9359 431.946,503.937 431.946,494.9381 431.946,485.9393 440.9449,485.9393 449.9438,485.9393 449.9438,476.9404 449.9438,467.9415 449.9438,458.9426 440.9449,458.9426 431.946,458.9426 431.946,449.9438 431.946,440.9449 431.946,431.946 440.9449,431.946 449.9438,431.946 458.9426,431.946 458.9426,440.9449 458.9426,449.9438 467.9415,449.9438 467.9415,440.9449 467.9415,431.946 476.9404,431.946 485.9393,431.946 494.9381,431.946 494.9381,440.9449 494.9381,449.9438 494.9381,458.9426 485.9393,458.9426 476.9404,458.9426 476.9404,467.9415 476.9404,476.9404 476.9404,485.9393 485.9393,485.9393 494.9381,485.9393 503.937,485.9393 512.9359,485.9393 521.9348,485.9393 521.9348,476.9404 521.9348,467.9415 521.9348,458.9426 512.9359,458.9426 503.937,458.9426 503.937,449.9438 503.937,440.9449 503.937,431.946 512.9359,431.946 521.9348,431.946 530.9336,431.946 530.9336,440.9449 530.9336,449.9438 539.9325,449.9438 539.9325,440.9449 539.9325,431.946 548.9314,431.946 557.9303,431.946 566.9291,431.946 566.9291,440.9449 566.9291,449.9438 566.9291,458.9426 557.9303,458.9426 548.9314,458.9426 548.9314,467.9415 548.9314,476.9404 548.9314,485.9393 557.9303,485.9393 566.9291,485.9393 566.9291,494.9381 566.9291,503.937 566.9291,512.9359 557.9303,512.9359 548.9314,512.9359 539.9325,512.9359 539.9325,503.937 539.9325,494.9381 530.9336,494.9381 521.9348,494.9381 512.9359,494.9381 512.9359,503.937 512.9359,512.9359 512.9359,521.9348 521.9348,521.9348 530.9336,521.9348 530.9336,530.9336 521.9348,530.9336 512.9359,530.9336 512.9359,539.9325 512.9359,548.9314 512.9359,557.9303 521.9348,557.9303 530.9336,557.9303 539.9325,557.9303 539.9325,548.9314 539.9325,539.9325 548.9314,539.9325 557.9303,539.9325 566.9291,539.9325 566.9291,548.9314 566.9291,557.9303"/>
  </g>
</svg>
