<?xml version="1.0" encoding="utf-8" ?>
<svg xmlns="http://www.w3.org/2000/svg" xmlns:cc="http://creativecommons.org/ns" xmlns:dc="http://purl.org/dc/elements/1.1/" xmlns:ev="http://www.w3.org/2001/xml-events" xmlns:inkscape="http://www.inkscape.org/namespaces/inkscape" xmlns:rdf="http://www.w3.org/1999/02/22-rdf-syntax-ns" xmlns:sodipodi="http://sodipodi.sourceforge.net/DTD/sodipodi-0.dtd" xmlns:xlink="http://www.w3.org/1999/xlink" baseProfile="tiny" height="15.0cm" version="1.2" viewBox="0 0 566.9291338582677 566.9291338582677" width="15.0cm">
  <metadata>
    <rdf:RDF>
      <cc:Work>
        <dc:format>image/svg+xml</dc:format>
        <dc:source>vpype koch-island -d 3 -s 150mm color '#6a4c93' write koch-island.svg
</dc:source>
        <dc:date>2026-04-03T00:17:41.931287</dc:date>
      </cc:Work>
    </rdf:RDF>
  </metadata>
  <defs/>
  <g fill="none" id="layer1" inkscape:groupmode="layer" inkscape:label="1" stroke="#6a4c93" style="display:inline">
    <polyline points="112.3161,112.3161 117.6645,112.3161 117.6645,117.6645 123.0129,117.6645 123.0129,112.3161 123.0129,106.9678 128.3613,106.9678 128.3613,112.3161 133.7097,112.3161 133.7097,117.6645 128.3613,117.6645 128.3613,123.0129 133.7097,123.0129 139.0581,123.0129 139.0581,128.3613 133.7097,128.3613 133.7097,133.7097 139.0581,133.7097 139.0581,139.0581 144.4065,139.0581 144.4065,133.7097 144.4065,128.3613 149.7549,128.3613 149.7549,133.7097 155.1033,133.7097 155.1033,128.3613 160.4516,128.3613 160.4516,123.0129 155.1033,123.0129 149.7549,123.0129 149.7549,117.6645 155.1033,117.6645 155.1033,112.3161 155.1033,106.9678 160.4516,106.9678 160.4516,101.6194 155.1033,101.6194 149.7549,101.6194 149.7549,96.271 155.1033,96.271 155.1033,90.9226 160.4516,90.9226 160.4516,96.271 165.8,96.271 165.8,90.9226 165.8,85.5742 171.1484,85.5742 171.1484,90.9226 176.4968,90.9226 176.4968,96.271 171.1484,96.271 171.1484,101.6194 176.4968,101.6194 181.8452,101.6194 181.8452,106.9678 176.4968,106.9678 176.4968,112.3161 181.8452,112.3161 181.8452,117.6645 187.1936,117.6645 187.1936,112.3161 187.1936,106.9678 192.542,106.9678 192.542,112.3161 197.8904,112.3161 197.8904,117.6645 192.542,117.6645 192.542,123.0129 197.8904,123.0129 203.2387,123.0129 203.2387,128.3613 197.8904,128.3613 197.8904,133.7097 192.542,133.7097 192.542,128.3613 187.1936,128.3613 187.1936,133.7097 187.1936,139.0581 181.8452,139.0581 181.8452,133.7097 176.4968,133.7097 176.4968,139.0581 171.1484,139.0581 171.1484,144.4065 176.4968,144.4065 181.8452,144.4065 181.8452,149.7549 176.4968,149.7549 176.4968,155.1033 181.8452,155.1033 181.8452,160.4516 187.1936,160.4516 187.1936,155.1033 187.1936,149.7549 192.542,149.7549 192.542,155.1033 197.8904,155.1033 203.2387,155.1033 203.2387,160.4516 208.5871,160.4516 208.5871,155.1033 208.5871,149.7549 213.9355,149.7549 213.9355,155.1033 219.2839,155.1033 219.2839,160.4516 213.9355,160.4516 213.9355,165.8 219.2839,165.8 224.6323,165.8 224.6323,171.1484 219.2839,171.1484 219.2839,176.4968 213.9355,176.4968 213.9355,171.1484 208.5871,171.1484 208.5871,176.4968 208.5871,181.8452 203.2387,181.8452 203.2387,176.4968 197.8904,176.4968 197.8904,181.8452 192.542,181.8452 192.542,187.1936 197.8904,187.1936 203.2387,187.1936 203.2387,192.542 197.8904,192.542 197.8904,197.8904 203.2387,197.8904 203.2387,203.2387 208.5871,203.2387 208.5871,197.8904 208.5871,192.542 213.9355,192.542 213.9355,197.8904 219.2839,197.8904 219.2839,203.2387 213.9355,203.2387 213.9355,208.5871 219.2839,208.5871 224.6323,208.5871 224.6323,213.9355 219.2839,213.9355 219.2839,219.2839 224.6323,219.2839 224.6323,224.6323 229.9807,224.6323 229.9807,219.2839 229.9807,213.9355 235.3291,213.9355 235.3291,219.2839 240.6775,219.2839 240.6775,213.9355 246.0259,213.9355 246.0259,208.5871 240.6775,208.5871 235.3291,208.5871 235.3291,203.2387 240.6775,203.2387 240.6775,197.8904 240.6775,192.542 246.0259,192.542 246.0259,187.1936 240.6775,187.1936 235.3291,187.1936 235.3291,181.8452 240.6775,181.8452 240.6775,176.4968 246.0259,176.4968 246.0259,181.8452 251.3742,181.8452 251.3742,176.4968 251.3742,171.1484 256.7226,171.1484 256.7226,176.4968 262.071,176.4968 262.071,181.8452 256.7226,181.8452 256.7226,187.1936 262.071,187.1936 267.4194,187.1936 267.4194,192.542 262.071,192.542 262.071,197.8904 267.4194,197.8904 267.4194,203.2387 272.7678,203.2387 272.7678,197.8904 272.7678,192.542 278.1162,192.542 278.1162,197.8904 283.4646,197.8904 283.4646,192.542 288.813,192.542 288.813,187.1936 283.4646,187.1936 278.1162,187.1936 278.1162,181.8452 283.4646,181.8452 283.4646,176.4968 288.813,176.4968 288.813,181.8452 294.1613,181.8452 294.1613,176.4968 294.1613,171.1484 299.5097,171.1484 299.5097,176.4968 304.8581,176.4968 304.8581,171.1484 310.2065,171.1484 310.2065,165.8 304.8581,165.8 299.5097,165.8 299.5097,160.4516 304.8581,160.4516 304.8581,155.1033 299.5097,155.1033 299.5097,149.7549 294.1613,149.7549 294.1613,155.1033 294.1613,160.4516 288.813,160.4516 288.813,155.1033 283.4646,155.1033 278.1162,155.1033 278.1162,149.7549 272.7678,149.7549 272.7678,155.1033 272.7678,160.4516 267.4194,160.4516 267.4194,155.1033 262.071,155.1033 262.071,149.7549 267.4194,149.7549 267.4194,144.4065 262.071,144.4065 256.7226,144.4065 256.7226,139.0581 262.071,139.0581 262.071,133.7097 267.4194,133.7097 267.4194,139.0581 272.7678,139.0581 272.7678,133.7097 272.7678,128.3613 278.1162,128.3613 278.1162,133.7097 283.4646,133.7097 283.4646,128.3613 288.813,128.3613 288.813,123.0129 283.4646,123.0129 278.1162,123.0129 278.1162,117.6645 283.4646,117.6645 283.4646,112.3161 283.4646,106.9678 288.813,106.9678 288.813,101.6194 283.4646,101.6194 278.1162,101.6194 278.1162,96.271 283.4646,96.271 283.4646,90.9226 288.813,90.9226 288.813,96.271 294.1613,96.271 294.1613,90.9226 294.1613,85.5742 299.5097,85.5742 299.5097,90.9226 304.8581,90.9226 304.8581,85.5742 310.2065,85.5742 310.2065,80.2258 304.8581,80.2258 299.5097,80.2258 299.5097,74.8774 304.8581,74.8774 304.8581,69.529 299.5097,69.529 299.5097,64.1807 294.1613,64.1807 294.1613,69.529 294.1613,74.8774 288.813,74.8774 288.813,69.529 283.4646,69.529 278.1162,69.529 278.1162,64.1807 272.7678,64.1807 272.7678,69.529 272.7678,74.8774 267.4194,74.8774 267.4194,69.529 262.071,69.529 262.071,64.1807 267.4194,64.1807 267.4194,58.8323 262.071,58.8323 256.7226,58.8323 256.7226,53.4839 262.071,53.4839 262.071,48.1355 267.4194,48.1355 267.4194,53.4839 272.7678,53.4839 272.7678,48.1355 272.7678,42.7871 278.1162,42.7871 278.1162,48.1355 283.4646,48.1355 283.4646,42.7871 288.813,42.7871 288.813,37.4387 283.4646,37.4387 278.1162,37.4387 278.1162,32.0903 283.4646,32.0903 283.4646,26.7419 288.813,26.7419 288.813,32.0903 294.1613,32.0903 294.1613,26.7419 294.1613,21.3936 299.5097,21.3936 299.5097,26.7419 304.8581,26.7419 304.8581,32.0903 299.5097,32.0903 299.5097,37.4387 304.8581,37.4387 310.2065,37.4387 310.2065,42.7871 304.8581,42.7871 304.8581,48.1355 310.2065,48.1355 310.2065,53.4839 315.5549,53.4839 315.5549,48.1355 315.5549,42.7871 320.9033,42.7871 320.9033,48.1355 326.2517,48.1355 326.2517,42.7871 331.6001,42.7871 331.6001,37.4387 326.2517,37.4387 320.9033,37.4387 320.9033,32.0903 326.2517,32.0903 326.2517,26.7419 326.2517,21.3936 331.6001,21.3936 331.6001,16.0452 326.2517,16.0452 320.9033,16.0452 320.9033,10.6968 326.2517,10.6968 326.2517,5.3484 331.6001,5.3484 331.6001,10.6968 336.9484,10.6968 336.9484,5.3484 336.9484,0.0 342.2968,0.0 342.2968,5.3484 347.6452,5.3484 347.6452,10.6968 342.2968,10.6968 342.2968,16.0452 347.6452,16.0452 352.9936,16.0452 352.9936,21.3936 347.6452,21.3936 347.6452,26.7419 352.9936,26.7419 352.9936,32.0903 358.342,32.0903 358.342,26.7419 358.342,21.3936 363.6904,21.3936 363.6904,26.7419 369.0388,26.7419 369.0388,32.0903 363.6904,32.0903 363.6904,37.4387 369.0388,37.4387 374.3872,37.4387 374.3872,42.7871 369.0388,42.7871 369.0388,48.1355 363.6904,48.1355 363.6904,42.7871 358.342,42.7871 358.342,48.1355 358.342,53.4839 352.9936,53.4839 352.9936,48.1355 347.6452,48.1355 347.6452,53.4839 342.2968,53.4839 342.2968,58.8323 347.6452,58.8323 352.9936,58.8323 352.9936,64.1807 347.6452,64.1807 347.6452,69.529 352.9936,69.529 352.9936,74.8774 358.342,74.8774 358.342,69.529 358.342,64.1807 363.6904,64.1807 363.6904,69.529 369.0388,69.529 374.3872,69.529 374.3872,74.8774 379.7356,74.8774 379.7356,69.529 379.7356,64.1807 385.0839,64.1807 385.0839,69.529 390.4323,69.529 390.4323,74.8774 385.0839,74.8774 385.0839,80.2258 390.4323,80.2258 395.7807,80.2258 395.7807,85.5742 390.4323,85.5742 390.4323,90.9226 385.0839,90.9226 385.0839,85.5742 379.7356,85.5742 379.7356,90.9226 379.7356,96.271 374.3872,96.271 374.3872,90.9226 369.0388,90.9226 369.0388,96.271 363.6904,96.271 363.6904,101.6194 369.0388,101.6194 374.3872,101.6194 374.3872,106.9678 369.0388,106.9678 369.0388,112.3161 374.3872,112.3161 374.3872,117.6645 379.7356,117.6645 379.7356,112.3161 379.7356,106.9678 385.0839,106.9678 385.0839,112.3161 390.4323,112.3161 390.4323,117.6645 385.0839,117.6645 385.0839,123.0129 390.4323,123.0129 395.7807,123.0129 395.7807,128.3613 390.4323,128.3613 390.4323,133.7097 395.7807,133.7097 395.7807,139.0581 401.1291,139.0581 401.1291,133.7097 401.1291,128.3613 406.4775,128.3613 406.4775,133.7097 411.8259,133.7097 411.8259,128.3613 417.1743,128.3613 417.1743,123.0129 411.8259,123.0129 406.4775,123.0129 406.4775,117.6645 411.8259,117.6645 411.8259,112.3161 411.8259,106.9678 417.1743,106.9678 417.1743,101.6194 411.8259,101.6194 406.4775,101.6194 406.4775,96.271 411.8259,96.271 411.8259,90.9226 417.1743,90.9226 417.1743,96.271 422.5227,96.271 422.5227,90.9226 422.5227,85.5742 427.871,85.5742 427.871,90.9226 433.2194,90.9226 433.2194,96.271 427.871,96.271 427.871,101.6194 433.2194,101.6194 438.5678,101.6194 438.5678,106.9678 433.2194,106.9678 433.2194,112.3161 438.5678,112.3161 438.5678,117.6645 443.9162,117.6645 443.9162,112.3161 443.9162,106.9678 449.2646,106.9678 449.2646,112.3161 454.613,112.3161 454.613,117.6645 449.2646,117.6645 449.2646,123.0129 454.613,123.0129 459.9614,123.0129 459.9614,128.3613 454.613,128.3613 454.613,133.7097 449.2646,133.7097 449.2646,128.3613 443.9162,128.3613 443.9162,133.7097 443.9162,139.0581 438.5678,139.0581 438.5678,133.7097 433.2194,133.7097 433.2194,139.0581 427.871,139.0581 427.871,144.4065 433.2194,144.4065 438.5678,144.4065 438.5678,149.7549 433.2194,149.7549 433.2194,155.1033 438.5678,155.1033 438.5678,160.4516 443.9162,160.4516 443.9162,155.1033 443.9162,149.7549 449.2646,149.7549 449.2646,155.1033 454.613,155.1033 459.9614,155.1033 459.9614,160.4516 465.3098,160.4516 465.3098,155.1033 465.3098,149.7549 470.6581,149.7549 470.6581,155.1033 476.0065,155.1033 476.0065,160.4516 470.6581,160.4516 470.6581,165.8 476.0065,165.8 481.3549,165.8 481.3549,171.1484 476.0065,171.1484 476.0065,176.4968 470.6581,176.4968 470.6581,171.1484 465.3098,171.1484 465.3098,176.4968 465.3098,181.8452 459.9614,181.8452 459.9614,176.4968 454.613,176.4968 454.613,181.8452 449.2646,181.8452 449.2646,187.1936 454.613,187.1936 459.9614,187.1936 459.9614,192.542 454.613,192.542 454.613,197.8904 449.2646,197.8904 449.2646,192.542 443.9162,192.542 443.9162,197.8904 443.9162,203.2387 438.5678,203.2387 438.5678,197.8904 433.2194,197.8904 433.2194,192.542 438.5678,192.542 438.5678,187.1936 433.2194,187.1936 427.871,187.1936 427.871,181.8452 433.2194,181.8452 433.2194,176.4968 427.871,176.4968 427.871,171.1484 422.5227,171.1484 422.5227,176.4968 422.5227,181.8452 417.1743,181.8452 417.1743,176.4968 411.8259,176.4968 411.8259,181.8452 406.4775,181.8452 406.4775,187.1936 411.8259,187.1936 417.1743,187.1936 417.1743,192.542 411.8259,192.542 411.8259,197.8904 411.8259,203.2387 406.4775,203.2387 406.4775,208.5871 411.8259,208.5871 417.1743,208.5871 417.1743,213.9355 411.8259,213.9355 411.8259,219.2839 406.4775,219.2839 406.4775,213.9355 401.1291,213.9355 401.1291,219.2839 401.1291,224.6323 395.7807,224.6323 395.7807,219.2839 390.4323,219.2839 390.4323,213.9355 395.7807,213.9355 395.7807,208.5871 390.4323,208.5871 385.0839,208.5871 385.0839,203.2387 390.4323,203.2387 390.4323,197.8904 385.0839,197.8904 385.0839,192.542 379.7356,192.542 379.7356,197.8904 379.7356,203.2387 374.3872,203.2387 374.3872,197.8904 369.0388,197.8904 369.0388,203.2387 363.6904,203.2387 363.6904,208.5871 369.0388,208.5871 374.3872,208.5871 374.3872,213.9355 369.0388,213.9355 369.0388,219.2839 363.6904,219.2839 363.6904,213.9355 358.342,213.9355 358.342,219.2839 358.342,224.6323 352.9936,224.6323 352.9936,219.2839 347.6452,219.2839 347.6452,224.6323 342.2968,224.6323 342.2968,229.9807 347.6452,229.9807 352.9936,229.9807 352.9936,235.3291 347.6452,235.3291 347.6452,240.6775 352.9936,240.6775 352.9936,246.0259 358.342,246.0259 358.342,240.6775 358.342,235.3291 363.6904,235.3291 363.6904,240.6775 369.0388,240.6775 374.3872,240.6775 374.3872,246.0259 379.7356,246.0259 379.7356,240.6775 379.7356,235.3291 385.0839,235.3291 385.0839,240.6775 390.4323,240.6775 390.4323,246.0259 385.0839,246.0259 385.0839,251.3742 390.4323,251.3742 395.7807,251.3742 395.7807,256.7226 390.4323,256.7226 390.4323,262.071 385.0839,262.071 385.0839,256.7226 379.7356,256.7226 379.7356,262.071 379.7356,267.4194 374.3872,267.4194 374.3872,262.071 369.0388,262.071 369.0388,267.4194 363.6904,267.4194 363.6904,272.7678 369.0388,272.7678 374.3872,272.7678 374.3872,278.1162 369.0388,278.1162 369.0388,283.4646 374.3872,283.4646 374.3872,288.813 379.7356,288.813 379.7356,283.4646 379.7356,278.1162 385.0839,278.1162 385.0839,283.4646 390.4323,283.4646 390.4323,288.813 385.0839,288.813 385.0839,294.1613 390.4323,294.1613 395.7807,294.1613 395.7807,299.5097 390.4323,299.5097 390.4323,304.8581 395.7807,304.8581 395.7807,310.2065 401.1291,310.2065 401.1291,304.8581 401.1291,299.5097 406.4775,299.5097 406.4775,304.8581 411.8259,304.8581 411.8259,299.5097 417.1743,299.5097 417.1743,294.1613 411.8259,294.1613 406.4775,294.1613 406.4775,288.813 411.8259,288.813 411.8259,283.4646 411.8259,278.1162 417.1743,278.1162 417.1743,272.7678 411.8259,272.7678 406.4775,272.7678 406.4775,267.4194 411.8259,267.4194 411.8259,262.071 417.1743,262.071 417.1743,267.4194 422.5227,267.4194 422.5227,262.071 422.5227,256.7226 427.871,256.7226 427.871,262.071 433.2194,262.071 433.2194,267.4194 427.871,267.4194 427.871,272.7678 433.2194,272.7678 438.5678,272.7678 438.5678,278.1162 433.2194,278.1162 433.2194,283.4646 438.5678,283.4646 438.5678,288.813 443.9162,288.813 443.9162,283.4646 443.9162,278.1162 449.2646,278.1162 449.2646,283.4646 454.613,283.4646 459.9614,283.4646 459.9614,288.813 465.3098,288.813 465.3098,283.4646 465.3098,278.1162 470.6581,278.1162 470.6581,283.4646 476.0065,283.4646 476.0065,288.813 470.6581,288.813 470.6581,294.1613 476.0065,294.1613 481.3549,294.1613 481.3549,299.5097 476.0065,299.5097 476.0065,304.8581 481.3549,304.8581 481.3549,310.2065 486.7033,310.2065 486.7033,304.8581 486.7033,299.5097 492.0517,299.5097 492.0517,304.8581 497.4001,304.8581 497.4001,299.5097 502.7485,299.5097 502.7485,294.1613 497.4001,294.1613 492.0517,294.1613 492.0517,288.813 497.4001,288.813 497.4001,283.4646 497.4001,278.1162 502.7485,278.1162 502.7485,272.7678 497.4001,272.7678 492.0517,272.7678 492.0517,267.4194 497.4001,267.4194 497.4001,262.071 502.7485,262.071 502.7485,267.4194 508.0969,267.4194 508.0969,262.071 508.0969,256.7226 513.4453,256.7226 513.4453,262.071 518.7936,262.071 518.7936,267.4194 513.4453,267.4194 513.4453,272.7678 518.7936,272.7678 524.142,272.7678 524.142,278.1162 518.7936,278.1162 518.7936,283.4646 524.142,283.4646 524.142,288.813 529.4904,288.813 529.4904,283.4646 529.4904,278.1162 534.8388,278.1162 534.8388,283.4646 540.1872,283.4646 540.1872,288.813 534.8388,288.813 534.8388,294.1613 540.1872,294.1613 545.5356,294.1613 545.5356,299.5097 540.1872,299.5097 540.1872,304.8581 534.8388,304.8581 534.8388,299.5097 529.4904,299.5097 529.4904,304.8581 529.4904,310.2065 524.142,310.2065 524.142,304.8581 518.7936,304.8581 518.7936,310.2065 513.4453,310.2065 513.4453,315.5549 518.7936,315.5549 524.142,315.5549 524.142,320.9033 518.7936,320.9033 518.7936,326.2517 524.142,326.2517 524.142,331.6001 529.4904,331.6001 529.4904,326.2517 529.4904,320.9033 534.8388,320.9033 534.8388,326.2517 540.1872,326.2517 545.5356,326.2517 545.5356,331.6001 550.884,331.6001 550.884,326.2517 550.884,320.9033 556.2324,320.9033 556.2324,326.2517 561.5807,326.2517 561.5807,331.6001 556.2324,331.6001 556.2324,336.9484 561.5807,336.9484 566.9291,336.9484 566.9291,342.2968 561.5807,342.2968 561.5807,347.6452 556.2324,347.6452 556.2324,342.2968 550.884,342.2968 550.884,347.6452 550.884,352.9936 545.5356,352.9936 545.5356,347.6452 540.1872,347.6452 540.1872,352.9936 534.8388,352.9936 534.8388,358.342 540.1872,358.342 545.5356,358.342 545.5356,363.6904 540.1872,363.6904 540.1872,369.0388 534.8388,369.0388 534.8388,363.6904 529.4904,363.6904 529.4904,369.0388 529.4904,374.3872 524.142,374.3872 524.142,369.0388 518.7936,369.0388 518.7936,363.6904 524.142,363.6904 524.142,358.342 518.7936,358.342 513.4453,358.342 513.4453,352.9936 518.7936,352.9936 518.7936,347.6452 513.4453,347.6452 513.4453,342.2968 508.0969,342.2968 508.0969,347.6452 508.0969,352.9936 502.7485,352.9936 502.7485,347.6452 497.4001,347.6452 497.4001,352.9936 492.0517,352.9936 492.0517,358.342 497.4001,358.342 502.7485,358.342 502.7485,363.6904 497.4001,363.6904 497.4001,369.0388 497.4001,374.3872 492.0517,374.3872 492.0517,379.7356 497.4001,379.7356 502.7485,379.7356 502.7485,385.0839 497.4001,385.0839 497.4001,390.4323 492.0517,390.4323 492.0517,385.0839 486.7033,385.0839 486.7033,390.4323 486.7033,395.7807 481.3549,395.7807 481.3549,390.4323 476.0065,390.4323 476.0065,385.0839 481.3549,385.0839 481.3549,379.7356 476.0065,379.7356 470.6581,379.7356 470.6581,374.3872 476.0065,374.3872 476.0065,369.0388 470.6581,369.0388 470.6581,363.6904 465.3098,363.6904 465.3098,369.0388 465.3098,374.3872 459.9614,374.3872 459.9614,369.0388 454.613,369.0388 454.613,374.3872 449.2646,374.3872 449.2646,379.7356 454.613,379.7356 459.9614,379.7356 459.9614,385.0839 454.613,385.0839 454.613,390.4323 449.2646,390.4323 449.2646,385.0839 443.9162,385.0839 443.9162,390.4323 443.9162,395.7807 438.5678,395.7807 438.5678,390.4323 433.2194,390.4323 433.2194,395.7807 427.871,395.7807 427.871,401.1291 433.2194,401.1291 438.5678,401.1291 438.5678,406.4775 433.2194,406.4775 433.2194,411.8259 438.5678,411.8259 438.5678,417.1743 443.9162,417.1743 443.9162,411.8259 443.9162,406.4775 449.2646,406.4775 449.2646,411.8259 454.613,411.8259 459.9614,411.8259 459.9614,417.1743 465.3098,417.1743 465.3098,411.8259 465.3098,406.4775 470.6581,406.4775 470.6581,411.8259 476.0065,411.8259 476.0065,417.1743 470.6581,417.1743 470.6581,422.5227 476.0065,422.5227 481.3549,422.5227 481.3549,427.871 476.0065,427.871 476.0065,433.2194 470.6581,433.2194 470.6581,427.871 465.3098,427.871 465.3098,433.2194 465.3098,438.5678 459.9614,438.5678 459.9614,433.2194 454.613,433.2194 454.613,438.5678 449.2646,438.5678 449.2646,443.9162 454.613,443.9162 459.9614,443.9162 459.9614,449.2646 454.613,449.2646 454.613,454.613 449.2646,454.613 449.2646,449.2646 443.9162,449.2646 443.9162,454.613 443.9162,459.9614 438.5678,459.9614 438.5678,454.613 433.2194,454.613 433.2194,449.2646 438.5678,449.2646 438.5678,443.9162 433.2194,443.9162 427.871,443.9162 427.871,438.5678 433.2194,438.5678 433.2194,433.2194 427.871,433.2194 427.871,427.871 422.5227,427.871 422.5227,433.2194 422.5227,438.5678 417.1743,438.5678 417.1743,433.2194 411.8259,433.2194 411.8259,438.5678 406.4775,438.5678 406.4775,443.9162 411.8259,443.9162 417.1743,443.9162 417.1743,449.2646 411.8259,449.2646 411.8259,454.613 411.8259,459.9614 406.4775,459.9614 406.4775,465.3098 411.8259,465.3098 417.1743,465.3098 417.1743,470.6581 411.8259,470.6581 411.8259,476.0065 406.4775,476.0065 406.4775,470.6581 401.1291,470.6581 401.1291,476.0065 401.1291,481.3549 395.7807,481.3549 395.7807,476.0065 390.4323,476.0065 390.4323,470.6581 395.7807,470.6581 395.7807,465.3098 390.4323,465.3098 385.0839,465.3098 385.0839,459.9614 390.4323,459.9614 390.4323,454.613 385.0839,454.613 385.0839,449.2646 379.7356,449.2646 379.7356,454.613 379.7356,459.9614 374.3872,459.9614 374.3872,454.613 369.0388,454.613 369.0388,449.2646 374.3872,449.2646 374.3872,443.9162 369.0388,443.9162 363.6904,443.9162 363.6904,438.5678 369.0388,438.5678 369.0388,433.2194 374.3872,433.2194 374.3872,438.5678 379.7356,438.5678 379.7356,433.2194 379.7356,427.871 385.0839,427.871 385.0839,433.2194 390.4323,433.2194 390.4323,427.871 395.7807,427.871 395.7807,422.5227 390.4323,422.5227 385.0839,422.5227 385.0839,417.1743 390.4323,417.1743 390.4323,411.8259 385.0839,411.8259 385.0839,406.4775 379.7356,406.4775 379.7356,411.8259 379.7356,417.1743 374.3872,417.1743 374.3872,411.8259 369.0388,411.8259 363.6904,411.8259 363.6904,406.4775 358.342,406.4775 358.342,411.8259 358.342,417.1743 352.9936,417.1743 352.9936,411.8259 347.6452,411.8259 347.6452,406.4775 352.9936,406.4775 352.9936,401.1291 347.6452,401.1291 342.2968,401.1291 342.2968,395.7807 347.6452,395.7807 347.6452,390.4323 352.9936,390.4323 352.9936,395.7807 358.342,395.7807 358.342,390.4323 358.342,385.0839 363.6904,385.0839 363.6904,390.4323 369.0388,390.4323 369.0388,385.0839 374.3872,385.0839 374.3872,379.7356 369.0388,379.7356 363.6904,379.7356 363.6904,374.3872 369.0388,374.3872 369.0388,369.0388 363.6904,369.0388 363.6904,363.6904 358.342,363.6904 358.342,369.0388 358.342,374.3872 352.9936,374.3872 352.9936,369.0388 347.6452,369.0388 347.6452,363.6904 352.9936,363.6904 352.9936,358.342 347.6452,358.342 342.2968,358.342 342.2968,352.9936 347.6452,352.9936 347.6452,347.6452 342.2968,347.6452 342.2968,342.2968 336.9484,342.2968 336.9484,347.6452 336.9484,352.9936 331.6001,352.9936 331.6001,347.6452 326.2517,347.6452 326.2517,352.9936 320.9033,352.9936 320.9033,358.342 326.2517,358.342 331.6001,358.342 331.6001,363.6904 326.2517,363.6904 326.2517,369.0388 326.2517,374.3872 320.9033,374.3872 320.9033,379.7356 326.2517,379.7356 331.6001,379.7356 331.6001,385.0839 326.2517,385.0839 326.2517,390.4323 320.9033,390.4323 320.9033,385.0839 315.5549,385.0839 315.5549,390.4323 315.5549,395.7807 310.2065,395.7807 310.2065,390.4323 304.8581,390.4323 304.8581,385.0839 310.2065,385.0839 310.2065,379.7356 304.8581,379.7356 299.5097,379.7356 299.5097,374.3872 304.8581,374.3872 304.8581,369.0388 299.5097,369.0388 299.5097,363.6904 294.1613,363.6904 294.1613,369.0388 294.1613,374.3872 288.813,374.3872 288.813,369.0388 283.4646,369.0388 283.4646,374.3872 278.1162,374.3872 278.1162,379.7356 283.4646,379.7356 288.813,379.7356 288.813,385.0839 283.4646,385.0839 283.4646,390.4323 278.1162,390.4323 278.1162,385.0839 272.7678,385.0839 272.7678,390.4323 272.7678,395.7807 267.4194,395.7807 267.4194,390.4323 262.071,390.4323 262.071,395.7807 256.7226,395.7807 256.7226,401.1291 262.071,401.1291 267.4194,401.1291 267.4194,406.4775 262.071,406.4775 262.071,411.8259 267.4194,411.8259 267.4194,417.1743 272.7678,417.1743 272.7678,411.8259 272.7678,406.4775 278.1162,406.4775 278.1162,411.8259 283.4646,411.8259 288.813,411.8259 288.813,417.1743 294.1613,417.1743 294.1613,411.8259 294.1613,406.4775 299.5097,406.4775 299.5097,411.8259 304.8581,411.8259 304.8581,417.1743 299.5097,417.1743 299.5097,422.5227 304.8581,422.5227 310.2065,422.5227 310.2065,427.871 304.8581,427.871 304.8581,433.2194 299.5097,433.2194 299.5097,427.871 294.1613,427.871 294.1613,433.2194 294.1613,438.5678 288.813,438.5678 288.813,433.2194 283.4646,433.2194 283.4646,438.5678 278.1162,438.5678 278.1162,443.9162 283.4646,443.9162 288.813,443.9162 288.813,449.2646 283.4646,449.2646 283.4646,454.613 283.4646,459.9614 278.1162,459.9614 278.1162,465.3098 283.4646,465.3098 288.813,465.3098 288.813,470.6581 283.4646,470.6581 283.4646,476.0065 278.1162,476.0065 278.1162,470.6581 272.7678,470.6581 272.7678,476.0065 272.7678,481.3549 267.4194,481.3549 267.4194,476.0065 262.071,476.0065 262.071,481.3549 256.7226,481.3549 256.7226,486.7033 262.071,486.7033 267.4194,486.7033 267.4194,492.0517 262.071,492.0517 262.071,497.4001 267.4194,497.4001 267.4194,502.7485 272.7678,502.7485 272.7678,497.4001 272.7678,492.0517 278.1162,492.0517 278.1162,497.4001 283.4646,497.4001 288.813,497.4001 288.813,502.7485 294.1613,502.7485 294.1613,497.4001 294.1613,492.0517 299.5097,492.0517 299.5097,497.4001 304.8581,497.4001 304.8581,502.7485 299.5097,502.7485 299.5097,508.0969 304.8581,508.0969 310.2065,508.0969 310.2065,513.4453 304.8581,513.4453 304.8581,518.7936 299.5097,518.7936 299.5097,513.4453 294.1613,513.4453 294.1613,518.7936 294.1613,524.142 288.813,524.142 288.813,518.7936 283.4646,518.7936 283.4646,524.142 278.1162,524.142 278.1162,529.4904 283.4646,529.4904 288.813,529.4904 288.813,534.8388 283.4646,534.8388 283.4646,540.1872 278.1162,540.1872 278.1162,534.8388 272.7678,534.8388 272.7678,540.1872 272.7678,545.5356 267.4194,545.5356 267.4194,540.1872 262.071,540.1872 262.071,534.8388 267.4194,534.8388 267.4194,529.4904 262.071,529.4904 256.7226,529.4904 256.7226,524.142 262.071,524.142 262.071,518.7936 256.7226,518.7936 256.7226,513.4453 251.3742,513.4453 251.3742,518.7936 251.3742,524.142 246.0259,524.142 246.0259,518.7936 240.6775,518.7936 240.6775,524.142 235.3291,524.142 235.3291,529.4904 240.6775,529.4904 246.0259,529.4904 246.0259,534.8388 240.6775,534.8388 240.6775,540.1872 240.6775,545.5356 235.3291,545.5356 235.3291,550.884 240.6775,550.884 246.0259,550.884 246.0259,556.2324 240.6775,556.2324 240.6775,561.5807 235.3291,561.5807 235.3291,556.2324 229.9807,556.2324 229.9807,561.5807 229.9807,566.9291 224.6323,566.9291 224.6323,561.5807 219.2839,561.5807 219.2839,556.2324 224.6323,556.2324 224.6323,550.884 219.2839,550.884 213.9355,550.884 213.9355,545.5356 219.2839,545.5356 219.2839,540.1872 213.9355,540.1872 213.9355,534.8388 208.5871,534.8388 208.5871,540.1872 208.5871,545.5356 203.2387,545.5356 203.2387,540.1872 197.8904,540.1872 197.8904,534.8388 203.2387,534.8388 203.2387,529.4904 197.8904,529.4904 192.542,529.4904 192.542,524.142 197.8904,524.142 197.8904,518.7936 203.2387,518.7936 203.2387,524.142 208.5871,524.142 208.5871,518.7936 208.5871,513.4453 213.9355,513.4453 213.9355,518.7936 219.2839,518.7936 219.2839,513.4453 224.6323,513.4453 224.6323,508.0969 219.2839,508.0969 213.9355,508.0969 213.9355,502.7485 219.2839,502.7485 219.2839,497.4001 213.9355,497.4001 213.9355,492.0517 208.5871,492.0517 208.5871,497.4001 208.5871,502.7485 203.2387,502.7485 203.2387,497.4001 197.8904,497.4001 192.542,497.4001 192.542,492.0517 187.1936,492.0517 187.1936,497.4001 187.1936,502.7485 181.8452,502.7485 181.8452,497.4001 176.4968,497.4001 176.4968,492.0517 181.8452,492.0517 181.8452,486.7033 176.4968,486.7033 171.1484,486.7033 171.1484,481.3549 176.4968,481.3549 176.4968,476.0065 181.8452,476.0065 181.8452,481.3549 187.1936,481.3549 187.1936,476.0065 187.1936,470.6581 192.542,470.6581 192.542,476.0065 197.8904,476.0065 197.8904,470.6581 203.2387,470.6581 203.2387,465.3098 197.8904,465.3098 192.542,465.3098 192.542,459.9614 197.8904,459.9614 197.8904,454.613 192.542,454.613 192.542,449.2646 187.1936,449.2646 187.1936,454.613 187.1936,459.9614 181.8452,459.9614 181.8452,454.613 176.4968,454.613 176.4968,449.2646 181.8452,449.2646 181.8452,443.9162 176.4968,443.9162 171.1484,443.9162 171.1484,438.5678 176.4968,438.5678 176.4968,433.2194 171.1484,433.2194 171.1484,427.871 165.8,427.871 165.8,433.2194 165.8,438.5678 160.4516,438.5678 160.4516,433.2194 155.1033,433.2194 155.1033,438.5678 149.7549,438.5678 149.7549,443.9162 155.1033,443.9162 160.4516,443.9162 160.4516,449.2646 155.1033,449.2646 155.1033,454.613 155.1033,459.9614 149.7549,459.9614 149.7549,465.3098 155.1033,465.3098 160.4516,465.3098 160.4516,470.6581 155.1033,470.6581 155.1033,476.0065 149.7549,476.0065 149.7549,470.6581 144.4065,470.6581 144.4065,476.0065 144.4065,481.3549 139.0581,481.3549 139.0581,476.0065 133.7097,476.0065 133.7097,470.6581 139.0581,470.6581 139.0581,465.3098 133.7097,465.3098 128.3613,465.3098 128.3613,459.9614 133.7097,459.9614 133.7097,454.613 128.3613,454.613 128.3613,449.2646 123.0129,449.2646 123.0129,454.613 123.0129,459.9614 117.6645,459.9614 117.6645,454.613 112.3161,454.613 112.3161,449.2646 117.6645,449.2646 117.6645,443.9162 112.3161,443.9162 106.9678,443.9162 106.9678,438.5678 112.3161,438.5678 112.3161,433.2194 117.6645,433.2194 117.6645,438.5678 123.0129,438.5678 123.0129,433.2194 123.0129,427.871 128.3613,427.871 128.3613,433.2194 133.7097,433.2194 133.7097,427.871 139.0581,427.871 139.0581,422.5227 133.7097,422.5227 128.3613,422.5227 128.3613,417.1743 133.7097,417.1743 133.7097,411.8259 128.3613,411.8259 128.3613,406.4775 123.0129,406.4775 123.0129,411.8259 123.0129,417.1743 117.6645,417.1743 117.6645,411.8259 112.3161,411.8259 106.9678,411.8259 106.9678,406.4775 101.6194,406.4775 101.6194,411.8259 101.6194,417.1743 96.271,417.1743 96.271,411.8259 90.9226,411.8259 90.9226,406.4775 96.271,406.4775 96.271,401.1291 90.9226,401.1291 85.5742,401.1291 85.5742,395.7807 90.9226,395.7807 90.9226,390.4323 96.271,390.4323 96.271,395.7807 101.6194,395.7807 101.6194,390.4323 101.6194,385.0839 106.9678,385.0839 106.9678,390.4323 112.3161,390.4323 112.3161,385.0839 117.6645,385.0839 117.6645,379.7356 112.3161,379.7356 106.9678,379.7356 106.9678,374.3872 112.3161,374.3872 112.3161,369.0388 117.6645,369.0388 117.6645,374.3872 123.0129,374.3872 123.0129,369.0388 123.0129,363.6904 128.3613,363.6904 128.3613,369.0388 133.7097,369.0388 133.7097,374.3872 128.3613,374.3872 128.3613,379.7356 133.7097,379.7356 139.0581,379.7356 139.0581,385.0839 133.7097,385.0839 133.7097,390.4323 139.0581,390.4323 139.0581,395.7807 144.4065,395.7807 144.4065,390.4323 144.4065,385.0839 149.7549,385.0839 149.7549,390.4323 155.1033,390.4323 155.1033,385.0839 160.4516,385.0839 160.4516,379.7356 155.1033,379.7356 149.7549,379.7356 149.7549,374.3872 155.1033,374.3872 155.1033,369.0388 155.1033,363.6904 160.4516,363.6904 160.4516,358.342 155.1033,358.342 149.7549,358.342 149.7549,352.9936 155.1033,352.9936 155.1033,347.6452 160.4516,347.6452 160.4516,352.9936 165.8,352.9936 165.8,347.6452 165.8,342.2968 171.1484,342.2968 171.1484,347.6452 176.4968,347.6452 176.4968,352.9936 171.1484,352.9936 171.1484,358.342 176.4968,358.342 181.8452,358.342 181.8452,363.6904 176.4968,363.6904 176.4968,369.0388 181.8452,369.0388 181.8452,374.3872 187.1936,374.3872 187.1936,369.0388 187.1936,363.6904 192.542,363.6904 192.542,369.0388 197.8904,369.0388 197.8904,363.6904 203.2387,363.6904 203.2387,358.342 197.8904,358.342 192.542,358.342 192.542,352.9936 197.8904,352.9936 197.8904,347.6452 203.2387,347.6452 203.2387,352.9936 208.5871,352.9936 208.5871,347.6452 208.5871,342.2968 213.9355,342.2968 213.9355,347.6452 219.2839,347.6452 219.2839,342.2968 224.6323,342.2968 224.6323,336.9484 219.2839,336.9484 213.9355,336.9484 213.9355,331.6001 219.2839,331.6001 219.2839,326.2517 213.9355,326.2517 213.9355,320.9033 208.5871,320.9033 208.5871,326.2517 208.5871,331.6001 203.2387,331.6001 203.2387,326.2517 197.8904,326.2517 192.542,326.2517 192.542,320.9033 187.1936,320.9033 187.1936,326.2517 187.1936,331.6001 181.8452,331.6001 181.8452,326.2517 176.4968,326.2517 176.4968,320.9033 181.8452,320.9033 181.8452,315.5549 176.4968,315.5549 171.1484,315.5549 171.1484,310.2065 176.4968,310.2065 176.4968,304.8581 181.8452,304.8581 181.8452,310.2065 187.1936,310.2065 187.1936,304.8581 187.1936,299.5097 192.542,299.5097 192.542,304.8581 197.8904,304.8581 197.8904,299.5097 203.2387,299.5097 203.2387,294.1613 197.8904,294.1613 192.542,294.1613 192.542,288.813 197.8904,288.813 197.8904,283.4646 192.542,283.4646 192.542,278.1162 187.1936,278.1162 187.1936,283.4646 187.1936,288.813 181.8452,288.813 181.8452,283.4646 176.4968,283.4646 176.4968,278.1162 181.8452,278.1162 181.8452,272.7678 176.4968,272.7678 171.1484,272.7678 171.1484,267.4194 176.4968,267.4194 176.4968,262.071 171.1484,262.071 171.1484,256.7226 165.8,256.7226 165.8,262.071 165.8,267.4194 160.4516,267.4194 160.4516,262.071 155.1033,262.071 155.1033,267.4194 149.7549,267.4194 149.7549,272.7678 155.1033,272.7678 160.4516,272.7678 160.4516,278.1162 155.1033,278.1162 155.1033,283.4646 155.1033,288.813 149.7549,288.813 149.7549,294.1613 155.1033,294.1613 160.4516,294.1613 160.4516,299.5097 155.1033,299.5097 155.1033,304.8581 149.7549,304.8581 149.7549,299.5097 144.4065,299.5097 144.4065,304.8581 144.4065,310.2065 139.0581,310.2065 139.0581,304.8581 133.7097,304.8581 133.7097,299.5097 139.0581,299.5097 139.0581,294.1613 133.7097,294.1613 128.3613,294.1613 128.3613,288.813 133.7097,288.813 133.7097,283.4646 128.3613,283.4646 128.3613,278.1162 123.0129,278.1162 123.0129,283.4646 123.0129,288.813 117.6645,288.813 117.6645,283.4646 112.3161,283.4646 106.9678,283.4646 106.9678,278.1162 101.6194,278.1162 101.6194,283.4646 101.6194,288.813 96.271,288.813 96.271,283.4646 90.9226,283.4646 90.9226,278.1162 96.271,278.1162 96.271,272.7678 90.9226,272.7678 85.5742,272.7678 85.5742,267.4194 90.9226,267.4194 90.9226,262.071 85.5742,262.071 85.5742,256.7226 80.2258,256.7226 80.2258,262.071 80.2258,267.4194 74.8774,267.4194 74.8774,262.071 69.529,262.071 69.529,267.4194 64.1807,267.4194 64.1807,272.7678 69.529,272.7678 74.8774,272.7678 74.8774,278.1162 69.529,278.1162 69.529,283.4646 69.529,288.813 64.1807,288.813 64.1807,294.1613 69.529,294.1613 74.8774,294.1613 74.8774,299.5097 69.529,299.5097 69.529,304.8581 64.1807,304.8581 64.1807,299.5097 58.8323,299.5097 58.8323,304.8581 58.8323,310.2065 53.4839,310.2065 53.4839,304.8581 48.1355,304.8581 48.1355,299.5097 53.4839,299.5097 53.4839,294.1613 48.1355,294.1613 42.7871,294.1613 42.7871,288.813 48.1355,288.813 48.1355,283.4646 42.7871,283.4646 42.7871,278.1162 37.4387,278.1162 37.4387,283.4646 37.4387,288.813 32.0903,288.813 32.0903,283.4646 26.7419,283.4646 26.7419,278.1162 32.0903,278.1162 32.0903,272.7678 26.7419,272.7678 21.3936,272.7678 21.3936,267.4194 26.7419,267.4194 26.7419,262.071 32.0903,262.071 32.0903,267.4194 37.4387,267.4194 37.4387,262.071 37.4387,256.7226 42.7871,256.7226 42.7871,262.071 48.1355,262.071 48.1355,256.7226 53.4839,256.7226 53.4839,251.3742 48.1355,251.3742 42.7871,251.3742 42.7871,246.0259 48.1355,246.0259 48.1355,240.6775 42.7871,240.6775 42.7871,235.3291 37.4387,235.3291 37.4387,240.6775 37.4387,246.0259 32.0903,246.0259 32.0903,240.6775 26.7419,240.6775 21.3936,240.6775 21.3936,235.3291 16.0452,235.3291 16.0452,240.6775 16.0452,246.0259 10.6968,246.0259 10.6968,240.6775 5.3484,240.6775 5.3484,235.3291 10.6968,235.3291 10.6968,229.9807 5.3484,229.9807 0.0,229.9807 0.0,224.6323 5.3484,224.6323 5.3484,219.2839 10.6968,219.2839 10.6968,224.6323 16.0452,224.6323 16.0452,219.2839 16.0452,213.9355 21.3936,213.9355 21.3936,219.2839 26.7419,219.2839 26.7419,213.9355 32.0903,213.9355 32.0903,208.5871 26.7419,208.5871 21.3936,208.5871 21.3936,203.2387 26.7419,203.2387 26.7419,197.8904 32.0903,197.8904 32.0903,203.2387 37.4387,203.2387 37.4387,197.8904 37.4387,192.542 42.7871,192.542 42.7871,197.8904 48.1355,197.8904 48.1355,203.2387 42.7871,203.2387 42.7871,208.5871 48.1355,208.5871 53.4839,208.5871 53.4839,213.9355 48.1355,213.9355 48.1355,219.2839 53.4839,219.2839 53.4839,224.6323 58.8323,224.6323 58.8323,219.2839 58.8323,213.9355 64.1807,213.9355 64.1807,219.2839 69.529,219.2839 69.529,213.9355 74.8774,213.9355 74.8774,208.5871 69.529,208.5871 64.1807,208.5871 64.1807,203.2387 69.529,203.2387 69.529,197.8904 69.529,192.542 74.8774,192.542 74.8774,187.1936 69.529,187.1936 64.1807,187.1936 64.1807,181.8452 69.529,181.8452 69.529,176.4968 74.8774,176.4968 74.8774,181.8452 80.2258,181.8452 80.2258,176.4968 80.2258,171.1484 85.5742,171.1484 85.5742,176.4968 90.9226,176.4968 90.9226,181.8452 85.5742,181.8452 85.5742,187.1936 90.9226,187.1936 96.271,187.1936 96.271,192.542 90.9226,192.542 90.9226,197.8904 96.271,197.8904 96.271,203.2387 101.6194,203.2387 101.6194,197.8904 101.6194,192.542 106.9678,192.542 106.9678,197.8904 112.3161,197.8904 112.3161,192.542 117.6645,192.542 117.6645,187.1936 112.3161,187.1936 106.9678,187.1936 106.9678,181.8452 112.3161,181.8452 112.3161,176.4968 117.6645,176.4968 117.6645,181.8452 123.0129,181.8452 123.0129,176.4968 123.0129,171.1484 128.3613,171.1484 128.3613,176.4968 133.7097,176.4968 133.7097,171.1484 139.0581,171.1484 139.0581,165.8 133.7097,165.8 128.3613,165.8 128.3613,160.4516 133.7097,160.4516 133.7097,155.1033 128.3613,155.1033 128.3613,149.7549 123.0129,149.7549 123.0129,155.1033 123.0129,160.4516 117.6645,160.4516 117.6645,155.1033 112.3161,155.1033 106.9678,155.1033 106.9678,149.7549 101.6194,149.7549 101.6194,155.1033 101.6194,160.4516 96.271,160.4516 96.271,155.1033 90.9226,155.1033 90.9226,149.7549 96.271,149.7549 96.271,144.4065 90.9226,144.4065 85.5742,144.4065 85.5742,139.0581 90.9226,139.0581 90.9226,133.7097 96.271,133.7097 96.271,139.0581 101.6194,139.0581 101.6194,133.7097 101.6194,128.3613 106.9678,128.3613 106.9678,133.7097 112.3161,133.7097 112.3161,128.3613 117.6645,128.3613 117.6645,123.0129 112.3161,123.0129 106.9678,123.0129 106.9678,117.6645 112.3161,117.6645 112.3161,112.3161"/>
  </g>
</svg>
