<?xml version="1.0" encoding="utf-8" ?>
<svg xmlns="http://www.w3.org/2000/svg" xmlns:cc="http://creativecommons.org/ns" xmlns:dc="http://purl.org/dc/elements/1.1/" xmlns:ev="http://www.w3.org/2001/xml-events" xmlns:inkscape="http://www.inkscape.org/namespaces/inkscape" xmlns:rdf="http://www.w3.org/1999/02/22-rdf-syntax-ns" xmlns:sodipodi="http://sodipodi.sourceforge.net/DTD/sodipodi-0.dtd" xmlns:xlink="http://www.w3.org/1999/xlink" baseProfile="tiny" height="15.0cm" version="1.2" viewBox="0 0 490.9750320667687 566.9291338582677" width="12.99038106cm">
  <metadata>
    <rdf:RDF>
      <cc:Work>
        <dc:format>image/svg+xml</dc:format>
        <dc:source>vpype koch -d 4 -s 150mm color '#e63946' write koch.svg
</dc:source>
        <dc:date>2026-04-03T00:17:38.834495</dc:date>
      </cc:Work>
    </rdf:RDF>
  </metadata>
  <defs/>
  <g fill="none" id="layer1" inkscape:groupmode="layer" inkscape:label="1" stroke="#e63946" style="display:inline">
    <polyline points="0.0,425.1969 6.0614,425.1969 9.0921,430.4462 12.1228,425.1969 18.1843,425.1969 21.215,430.4462 18.1843,435.6955 24.2457,435.6955 27.2764,440.9449 30.3071,435.6955 36.3685,435.6955 33.3378,430.4462 36.3685,425.1969 42.4299,425.1969 45.4607,430.4462 48.4914,425.1969 54.5528,425.1969 57.5835,430.4462 54.5528,435.6955 60.6142,435.6955 63.6449,440.9449 60.6142,446.1942 54.5528,446.1942 57.5835,451.4436 54.5528,456.6929 60.6142,456.6929 63.6449,461.9423 66.6756,456.6929 72.737,456.6929 75.7678,461.9423 72.737,467.1916 78.7985,467.1916 81.8292,472.4409 84.8599,467.1916 90.9213,467.1916 87.8906,461.9423 90.9213,456.6929 96.9827,456.6929 100.0134,461.9423 103.0441,456.6929 109.1056,456.6929 106.0749,451.4436 109.1056,446.1942 103.0441,446.1942 100.0134,440.9449 103.0441,435.6955 109.1056,435.6955 106.0749,430.4462 109.1056,425.1969 115.167,425.1969 118.1977,430.4462 121.2284,425.1969 127.2898,425.1969 130.3205,430.4462 127.2898,435.6955 133.3512,435.6955 136.382,440.9449 139.4127,435.6955 145.4741,435.6955 142.4434,430.4462 145.4741,425.1969 151.5355,425.1969 154.5662,430.4462 157.5969,425.1969 163.6583,425.1969 166.6891,430.4462 163.6583,435.6955 169.7198,435.6955 172.7505,440.9449 169.7198,446.1942 163.6583,446.1942 166.6891,451.4436 163.6583,456.6929 169.7198,456.6929 172.7505,461.9423 175.7812,456.6929 181.8426,456.6929 184.8733,461.9423 181.8426,467.1916 187.904,467.1916 190.9347,472.4409 187.904,477.6903 181.8426,477.6903 184.8733,482.9396 181.8426,488.189 175.7812,488.189 172.7505,482.9396 169.7198,488.189 163.6583,488.189 166.6891,493.4383 163.6583,498.6877 169.7198,498.6877 172.7505,503.937 169.7198,509.1864 163.6583,509.1864 166.6891,514.4357 163.6583,519.685 169.7198,519.685 172.7505,524.9344 175.7812,519.685 181.8426,519.685 184.8733,524.9344 181.8426,530.1837 187.904,530.1837 190.9347,535.4331 193.9654,530.1837 200.0269,530.1837 196.9962,524.9344 200.0269,519.685 206.0883,519.685 209.119,524.9344 212.1497,519.685 218.2111,519.685 221.2418,524.9344 218.2111,530.1837 224.2725,530.1837 227.3033,535.4331 224.2725,540.6824 218.2111,540.6824 221.2418,545.9318 218.2111,551.1811 224.2725,551.1811 227.3033,556.4304 230.334,551.1811 236.3954,551.1811 239.4261,556.4304 236.3954,561.6798 242.4568,561.6798 245.4875,566.9291 248.5182,561.6798 254.5796,561.6798 251.5489,556.4304 254.5796,551.1811 260.6411,551.1811 263.6718,556.4304 266.7025,551.1811 272.7639,551.1811 269.7332,545.9318 272.7639,540.6824 266.7025,540.6824 263.6718,535.4331 266.7025,530.1837 272.7639,530.1837 269.7332,524.9344 272.7639,519.685 278.8253,519.685 281.856,524.9344 284.8867,519.685 290.9482,519.685 293.9789,524.9344 290.9482,530.1837 297.0096,530.1837 300.0403,535.4331 303.071,530.1837 309.1324,530.1837 306.1017,524.9344 309.1324,519.685 315.1938,519.685 318.2246,524.9344 321.2553,519.685 327.3167,519.685 324.286,514.4357 327.3167,509.1864 321.2553,509.1864 318.2246,503.937 321.2553,498.6877 327.3167,498.6877 324.286,493.4383 327.3167,488.189 321.2553,488.189 318.2246,482.9396 315.1938,488.189 309.1324,488.189 306.1017,482.9396 309.1324,477.6903 303.071,477.6903 300.0403,472.4409 303.071,467.1916 309.1324,467.1916 306.1017,461.9423 309.1324,456.6929 315.1938,456.6929 318.2246,461.9423 321.2553,456.6929 327.3167,456.6929 324.286,451.4436 327.3167,446.1942 321.2553,446.1942 318.2246,440.9449 321.2553,435.6955 327.3167,435.6955 324.286,430.4462 327.3167,425.1969 333.3781,425.1969 336.4088,430.4462 339.4395,425.1969 345.5009,425.1969 348.5317,430.4462 345.5009,435.6955 351.5624,435.6955 354.5931,440.9449 357.6238,435.6955 363.6852,435.6955 360.6545,430.4462 363.6852,425.1969 369.7466,425.1969 372.7773,430.4462 375.808,425.1969 381.8695,425.1969 384.9002,430.4462 381.8695,435.6955 387.9309,435.6955 390.9616,440.9449 387.9309,446.1942 381.8695,446.1942 384.9002,451.4436 381.8695,456.6929 387.9309,456.6929 390.9616,461.9423 393.9923,456.6929 400.0537,456.6929 403.0844,461.9423 400.0537,467.1916 406.1151,467.1916 409.1459,472.4409 412.1766,467.1916 418.238,467.1916 415.2073,461.9423 418.238,456.6929 424.2994,456.6929 427.3301,461.9423 430.3608,456.6929 436.4223,456.6929 433.3915,451.4436 436.4223,446.1942 430.3608,446.1942 427.3301,440.9449 430.3608,435.6955 436.4223,435.6955 433.3915,430.4462 436.4223,425.1969 442.4837,425.1969 445.5144,430.4462 448.5451,425.1969 454.6065,425.1969 457.6372,430.4462 454.6065,435.6955 460.6679,435.6955 463.6986,440.9449 466.7294,435.6955 472.7908,435.6955 469.7601,430.4462 472.7908,425.1969 478.8522,425.1969 481.8829,430.4462 484.9136,425.1969 490.975,425.1969 487.9443,419.9475 490.975,414.6982 484.9136,414.6982 481.8829,409.4488 484.9136,404.1995 490.975,404.1995 487.9443,398.9501 490.975,393.7008 484.9136,393.7008 481.8829,388.4514 478.8522,393.7008 472.7908,393.7008 469.7601,388.4514 472.7908,383.2021 466.7294,383.2021 463.6986,377.9528 466.7294,372.7034 472.7908,372.7034 469.7601,367.4541 472.7908,362.2047 478.8522,362.2047 481.8829,367.4541 484.9136,362.2047 490.975,362.2047 487.9443,356.9554 490.975,351.706 484.9136,351.706 481.8829,346.4567 484.9136,341.2073 490.975,341.2073 487.9443,335.958 490.975,330.7087 484.9136,330.7087 481.8829,325.4593 478.8522,330.7087 472.7908,330.7087 469.7601,325.4593 472.7908,320.21 466.7294,320.21 463.6986,314.9606 460.6679,320.21 454.6065,320.21 457.6372,325.4593 454.6065,330.7087 448.5451,330.7087 445.5144,325.4593 442.4837,330.7087 436.4223,330.7087 433.3915,325.4593 436.4223,320.21 430.3608,320.21 427.3301,314.9606 430.3608,309.7113 436.4223,309.7113 433.3915,304.4619 436.4223,299.2126 430.3608,299.2126 427.3301,293.9633 424.2994,299.2126 418.238,299.2126 415.2073,293.9633 418.238,288.7139 412.1766,288.7139 409.1459,283.4646 412.1766,278.2152 418.238,278.2152 415.2073,272.9659 418.238,267.7165 424.2994,267.7165 427.3301,272.9659 430.3608,267.7165 436.4223,267.7165 433.3915,262.4672 436.4223,257.2178 430.3608,257.2178 427.3301,251.9685 430.3608,246.7192 436.4223,246.7192 433.3915,241.4698 436.4223,236.2205 442.4837,236.2205 445.5144,241.4698 448.5451,236.2205 454.6065,236.2205 457.6372,241.4698 454.6065,246.7192 460.6679,246.7192 463.6986,251.9685 466.7294,246.7192 472.7908,246.7192 469.7601,241.4698 472.7908,236.2205 478.8522,236.2205 481.8829,241.4698 484.9136,236.2205 490.975,236.2205 487.9443,230.9711 490.975,225.7218 484.9136,225.7218 481.8829,220.4724 484.9136,215.2231 490.975,215.2231 487.9443,209.9738 490.975,204.7244 484.9136,204.7244 481.8829,199.4751 478.8522,204.7244 472.7908,204.7244 469.7601,199.4751 472.7908,194.2257 466.7294,194.2257 463.6986,188.9764 466.7294,183.727 472.7908,183.727 469.7601,178.4777 472.7908,173.2283 478.8522,173.2283 481.8829,178.4777 484.9136,173.2283 490.975,173.2283 487.9443,167.979 490.975,162.7297 484.9136,162.7297 481.8829,157.4803 484.9136,152.231 490.975,152.231 487.9443,146.9816 490.975,141.7323 484.9136,141.7323 481.8829,136.4829 478.8522,141.7323 472.7908,141.7323 469.7601,136.4829 472.7908,131.2336 466.7294,131.2336 463.6986,125.9843 460.6679,131.2336 454.6065,131.2336 457.6372,136.4829 454.6065,141.7323 448.5451,141.7323 445.5144,136.4829 442.4837,141.7323 436.4223,141.7323 433.3915,136.4829 436.4223,131.2336 430.3608,131.2336 427.3301,125.9843 430.3608,120.7349 436.4223,120.7349 433.3915,115.4856 436.4223,110.2362 430.3608,110.2362 427.3301,104.9869 424.2994,110.2362 418.238,110.2362 415.2073,104.9869 418.238,99.7375 412.1766,99.7375 409.1459,94.4882 406.1151,99.7375 400.0537,99.7375 403.0844,104.9869 400.0537,110.2362 393.9923,110.2362 390.9616,104.9869 387.9309,110.2362 381.8695,110.2362 384.9002,115.4856 381.8695,120.7349 387.9309,120.7349 390.9616,125.9843 387.9309,131.2336 381.8695,131.2336 384.9002,136.4829 381.8695,141.7323 375.808,141.7323 372.7773,136.4829 369.7466,141.7323 363.6852,141.7323 360.6545,136.4829 363.6852,131.2336 357.6238,131.2336 354.5931,125.9843 351.5624,131.2336 345.5009,131.2336 348.5317,136.4829 345.5009,141.7323 339.4395,141.7323 336.4088,136.4829 333.3781,141.7323 327.3167,141.7323 324.286,136.4829 327.3167,131.2336 321.2553,131.2336 318.2246,125.9843 321.2553,120.7349 327.3167,120.7349 324.286,115.4856 327.3167,110.2362 321.2553,110.2362 318.2246,104.9869 315.1938,110.2362 309.1324,110.2362 306.1017,104.9869 309.1324,99.7375 303.071,99.7375 300.0403,94.4882 303.071,89.2388 309.1324,89.2388 306.1017,83.9895 309.1324,78.7402 315.1938,78.7402 318.2246,83.9895 321.2553,78.7402 327.3167,78.7402 324.286,73.4908 327.3167,68.2415 321.2553,68.2415 318.2246,62.9921 321.2553,57.7428 327.3167,57.7428 324.286,52.4934 327.3167,47.2441 321.2553,47.2441 318.2246,41.9948 315.1938,47.2441 309.1324,47.2441 306.1017,41.9948 309.1324,36.7454 303.071,36.7454 300.0403,31.4961 297.0096,36.7454 290.9482,36.7454 293.9789,41.9948 290.9482,47.2441 284.8867,47.2441 281.856,41.9948 278.8253,47.2441 272.7639,47.2441 269.7332,41.9948 272.7639,36.7454 266.7025,36.7454 263.6718,31.4961 266.7025,26.2467 272.7639,26.2467 269.7332,20.9974 272.7639,15.748 266.7025,15.748 263.6718,10.4987 260.6411,15.748 254.5796,15.748 251.5489,10.4987 254.5796,5.2493 248.5182,5.2493 245.4875,0.0 242.4568,5.2493 236.3954,5.2493 239.4261,10.4987 236.3954,15.748 230.334,15.748 227.3033,10.4987 224.2725,15.748 218.2111,15.748 221.2418,20.9974 218.2111,26.2467 224.2725,26.2467 227.3033,31.4961 224.2725,36.7454 218.2111,36.7454 221.2418,41.9948 218.2111,47.2441 212.1497,47.2441 209.119,41.9948 206.0883,47.2441 200.0269,47.2441 196.9962,41.9948 200.0269,36.7454 193.9654,36.7454 190.9347,31.4961 187.904,36.7454 181.8426,36.7454 184.8733,41.9948 181.8426,47.2441 175.7812,47.2441 172.7505,41.9948 169.7198,47.2441 163.6583,47.2441 166.6891,52.4934 163.6583,57.7428 169.7198,57.7428 172.7505,62.9921 169.7198,68.2415 163.6583,68.2415 166.6891,73.4908 163.6583,78.7402 169.7198,78.7402 172.7505,83.9895 175.7812,78.7402 181.8426,78.7402 184.8733,83.9895 181.8426,89.2388 187.904,89.2388 190.9347,94.4882 187.904,99.7375 181.8426,99.7375 184.8733,104.9869 181.8426,110.2362 175.7812,110.2362 172.7505,104.9869 169.7198,110.2362 163.6583,110.2362 166.6891,115.4856 163.6583,120.7349 169.7198,120.7349 172.7505,125.9843 169.7198,131.2336 163.6583,131.2336 166.6891,136.4829 163.6583,141.7323 157.5969,141.7323 154.5662,136.4829 151.5355,141.7323 145.4741,141.7323 142.4434,136.4829 145.4741,131.2336 139.4127,131.2336 136.382,125.9843 133.3512,131.2336 127.2898,131.2336 130.3205,136.4829 127.2898,141.7323 121.2284,141.7323 118.1977,136.4829 115.167,141.7323 109.1056,141.7323 106.0749,136.4829 109.1056,131.2336 103.0441,131.2336 100.0134,125.9843 103.0441,120.7349 109.1056,120.7349 106.0749,115.4856 109.1056,110.2362 103.0441,110.2362 100.0134,104.9869 96.9827,110.2362 90.9213,110.2362 87.8906,104.9869 90.9213,99.7375 84.8599,99.7375 81.8292,94.4882 78.7985,99.7375 72.737,99.7375 75.7678,104.9869 72.737,110.2362 66.6756,110.2362 63.6449,104.9869 60.6142,110.2362 54.5528,110.2362 57.5835,115.4856 54.5528,120.7349 60.6142,120.7349 63.6449,125.9843 60.6142,131.2336 54.5528,131.2336 57.5835,136.4829 54.5528,141.7323 48.4914,141.7323 45.4607,136.4829 42.4299,141.7323 36.3685,141.7323 33.3378,136.4829 36.3685,131.2336 30.3071,131.2336 27.2764,125.9843 24.2457,131.2336 18.1843,131.2336 21.215,136.4829 18.1843,141.7323 12.1228,141.7323 9.0921,136.4829 6.0614,141.7323 0.0,141.7323 3.0307,146.9816 0.0,152.231 6.0614,152.231 9.0921,157.4803 6.0614,162.7297 0.0,162.7297 3.0307,167.979 0.0,173.2283 6.0614,173.2283 9.0921,178.4777 12.1228,173.2283 18.1843,173.2283 21.215,178.4777 18.1843,183.727 24.2457,183.727 27.2764,188.9764 24.2457,194.2257 18.1843,194.2257 21.215,199.4751 18.1843,204.7244 12.1228,204.7244 9.0921,199.4751 6.0614,204.7244 0.0,204.7244 3.0307,209.9738 0.0,215.2231 6.0614,215.2231 9.0921,220.4724 6.0614,225.7218 0.0,225.7218 3.0307,230.9711 0.0,236.2205 6.0614,236.2205 9.0921,241.4698 12.1228,236.2205 18.1843,236.2205 21.215,241.4698 18.1843,246.7192 24.2457,246.7192 27.2764,251.9685 30.3071,246.7192 36.3685,246.7192 33.3378,241.4698 36.3685,236.2205 42.4299,236.2205 45.4607,241.4698 48.4914,236.2205 54.5528,236.2205 57.5835,241.4698 54.5528,246.7192 60.6142,246.7192 63.6449,251.9685 60.6142,257.2178 54.5528,257.2178 57.5835,262.4672 54.5528,267.7165 60.6142,267.7165 63.6449,272.9659 66.6756,267.7165 72.737,267.7165 75.7678,272.9659 72.737,278.2152 78.7985,278.2152 81.8292,283.4646 78.7985,288.7139 72.737,288.7139 75.7678,293.9633 72.737,299.2126 66.6756,299.2126 63.6449,293.9633 60.6142,299.2126 54.5528,299.2126 57.5835,304.4619 54.5528,309.7113 60.6142,309.7113 63.6449,314.9606 60.6142,320.21 54.5528,320.21 57.5835,325.4593 54.5528,330.7087 48.4914,330.7087 45.4607,325.4593 42.4299,330.7087 36.3685,330.7087 33.3378,325.4593 36.3685,320.21 30.3071,320.21 27.2764,314.9606 24.2457,320.21 18.1843,320.21 21.215,325.4593 18.1843,330.7087 12.1228,330.7087 9.0921,325.4593 6.0614,330.7087 0.0,330.7087 3.0307,335.958 0.0,341.2073 6.0614,341.2073 9.0921,346.4567 6.0614,351.706 0.0,351.706 3.0307,356.9554 0.0,362.2047 6.0614,362.2047 9.0921,367.4541 12.1228,362.2047 18.1843,362.2047 21.215,367.4541 18.1843,372.7034 24.2457,372.7034 27.2764,377.9528 24.2457,383.2021 18.1843,383.2021 21.215,388.4514 18.1843,393.7008 12.1228,393.7008 9.0921,388.4514 6.0614,393.7008 0.0,393.7008 3.0307,398.9501 0.0,404.1995 6.0614,404.1995 9.0921,409.4488 6.0614,414.6982 0.0,414.6982 3.0307,419.9475 0.0,425.1969"/>
  </g>
</svg>
