<?xml version="1.0" encoding="utf-8" ?>
<svg xmlns="http://www.w3.org/2000/svg" xmlns:cc="http://creativecommons.org/ns" xmlns:dc="http://purl.org/dc/elements/1.1/" xmlns:ev="http://www.w3.org/2001/xml-events" xmlns:inkscape="http://www.inkscape.org/namespaces/inkscape" xmlns:rdf="http://www.w3.org/1999/02/22-rdf-syntax-ns" xmlns:sodipodi="http://sodipodi.sourceforge.net/DTD/sodipodi-0.dtd" xmlns:xlink="http://www.w3.org/1999/xlink" baseProfile="tiny" height="9.28571429cm" version="1.2" viewBox="0 0 566.9291338582677 350.95613048368966" width="15.0cm">
  <metadata>
    <rdf:RDF>
      <cc:Work>
        <dc:format>image/svg+xml</dc:format>
        <dc:source>vpype levy -d 12 -s 150mm color '#264653' write levy.svg
</dc:source>
        <dc:date>2026-04-03T00:17:40.604267</dc:date>
      </cc:Work>
    </rdf:RDF>
  </metadata>
  <defs/>
  <g fill="none" id="layer1" inkscape:groupmode="layer" inkscape:label="1" stroke="#264653" style="display:inline">
    <polyline points="139.4826,67.4916 134.9831,67.4916 134.9831,71.991 134.9831,76.4904 139.4826,76.4904 139.4826,80.9899 143.982,80.9899 148.4814,80.9899 148.4814,76.4904 148.4814,80.9899 152.9809,80.9899 157.4803,80.9899 157.4803,76.4904 161.9798,76.4904 161.9798,71.991 161.9798,67.4916 157.4803,67.4916 157.4803,71.991 161.9798,71.991 166.4792,71.991 166.4792,67.4916 170.9786,67.4916 170.9786,62.9921 170.9786,58.4927 166.4792,58.4927 170.9786,58.4927 170.9786,53.9933 170.9786,49.4938 166.4792,49.4938 166.4792,44.9944 161.9798,44.9944 157.4803,44.9944 157.4803,49.4938 157.4803,53.9933 161.9798,53.9933 166.4792,53.9933 166.4792,49.4938 170.9786,49.4938 170.9786,44.9944 170.9786,40.4949 166.4792,40.4949 170.9786,40.4949 170.9786,35.9955 170.9786,31.4961 166.4792,31.4961 166.4792,26.9966 161.9798,26.9966 157.4803,26.9966 157.4803,31.4961 161.9798,31.4961 161.9798,26.9966 161.9798,22.4972 157.4803,22.4972 157.4803,17.9978 152.9809,17.9978 148.4814,17.9978 148.4814,22.4972 148.4814,17.9978 143.982,17.9978 139.4826,17.9978 139.4826,22.4972 134.9831,22.4972 134.9831,26.9966 134.9831,31.4961 139.4826,31.4961 139.4826,35.9955 143.982,35.9955 148.4814,35.9955 148.4814,31.4961 152.9809,31.4961 152.9809,26.9966 152.9809,22.4972 148.4814,22.4972 152.9809,22.4972 152.9809,17.9978 152.9809,13.4983 148.4814,13.4983 148.4814,8.9989 143.982,8.9989 139.4826,8.9989 139.4826,13.4983 143.982,13.4983 143.982,8.9989 143.982,4.4994 139.4826,4.4994 139.4826,0.0 134.9831,0.0 130.4837,0.0 130.4837,4.4994 130.4837,0.0 125.9843,0.0 121.4848,0.0 121.4848,4.4994 116.9854,4.4994 116.9854,8.9989 116.9854,13.4983 121.4848,13.4983 125.9843,13.4983 125.9843,8.9989 125.9843,4.4994 121.4848,4.4994 121.4848,0.0 116.9854,0.0 112.4859,0.0 112.4859,4.4994 112.4859,0.0 107.9865,0.0 103.4871,0.0 103.4871,4.4994 98.9876,4.4994 98.9876,8.9989 98.9876,13.4983 103.4871,13.4983 103.4871,8.9989 98.9876,8.9989 94.4882,8.9989 94.4882,13.4983 89.9888,13.4983 89.9888,17.9978 89.9888,22.4972 94.4882,22.4972 89.9888,22.4972 89.9888,26.9966 89.9888,31.4961 94.4882,31.4961 94.4882,35.9955 98.9876,35.9955 103.4871,35.9955 103.4871,31.4961 103.4871,35.9955 107.9865,35.9955 112.4859,35.9955 112.4859,31.4961 116.9854,31.4961 116.9854,26.9966 116.9854,22.4972 112.4859,22.4972 116.9854,22.4972 116.9854,17.9978 116.9854,13.4983 112.4859,13.4983 112.4859,8.9989 107.9865,8.9989 103.4871,8.9989 103.4871,13.4983 107.9865,13.4983 107.9865,8.9989 107.9865,4.4994 103.4871,4.4994 103.4871,0.0 98.9876,0.0 94.4882,0.0 94.4882,4.4994 94.4882,0.0 89.9888,0.0 85.4893,0.0 85.4893,4.4994 80.9899,4.4994 80.9899,8.9989 80.9899,13.4983 85.4893,13.4983 89.9888,13.4983 89.9888,8.9989 89.9888,4.4994 85.4893,4.4994 85.4893,0.0 80.9899,0.0 76.4904,0.0 76.4904,4.4994 76.4904,0.0 71.991,0.0 67.4916,0.0 67.4916,4.4994 62.9921,4.4994 62.9921,8.9989 62.9921,13.4983 67.4916,13.4983 67.4916,8.9989 62.9921,8.9989 58.4927,8.9989 58.4927,13.4983 53.9933,13.4983 53.9933,17.9978 53.9933,22.4972 58.4927,22.4972 53.9933,22.4972 53.9933,26.9966 53.9933,31.4961 58.4927,31.4961 58.4927,35.9955 62.9921,35.9955 67.4916,35.9955 67.4916,31.4961 71.991,31.4961 71.991,26.9966 71.991,22.4972 67.4916,22.4972 67.4916,17.9978 62.9921,17.9978 58.4927,17.9978 58.4927,22.4972 58.4927,17.9978 53.9933,17.9978 49.4938,17.9978 49.4938,22.4972 44.9944,22.4972 44.9944,26.9966 44.9944,31.4961 49.4938,31.4961 49.4938,26.9966 44.9944,26.9966 40.4949,26.9966 40.4949,31.4961 35.9955,31.4961 35.9955,35.9955 35.9955,40.4949 40.4949,40.4949 35.9955,40.4949 35.9955,44.9944 35.9955,49.4938 40.4949,49.4938 40.4949,53.9933 44.9944,53.9933 49.4938,53.9933 49.4938,49.4938 49.4938,44.9944 44.9944,44.9944 40.4949,44.9944 40.4949,49.4938 35.9955,49.4938 35.9955,53.9933 35.9955,58.4927 40.4949,58.4927 35.9955,58.4927 35.9955,62.9921 35.9955,67.4916 40.4949,67.4916 40.4949,71.991 44.9944,71.991 49.4938,71.991 49.4938,67.4916 44.9944,67.4916 44.9944,71.991 44.9944,76.4904 49.4938,76.4904 49.4938,80.9899 53.9933,80.9899 58.4927,80.9899 58.4927,76.4904 58.4927,80.9899 62.9921,80.9899 67.4916,80.9899 67.4916,76.4904 71.991,76.4904 71.991,71.991 71.991,67.4916 67.4916,67.4916 67.4916,71.991 71.991,71.991 76.4904,71.991 76.4904,67.4916 80.9899,67.4916 80.9899,62.9921 80.9899,58.4927 76.4904,58.4927 80.9899,58.4927 80.9899,53.9933 80.9899,49.4938 76.4904,49.4938 76.4904,44.9944 71.991,44.9944 67.4916,44.9944 67.4916,49.4938 71.991,49.4938 71.991,44.9944 71.991,40.4949 67.4916,40.4949 67.4916,35.9955 62.9921,35.9955 58.4927,35.9955 58.4927,40.4949 58.4927,35.9955 53.9933,35.9955 49.4938,35.9955 49.4938,40.4949 44.9944,40.4949 44.9944,44.9944 44.9944,49.4938 49.4938,49.4938 53.9933,49.4938 53.9933,44.9944 53.9933,40.4949 49.4938,40.4949 49.4938,35.9955 44.9944,35.9955 40.4949,35.9955 40.4949,40.4949 40.4949,35.9955 35.9955,35.9955 31.4961,35.9955 31.4961,40.4949 26.9966,40.4949 26.9966,44.9944 26.9966,49.4938 31.4961,49.4938 31.4961,44.9944 26.9966,44.9944 22.4972,44.9944 22.4972,49.4938 17.9978,49.4938 17.9978,53.9933 17.9978,58.4927 22.4972,58.4927 17.9978,58.4927 17.9978,62.9921 17.9978,67.4916 22.4972,67.4916 22.4972,71.991 26.9966,71.991 31.4961,71.991 31.4961,67.4916 35.9955,67.4916 35.9955,62.9921 35.9955,58.4927 31.4961,58.4927 31.4961,53.9933 26.9966,53.9933 22.4972,53.9933 22.4972,58.4927 22.4972,53.9933 17.9978,53.9933 13.4983,53.9933 13.4983,58.4927 8.9989,58.4927 8.9989,62.9921 8.9989,67.4916 13.4983,67.4916 13.4983,62.9921 8.9989,62.9921 4.4994,62.9921 4.4994,67.4916 0.0,67.4916 0.0,71.991 0.0,76.4904 4.4994,76.4904 0.0,76.4904 0.0,80.9899 0.0,85.4893 4.4994,85.4893 4.4994,89.9888 8.9989,89.9888 13.4983,89.9888 13.4983,85.4893 13.4983,80.9899 8.9989,80.9899 4.4994,80.9899 4.4994,85.4893 0.0,85.4893 0.0,89.9888 0.0,94.4882 4.4994,94.4882 0.0,94.4882 0.0,98.9876 0.0,103.4871 4.4994,103.4871 4.4994,107.9865 8.9989,107.9865 13.4983,107.9865 13.4983,103.4871 8.9989,103.4871 8.9989,107.9865 8.9989,112.4859 13.4983,112.4859 13.4983,116.9854 17.9978,116.9854 22.4972,116.9854 22.4972,112.4859 22.4972,116.9854 26.9966,116.9854 31.4961,116.9854 31.4961,112.4859 35.9955,112.4859 35.9955,107.9865 35.9955,103.4871 31.4961,103.4871 35.9955,103.4871 35.9955,98.9876 35.9955,94.4882 31.4961,94.4882 31.4961,89.9888 26.9966,89.9888 22.4972,89.9888 22.4972,94.4882 22.4972,89.9888 17.9978,89.9888 13.4983,89.9888 13.4983,94.4882 8.9989,94.4882 8.9989,98.9876 8.9989,103.4871 13.4983,103.4871 13.4983,98.9876 8.9989,98.9876 4.4994,98.9876 4.4994,103.4871 0.0,103.4871 0.0,107.9865 0.0,112.4859 4.4994,112.4859 0.0,112.4859 0.0,116.9854 0.0,121.4848 4.4994,121.4848 4.4994,125.9843 8.9989,125.9843 13.4983,125.9843 13.4983,121.4848 13.4983,116.9854 8.9989,116.9854 4.4994,116.9854 4.4994,121.4848 0.0,121.4848 0.0,125.9843 0.0,130.4837 4.4994,130.4837 0.0,130.4837 0.0,134.9831 0.0,139.4826 4.4994,139.4826 4.4994,143.982 8.9989,143.982 13.4983,143.982 13.4983,139.4826 8.9989,139.4826 8.9989,143.982 8.9989,148.4814 13.4983,148.4814 13.4983,152.9809 17.9978,152.9809 22.4972,152.9809 22.4972,148.4814 22.4972,152.9809 26.9966,152.9809 31.4961,152.9809 31.4961,148.4814 35.9955,148.4814 35.9955,143.982 35.9955,139.4826 31.4961,139.4826 31.4961,134.9831 26.9966,134.9831 22.4972,134.9831 22.4972,139.4826 17.9978,139.4826 17.9978,143.982 17.9978,148.4814 22.4972,148.4814 17.9978,148.4814 17.9978,152.9809 17.9978,157.4803 22.4972,157.4803 22.4972,161.9798 26.9966,161.9798 31.4961,161.9798 31.4961,157.4803 26.9966,157.4803 26.9966,161.9798 26.9966,166.4792 31.4961,166.4792 31.4961,170.9786 35.9955,170.9786 40.4949,170.9786 40.4949,166.4792 40.4949,170.9786 44.9944,170.9786 49.4938,170.9786 49.4938,166.4792 53.9933,166.4792 53.9933,161.9798 53.9933,157.4803 49.4938,157.4803 44.9944,157.4803 44.9944,161.9798 44.9944,166.4792 49.4938,166.4792 49.4938,170.9786 53.9933,170.9786 58.4927,170.9786 58.4927,166.4792 58.4927,170.9786 62.9921,170.9786 67.4916,170.9786 67.4916,166.4792 71.991,166.4792 71.991,161.9798 71.991,157.4803 67.4916,157.4803 67.4916,161.9798 71.991,161.9798 76.4904,161.9798 76.4904,157.4803 80.9899,157.4803 80.9899,152.9809 80.9899,148.4814 76.4904,148.4814 80.9899,148.4814 80.9899,143.982 80.9899,139.4826 76.4904,139.4826 76.4904,134.9831 71.991,134.9831 67.4916,134.9831 67.4916,139.4826 67.4916,143.982 71.991,143.982 76.4904,143.982 76.4904,139.4826 80.9899,139.4826 80.9899,134.9831 80.9899,130.4837 76.4904,130.4837 80.9899,130.4837 80.9899,125.9843 80.9899,121.4848 76.4904,121.4848 76.4904,116.9854 71.991,116.9854 67.4916,116.9854 67.4916,121.4848 71.991,121.4848 71.991,116.9854 71.991,112.4859 67.4916,112.4859 67.4916,107.9865 62.9921,107.9865 58.4927,107.9865 58.4927,112.4859 58.4927,107.9865 53.9933,107.9865 49.4938,107.9865 49.4938,112.4859 44.9944,112.4859 44.9944,116.9854 44.9944,121.4848 49.4938,121.4848 53.9933,121.4848 53.9933,116.9854 53.9933,112.4859 49.4938,112.4859 49.4938,107.9865 44.9944,107.9865 40.4949,107.9865 40.4949,112.4859 40.4949,107.9865 35.9955,107.9865 31.4961,107.9865 31.4961,112.4859 26.9966,112.4859 26.9966,116.9854 26.9966,121.4848 31.4961,121.4848 31.4961,116.9854 26.9966,116.9854 22.4972,116.9854 22.4972,121.4848 17.9978,121.4848 17.9978,125.9843 17.9978,130.4837 22.4972,130.4837 17.9978,130.4837 17.9978,134.9831 17.9978,139.4826 22.4972,139.4826 22.4972,143.982 26.9966,143.982 31.4961,143.982 31.4961,139.4826 35.9955,139.4826 35.9955,134.9831 35.9955,130.4837 31.4961,130.4837 31.4961,125.9843 26.9966,125.9843 22.4972,125.9843 22.4972,130.4837 22.4972,125.9843 17.9978,125.9843 13.4983,125.9843 13.4983,130.4837 8.9989,130.4837 8.9989,134.9831 8.9989,139.4826 13.4983,139.4826 13.4983,134.9831 8.9989,134.9831 4.4994,134.9831 4.4994,139.4826 0.0,139.4826 0.0,143.982 0.0,148.4814 4.4994,148.4814 0.0,148.4814 0.0,152.9809 0.0,157.4803 4.4994,157.4803 4.4994,161.9798 8.9989,161.9798 13.4983,161.9798 13.4983,157.4803 13.4983,152.9809 8.9989,152.9809 4.4994,152.9809 4.4994,157.4803 0.0,157.4803 0.0,161.9798 0.0,166.4792 4.4994,166.4792 0.0,166.4792 0.0,170.9786 0.0,175.4781 4.4994,175.4781 4.4994,179.9775 8.9989,179.9775 13.4983,179.9775 13.4983,175.4781 8.9989,175.4781 8.9989,179.9775 8.9989,184.4769 13.4983,184.4769 13.4983,188.9764 17.9978,188.9764 22.4972,188.9764 22.4972,184.4769 22.4972,188.9764 26.9966,188.9764 31.4961,188.9764 31.4961,184.4769 35.9955,184.4769 35.9955,179.9775 35.9955,175.4781 31.4961,175.4781 35.9955,175.4781 35.9955,170.9786 35.9955,166.4792 31.4961,166.4792 31.4961,161.9798 26.9966,161.9798 22.4972,161.9798 22.4972,166.4792 22.4972,161.9798 17.9978,161.9798 13.4983,161.9798 13.4983,166.4792 8.9989,166.4792 8.9989,170.9786 8.9989,175.4781 13.4983,175.4781 13.4983,170.9786 8.9989,170.9786 4.4994,170.9786 4.4994,175.4781 0.0,175.4781 0.0,179.9775 0.0,184.4769 4.4994,184.4769 0.0,184.4769 0.0,188.9764 0.0,193.4758 4.4994,193.4758 4.4994,197.9753 8.9989,197.9753 13.4983,197.9753 13.4983,193.4758 13.4983,188.9764 8.9989,188.9764 4.4994,188.9764 4.4994,193.4758 0.0,193.4758 0.0,197.9753 0.0,202.4747 4.4994,202.4747 0.0,202.4747 0.0,206.9741 0.0,211.4736 4.4994,211.4736 4.4994,215.973 8.9989,215.973 13.4983,215.973 13.4983,211.4736 8.9989,211.4736 8.9989,215.973 8.9989,220.4724 13.4983,220.4724 13.4983,224.9719 17.9978,224.9719 22.4972,224.9719 22.4972,220.4724 22.4972,224.9719 26.9966,224.9719 31.4961,224.9719 31.4961,220.4724 35.9955,220.4724 35.9955,215.973 35.9955,211.4736 31.4961,211.4736 31.4961,206.9741 26.9966,206.9741 22.4972,206.9741 22.4972,211.4736 17.9978,211.4736 17.9978,215.973 17.9978,220.4724 22.4972,220.4724 17.9978,220.4724 17.9978,224.9719 17.9978,229.4713 22.4972,229.4713 22.4972,233.9708 26.9966,233.9708 31.4961,233.9708 31.4961,229.4713 26.9966,229.4713 26.9966,233.9708 26.9966,238.4702 31.4961,238.4702 31.4961,242.9696 35.9955,242.9696 40.4949,242.9696 40.4949,238.4702 40.4949,242.9696 44.9944,242.9696 49.4938,242.9696 49.4938,238.4702 53.9933,238.4702 53.9933,233.9708 53.9933,229.4713 49.4938,229.4713 44.9944,229.4713 44.9944,233.9708 44.9944,238.4702 49.4938,238.4702 49.4938,242.9696 53.9933,242.9696 58.4927,242.9696 58.4927,238.4702 58.4927,242.9696 62.9921,242.9696 67.4916,242.9696 67.4916,238.4702 71.991,238.4702 71.991,233.9708 71.991,229.4713 67.4916,229.4713 67.4916,233.9708 71.991,233.9708 76.4904,233.9708 76.4904,229.4713 80.9899,229.4713 80.9899,224.9719 80.9899,220.4724 76.4904,220.4724 80.9899,220.4724 80.9899,215.973 80.9899,211.4736 76.4904,211.4736 76.4904,206.9741 71.991,206.9741 67.4916,206.9741 67.4916,211.4736 71.991,211.4736 71.991,206.9741 71.991,202.4747 67.4916,202.4747 67.4916,197.9753 62.9921,197.9753 58.4927,197.9753 58.4927,202.4747 58.4927,197.9753 53.9933,197.9753 49.4938,197.9753 49.4938,202.4747 44.9944,202.4747 44.9944,206.9741 44.9944,211.4736 49.4938,211.4736 49.4938,206.9741 44.9944,206.9741 40.4949,206.9741 40.4949,211.4736 35.9955,211.4736 35.9955,215.973 35.9955,220.4724 40.4949,220.4724 35.9955,220.4724 35.9955,224.9719 35.9955,229.4713 40.4949,229.4713 40.4949,233.9708 44.9944,233.9708 49.4938,233.9708 49.4938,229.4713 49.4938,224.9719 44.9944,224.9719 40.4949,224.9719 40.4949,229.4713 35.9955,229.4713 35.9955,233.9708 35.9955,238.4702 40.4949,238.4702 35.9955,238.4702 35.9955,242.9696 35.9955,247.4691 40.4949,247.4691 40.4949,251.9685 44.9944,251.9685 49.4938,251.9685 49.4938,247.4691 44.9944,247.4691 44.9944,251.9685 44.9944,256.4679 49.4938,256.4679 49.4938,260.9674 53.9933,260.9674 58.4927,260.9674 58.4927,256.4679 58.4927,260.9674 62.9921,260.9674 67.4916,260.9674 67.4916,256.4679 71.991,256.4679 71.991,251.9685 71.991,247.4691 67.4916,247.4691 67.4916,242.9696 62.9921,242.9696 58.4927,242.9696 58.4927,247.4691 53.9933,247.4691 53.9933,251.9685 53.9933,256.4679 58.4927,256.4679 53.9933,256.4679 53.9933,260.9674 53.9933,265.4668 58.4927,265.4668 58.4927,269.9663 62.9921,269.9663 67.4916,269.9663 67.4916,265.4668 62.9921,265.4668 62.9921,269.9663 62.9921,274.4657 67.4916,274.4657 67.4916,278.9651 71.991,278.9651 76.4904,278.9651 76.4904,274.4657 76.4904,278.9651 80.9899,278.9651 85.4893,278.9651 85.4893,274.4657 89.9888,274.4657 89.9888,269.9663 89.9888,265.4668 85.4893,265.4668 80.9899,265.4668 80.9899,269.9663 80.9899,274.4657 85.4893,274.4657 85.4893,278.9651 89.9888,278.9651 94.4882,278.9651 94.4882,274.4657 94.4882,278.9651 98.9876,278.9651 103.4871,278.9651 103.4871,274.4657 107.9865,274.4657 107.9865,269.9663 107.9865,265.4668 103.4871,265.4668 103.4871,269.9663 107.9865,269.9663 112.4859,269.9663 112.4859,265.4668 116.9854,265.4668 116.9854,260.9674 116.9854,256.4679 112.4859,256.4679 116.9854,256.4679 116.9854,251.9685 116.9854,247.4691 112.4859,247.4691 112.4859,242.9696 107.9865,242.9696 103.4871,242.9696 103.4871,247.4691 103.4871,242.9696 98.9876,242.9696 94.4882,242.9696 94.4882,247.4691 89.9888,247.4691 89.9888,251.9685 89.9888,256.4679 94.4882,256.4679 89.9888,256.4679 89.9888,260.9674 89.9888,265.4668 94.4882,265.4668 94.4882,269.9663 98.9876,269.9663 103.4871,269.9663 103.4871,265.4668 98.9876,265.4668 98.9876,269.9663 98.9876,274.4657 103.4871,274.4657 103.4871,278.9651 107.9865,278.9651 112.4859,278.9651 112.4859,274.4657 112.4859,278.9651 116.9854,278.9651 121.4848,278.9651 121.4848,274.4657 125.9843,274.4657 125.9843,269.9663 125.9843,265.4668 121.4848,265.4668 116.9854,265.4668 116.9854,269.9663 116.9854,274.4657 121.4848,274.4657 121.4848,278.9651 125.9843,278.9651 130.4837,278.9651 130.4837,274.4657 130.4837,278.9651 134.9831,278.9651 139.4826,278.9651 139.4826,274.4657 143.982,274.4657 143.982,269.9663 143.982,265.4668 139.4826,265.4668 139.4826,269.9663 143.982,269.9663 148.4814,269.9663 148.4814,265.4668 152.9809,265.4668 152.9809,260.9674 152.9809,256.4679 148.4814,256.4679 152.9809,256.4679 152.9809,251.9685 152.9809,247.4691 148.4814,247.4691 148.4814,242.9696 143.982,242.9696 139.4826,242.9696 139.4826,247.4691 134.9831,247.4691 134.9831,251.9685 134.9831,256.4679 139.4826,256.4679 139.4826,260.9674 143.982,260.9674 148.4814,260.9674 148.4814,256.4679 148.4814,260.9674 152.9809,260.9674 157.4803,260.9674 157.4803,256.4679 161.9798,256.4679 161.9798,251.9685 161.9798,247.4691 157.4803,247.4691 157.4803,251.9685 161.9798,251.9685 166.4792,251.9685 166.4792,247.4691 170.9786,247.4691 170.9786,242.9696 170.9786,238.4702 166.4792,238.4702 170.9786,238.4702 170.9786,233.9708 170.9786,229.4713 166.4792,229.4713 166.4792,224.9719 161.9798,224.9719 157.4803,224.9719 157.4803,229.4713 157.4803,233.9708 161.9798,233.9708 166.4792,233.9708 166.4792,229.4713 170.9786,229.4713 170.9786,224.9719 170.9786,220.4724 166.4792,220.4724 170.9786,220.4724 170.9786,215.973 170.9786,211.4736 166.4792,211.4736 166.4792,206.9741 161.9798,206.9741 157.4803,206.9741 157.4803,211.4736 161.9798,211.4736 161.9798,206.9741 161.9798,202.4747 157.4803,202.4747 157.4803,197.9753 152.9809,197.9753 148.4814,197.9753 148.4814,202.4747 148.4814,197.9753 143.982,197.9753 139.4826,197.9753 139.4826,202.4747 134.9831,202.4747 134.9831,206.9741 134.9831,211.4736 139.4826,211.4736 139.4826,215.973 143.982,215.973 148.4814,215.973 148.4814,211.4736 152.9809,211.4736 152.9809,206.9741 152.9809,202.4747 148.4814,202.4747 152.9809,202.4747 152.9809,197.9753 152.9809,193.4758 148.4814,193.4758 148.4814,188.9764 143.982,188.9764 139.4826,188.9764 139.4826,193.4758 143.982,193.4758 143.982,188.9764 143.982,184.4769 139.4826,184.4769 139.4826,179.9775 134.9831,179.9775 130.4837,179.9775 130.4837,184.4769 130.4837,179.9775 125.9843,179.9775 121.4848,179.9775 121.4848,184.4769 116.9854,184.4769 116.9854,188.9764 116.9854,193.4758 121.4848,193.4758 125.9843,193.4758 125.9843,188.9764 125.9843,184.4769 121.4848,184.4769 121.4848,179.9775 116.9854,179.9775 112.4859,179.9775 112.4859,184.4769 112.4859,179.9775 107.9865,179.9775 103.4871,179.9775 103.4871,184.4769 98.9876,184.4769 98.9876,188.9764 98.9876,193.4758 103.4871,193.4758 103.4871,188.9764 98.9876,188.9764 94.4882,188.9764 94.4882,193.4758 89.9888,193.4758 89.9888,197.9753 89.9888,202.4747 94.4882,202.4747 89.9888,202.4747 89.9888,206.9741 89.9888,211.4736 94.4882,211.4736 94.4882,215.973 98.9876,215.973 103.4871,215.973 103.4871,211.4736 107.9865,211.4736 107.9865,206.9741 107.9865,202.4747 103.4871,202.4747 103.4871,197.9753 98.9876,197.9753 94.4882,197.9753 94.4882,202.4747 94.4882,197.9753 89.9888,197.9753 85.4893,197.9753 85.4893,202.4747 80.9899,202.4747 80.9899,206.9741 80.9899,211.4736 85.4893,211.4736 85.4893,206.9741 80.9899,206.9741 76.4904,206.9741 76.4904,211.4736 71.991,211.4736 71.991,215.973 71.991,220.4724 76.4904,220.4724 71.991,220.4724 71.991,224.9719 71.991,229.4713 76.4904,229.4713 76.4904,233.9708 80.9899,233.9708 85.4893,233.9708 85.4893,229.4713 85.4893,224.9719 80.9899,224.9719 76.4904,224.9719 76.4904,229.4713 71.991,229.4713 71.991,233.9708 71.991,238.4702 76.4904,238.4702 71.991,238.4702 71.991,242.9696 71.991,247.4691 76.4904,247.4691 76.4904,251.9685 80.9899,251.9685 85.4893,251.9685 85.4893,247.4691 80.9899,247.4691 80.9899,251.9685 80.9899,256.4679 85.4893,256.4679 85.4893,260.9674 89.9888,260.9674 94.4882,260.9674 94.4882,256.4679 94.4882,260.9674 98.9876,260.9674 103.4871,260.9674 103.4871,256.4679 107.9865,256.4679 107.9865,251.9685 107.9865,247.4691 103.4871,247.4691 107.9865,247.4691 107.9865,242.9696 107.9865,238.4702 103.4871,238.4702 103.4871,233.9708 98.9876,233.9708 94.4882,233.9708 94.4882,238.4702 94.4882,233.9708 89.9888,233.9708 85.4893,233.9708 85.4893,238.4702 80.9899,238.4702 80.9899,242.9696 80.9899,247.4691 85.4893,247.4691 85.4893,242.9696 80.9899,242.9696 76.4904,242.9696 76.4904,247.4691 71.991,247.4691 71.991,251.9685 71.991,256.4679 76.4904,256.4679 71.991,256.4679 71.991,260.9674 71.991,265.4668 76.4904,265.4668 76.4904,269.9663 80.9899,269.9663 85.4893,269.9663 85.4893,265.4668 85.4893,260.9674 80.9899,260.9674 76.4904,260.9674 76.4904,265.4668 71.991,265.4668 71.991,269.9663 71.991,274.4657 76.4904,274.4657 71.991,274.4657 71.991,278.9651 71.991,283.4646 76.4904,283.4646 76.4904,287.964 80.9899,287.964 85.4893,287.964 85.4893,283.4646 80.9899,283.4646 80.9899,287.964 80.9899,292.4634 85.4893,292.4634 85.4893,296.9629 89.9888,296.9629 94.4882,296.9629 94.4882,292.4634 94.4882,296.9629 98.9876,296.9629 103.4871,296.9629 103.4871,292.4634 107.9865,292.4634 107.9865,287.964 107.9865,283.4646 103.4871,283.4646 103.4871,278.9651 98.9876,278.9651 94.4882,278.9651 94.4882,283.4646 89.9888,283.4646 89.9888,287.964 89.9888,292.4634 94.4882,292.4634 89.9888,292.4634 89.9888,296.9629 89.9888,301.4623 94.4882,301.4623 94.4882,305.9618 98.9876,305.9618 103.4871,305.9618 103.4871,301.4623 98.9876,301.4623 98.9876,305.9618 98.9876,310.4612 103.4871,310.4612 103.4871,314.9606 107.9865,314.9606 112.4859,314.9606 112.4859,310.4612 112.4859,314.9606 116.9854,314.9606 121.4848,314.9606 121.4848,310.4612 125.9843,310.4612 125.9843,305.9618 125.9843,301.4623 121.4848,301.4623 116.9854,301.4623 116.9854,305.9618 116.9854,310.4612 121.4848,310.4612 121.4848,314.9606 125.9843,314.9606 130.4837,314.9606 130.4837,310.4612 130.4837,314.9606 134.9831,314.9606 139.4826,314.9606 139.4826,310.4612 143.982,310.4612 143.982,305.9618 143.982,301.4623 139.4826,301.4623 139.4826,305.9618 143.982,305.9618 148.4814,305.9618 148.4814,301.4623 152.9809,301.4623 152.9809,296.9629 152.9809,292.4634 148.4814,292.4634 152.9809,292.4634 152.9809,287.964 152.9809,283.4646 148.4814,283.4646 148.4814,278.9651 143.982,278.9651 139.4826,278.9651 139.4826,283.4646 143.982,283.4646 143.982,278.9651 143.982,274.4657 139.4826,274.4657 139.4826,269.9663 134.9831,269.9663 130.4837,269.9663 130.4837,274.4657 130.4837,269.9663 125.9843,269.9663 121.4848,269.9663 121.4848,274.4657 116.9854,274.4657 116.9854,278.9651 116.9854,283.4646 121.4848,283.4646 121.4848,278.9651 116.9854,278.9651 112.4859,278.9651 112.4859,283.4646 107.9865,283.4646 107.9865,287.964 107.9865,292.4634 112.4859,292.4634 107.9865,292.4634 107.9865,296.9629 107.9865,301.4623 112.4859,301.4623 112.4859,305.9618 116.9854,305.9618 121.4848,305.9618 121.4848,301.4623 121.4848,296.9629 116.9854,296.9629 112.4859,296.9629 112.4859,301.4623 107.9865,301.4623 107.9865,305.9618 107.9865,310.4612 112.4859,310.4612 107.9865,310.4612 107.9865,314.9606 107.9865,319.4601 112.4859,319.4601 112.4859,323.9595 116.9854,323.9595 121.4848,323.9595 121.4848,319.4601 116.9854,319.4601 116.9854,323.9595 116.9854,328.4589 121.4848,328.4589 121.4848,332.9584 125.9843,332.9584 130.4837,332.9584 130.4837,328.4589 130.4837,332.9584 134.9831,332.9584 139.4826,332.9584 139.4826,328.4589 143.982,328.4589 143.982,323.9595 143.982,319.4601 139.4826,319.4601 139.4826,314.9606 134.9831,314.9606 130.4837,314.9606 130.4837,319.4601 125.9843,319.4601 125.9843,323.9595 125.9843,328.4589 130.4837,328.4589 125.9843,328.4589 125.9843,332.9584 125.9843,337.4578 130.4837,337.4578 130.4837,341.9573 134.9831,341.9573 139.4826,341.9573 139.4826,337.4578 134.9831,337.4578 134.9831,341.9573 134.9831,346.4567 139.4826,346.4567 139.4826,350.9561 143.982,350.9561 148.4814,350.9561 148.4814,346.4567 148.4814,350.9561 152.9809,350.9561 157.4803,350.9561 157.4803,346.4567 161.9798,346.4567 161.9798,341.9573 161.9798,337.4578 157.4803,337.4578 152.9809,337.4578 152.9809,341.9573 152.9809,346.4567 157.4803,346.4567 157.4803,350.9561 161.9798,350.9561 166.4792,350.9561 166.4792,346.4567 166.4792,350.9561 170.9786,350.9561 175.4781,350.9561 175.4781,346.4567 179.9775,346.4567 179.9775,341.9573 179.9775,337.4578 175.4781,337.4578 175.4781,341.9573 179.9775,341.9573 184.4769,341.9573 184.4769,337.4578 188.9764,337.4578 188.9764,332.9584 188.9764,328.4589 184.4769,328.4589 188.9764,328.4589 188.9764,323.9595 188.9764,319.4601 184.4769,319.4601 184.4769,314.9606 179.9775,314.9606 175.4781,314.9606 175.4781,319.4601 175.4781,314.9606 170.9786,314.9606 166.4792,314.9606 166.4792,319.4601 161.9798,319.4601 161.9798,323.9595 161.9798,328.4589 166.4792,328.4589 161.9798,328.4589 161.9798,332.9584 161.9798,337.4578 166.4792,337.4578 166.4792,341.9573 170.9786,341.9573 175.4781,341.9573 175.4781,337.4578 170.9786,337.4578 170.9786,341.9573 170.9786,346.4567 175.4781,346.4567 175.4781,350.9561 179.9775,350.9561 184.4769,350.9561 184.4769,346.4567 184.4769,350.9561 188.9764,350.9561 193.4758,350.9561 193.4758,346.4567 197.9753,346.4567 197.9753,341.9573 197.9753,337.4578 193.4758,337.4578 188.9764,337.4578 188.9764,341.9573 188.9764,346.4567 193.4758,346.4567 193.4758,350.9561 197.9753,350.9561 202.4747,350.9561 202.4747,346.4567 202.4747,350.9561 206.9741,350.9561 211.4736,350.9561 211.4736,346.4567 215.973,346.4567 215.973,341.9573 215.973,337.4578 211.4736,337.4578 211.4736,341.9573 215.973,341.9573 220.4724,341.9573 220.4724,337.4578 224.9719,337.4578 224.9719,332.9584 224.9719,328.4589 220.4724,328.4589 224.9719,328.4589 224.9719,323.9595 224.9719,319.4601 220.4724,319.4601 220.4724,314.9606 215.973,314.9606 211.4736,314.9606 211.4736,319.4601 206.9741,319.4601 206.9741,323.9595 206.9741,328.4589 211.4736,328.4589 211.4736,332.9584 215.973,332.9584 220.4724,332.9584 220.4724,328.4589 220.4724,332.9584 224.9719,332.9584 229.4713,332.9584 229.4713,328.4589 233.9708,328.4589 233.9708,323.9595 233.9708,319.4601 229.4713,319.4601 229.4713,323.9595 233.9708,323.9595 238.4702,323.9595 238.4702,319.4601 242.9696,319.4601 242.9696,314.9606 242.9696,310.4612 238.4702,310.4612 242.9696,310.4612 242.9696,305.9618 242.9696,301.4623 238.4702,301.4623 238.4702,296.9629 233.9708,296.9629 229.4713,296.9629 229.4713,301.4623 229.4713,305.9618 233.9708,305.9618 238.4702,305.9618 238.4702,301.4623 242.9696,301.4623 242.9696,296.9629 242.9696,292.4634 238.4702,292.4634 242.9696,292.4634 242.9696,287.964 242.9696,283.4646 238.4702,283.4646 238.4702,278.9651 233.9708,278.9651 229.4713,278.9651 229.4713,283.4646 233.9708,283.4646 233.9708,278.9651 233.9708,274.4657 229.4713,274.4657 229.4713,269.9663 224.9719,269.9663 220.4724,269.9663 220.4724,274.4657 220.4724,269.9663 215.973,269.9663 211.4736,269.9663 211.4736,274.4657 206.9741,274.4657 206.9741,278.9651 206.9741,283.4646 211.4736,283.4646 215.973,283.4646 215.973,278.9651 215.973,274.4657 211.4736,274.4657 211.4736,269.9663 206.9741,269.9663 202.4747,269.9663 202.4747,274.4657 202.4747,269.9663 197.9753,269.9663 193.4758,269.9663 193.4758,274.4657 188.9764,274.4657 188.9764,278.9651 188.9764,283.4646 193.4758,283.4646 193.4758,278.9651 188.9764,278.9651 184.4769,278.9651 184.4769,283.4646 179.9775,283.4646 179.9775,287.964 179.9775,292.4634 184.4769,292.4634 179.9775,292.4634 179.9775,296.9629 179.9775,301.4623 184.4769,301.4623 184.4769,305.9618 188.9764,305.9618 193.4758,305.9618 193.4758,301.4623 193.4758,296.9629 188.9764,296.9629 184.4769,296.9629 184.4769,301.4623 179.9775,301.4623 179.9775,305.9618 179.9775,310.4612 184.4769,310.4612 179.9775,310.4612 179.9775,314.9606 179.9775,319.4601 184.4769,319.4601 184.4769,323.9595 188.9764,323.9595 193.4758,323.9595 193.4758,319.4601 188.9764,319.4601 188.9764,323.9595 188.9764,328.4589 193.4758,328.4589 193.4758,332.9584 197.9753,332.9584 202.4747,332.9584 202.4747,328.4589 202.4747,332.9584 206.9741,332.9584 211.4736,332.9584 211.4736,328.4589 215.973,328.4589 215.973,323.9595 215.973,319.4601 211.4736,319.4601 211.4736,314.9606 206.9741,314.9606 202.4747,314.9606 202.4747,319.4601 197.9753,319.4601 197.9753,323.9595 197.9753,328.4589 202.4747,328.4589 197.9753,328.4589 197.9753,332.9584 197.9753,337.4578 202.4747,337.4578 202.4747,341.9573 206.9741,341.9573 211.4736,341.9573 211.4736,337.4578 206.9741,337.4578 206.9741,341.9573 206.9741,346.4567 211.4736,346.4567 211.4736,350.9561 215.973,350.9561 220.4724,350.9561 220.4724,346.4567 220.4724,350.9561 224.9719,350.9561 229.4713,350.9561 229.4713,346.4567 233.9708,346.4567 233.9708,341.9573 233.9708,337.4578 229.4713,337.4578 224.9719,337.4578 224.9719,341.9573 224.9719,346.4567 229.4713,346.4567 229.4713,350.9561 233.9708,350.9561 238.4702,350.9561 238.4702,346.4567 238.4702,350.9561 242.9696,350.9561 247.4691,350.9561 247.4691,346.4567 251.9685,346.4567 251.9685,341.9573 251.9685,337.4578 247.4691,337.4578 247.4691,341.9573 251.9685,341.9573 256.4679,341.9573 256.4679,337.4578 260.9674,337.4578 260.9674,332.9584 260.9674,328.4589 256.4679,328.4589 260.9674,328.4589 260.9674,323.9595 260.9674,319.4601 256.4679,319.4601 256.4679,314.9606 251.9685,314.9606 247.4691,314.9606 247.4691,319.4601 247.4691,314.9606 242.9696,314.9606 238.4702,314.9606 238.4702,319.4601 233.9708,319.4601 233.9708,323.9595 233.9708,328.4589 238.4702,328.4589 233.9708,328.4589 233.9708,332.9584 233.9708,337.4578 238.4702,337.4578 238.4702,341.9573 242.9696,341.9573 247.4691,341.9573 247.4691,337.4578 242.9696,337.4578 242.9696,341.9573 242.9696,346.4567 247.4691,346.4567 247.4691,350.9561 251.9685,350.9561 256.4679,350.9561 256.4679,346.4567 256.4679,350.9561 260.9674,350.9561 265.4668,350.9561 265.4668,346.4567 269.9663,346.4567 269.9663,341.9573 269.9663,337.4578 265.4668,337.4578 260.9674,337.4578 260.9674,341.9573 260.9674,346.4567 265.4668,346.4567 265.4668,350.9561 269.9663,350.9561 274.4657,350.9561 274.4657,346.4567 274.4657,350.9561 278.9651,350.9561 283.4646,350.9561 283.4646,346.4567 287.964,346.4567 287.964,341.9573 287.964,337.4578 283.4646,337.4578 283.4646,341.9573 287.964,341.9573 292.4634,341.9573 292.4634,337.4578 296.9629,337.4578 296.9629,332.9584 296.9629,328.4589 292.4634,328.4589 296.9629,328.4589 296.9629,323.9595 296.9629,319.4601 292.4634,319.4601 292.4634,314.9606 287.964,314.9606 283.4646,314.9606 283.4646,319.4601 278.9651,319.4601 278.9651,323.9595 278.9651,328.4589 283.4646,328.4589 283.4646,332.9584 287.964,332.9584 292.4634,332.9584 292.4634,328.4589 292.4634,332.9584 296.9629,332.9584 301.4623,332.9584 301.4623,328.4589 305.9618,328.4589 305.9618,323.9595 305.9618,319.4601 301.4623,319.4601 301.4623,323.9595 305.9618,323.9595 310.4612,323.9595 310.4612,319.4601 314.9606,319.4601 314.9606,314.9606 314.9606,310.4612 310.4612,310.4612 314.9606,310.4612 314.9606,305.9618 314.9606,301.4623 310.4612,301.4623 310.4612,296.9629 305.9618,296.9629 301.4623,296.9629 301.4623,301.4623 301.4623,305.9618 305.9618,305.9618 310.4612,305.9618 310.4612,301.4623 314.9606,301.4623 314.9606,296.9629 314.9606,292.4634 310.4612,292.4634 314.9606,292.4634 314.9606,287.964 314.9606,283.4646 310.4612,283.4646 310.4612,278.9651 305.9618,278.9651 301.4623,278.9651 301.4623,283.4646 305.9618,283.4646 305.9618,278.9651 305.9618,274.4657 301.4623,274.4657 301.4623,269.9663 296.9629,269.9663 292.4634,269.9663 292.4634,274.4657 292.4634,269.9663 287.964,269.9663 283.4646,269.9663 283.4646,274.4657 278.9651,274.4657 278.9651,278.9651 278.9651,283.4646 283.4646,283.4646 283.4646,278.9651 278.9651,278.9651 274.4657,278.9651 274.4657,283.4646 269.9663,283.4646 269.9663,287.964 269.9663,292.4634 274.4657,292.4634 269.9663,292.4634 269.9663,296.9629 269.9663,301.4623 274.4657,301.4623 274.4657,305.9618 278.9651,305.9618 283.4646,305.9618 283.4646,301.4623 278.9651,301.4623 278.9651,305.9618 278.9651,310.4612 283.4646,310.4612 283.4646,314.9606 287.964,314.9606 292.4634,314.9606 292.4634,310.4612 292.4634,314.9606 296.9629,314.9606 301.4623,314.9606 301.4623,310.4612 305.9618,310.4612 305.9618,305.9618 305.9618,301.4623 301.4623,301.4623 296.9629,301.4623 296.9629,305.9618 296.9629,310.4612 301.4623,310.4612 301.4623,314.9606 305.9618,314.9606 310.4612,314.9606 310.4612,310.4612 310.4612,314.9606 314.9606,314.9606 319.4601,314.9606 319.4601,310.4612 323.9595,310.4612 323.9595,305.9618 323.9595,301.4623 319.4601,301.4623 319.4601,305.9618 323.9595,305.9618 328.4589,305.9618 328.4589,301.4623 332.9584,301.4623 332.9584,296.9629 332.9584,292.4634 328.4589,292.4634 332.9584,292.4634 332.9584,287.964 332.9584,283.4646 328.4589,283.4646 328.4589,278.9651 323.9595,278.9651 319.4601,278.9651 319.4601,283.4646 314.9606,283.4646 314.9606,287.964 314.9606,292.4634 319.4601,292.4634 319.4601,296.9629 323.9595,296.9629 328.4589,296.9629 328.4589,292.4634 328.4589,296.9629 332.9584,296.9629 337.4578,296.9629 337.4578,292.4634 341.9573,292.4634 341.9573,287.964 341.9573,283.4646 337.4578,283.4646 337.4578,287.964 341.9573,287.964 346.4567,287.964 346.4567,283.4646 350.9561,283.4646 350.9561,278.9651 350.9561,274.4657 346.4567,274.4657 350.9561,274.4657 350.9561,269.9663 350.9561,265.4668 346.4567,265.4668 346.4567,260.9674 341.9573,260.9674 337.4578,260.9674 337.4578,265.4668 337.4578,269.9663 341.9573,269.9663 346.4567,269.9663 346.4567,265.4668 350.9561,265.4668 350.9561,260.9674 350.9561,256.4679 346.4567,256.4679 350.9561,256.4679 350.9561,251.9685 350.9561,247.4691 346.4567,247.4691 346.4567,242.9696 341.9573,242.9696 337.4578,242.9696 337.4578,247.4691 341.9573,247.4691 341.9573,242.9696 341.9573,238.4702 337.4578,238.4702 337.4578,233.9708 332.9584,233.9708 328.4589,233.9708 328.4589,238.4702 328.4589,233.9708 323.9595,233.9708 319.4601,233.9708 319.4601,238.4702 314.9606,238.4702 314.9606,242.9696 314.9606,247.4691 319.4601,247.4691 314.9606,247.4691 314.9606,251.9685 314.9606,256.4679 319.4601,256.4679 319.4601,260.9674 323.9595,260.9674 328.4589,260.9674 328.4589,256.4679 328.4589,260.9674 332.9584,260.9674 337.4578,260.9674 337.4578,256.4679 341.9573,256.4679 341.9573,251.9685 341.9573,247.4691 337.4578,247.4691 337.4578,251.9685 341.9573,251.9685 346.4567,251.9685 346.4567,247.4691 350.9561,247.4691 350.9561,242.9696 350.9561,238.4702 346.4567,238.4702 350.9561,238.4702 350.9561,233.9708 350.9561,229.4713 346.4567,229.4713 346.4567,224.9719 341.9573,224.9719 337.4578,224.9719 337.4578,229.4713 337.4578,233.9708 341.9573,233.9708 346.4567,233.9708 346.4567,229.4713 350.9561,229.4713 350.9561,224.9719 350.9561,220.4724 346.4567,220.4724 350.9561,220.4724 350.9561,215.973 350.9561,211.4736 346.4567,211.4736 346.4567,206.9741 341.9573,206.9741 337.4578,206.9741 337.4578,211.4736 341.9573,211.4736 341.9573,206.9741 341.9573,202.4747 337.4578,202.4747 337.4578,197.9753 332.9584,197.9753 328.4589,197.9753 328.4589,202.4747 328.4589,197.9753 323.9595,197.9753 319.4601,197.9753 319.4601,202.4747 314.9606,202.4747 314.9606,206.9741 314.9606,211.4736 319.4601,211.4736 319.4601,215.973 323.9595,215.973 328.4589,215.973 328.4589,211.4736 332.9584,211.4736 332.9584,206.9741 332.9584,202.4747 328.4589,202.4747 332.9584,202.4747 332.9584,197.9753 332.9584,193.4758 328.4589,193.4758 328.4589,188.9764 323.9595,188.9764 319.4601,188.9764 319.4601,193.4758 323.9595,193.4758 323.9595,188.9764 323.9595,184.4769 319.4601,184.4769 319.4601,179.9775 314.9606,179.9775 310.4612,179.9775 310.4612,184.4769 310.4612,179.9775 305.9618,179.9775 301.4623,179.9775 301.4623,184.4769 296.9629,184.4769 296.9629,188.9764 296.9629,193.4758 301.4623,193.4758 305.9618,193.4758 305.9618,188.9764 305.9618,184.4769 301.4623,184.4769 301.4623,179.9775 296.9629,179.9775 292.4634,179.9775 292.4634,184.4769 292.4634,179.9775 287.964,179.9775 283.4646,179.9775 283.4646,184.4769 278.9651,184.4769 278.9651,188.9764 278.9651,193.4758 283.4646,193.4758 283.4646,188.9764 278.9651,188.9764 274.4657,188.9764 274.4657,193.4758 269.9663,193.4758 269.9663,197.9753 269.9663,202.4747 274.4657,202.4747 269.9663,202.4747 269.9663,206.9741 269.9663,211.4736 274.4657,211.4736 274.4657,215.973 278.9651,215.973 283.4646,215.973 283.4646,211.4736 283.4646,215.973 287.964,215.973 292.4634,215.973 292.4634,211.4736 296.9629,211.4736 296.9629,206.9741 296.9629,202.4747 292.4634,202.4747 296.9629,202.4747 296.9629,197.9753 296.9629,193.4758 292.4634,193.4758 292.4634,188.9764 287.964,188.9764 283.4646,188.9764 283.4646,193.4758 287.964,193.4758 287.964,188.9764 287.964,184.4769 283.4646,184.4769 283.4646,179.9775 278.9651,179.9775 274.4657,179.9775 274.4657,184.4769 274.4657,179.9775 269.9663,179.9775 265.4668,179.9775 265.4668,184.4769 260.9674,184.4769 260.9674,188.9764 260.9674,193.4758 265.4668,193.4758 269.9663,193.4758 269.9663,188.9764 269.9663,184.4769 265.4668,184.4769 265.4668,179.9775 260.9674,179.9775 256.4679,179.9775 256.4679,184.4769 256.4679,179.9775 251.9685,179.9775 247.4691,179.9775 247.4691,184.4769 242.9696,184.4769 242.9696,188.9764 242.9696,193.4758 247.4691,193.4758 247.4691,188.9764 242.9696,188.9764 238.4702,188.9764 238.4702,193.4758 233.9708,193.4758 233.9708,197.9753 233.9708,202.4747 238.4702,202.4747 233.9708,202.4747 233.9708,206.9741 233.9708,211.4736 238.4702,211.4736 238.4702,215.973 242.9696,215.973 247.4691,215.973 247.4691,211.4736 251.9685,211.4736 251.9685,206.9741 251.9685,202.4747 247.4691,202.4747 247.4691,197.9753 242.9696,197.9753 238.4702,197.9753 238.4702,202.4747 238.4702,197.9753 233.9708,197.9753 229.4713,197.9753 229.4713,202.4747 224.9719,202.4747 224.9719,206.9741 224.9719,211.4736 229.4713,211.4736 229.4713,206.9741 224.9719,206.9741 220.4724,206.9741 220.4724,211.4736 215.973,211.4736 215.973,215.973 215.973,220.4724 220.4724,220.4724 215.973,220.4724 215.973,224.9719 215.973,229.4713 220.4724,229.4713 220.4724,233.9708 224.9719,233.9708 229.4713,233.9708 229.4713,229.4713 229.4713,224.9719 224.9719,224.9719 220.4724,224.9719 220.4724,229.4713 215.973,229.4713 215.973,233.9708 215.973,238.4702 220.4724,238.4702 215.973,238.4702 215.973,242.9696 215.973,247.4691 220.4724,247.4691 220.4724,251.9685 224.9719,251.9685 229.4713,251.9685 229.4713,247.4691 224.9719,247.4691 224.9719,251.9685 224.9719,256.4679 229.4713,256.4679 229.4713,260.9674 233.9708,260.9674 238.4702,260.9674 238.4702,256.4679 238.4702,260.9674 242.9696,260.9674 247.4691,260.9674 247.4691,256.4679 251.9685,256.4679 251.9685,251.9685 251.9685,247.4691 247.4691,247.4691 251.9685,247.4691 251.9685,242.9696 251.9685,238.4702 247.4691,238.4702 247.4691,233.9708 242.9696,233.9708 238.4702,233.9708 238.4702,238.4702 238.4702,233.9708 233.9708,233.9708 229.4713,233.9708 229.4713,238.4702 224.9719,238.4702 224.9719,242.9696 224.9719,247.4691 229.4713,247.4691 229.4713,242.9696 224.9719,242.9696 220.4724,242.9696 220.4724,247.4691 215.973,247.4691 215.973,251.9685 215.973,256.4679 220.4724,256.4679 215.973,256.4679 215.973,260.9674 215.973,265.4668 220.4724,265.4668 220.4724,269.9663 224.9719,269.9663 229.4713,269.9663 229.4713,265.4668 229.4713,260.9674 224.9719,260.9674 220.4724,260.9674 220.4724,265.4668 215.973,265.4668 215.973,269.9663 215.973,274.4657 220.4724,274.4657 215.973,274.4657 215.973,278.9651 215.973,283.4646 220.4724,283.4646 220.4724,287.964 224.9719,287.964 229.4713,287.964 229.4713,283.4646 224.9719,283.4646 224.9719,287.964 224.9719,292.4634 229.4713,292.4634 229.4713,296.9629 233.9708,296.9629 238.4702,296.9629 238.4702,292.4634 238.4702,296.9629 242.9696,296.9629 247.4691,296.9629 247.4691,292.4634 251.9685,292.4634 251.9685,287.964 251.9685,283.4646 247.4691,283.4646 247.4691,278.9651 242.9696,278.9651 238.4702,278.9651 238.4702,283.4646 233.9708,283.4646 233.9708,287.964 233.9708,292.4634 238.4702,292.4634 233.9708,292.4634 233.9708,296.9629 233.9708,301.4623 238.4702,301.4623 238.4702,305.9618 242.9696,305.9618 247.4691,305.9618 247.4691,301.4623 242.9696,301.4623 242.9696,305.9618 242.9696,310.4612 247.4691,310.4612 247.4691,314.9606 251.9685,314.9606 256.4679,314.9606 256.4679,310.4612 256.4679,314.9606 260.9674,314.9606 265.4668,314.9606 265.4668,310.4612 269.9663,310.4612 269.9663,305.9618 269.9663,301.4623 265.4668,301.4623 260.9674,301.4623 260.9674,305.9618 260.9674,310.4612 265.4668,310.4612 265.4668,314.9606 269.9663,314.9606 274.4657,314.9606 274.4657,310.4612 274.4657,314.9606 278.9651,314.9606 283.4646,314.9606 283.4646,310.4612 287.964,310.4612 287.964,305.9618 287.964,301.4623 283.4646,301.4623 283.4646,305.9618 287.964,305.9618 292.4634,305.9618 292.4634,301.4623 296.9629,301.4623 296.9629,296.9629 296.9629,292.4634 292.4634,292.4634 296.9629,292.4634 296.9629,287.964 296.9629,283.4646 292.4634,283.4646 292.4634,278.9651 287.964,278.9651 283.4646,278.9651 283.4646,283.4646 287.964,283.4646 287.964,278.9651 287.964,274.4657 283.4646,274.4657 283.4646,269.9663 278.9651,269.9663 274.4657,269.9663 274.4657,274.4657 274.4657,269.9663 269.9663,269.9663 265.4668,269.9663 265.4668,274.4657 260.9674,274.4657 260.9674,278.9651 260.9674,283.4646 265.4668,283.4646 265.4668,278.9651 260.9674,278.9651 256.4679,278.9651 256.4679,283.4646 251.9685,283.4646 251.9685,287.964 251.9685,292.4634 256.4679,292.4634 251.9685,292.4634 251.9685,296.9629 251.9685,301.4623 256.4679,301.4623 256.4679,305.9618 260.9674,305.9618 265.4668,305.9618 265.4668,301.4623 265.4668,296.9629 260.9674,296.9629 256.4679,296.9629 256.4679,301.4623 251.9685,301.4623 251.9685,305.9618 251.9685,310.4612 256.4679,310.4612 251.9685,310.4612 251.9685,314.9606 251.9685,319.4601 256.4679,319.4601 256.4679,323.9595 260.9674,323.9595 265.4668,323.9595 265.4668,319.4601 260.9674,319.4601 260.9674,323.9595 260.9674,328.4589 265.4668,328.4589 265.4668,332.9584 269.9663,332.9584 274.4657,332.9584 274.4657,328.4589 274.4657,332.9584 278.9651,332.9584 283.4646,332.9584 283.4646,328.4589 287.964,328.4589 287.964,323.9595 287.964,319.4601 283.4646,319.4601 283.4646,314.9606 278.9651,314.9606 274.4657,314.9606 274.4657,319.4601 269.9663,319.4601 269.9663,323.9595 269.9663,328.4589 274.4657,328.4589 269.9663,328.4589 269.9663,332.9584 269.9663,337.4578 274.4657,337.4578 274.4657,341.9573 278.9651,341.9573 283.4646,341.9573 283.4646,337.4578 278.9651,337.4578 278.9651,341.9573 278.9651,346.4567 283.4646,346.4567 283.4646,350.9561 287.964,350.9561 292.4634,350.9561 292.4634,346.4567 292.4634,350.9561 296.9629,350.9561 301.4623,350.9561 301.4623,346.4567 305.9618,346.4567 305.9618,341.9573 305.9618,337.4578 301.4623,337.4578 296.9629,337.4578 296.9629,341.9573 296.9629,346.4567 301.4623,346.4567 301.4623,350.9561 305.9618,350.9561 310.4612,350.9561 310.4612,346.4567 310.4612,350.9561 314.9606,350.9561 319.4601,350.9561 319.4601,346.4567 323.9595,346.4567 323.9595,341.9573 323.9595,337.4578 319.4601,337.4578 319.4601,341.9573 323.9595,341.9573 328.4589,341.9573 328.4589,337.4578 332.9584,337.4578 332.9584,332.9584 332.9584,328.4589 328.4589,328.4589 332.9584,328.4589 332.9584,323.9595 332.9584,319.4601 328.4589,319.4601 328.4589,314.9606 323.9595,314.9606 319.4601,314.9606 319.4601,319.4601 319.4601,314.9606 314.9606,314.9606 310.4612,314.9606 310.4612,319.4601 305.9618,319.4601 305.9618,323.9595 305.9618,328.4589 310.4612,328.4589 305.9618,328.4589 305.9618,332.9584 305.9618,337.4578 310.4612,337.4578 310.4612,341.9573 314.9606,341.9573 319.4601,341.9573 319.4601,337.4578 314.9606,337.4578 314.9606,341.9573 314.9606,346.4567 319.4601,346.4567 319.4601,350.9561 323.9595,350.9561 328.4589,350.9561 328.4589,346.4567 328.4589,350.9561 332.9584,350.9561 337.4578,350.9561 337.4578,346.4567 341.9573,346.4567 341.9573,341.9573 341.9573,337.4578 337.4578,337.4578 332.9584,337.4578 332.9584,341.9573 332.9584,346.4567 337.4578,346.4567 337.4578,350.9561 341.9573,350.9561 346.4567,350.9561 346.4567,346.4567 346.4567,350.9561 350.9561,350.9561 355.4556,350.9561 355.4556,346.4567 359.955,346.4567 359.955,341.9573 359.955,337.4578 355.4556,337.4578 355.4556,341.9573 359.955,341.9573 364.4544,341.9573 364.4544,337.4578 368.9539,337.4578 368.9539,332.9584 368.9539,328.4589 364.4544,328.4589 368.9539,328.4589 368.9539,323.9595 368.9539,319.4601 364.4544,319.4601 364.4544,314.9606 359.955,314.9606 355.4556,314.9606 355.4556,319.4601 350.9561,319.4601 350.9561,323.9595 350.9561,328.4589 355.4556,328.4589 355.4556,332.9584 359.955,332.9584 364.4544,332.9584 364.4544,328.4589 364.4544,332.9584 368.9539,332.9584 373.4533,332.9584 373.4533,328.4589 377.9528,328.4589 377.9528,323.9595 377.9528,319.4601 373.4533,319.4601 373.4533,323.9595 377.9528,323.9595 382.4522,323.9595 382.4522,319.4601 386.9516,319.4601 386.9516,314.9606 386.9516,310.4612 382.4522,310.4612 386.9516,310.4612 386.9516,305.9618 386.9516,301.4623 382.4522,301.4623 382.4522,296.9629 377.9528,296.9629 373.4533,296.9629 373.4533,301.4623 373.4533,305.9618 377.9528,305.9618 382.4522,305.9618 382.4522,301.4623 386.9516,301.4623 386.9516,296.9629 386.9516,292.4634 382.4522,292.4634 386.9516,292.4634 386.9516,287.964 386.9516,283.4646 382.4522,283.4646 382.4522,278.9651 377.9528,278.9651 373.4533,278.9651 373.4533,283.4646 377.9528,283.4646 377.9528,278.9651 377.9528,274.4657 373.4533,274.4657 373.4533,269.9663 368.9539,269.9663 364.4544,269.9663 364.4544,274.4657 364.4544,269.9663 359.955,269.9663 355.4556,269.9663 355.4556,274.4657 350.9561,274.4657 350.9561,278.9651 350.9561,283.4646 355.4556,283.4646 359.955,283.4646 359.955,278.9651 359.955,274.4657 355.4556,274.4657 355.4556,269.9663 350.9561,269.9663 346.4567,269.9663 346.4567,274.4657 346.4567,269.9663 341.9573,269.9663 337.4578,269.9663 337.4578,274.4657 332.9584,274.4657 332.9584,278.9651 332.9584,283.4646 337.4578,283.4646 337.4578,278.9651 332.9584,278.9651 328.4589,278.9651 328.4589,283.4646 323.9595,283.4646 323.9595,287.964 323.9595,292.4634 328.4589,292.4634 323.9595,292.4634 323.9595,296.9629 323.9595,301.4623 328.4589,301.4623 328.4589,305.9618 332.9584,305.9618 337.4578,305.9618 337.4578,301.4623 337.4578,296.9629 332.9584,296.9629 328.4589,296.9629 328.4589,301.4623 323.9595,301.4623 323.9595,305.9618 323.9595,310.4612 328.4589,310.4612 323.9595,310.4612 323.9595,314.9606 323.9595,319.4601 328.4589,319.4601 328.4589,323.9595 332.9584,323.9595 337.4578,323.9595 337.4578,319.4601 332.9584,319.4601 332.9584,323.9595 332.9584,328.4589 337.4578,328.4589 337.4578,332.9584 341.9573,332.9584 346.4567,332.9584 346.4567,328.4589 346.4567,332.9584 350.9561,332.9584 355.4556,332.9584 355.4556,328.4589 359.955,328.4589 359.955,323.9595 359.955,319.4601 355.4556,319.4601 355.4556,314.9606 350.9561,314.9606 346.4567,314.9606 346.4567,319.4601 341.9573,319.4601 341.9573,323.9595 341.9573,328.4589 346.4567,328.4589 341.9573,328.4589 341.9573,332.9584 341.9573,337.4578 346.4567,337.4578 346.4567,341.9573 350.9561,341.9573 355.4556,341.9573 355.4556,337.4578 350.9561,337.4578 350.9561,341.9573 350.9561,346.4567 355.4556,346.4567 355.4556,350.9561 359.955,350.9561 364.4544,350.9561 364.4544,346.4567 364.4544,350.9561 368.9539,350.9561 373.4533,350.9561 373.4533,346.4567 377.9528,346.4567 377.9528,341.9573 377.9528,337.4578 373.4533,337.4578 368.9539,337.4578 368.9539,341.9573 368.9539,346.4567 373.4533,346.4567 373.4533,350.9561 377.9528,350.9561 382.4522,350.9561 382.4522,346.4567 382.4522,350.9561 386.9516,350.9561 391.4511,350.9561 391.4511,346.4567 395.9505,346.4567 395.9505,341.9573 395.9505,337.4578 391.4511,337.4578 391.4511,341.9573 395.9505,341.9573 400.4499,341.9573 400.4499,337.4578 404.9494,337.4578 404.9494,332.9584 404.9494,328.4589 400.4499,328.4589 404.9494,328.4589 404.9494,323.9595 404.9494,319.4601 400.4499,319.4601 400.4499,314.9606 395.9505,314.9606 391.4511,314.9606 391.4511,319.4601 391.4511,314.9606 386.9516,314.9606 382.4522,314.9606 382.4522,319.4601 377.9528,319.4601 377.9528,323.9595 377.9528,328.4589 382.4522,328.4589 377.9528,328.4589 377.9528,332.9584 377.9528,337.4578 382.4522,337.4578 382.4522,341.9573 386.9516,341.9573 391.4511,341.9573 391.4511,337.4578 386.9516,337.4578 386.9516,341.9573 386.9516,346.4567 391.4511,346.4567 391.4511,350.9561 395.9505,350.9561 400.4499,350.9561 400.4499,346.4567 400.4499,350.9561 404.9494,350.9561 409.4488,350.9561 409.4488,346.4567 413.9483,346.4567 413.9483,341.9573 413.9483,337.4578 409.4488,337.4578 404.9494,337.4578 404.9494,341.9573 404.9494,346.4567 409.4488,346.4567 409.4488,350.9561 413.9483,350.9561 418.4477,350.9561 418.4477,346.4567 418.4477,350.9561 422.9471,350.9561 427.4466,350.9561 427.4466,346.4567 431.946,346.4567 431.946,341.9573 431.946,337.4578 427.4466,337.4578 427.4466,341.9573 431.946,341.9573 436.4454,341.9573 436.4454,337.4578 440.9449,337.4578 440.9449,332.9584 440.9449,328.4589 436.4454,328.4589 440.9449,328.4589 440.9449,323.9595 440.9449,319.4601 436.4454,319.4601 436.4454,314.9606 431.946,314.9606 427.4466,314.9606 427.4466,319.4601 422.9471,319.4601 422.9471,323.9595 422.9471,328.4589 427.4466,328.4589 427.4466,332.9584 431.946,332.9584 436.4454,332.9584 436.4454,328.4589 436.4454,332.9584 440.9449,332.9584 445.4443,332.9584 445.4443,328.4589 449.9438,328.4589 449.9438,323.9595 449.9438,319.4601 445.4443,319.4601 445.4443,323.9595 449.9438,323.9595 454.4432,323.9595 454.4432,319.4601 458.9426,319.4601 458.9426,314.9606 458.9426,310.4612 454.4432,310.4612 458.9426,310.4612 458.9426,305.9618 458.9426,301.4623 454.4432,301.4623 454.4432,296.9629 449.9438,296.9629 445.4443,296.9629 445.4443,301.4623 445.4443,305.9618 449.9438,305.9618 454.4432,305.9618 454.4432,301.4623 458.9426,301.4623 458.9426,296.9629 458.9426,292.4634 454.4432,292.4634 458.9426,292.4634 458.9426,287.964 458.9426,283.4646 454.4432,283.4646 454.4432,278.9651 449.9438,278.9651 445.4443,278.9651 445.4443,283.4646 449.9438,283.4646 449.9438,278.9651 449.9438,274.4657 445.4443,274.4657 445.4443,269.9663 440.9449,269.9663 436.4454,269.9663 436.4454,274.4657 436.4454,269.9663 431.946,269.9663 427.4466,269.9663 427.4466,274.4657 422.9471,274.4657 422.9471,278.9651 422.9471,283.4646 427.4466,283.4646 427.4466,278.9651 422.9471,278.9651 418.4477,278.9651 418.4477,283.4646 413.9483,283.4646 413.9483,287.964 413.9483,292.4634 418.4477,292.4634 413.9483,292.4634 413.9483,296.9629 413.9483,301.4623 418.4477,301.4623 418.4477,305.9618 422.9471,305.9618 427.4466,305.9618 427.4466,301.4623 422.9471,301.4623 422.9471,305.9618 422.9471,310.4612 427.4466,310.4612 427.4466,314.9606 431.946,314.9606 436.4454,314.9606 436.4454,310.4612 436.4454,314.9606 440.9449,314.9606 445.4443,314.9606 445.4443,310.4612 449.9438,310.4612 449.9438,305.9618 449.9438,301.4623 445.4443,301.4623 440.9449,301.4623 440.9449,305.9618 440.9449,310.4612 445.4443,310.4612 445.4443,314.9606 449.9438,314.9606 454.4432,314.9606 454.4432,310.4612 454.4432,314.9606 458.9426,314.9606 463.4421,314.9606 463.4421,310.4612 467.9415,310.4612 467.9415,305.9618 467.9415,301.4623 463.4421,301.4623 463.4421,305.9618 467.9415,305.9618 472.4409,305.9618 472.4409,301.4623 476.9404,301.4623 476.9404,296.9629 476.9404,292.4634 472.4409,292.4634 476.9404,292.4634 476.9404,287.964 476.9404,283.4646 472.4409,283.4646 472.4409,278.9651 467.9415,278.9651 463.4421,278.9651 463.4421,283.4646 458.9426,283.4646 458.9426,287.964 458.9426,292.4634 463.4421,292.4634 463.4421,296.9629 467.9415,296.9629 472.4409,296.9629 472.4409,292.4634 472.4409,296.9629 476.9404,296.9629 481.4398,296.9629 481.4398,292.4634 485.9393,292.4634 485.9393,287.964 485.9393,283.4646 481.4398,283.4646 481.4398,287.964 485.9393,287.964 490.4387,287.964 490.4387,283.4646 494.9381,283.4646 494.9381,278.9651 494.9381,274.4657 490.4387,274.4657 494.9381,274.4657 494.9381,269.9663 494.9381,265.4668 490.4387,265.4668 490.4387,260.9674 485.9393,260.9674 481.4398,260.9674 481.4398,265.4668 481.4398,269.9663 485.9393,269.9663 490.4387,269.9663 490.4387,265.4668 494.9381,265.4668 494.9381,260.9674 494.9381,256.4679 490.4387,256.4679 494.9381,256.4679 494.9381,251.9685 494.9381,247.4691 490.4387,247.4691 490.4387,242.9696 485.9393,242.9696 481.4398,242.9696 481.4398,247.4691 485.9393,247.4691 485.9393,242.9696 485.9393,238.4702 481.4398,238.4702 481.4398,233.9708 476.9404,233.9708 472.4409,233.9708 472.4409,238.4702 472.4409,233.9708 467.9415,233.9708 463.4421,233.9708 463.4421,238.4702 458.9426,238.4702 458.9426,242.9696 458.9426,247.4691 463.4421,247.4691 458.9426,247.4691 458.9426,251.9685 458.9426,256.4679 463.4421,256.4679 463.4421,260.9674 467.9415,260.9674 472.4409,260.9674 472.4409,256.4679 472.4409,260.9674 476.9404,260.9674 481.4398,260.9674 481.4398,256.4679 485.9393,256.4679 485.9393,251.9685 485.9393,247.4691 481.4398,247.4691 481.4398,251.9685 485.9393,251.9685 490.4387,251.9685 490.4387,247.4691 494.9381,247.4691 494.9381,242.9696 494.9381,238.4702 490.4387,238.4702 494.9381,238.4702 494.9381,233.9708 494.9381,229.4713 490.4387,229.4713 490.4387,224.9719 485.9393,224.9719 481.4398,224.9719 481.4398,229.4713 481.4398,233.9708 485.9393,233.9708 490.4387,233.9708 490.4387,229.4713 494.9381,229.4713 494.9381,224.9719 494.9381,220.4724 490.4387,220.4724 494.9381,220.4724 494.9381,215.973 494.9381,211.4736 490.4387,211.4736 490.4387,206.9741 485.9393,206.9741 481.4398,206.9741 481.4398,211.4736 485.9393,211.4736 485.9393,206.9741 485.9393,202.4747 481.4398,202.4747 481.4398,197.9753 476.9404,197.9753 472.4409,197.9753 472.4409,202.4747 472.4409,197.9753 467.9415,197.9753 463.4421,197.9753 463.4421,202.4747 458.9426,202.4747 458.9426,206.9741 458.9426,211.4736 463.4421,211.4736 463.4421,215.973 467.9415,215.973 472.4409,215.973 472.4409,211.4736 476.9404,211.4736 476.9404,206.9741 476.9404,202.4747 472.4409,202.4747 476.9404,202.4747 476.9404,197.9753 476.9404,193.4758 472.4409,193.4758 472.4409,188.9764 467.9415,188.9764 463.4421,188.9764 463.4421,193.4758 467.9415,193.4758 467.9415,188.9764 467.9415,184.4769 463.4421,184.4769 463.4421,179.9775 458.9426,179.9775 454.4432,179.9775 454.4432,184.4769 454.4432,179.9775 449.9438,179.9775 445.4443,179.9775 445.4443,184.4769 440.9449,184.4769 440.9449,188.9764 440.9449,193.4758 445.4443,193.4758 449.9438,193.4758 449.9438,188.9764 449.9438,184.4769 445.4443,184.4769 445.4443,179.9775 440.9449,179.9775 436.4454,179.9775 436.4454,184.4769 436.4454,179.9775 431.946,179.9775 427.4466,179.9775 427.4466,184.4769 422.9471,184.4769 422.9471,188.9764 422.9471,193.4758 427.4466,193.4758 427.4466,188.9764 422.9471,188.9764 418.4477,188.9764 418.4477,193.4758 413.9483,193.4758 413.9483,197.9753 413.9483,202.4747 418.4477,202.4747 413.9483,202.4747 413.9483,206.9741 413.9483,211.4736 418.4477,211.4736 418.4477,215.973 422.9471,215.973 427.4466,215.973 427.4466,211.4736 431.946,211.4736 431.946,206.9741 431.946,202.4747 427.4466,202.4747 427.4466,197.9753 422.9471,197.9753 418.4477,197.9753 418.4477,202.4747 418.4477,197.9753 413.9483,197.9753 409.4488,197.9753 409.4488,202.4747 404.9494,202.4747 404.9494,206.9741 404.9494,211.4736 409.4488,211.4736 409.4488,206.9741 404.9494,206.9741 400.4499,206.9741 400.4499,211.4736 395.9505,211.4736 395.9505,215.973 395.9505,220.4724 400.4499,220.4724 395.9505,220.4724 395.9505,224.9719 395.9505,229.4713 400.4499,229.4713 400.4499,233.9708 404.9494,233.9708 409.4488,233.9708 409.4488,229.4713 409.4488,224.9719 404.9494,224.9719 400.4499,224.9719 400.4499,229.4713 395.9505,229.4713 395.9505,233.9708 395.9505,238.4702 400.4499,238.4702 395.9505,238.4702 395.9505,242.9696 395.9505,247.4691 400.4499,247.4691 400.4499,251.9685 404.9494,251.9685 409.4488,251.9685 409.4488,247.4691 404.9494,247.4691 404.9494,251.9685 404.9494,256.4679 409.4488,256.4679 409.4488,260.9674 413.9483,260.9674 418.4477,260.9674 418.4477,256.4679 418.4477,260.9674 422.9471,260.9674 427.4466,260.9674 427.4466,256.4679 431.946,256.4679 431.946,251.9685 431.946,247.4691 427.4466,247.4691 427.4466,242.9696 422.9471,242.9696 418.4477,242.9696 418.4477,247.4691 413.9483,247.4691 413.9483,251.9685 413.9483,256.4679 418.4477,256.4679 413.9483,256.4679 413.9483,260.9674 413.9483,265.4668 418.4477,265.4668 418.4477,269.9663 422.9471,269.9663 427.4466,269.9663 427.4466,265.4668 422.9471,265.4668 422.9471,269.9663 422.9471,274.4657 427.4466,274.4657 427.4466,278.9651 431.946,278.9651 436.4454,278.9651 436.4454,274.4657 436.4454,278.9651 440.9449,278.9651 445.4443,278.9651 445.4443,274.4657 449.9438,274.4657 449.9438,269.9663 449.9438,265.4668 445.4443,265.4668 440.9449,265.4668 440.9449,269.9663 440.9449,274.4657 445.4443,274.4657 445.4443,278.9651 449.9438,278.9651 454.4432,278.9651 454.4432,274.4657 454.4432,278.9651 458.9426,278.9651 463.4421,278.9651 463.4421,274.4657 467.9415,274.4657 467.9415,269.9663 467.9415,265.4668 463.4421,265.4668 463.4421,269.9663 467.9415,269.9663 472.4409,269.9663 472.4409,265.4668 476.9404,265.4668 476.9404,260.9674 476.9404,256.4679 472.4409,256.4679 476.9404,256.4679 476.9404,251.9685 476.9404,247.4691 472.4409,247.4691 472.4409,242.9696 467.9415,242.9696 463.4421,242.9696 463.4421,247.4691 463.4421,242.9696 458.9426,242.9696 454.4432,242.9696 454.4432,247.4691 449.9438,247.4691 449.9438,251.9685 449.9438,256.4679 454.4432,256.4679 449.9438,256.4679 449.9438,260.9674 449.9438,265.4668 454.4432,265.4668 454.4432,269.9663 458.9426,269.9663 463.4421,269.9663 463.4421,265.4668 458.9426,265.4668 458.9426,269.9663 458.9426,274.4657 463.4421,274.4657 463.4421,278.9651 467.9415,278.9651 472.4409,278.9651 472.4409,274.4657 472.4409,278.9651 476.9404,278.9651 481.4398,278.9651 481.4398,274.4657 485.9393,274.4657 485.9393,269.9663 485.9393,265.4668 481.4398,265.4668 476.9404,265.4668 476.9404,269.9663 476.9404,274.4657 481.4398,274.4657 481.4398,278.9651 485.9393,278.9651 490.4387,278.9651 490.4387,274.4657 490.4387,278.9651 494.9381,278.9651 499.4376,278.9651 499.4376,274.4657 503.937,274.4657 503.937,269.9663 503.937,265.4668 499.4376,265.4668 499.4376,269.9663 503.937,269.9663 508.4364,269.9663 508.4364,265.4668 512.9359,265.4668 512.9359,260.9674 512.9359,256.4679 508.4364,256.4679 512.9359,256.4679 512.9359,251.9685 512.9359,247.4691 508.4364,247.4691 508.4364,242.9696 503.937,242.9696 499.4376,242.9696 499.4376,247.4691 494.9381,247.4691 494.9381,251.9685 494.9381,256.4679 499.4376,256.4679 499.4376,260.9674 503.937,260.9674 508.4364,260.9674 508.4364,256.4679 508.4364,260.9674 512.9359,260.9674 517.4353,260.9674 517.4353,256.4679 521.9348,256.4679 521.9348,251.9685 521.9348,247.4691 517.4353,247.4691 517.4353,251.9685 521.9348,251.9685 526.4342,251.9685 526.4342,247.4691 530.9336,247.4691 530.9336,242.9696 530.9336,238.4702 526.4342,238.4702 530.9336,238.4702 530.9336,233.9708 530.9336,229.4713 526.4342,229.4713 526.4342,224.9719 521.9348,224.9719 517.4353,224.9719 517.4353,229.4713 517.4353,233.9708 521.9348,233.9708 526.4342,233.9708 526.4342,229.4713 530.9336,229.4713 530.9336,224.9719 530.9336,220.4724 526.4342,220.4724 530.9336,220.4724 530.9336,215.973 530.9336,211.4736 526.4342,211.4736 526.4342,206.9741 521.9348,206.9741 517.4353,206.9741 517.4353,211.4736 521.9348,211.4736 521.9348,206.9741 521.9348,202.4747 517.4353,202.4747 517.4353,197.9753 512.9359,197.9753 508.4364,197.9753 508.4364,202.4747 508.4364,197.9753 503.937,197.9753 499.4376,197.9753 499.4376,202.4747 494.9381,202.4747 494.9381,206.9741 494.9381,211.4736 499.4376,211.4736 499.4376,206.9741 494.9381,206.9741 490.4387,206.9741 490.4387,211.4736 485.9393,211.4736 485.9393,215.973 485.9393,220.4724 490.4387,220.4724 485.9393,220.4724 485.9393,224.9719 485.9393,229.4713 490.4387,229.4713 490.4387,233.9708 494.9381,233.9708 499.4376,233.9708 499.4376,229.4713 494.9381,229.4713 494.9381,233.9708 494.9381,238.4702 499.4376,238.4702 499.4376,242.9696 503.937,242.9696 508.4364,242.9696 508.4364,238.4702 508.4364,242.9696 512.9359,242.9696 517.4353,242.9696 517.4353,238.4702 521.9348,238.4702 521.9348,233.9708 521.9348,229.4713 517.4353,229.4713 512.9359,229.4713 512.9359,233.9708 512.9359,238.4702 517.4353,238.4702 517.4353,242.9696 521.9348,242.9696 526.4342,242.9696 526.4342,238.4702 526.4342,242.9696 530.9336,242.9696 535.4331,242.9696 535.4331,238.4702 539.9325,238.4702 539.9325,233.9708 539.9325,229.4713 535.4331,229.4713 535.4331,233.9708 539.9325,233.9708 544.4319,233.9708 544.4319,229.4713 548.9314,229.4713 548.9314,224.9719 548.9314,220.4724 544.4319,220.4724 548.9314,220.4724 548.9314,215.973 548.9314,211.4736 544.4319,211.4736 544.4319,206.9741 539.9325,206.9741 535.4331,206.9741 535.4331,211.4736 530.9336,211.4736 530.9336,215.973 530.9336,220.4724 535.4331,220.4724 535.4331,224.9719 539.9325,224.9719 544.4319,224.9719 544.4319,220.4724 544.4319,224.9719 548.9314,224.9719 553.4308,224.9719 553.4308,220.4724 557.9303,220.4724 557.9303,215.973 557.9303,211.4736 553.4308,211.4736 553.4308,215.973 557.9303,215.973 562.4297,215.973 562.4297,211.4736 566.9291,211.4736 566.9291,206.9741 566.9291,202.4747 562.4297,202.4747 566.9291,202.4747 566.9291,197.9753 566.9291,193.4758 562.4297,193.4758 562.4297,188.9764 557.9303,188.9764 553.4308,188.9764 553.4308,193.4758 553.4308,197.9753 557.9303,197.9753 562.4297,197.9753 562.4297,193.4758 566.9291,193.4758 566.9291,188.9764 566.9291,184.4769 562.4297,184.4769 566.9291,184.4769 566.9291,179.9775 566.9291,175.4781 562.4297,175.4781 562.4297,170.9786 557.9303,170.9786 553.4308,170.9786 553.4308,175.4781 557.9303,175.4781 557.9303,170.9786 557.9303,166.4792 553.4308,166.4792 553.4308,161.9798 548.9314,161.9798 544.4319,161.9798 544.4319,166.4792 544.4319,161.9798 539.9325,161.9798 535.4331,161.9798 535.4331,166.4792 530.9336,166.4792 530.9336,170.9786 530.9336,175.4781 535.4331,175.4781 530.9336,175.4781 530.9336,179.9775 530.9336,184.4769 535.4331,184.4769 535.4331,188.9764 539.9325,188.9764 544.4319,188.9764 544.4319,184.4769 544.4319,188.9764 548.9314,188.9764 553.4308,188.9764 553.4308,184.4769 557.9303,184.4769 557.9303,179.9775 557.9303,175.4781 553.4308,175.4781 553.4308,179.9775 557.9303,179.9775 562.4297,179.9775 562.4297,175.4781 566.9291,175.4781 566.9291,170.9786 566.9291,166.4792 562.4297,166.4792 566.9291,166.4792 566.9291,161.9798 566.9291,157.4803 562.4297,157.4803 562.4297,152.9809 557.9303,152.9809 553.4308,152.9809 553.4308,157.4803 553.4308,161.9798 557.9303,161.9798 562.4297,161.9798 562.4297,157.4803 566.9291,157.4803 566.9291,152.9809 566.9291,148.4814 562.4297,148.4814 566.9291,148.4814 566.9291,143.982 566.9291,139.4826 562.4297,139.4826 562.4297,134.9831 557.9303,134.9831 553.4308,134.9831 553.4308,139.4826 557.9303,139.4826 557.9303,134.9831 557.9303,130.4837 553.4308,130.4837 553.4308,125.9843 548.9314,125.9843 544.4319,125.9843 544.4319,130.4837 544.4319,125.9843 539.9325,125.9843 535.4331,125.9843 535.4331,130.4837 530.9336,130.4837 530.9336,134.9831 530.9336,139.4826 535.4331,139.4826 535.4331,143.982 539.9325,143.982 544.4319,143.982 544.4319,139.4826 548.9314,139.4826 548.9314,134.9831 548.9314,130.4837 544.4319,130.4837 548.9314,130.4837 548.9314,125.9843 548.9314,121.4848 544.4319,121.4848 544.4319,116.9854 539.9325,116.9854 535.4331,116.9854 535.4331,121.4848 539.9325,121.4848 539.9325,116.9854 539.9325,112.4859 535.4331,112.4859 535.4331,107.9865 530.9336,107.9865 526.4342,107.9865 526.4342,112.4859 526.4342,107.9865 521.9348,107.9865 517.4353,107.9865 517.4353,112.4859 512.9359,112.4859 512.9359,116.9854 512.9359,121.4848 517.4353,121.4848 521.9348,121.4848 521.9348,116.9854 521.9348,112.4859 517.4353,112.4859 517.4353,107.9865 512.9359,107.9865 508.4364,107.9865 508.4364,112.4859 508.4364,107.9865 503.937,107.9865 499.4376,107.9865 499.4376,112.4859 494.9381,112.4859 494.9381,116.9854 494.9381,121.4848 499.4376,121.4848 499.4376,116.9854 494.9381,116.9854 490.4387,116.9854 490.4387,121.4848 485.9393,121.4848 485.9393,125.9843 485.9393,130.4837 490.4387,130.4837 485.9393,130.4837 485.9393,134.9831 485.9393,139.4826 490.4387,139.4826 490.4387,143.982 494.9381,143.982 499.4376,143.982 499.4376,139.4826 499.4376,134.9831 494.9381,134.9831 490.4387,134.9831 490.4387,139.4826 485.9393,139.4826 485.9393,143.982 485.9393,148.4814 490.4387,148.4814 485.9393,148.4814 485.9393,152.9809 485.9393,157.4803 490.4387,157.4803 490.4387,161.9798 494.9381,161.9798 499.4376,161.9798 499.4376,157.4803 494.9381,157.4803 494.9381,161.9798 494.9381,166.4792 499.4376,166.4792 499.4376,170.9786 503.937,170.9786 508.4364,170.9786 508.4364,166.4792 508.4364,170.9786 512.9359,170.9786 517.4353,170.9786 517.4353,166.4792 521.9348,166.4792 521.9348,161.9798 521.9348,157.4803 517.4353,157.4803 512.9359,157.4803 512.9359,161.9798 512.9359,166.4792 517.4353,166.4792 517.4353,170.9786 521.9348,170.9786 526.4342,170.9786 526.4342,166.4792 526.4342,170.9786 530.9336,170.9786 535.4331,170.9786 535.4331,166.4792 539.9325,166.4792 539.9325,161.9798 539.9325,157.4803 535.4331,157.4803 535.4331,161.9798 539.9325,161.9798 544.4319,161.9798 544.4319,157.4803 548.9314,157.4803 548.9314,152.9809 548.9314,148.4814 544.4319,148.4814 548.9314,148.4814 548.9314,143.982 548.9314,139.4826 544.4319,139.4826 544.4319,134.9831 539.9325,134.9831 535.4331,134.9831 535.4331,139.4826 530.9336,139.4826 530.9336,143.982 530.9336,148.4814 535.4331,148.4814 535.4331,152.9809 539.9325,152.9809 544.4319,152.9809 544.4319,148.4814 544.4319,152.9809 548.9314,152.9809 553.4308,152.9809 553.4308,148.4814 557.9303,148.4814 557.9303,143.982 557.9303,139.4826 553.4308,139.4826 553.4308,143.982 557.9303,143.982 562.4297,143.982 562.4297,139.4826 566.9291,139.4826 566.9291,134.9831 566.9291,130.4837 562.4297,130.4837 566.9291,130.4837 566.9291,125.9843 566.9291,121.4848 562.4297,121.4848 562.4297,116.9854 557.9303,116.9854 553.4308,116.9854 553.4308,121.4848 553.4308,125.9843 557.9303,125.9843 562.4297,125.9843 562.4297,121.4848 566.9291,121.4848 566.9291,116.9854 566.9291,112.4859 562.4297,112.4859 566.9291,112.4859 566.9291,107.9865 566.9291,103.4871 562.4297,103.4871 562.4297,98.9876 557.9303,98.9876 553.4308,98.9876 553.4308,103.4871 557.9303,103.4871 557.9303,98.9876 557.9303,94.4882 553.4308,94.4882 553.4308,89.9888 548.9314,89.9888 544.4319,89.9888 544.4319,94.4882 544.4319,89.9888 539.9325,89.9888 535.4331,89.9888 535.4331,94.4882 530.9336,94.4882 530.9336,98.9876 530.9336,103.4871 535.4331,103.4871 530.9336,103.4871 530.9336,107.9865 530.9336,112.4859 535.4331,112.4859 535.4331,116.9854 539.9325,116.9854 544.4319,116.9854 544.4319,112.4859 544.4319,116.9854 548.9314,116.9854 553.4308,116.9854 553.4308,112.4859 557.9303,112.4859 557.9303,107.9865 557.9303,103.4871 553.4308,103.4871 553.4308,107.9865 557.9303,107.9865 562.4297,107.9865 562.4297,103.4871 566.9291,103.4871 566.9291,98.9876 566.9291,94.4882 562.4297,94.4882 566.9291,94.4882 566.9291,89.9888 566.9291,85.4893 562.4297,85.4893 562.4297,80.9899 557.9303,80.9899 553.4308,80.9899 553.4308,85.4893 553.4308,89.9888 557.9303,89.9888 562.4297,89.9888 562.4297,85.4893 566.9291,85.4893 566.9291,80.9899 566.9291,76.4904 562.4297,76.4904 566.9291,76.4904 566.9291,71.991 566.9291,67.4916 562.4297,67.4916 562.4297,62.9921 557.9303,62.9921 553.4308,62.9921 553.4308,67.4916 557.9303,67.4916 557.9303,62.9921 557.9303,58.4927 553.4308,58.4927 553.4308,53.9933 548.9314,53.9933 544.4319,53.9933 544.4319,58.4927 544.4319,53.9933 539.9325,53.9933 535.4331,53.9933 535.4331,58.4927 530.9336,58.4927 530.9336,62.9921 530.9336,67.4916 535.4331,67.4916 535.4331,71.991 539.9325,71.991 544.4319,71.991 544.4319,67.4916 548.9314,67.4916 548.9314,62.9921 548.9314,58.4927 544.4319,58.4927 548.9314,58.4927 548.9314,53.9933 548.9314,49.4938 544.4319,49.4938 544.4319,44.9944 539.9325,44.9944 535.4331,44.9944 535.4331,49.4938 539.9325,49.4938 539.9325,44.9944 539.9325,40.4949 535.4331,40.4949 535.4331,35.9955 530.9336,35.9955 526.4342,35.9955 526.4342,40.4949 526.4342,35.9955 521.9348,35.9955 517.4353,35.9955 517.4353,40.4949 512.9359,40.4949 512.9359,44.9944 512.9359,49.4938 517.4353,49.4938 521.9348,49.4938 521.9348,44.9944 521.9348,40.4949 517.4353,40.4949 517.4353,35.9955 512.9359,35.9955 508.4364,35.9955 508.4364,40.4949 508.4364,35.9955 503.937,35.9955 499.4376,35.9955 499.4376,40.4949 494.9381,40.4949 494.9381,44.9944 494.9381,49.4938 499.4376,49.4938 499.4376,44.9944 494.9381,44.9944 490.4387,44.9944 490.4387,49.4938 485.9393,49.4938 485.9393,53.9933 485.9393,58.4927 490.4387,58.4927 485.9393,58.4927 485.9393,62.9921 485.9393,67.4916 490.4387,67.4916 490.4387,71.991 494.9381,71.991 499.4376,71.991 499.4376,67.4916 494.9381,67.4916 494.9381,71.991 494.9381,76.4904 499.4376,76.4904 499.4376,80.9899 503.937,80.9899 508.4364,80.9899 508.4364,76.4904 508.4364,80.9899 512.9359,80.9899 517.4353,80.9899 517.4353,76.4904 521.9348,76.4904 521.9348,71.991 521.9348,67.4916 517.4353,67.4916 517.4353,71.991 521.9348,71.991 526.4342,71.991 526.4342,67.4916 530.9336,67.4916 530.9336,62.9921 530.9336,58.4927 526.4342,58.4927 530.9336,58.4927 530.9336,53.9933 530.9336,49.4938 526.4342,49.4938 526.4342,44.9944 521.9348,44.9944 517.4353,44.9944 517.4353,49.4938 517.4353,53.9933 521.9348,53.9933 526.4342,53.9933 526.4342,49.4938 530.9336,49.4938 530.9336,44.9944 530.9336,40.4949 526.4342,40.4949 530.9336,40.4949 530.9336,35.9955 530.9336,31.4961 526.4342,31.4961 526.4342,26.9966 521.9348,26.9966 517.4353,26.9966 517.4353,31.4961 521.9348,31.4961 521.9348,26.9966 521.9348,22.4972 517.4353,22.4972 517.4353,17.9978 512.9359,17.9978 508.4364,17.9978 508.4364,22.4972 508.4364,17.9978 503.937,17.9978 499.4376,17.9978 499.4376,22.4972 494.9381,22.4972 494.9381,26.9966 494.9381,31.4961 499.4376,31.4961 499.4376,35.9955 503.937,35.9955 508.4364,35.9955 508.4364,31.4961 512.9359,31.4961 512.9359,26.9966 512.9359,22.4972 508.4364,22.4972 512.9359,22.4972 512.9359,17.9978 512.9359,13.4983 508.4364,13.4983 508.4364,8.9989 503.937,8.9989 499.4376,8.9989 499.4376,13.4983 503.937,13.4983 503.937,8.9989 503.937,4.4994 499.4376,4.4994 499.4376,0.0 494.9381,0.0 490.4387,0.0 490.4387,4.4994 490.4387,0.0 485.9393,0.0 481.4398,0.0 481.4398,4.4994 476.9404,4.4994 476.9404,8.9989 476.9404,13.4983 481.4398,13.4983 485.9393,13.4983 485.9393,8.9989 485.9393,4.4994 481.4398,4.4994 481.4398,0.0 476.9404,0.0 472.4409,0.0 472.4409,4.4994 472.4409,0.0 467.9415,0.0 463.4421,0.0 463.4421,4.4994 458.9426,4.4994 458.9426,8.9989 458.9426,13.4983 463.4421,13.4983 463.4421,8.9989 458.9426,8.9989 454.4432,8.9989 454.4432,13.4983 449.9438,13.4983 449.9438,17.9978 449.9438,22.4972 454.4432,22.4972 449.9438,22.4972 449.9438,26.9966 449.9438,31.4961 454.4432,31.4961 454.4432,35.9955 458.9426,35.9955 463.4421,35.9955 463.4421,31.4961 463.4421,35.9955 467.9415,35.9955 472.4409,35.9955 472.4409,31.4961 476.9404,31.4961 476.9404,26.9966 476.9404,22.4972 472.4409,22.4972 476.9404,22.4972 476.9404,17.9978 476.9404,13.4983 472.4409,13.4983 472.4409,8.9989 467.9415,8.9989 463.4421,8.9989 463.4421,13.4983 467.9415,13.4983 467.9415,8.9989 467.9415,4.4994 463.4421,4.4994 463.4421,0.0 458.9426,0.0 454.4432,0.0 454.4432,4.4994 454.4432,0.0 449.9438,0.0 445.4443,0.0 445.4443,4.4994 440.9449,4.4994 440.9449,8.9989 440.9449,13.4983 445.4443,13.4983 449.9438,13.4983 449.9438,8.9989 449.9438,4.4994 445.4443,4.4994 445.4443,0.0 440.9449,0.0 436.4454,0.0 436.4454,4.4994 436.4454,0.0 431.946,0.0 427.4466,0.0 427.4466,4.4994 422.9471,4.4994 422.9471,8.9989 422.9471,13.4983 427.4466,13.4983 427.4466,8.9989 422.9471,8.9989 418.4477,8.9989 418.4477,13.4983 413.9483,13.4983 413.9483,17.9978 413.9483,22.4972 418.4477,22.4972 413.9483,22.4972 413.9483,26.9966 413.9483,31.4961 418.4477,31.4961 418.4477,35.9955 422.9471,35.9955 427.4466,35.9955 427.4466,31.4961 431.946,31.4961 431.946,26.9966 431.946,22.4972 427.4466,22.4972 427.4466,17.9978 422.9471,17.9978 418.4477,17.9978 418.4477,22.4972 418.4477,17.9978 413.9483,17.9978 409.4488,17.9978 409.4488,22.4972 404.9494,22.4972 404.9494,26.9966 404.9494,31.4961 409.4488,31.4961 409.4488,26.9966 404.9494,26.9966 400.4499,26.9966 400.4499,31.4961 395.9505,31.4961 395.9505,35.9955 395.9505,40.4949 400.4499,40.4949 395.9505,40.4949 395.9505,44.9944 395.9505,49.4938 400.4499,49.4938 400.4499,53.9933 404.9494,53.9933 409.4488,53.9933 409.4488,49.4938 409.4488,44.9944 404.9494,44.9944 400.4499,44.9944 400.4499,49.4938 395.9505,49.4938 395.9505,53.9933 395.9505,58.4927 400.4499,58.4927 395.9505,58.4927 395.9505,62.9921 395.9505,67.4916 400.4499,67.4916 400.4499,71.991 404.9494,71.991 409.4488,71.991 409.4488,67.4916 404.9494,67.4916 404.9494,71.991 404.9494,76.4904 409.4488,76.4904 409.4488,80.9899 413.9483,80.9899 418.4477,80.9899 418.4477,76.4904 418.4477,80.9899 422.9471,80.9899 427.4466,80.9899 427.4466,76.4904 431.946,76.4904 431.946,71.991 431.946,67.4916 427.4466,67.4916"/>
  </g>
</svg>
