<?xml version="1.0" encoding="utf-8" ?>
<svg xmlns="http://www.w3.org/2000/svg" xmlns:cc="http://creativecommons.org/ns" xmlns:dc="http://purl.org/dc/elements/1.1/" xmlns:ev="http://www.w3.org/2001/xml-events" xmlns:inkscape="http://www.inkscape.org/namespaces/inkscape" xmlns:rdf="http://www.w3.org/1999/02/22-rdf-syntax-ns" xmlns:sodipodi="http://sodipodi.sourceforge.net/DTD/sodipodi-0.dtd" xmlns:xlink="http://www.w3.org/1999/xlink" baseProfile="tiny" height="15.0cm" version="1.2" viewBox="0 0 566.9291338582677 566.9291338582677" width="15.0cm">
  <metadata>
    <rdf:RDF>
      <cc:Work>
        <dc:format>image/svg+xml</dc:format>
        <dc:source>vpype peano -d 3 -s 150mm color '#a8dadc' write peano.svg
</dc:source>
        <dc:date>2026-04-03T00:17:41.500518</dc:date>
      </cc:Work>
    </rdf:RDF>
  </metadata>
  <defs/>
  <g fill="none" id="layer1" inkscape:groupmode="layer" inkscape:label="1" stroke="#a8dadc" style="display:inline">
    <polyline points="0.0,0.0 21.805,0.0 43.6099,0.0 43.6099,21.805 21.805,21.805 0.0,21.805 0.0,43.6099 21.805,43.6099 43.6099,43.6099 65.4149,43.6099 87.2199,43.6099 109.0248,43.6099 109.0248,21.805 87.2199,21.805 65.4149,21.805 65.4149,0.0 87.2199,0.0 109.0248,0.0 130.8298,0.0 152.6348,0.0 174.4397,0.0 174.4397,21.805 152.6348,21.805 130.8298,21.805 130.8298,43.6099 152.6348,43.6099 174.4397,43.6099 174.4397,65.4149 152.6348,65.4149 130.8298,65.4149 130.8298,87.2199 152.6348,87.2199 174.4397,87.2199 174.4397,109.0248 152.6348,109.0248 130.8298,109.0248 109.0248,109.0248 87.2199,109.0248 65.4149,109.0248 65.4149,87.2199 87.2199,87.2199 109.0248,87.2199 109.0248,65.4149 87.2199,65.4149 65.4149,65.4149 43.6099,65.4149 21.805,65.4149 0.0,65.4149 0.0,87.2199 21.805,87.2199 43.6099,87.2199 43.6099,109.0248 21.805,109.0248 0.0,109.0248 0.0,130.8298 21.805,130.8298 43.6099,130.8298 43.6099,152.6348 21.805,152.6348 0.0,152.6348 0.0,174.4397 21.805,174.4397 43.6099,174.4397 65.4149,174.4397 87.2199,174.4397 109.0248,174.4397 109.0248,152.6348 87.2199,152.6348 65.4149,152.6348 65.4149,130.8298 87.2199,130.8298 109.0248,130.8298 130.8298,130.8298 152.6348,130.8298 174.4397,130.8298 174.4397,152.6348 152.6348,152.6348 130.8298,152.6348 130.8298,174.4397 152.6348,174.4397 174.4397,174.4397 196.2447,174.4397 218.0497,174.4397 239.8546,174.4397 239.8546,152.6348 218.0497,152.6348 196.2447,152.6348 196.2447,130.8298 218.0497,130.8298 239.8546,130.8298 261.6596,130.8298 283.4646,130.8298 305.2695,130.8298 305.2695,152.6348 283.4646,152.6348 261.6596,152.6348 261.6596,174.4397 283.4646,174.4397 305.2695,174.4397 327.0745,174.4397 348.8795,174.4397 370.6844,174.4397 370.6844,152.6348 348.8795,152.6348 327.0745,152.6348 327.0745,130.8298 348.8795,130.8298 370.6844,130.8298 370.6844,109.0248 348.8795,109.0248 327.0745,109.0248 327.0745,87.2199 348.8795,87.2199 370.6844,87.2199 370.6844,65.4149 348.8795,65.4149 327.0745,65.4149 305.2695,65.4149 283.4646,65.4149 261.6596,65.4149 261.6596,87.2199 283.4646,87.2199 305.2695,87.2199 305.2695,109.0248 283.4646,109.0248 261.6596,109.0248 239.8546,109.0248 218.0497,109.0248 196.2447,109.0248 196.2447,87.2199 218.0497,87.2199 239.8546,87.2199 239.8546,65.4149 218.0497,65.4149 196.2447,65.4149 196.2447,43.6099 218.0497,43.6099 239.8546,43.6099 239.8546,21.805 218.0497,21.805 196.2447,21.805 196.2447,0.0 218.0497,0.0 239.8546,0.0 261.6596,0.0 283.4646,0.0 305.2695,0.0 305.2695,21.805 283.4646,21.805 261.6596,21.805 261.6596,43.6099 283.4646,43.6099 305.2695,43.6099 327.0745,43.6099 348.8795,43.6099 370.6844,43.6099 370.6844,21.805 348.8795,21.805 327.0745,21.805 327.0745,0.0 348.8795,0.0 370.6844,0.0 392.4894,0.0 414.2944,0.0 436.0993,0.0 436.0993,21.805 414.2944,21.805 392.4894,21.805 392.4894,43.6099 414.2944,43.6099 436.0993,43.6099 457.9043,43.6099 479.7093,43.6099 501.5142,43.6099 501.5142,21.805 479.7093,21.805 457.9043,21.805 457.9043,0.0 479.7093,0.0 501.5142,0.0 523.3192,0.0 545.1242,0.0 566.9291,0.0 566.9291,21.805 545.1242,21.805 523.3192,21.805 523.3192,43.6099 545.1242,43.6099 566.9291,43.6099 566.9291,65.4149 545.1242,65.4149 523.3192,65.4149 523.3192,87.2199 545.1242,87.2199 566.9291,87.2199 566.9291,109.0248 545.1242,109.0248 523.3192,109.0248 501.5142,109.0248 479.7093,109.0248 457.9043,109.0248 457.9043,87.2199 479.7093,87.2199 501.5142,87.2199 501.5142,65.4149 479.7093,65.4149 457.9043,65.4149 436.0993,65.4149 414.2944,65.4149 392.4894,65.4149 392.4894,87.2199 414.2944,87.2199 436.0993,87.2199 436.0993,109.0248 414.2944,109.0248 392.4894,109.0248 392.4894,130.8298 414.2944,130.8298 436.0993,130.8298 436.0993,152.6348 414.2944,152.6348 392.4894,152.6348 392.4894,174.4397 414.2944,174.4397 436.0993,174.4397 457.9043,174.4397 479.7093,174.4397 501.5142,174.4397 501.5142,152.6348 479.7093,152.6348 457.9043,152.6348 457.9043,130.8298 479.7093,130.8298 501.5142,130.8298 523.3192,130.8298 545.1242,130.8298 566.9291,130.8298 566.9291,152.6348 545.1242,152.6348 523.3192,152.6348 523.3192,174.4397 545.1242,174.4397 566.9291,174.4397 566.9291,196.2447 545.1242,196.2447 523.3192,196.2447 523.3192,218.0497 545.1242,218.0497 566.9291,218.0497 566.9291,239.8546 545.1242,239.8546 523.3192,239.8546 501.5142,239.8546 479.7093,239.8546 457.9043,239.8546 457.9043,218.0497 479.7093,218.0497 501.5142,218.0497 501.5142,196.2447 479.7093,196.2447 457.9043,196.2447 436.0993,196.2447 414.2944,196.2447 392.4894,196.2447 392.4894,218.0497 414.2944,218.0497 436.0993,218.0497 436.0993,239.8546 414.2944,239.8546 392.4894,239.8546 392.4894,261.6596 414.2944,261.6596 436.0993,261.6596 436.0993,283.4646 414.2944,283.4646 392.4894,283.4646 392.4894,305.2695 414.2944,305.2695 436.0993,305.2695 457.9043,305.2695 479.7093,305.2695 501.5142,305.2695 501.5142,283.4646 479.7093,283.4646 457.9043,283.4646 457.9043,261.6596 479.7093,261.6596 501.5142,261.6596 523.3192,261.6596 545.1242,261.6596 566.9291,261.6596 566.9291,283.4646 545.1242,283.4646 523.3192,283.4646 523.3192,305.2695 545.1242,305.2695 566.9291,305.2695 566.9291,327.0745 545.1242,327.0745 523.3192,327.0745 523.3192,348.8795 545.1242,348.8795 566.9291,348.8795 566.9291,370.6844 545.1242,370.6844 523.3192,370.6844 501.5142,370.6844 479.7093,370.6844 457.9043,370.6844 457.9043,348.8795 479.7093,348.8795 501.5142,348.8795 501.5142,327.0745 479.7093,327.0745 457.9043,327.0745 436.0993,327.0745 414.2944,327.0745 392.4894,327.0745 392.4894,348.8795 414.2944,348.8795 436.0993,348.8795 436.0993,370.6844 414.2944,370.6844 392.4894,370.6844 370.6844,370.6844 348.8795,370.6844 327.0745,370.6844 327.0745,348.8795 348.8795,348.8795 370.6844,348.8795 370.6844,327.0745 348.8795,327.0745 327.0745,327.0745 305.2695,327.0745 283.4646,327.0745 261.6596,327.0745 261.6596,348.8795 283.4646,348.8795 305.2695,348.8795 305.2695,370.6844 283.4646,370.6844 261.6596,370.6844 239.8546,370.6844 218.0497,370.6844 196.2447,370.6844 196.2447,348.8795 218.0497,348.8795 239.8546,348.8795 239.8546,327.0745 218.0497,327.0745 196.2447,327.0745 196.2447,305.2695 218.0497,305.2695 239.8546,305.2695 239.8546,283.4646 218.0497,283.4646 196.2447,283.4646 196.2447,261.6596 218.0497,261.6596 239.8546,261.6596 261.6596,261.6596 283.4646,261.6596 305.2695,261.6596 305.2695,283.4646 283.4646,283.4646 261.6596,283.4646 261.6596,305.2695 283.4646,305.2695 305.2695,305.2695 327.0745,305.2695 348.8795,305.2695 370.6844,305.2695 370.6844,283.4646 348.8795,283.4646 327.0745,283.4646 327.0745,261.6596 348.8795,261.6596 370.6844,261.6596 370.6844,239.8546 348.8795,239.8546 327.0745,239.8546 327.0745,218.0497 348.8795,218.0497 370.6844,218.0497 370.6844,196.2447 348.8795,196.2447 327.0745,196.2447 305.2695,196.2447 283.4646,196.2447 261.6596,196.2447 261.6596,218.0497 283.4646,218.0497 305.2695,218.0497 305.2695,239.8546 283.4646,239.8546 261.6596,239.8546 239.8546,239.8546 218.0497,239.8546 196.2447,239.8546 196.2447,218.0497 218.0497,218.0497 239.8546,218.0497 239.8546,196.2447 218.0497,196.2447 196.2447,196.2447 174.4397,196.2447 152.6348,196.2447 130.8298,196.2447 130.8298,218.0497 152.6348,218.0497 174.4397,218.0497 174.4397,239.8546 152.6348,239.8546 130.8298,239.8546 109.0248,239.8546 87.2199,239.8546 65.4149,239.8546 65.4149,218.0497 87.2199,218.0497 109.0248,218.0497 109.0248,196.2447 87.2199,196.2447 65.4149,196.2447 43.6099,196.2447 21.805,196.2447 0.0,196.2447 0.0,218.0497 21.805,218.0497 43.6099,218.0497 43.6099,239.8546 21.805,239.8546 0.0,239.8546 0.0,261.6596 21.805,261.6596 43.6099,261.6596 43.6099,283.4646 21.805,283.4646 0.0,283.4646 0.0,305.2695 21.805,305.2695 43.6099,305.2695 65.4149,305.2695 87.2199,305.2695 109.0248,305.2695 109.0248,283.4646 87.2199,283.4646 65.4149,283.4646 65.4149,261.6596 87.2199,261.6596 109.0248,261.6596 130.8298,261.6596 152.6348,261.6596 174.4397,261.6596 174.4397,283.4646 152.6348,283.4646 130.8298,283.4646 130.8298,305.2695 152.6348,305.2695 174.4397,305.2695 174.4397,327.0745 152.6348,327.0745 130.8298,327.0745 130.8298,348.8795 152.6348,348.8795 174.4397,348.8795 174.4397,370.6844 152.6348,370.6844 130.8298,370.6844 109.0248,370.6844 87.2199,370.6844 65.4149,370.6844 65.4149,348.8795 87.2199,348.8795 109.0248,348.8795 109.0248,327.0745 87.2199,327.0745 65.4149,327.0745 43.6099,327.0745 21.805,327.0745 0.0,327.0745 0.0,348.8795 21.805,348.8795 43.6099,348.8795 43.6099,370.6844 21.805,370.6844 0.0,370.6844 0.0,392.4894 21.805,392.4894 43.6099,392.4894 43.6099,414.2944 21.805,414.2944 0.0,414.2944 0.0,436.0993 21.805,436.0993 43.6099,436.0993 65.4149,436.0993 87.2199,436.0993 109.0248,436.0993 109.0248,414.2944 87.2199,414.2944 65.4149,414.2944 65.4149,392.4894 87.2199,392.4894 109.0248,392.4894 130.8298,392.4894 152.6348,392.4894 174.4397,392.4894 174.4397,414.2944 152.6348,414.2944 130.8298,414.2944 130.8298,436.0993 152.6348,436.0993 174.4397,436.0993 174.4397,457.9043 152.6348,457.9043 130.8298,457.9043 130.8298,479.7093 152.6348,479.7093 174.4397,479.7093 174.4397,501.5142 152.6348,501.5142 130.8298,501.5142 109.0248,501.5142 87.2199,501.5142 65.4149,501.5142 65.4149,479.7093 87.2199,479.7093 109.0248,479.7093 109.0248,457.9043 87.2199,457.9043 65.4149,457.9043 43.6099,457.9043 21.805,457.9043 0.0,457.9043 0.0,479.7093 21.805,479.7093 43.6099,479.7093 43.6099,501.5142 21.805,501.5142 0.0,501.5142 0.0,523.3192 21.805,523.3192 43.6099,523.3192 43.6099,545.1242 21.805,545.1242 0.0,545.1242 0.0,566.9291 21.805,566.9291 43.6099,566.9291 65.4149,566.9291 87.2199,566.9291 109.0248,566.9291 109.0248,545.1242 87.2199,545.1242 65.4149,545.1242 65.4149,523.3192 87.2199,523.3192 109.0248,523.3192 130.8298,523.3192 152.6348,523.3192 174.4397,523.3192 174.4397,545.1242 152.6348,545.1242 130.8298,545.1242 130.8298,566.9291 152.6348,566.9291 174.4397,566.9291 196.2447,566.9291 218.0497,566.9291 239.8546,566.9291 239.8546,545.1242 218.0497,545.1242 196.2447,545.1242 196.2447,523.3192 218.0497,523.3192 239.8546,523.3192 261.6596,523.3192 283.4646,523.3192 305.2695,523.3192 305.2695,545.1242 283.4646,545.1242 261.6596,545.1242 261.6596,566.9291 283.4646,566.9291 305.2695,566.9291 327.0745,566.9291 348.8795,566.9291 370.6844,566.9291 370.6844,545.1242 348.8795,545.1242 327.0745,545.1242 327.0745,523.3192 348.8795,523.3192 370.6844,523.3192 370.6844,501.5142 348.8795,501.5142 327.0745,501.5142 327.0745,479.7093 348.8795,479.7093 370.6844,479.7093 370.6844,457.9043 348.8795,457.9043 327.0745,457.9043 305.2695,457.9043 283.4646,457.9043 261.6596,457.9043 261.6596,479.7093 283.4646,479.7093 305.2695,479.7093 305.2695,501.5142 283.4646,501.5142 261.6596,501.5142 239.8546,501.5142 218.0497,501.5142 196.2447,501.5142 196.2447,479.7093 218.0497,479.7093 239.8546,479.7093 239.8546,457.9043 218.0497,457.9043 196.2447,457.9043 196.2447,436.0993 218.0497,436.0993 239.8546,436.0993 239.8546,414.2944 218.0497,414.2944 196.2447,414.2944 196.2447,392.4894 218.0497,392.4894 239.8546,392.4894 261.6596,392.4894 283.4646,392.4894 305.2695,392.4894 305.2695,414.2944 283.4646,414.2944 261.6596,414.2944 261.6596,436.0993 283.4646,436.0993 305.2695,436.0993 327.0745,436.0993 348.8795,436.0993 370.6844,436.0993 370.6844,414.2944 348.8795,414.2944 327.0745,414.2944 327.0745,392.4894 348.8795,392.4894 370.6844,392.4894 392.4894,392.4894 414.2944,392.4894 436.0993,392.4894 436.0993,414.2944 414.2944,414.2944 392.4894,414.2944 392.4894,436.0993 414.2944,436.0993 436.0993,436.0993 457.9043,436.0993 479.7093,436.0993 501.5142,436.0993 501.5142,414.2944 479.7093,414.2944 457.9043,414.2944 457.9043,392.4894 479.7093,392.4894 501.5142,392.4894 523.3192,392.4894 545.1242,392.4894 566.9291,392.4894 566.9291,414.2944 545.1242,414.2944 523.3192,414.2944 523.3192,436.0993 545.1242,436.0993 566.9291,436.0993 566.9291,457.9043 545.1242,457.9043 523.3192,457.9043 523.3192,479.7093 545.1242,479.7093 566.9291,479.7093 566.9291,501.5142 545.1242,501.5142 523.3192,501.5142 501.5142,501.5142 479.7093,501.5142 457.9043,501.5142 457.9043,479.7093 479.7093,479.7093 501.5142,479.7093 501.5142,457.9043 479.7093,457.9043 457.9043,457.9043 436.0993,457.9043 414.2944,457.9043 392.4894,457.9043 392.4894,479.7093 414.2944,479.7093 436.0993,479.7093 436.0993,501.5142 414.2944,501.5142 392.4894,501.5142 392.4894,523.3192 414.2944,523.3192 436.0993,523.3192 436.0993,545.1242 414.2944,545.1242 392.4894,545.1242 392.4894,566.9291 414.2944,566.9291 436.0993,566.9291 457.9043,566.9291 479.7093,566.9291 501.5142,566.9291 501.5142,545.1242 479.7093,545.1242 457.9043,545.1242 457.9043,523.3192 479.7093,523.3192 501.5142,523.3192 523.3192,523.3192 545.1242,523.3192 566.9291,523.3192 566.9291,545.1242 545.1242,545.1242 523.3192,545.1242 523.3192,566.9291 545.1242,566.9291 566.9291,566.9291"/>
  </g>
</svg>
