<?xml version="1.0" encoding="utf-8" ?>
<svg xmlns="http://www.w3.org/2000/svg" xmlns:cc="http://creativecommons.org/ns" xmlns:dc="http://purl.org/dc/elements/1.1/" xmlns:ev="http://www.w3.org/2001/xml-events" xmlns:inkscape="http://www.inkscape.org/namespaces/inkscape" xmlns:rdf="http://www.w3.org/1999/02/22-rdf-syntax-ns" xmlns:sodipodi="http://sodipodi.sourceforge.net/DTD/sodipodi-0.dtd" xmlns:xlink="http://www.w3.org/1999/xlink" baseProfile="tiny" height="13.04132373cm" version="1.2" viewBox="0 0 566.9291338582677 492.9004243493824" width="15.0cm">
  <metadata>
    <rdf:RDF>
      <cc:Work>
        <dc:format>image/svg+xml</dc:format>
        <dc:source>vpype sierpinski -d 7 -s 150mm color '#457b9d' write sierpinski.svg
</dc:source>
        <dc:date>2026-04-03T00:17:39.259738</dc:date>
      </cc:Work>
    </rdf:RDF>
  </metadata>
  <defs/>
  <g fill="none" id="layer1" inkscape:groupmode="layer" inkscape:label="1" stroke="#457b9d" style="display:inline">
    <polyline points="0.0,492.9004 4.4465,492.9004 6.6698,489.0496 4.4465,485.1989 6.6698,481.3481 11.1163,481.3481 13.3395,485.1989 11.1163,489.0496 13.3395,492.9004 17.786,492.9004 20.0093,489.0496 24.4558,489.0496 26.679,492.9004 31.1255,492.9004 33.3488,489.0496 31.1255,485.1989 26.679,485.1989 24.4558,481.3481 26.679,477.4973 24.4558,473.6465 20.0093,473.6465 17.786,477.4973 13.3395,477.4973 11.1163,473.6465 13.3395,469.7957 17.786,469.7957 20.0093,465.9449 17.786,462.0941 20.0093,458.2434 24.4558,458.2434 26.679,462.0941 31.1255,462.0941 33.3488,458.2434 31.1255,454.3926 26.679,454.3926 24.4558,450.5418 26.679,446.691 31.1255,446.691 33.3488,442.8402 31.1255,438.9894 33.3488,435.1387 37.7953,435.1387 40.0185,438.9894 37.7953,442.8402 40.0185,446.691 44.465,446.691 46.6883,450.5418 44.465,454.3926 40.0185,454.3926 37.7953,458.2434 40.0185,462.0941 44.465,462.0941 46.6883,458.2434 51.1348,458.2434 53.358,462.0941 51.1348,465.9449 53.358,469.7957 57.8045,469.7957 60.0278,473.6465 57.8045,477.4973 53.358,477.4973 51.1348,473.6465 46.6883,473.6465 44.465,477.4973 46.6883,481.3481 44.465,485.1989 40.0185,485.1989 37.7953,489.0496 40.0185,492.9004 44.465,492.9004 46.6883,489.0496 51.1348,489.0496 53.358,492.9004 57.8045,492.9004 60.0278,489.0496 57.8045,485.1989 60.0278,481.3481 64.4743,481.3481 66.6975,485.1989 64.4743,489.0496 66.6975,492.9004 71.144,492.9004 73.3673,489.0496 77.8138,489.0496 80.0371,492.9004 84.4836,492.9004 86.7068,489.0496 84.4836,485.1989 80.0371,485.1989 77.8138,481.3481 80.0371,477.4973 84.4836,477.4973 86.7068,473.6465 84.4836,469.7957 86.7068,465.9449 91.1533,465.9449 93.3766,469.7957 91.1533,473.6465 93.3766,477.4973 97.8231,477.4973 100.0463,481.3481 97.8231,485.1989 93.3766,485.1989 91.1533,489.0496 93.3766,492.9004 97.8231,492.9004 100.0463,489.0496 104.4928,489.0496 106.7161,492.9004 111.1626,492.9004 113.3858,489.0496 111.1626,485.1989 113.3858,481.3481 117.8323,481.3481 120.0556,485.1989 117.8323,489.0496 120.0556,492.9004 124.5021,492.9004 126.7253,489.0496 131.1718,489.0496 133.3951,492.9004 137.8416,492.9004 140.0648,489.0496 137.8416,485.1989 133.3951,485.1989 131.1718,481.3481 133.3951,477.4973 131.1718,473.6465 126.7253,473.6465 124.5021,477.4973 120.0556,477.4973 117.8323,473.6465 120.0556,469.7957 124.5021,469.7957 126.7253,465.9449 124.5021,462.0941 120.0556,462.0941 117.8323,458.2434 120.0556,454.3926 117.8323,450.5418 113.3858,450.5418 111.1626,454.3926 113.3858,458.2434 111.1626,462.0941 106.7161,462.0941 104.4928,458.2434 100.0463,458.2434 97.8231,462.0941 93.3766,462.0941 91.1533,458.2434 93.3766,454.3926 97.8231,454.3926 100.0463,450.5418 97.8231,446.691 100.0463,442.8402 104.4928,442.8402 106.7161,446.691 111.1626,446.691 113.3858,442.8402 111.1626,438.9894 106.7161,438.9894 104.4928,435.1387 106.7161,431.2879 104.4928,427.4371 100.0463,427.4371 97.8231,431.2879 93.3766,431.2879 91.1533,427.4371 93.3766,423.5863 97.8231,423.5863 100.0463,419.7355 97.8231,415.8847 93.3766,415.8847 91.1533,412.0339 93.3766,408.1832 91.1533,404.3324 86.7068,404.3324 84.4836,408.1832 86.7068,412.0339 84.4836,415.8847 80.0371,415.8847 77.8138,419.7355 80.0371,423.5863 84.4836,423.5863 86.7068,427.4371 84.4836,431.2879 80.0371,431.2879 77.8138,427.4371 73.3673,427.4371 71.144,431.2879 66.6975,431.2879 64.4743,427.4371 66.6975,423.5863 64.4743,419.7355 60.0278,419.7355 57.8045,423.5863 60.0278,427.4371 57.8045,431.2879 53.358,431.2879 51.1348,427.4371 46.6883,427.4371 44.465,431.2879 40.0185,431.2879 37.7953,427.4371 40.0185,423.5863 44.465,423.5863 46.6883,419.7355 44.465,415.8847 46.6883,412.0339 51.1348,412.0339 53.358,415.8847 57.8045,415.8847 60.0278,412.0339 57.8045,408.1832 53.358,408.1832 51.1348,404.3324 53.358,400.4816 57.8045,400.4816 60.0278,396.6308 57.8045,392.78 60.0278,388.9292 64.4743,388.9292 66.6975,392.78 64.4743,396.6308 66.6975,400.4816 71.144,400.4816 73.3673,396.6308 77.8138,396.6308 80.0371,400.4816 84.4836,400.4816 86.7068,396.6308 84.4836,392.78 80.0371,392.78 77.8138,388.9292 80.0371,385.0785 77.8138,381.2277 73.3673,381.2277 71.144,385.0785 66.6975,385.0785 64.4743,381.2277 66.6975,377.3769 71.144,377.3769 73.3673,373.5261 71.144,369.6753 73.3673,365.8245 77.8138,365.8245 80.0371,369.6753 84.4836,369.6753 86.7068,365.8245 84.4836,361.9737 80.0371,361.9737 77.8138,358.123 80.0371,354.2722 84.4836,354.2722 86.7068,350.4214 84.4836,346.5706 86.7068,342.7198 91.1533,342.7198 93.3766,346.5706 91.1533,350.4214 93.3766,354.2722 97.8231,354.2722 100.0463,358.123 97.8231,361.9737 93.3766,361.9737 91.1533,365.8245 93.3766,369.6753 97.8231,369.6753 100.0463,365.8245 104.4928,365.8245 106.7161,369.6753 111.1626,369.6753 113.3858,365.8245 111.1626,361.9737 113.3858,358.123 117.8323,358.123 120.0556,361.9737 117.8323,365.8245 120.0556,369.6753 124.5021,369.6753 126.7253,365.8245 131.1718,365.8245 133.3951,369.6753 137.8416,369.6753 140.0648,365.8245 137.8416,361.9737 133.3951,361.9737 131.1718,358.123 133.3951,354.2722 131.1718,350.4214 126.7253,350.4214 124.5021,354.2722 120.0556,354.2722 117.8323,350.4214 120.0556,346.5706 124.5021,346.5706 126.7253,342.7198 124.5021,338.869 120.0556,338.869 117.8323,335.0183 120.0556,331.1675 117.8323,327.3167 113.3858,327.3167 111.1626,331.1675 113.3858,335.0183 111.1626,338.869 106.7161,338.869 104.4928,335.0183 100.0463,335.0183 97.8231,338.869 93.3766,338.869 91.1533,335.0183 93.3766,331.1675 97.8231,331.1675 100.0463,327.3167 97.8231,323.4659 100.0463,319.6151 104.4928,319.6151 106.7161,323.4659 111.1626,323.4659 113.3858,319.6151 111.1626,315.7643 106.7161,315.7643 104.4928,311.9135 106.7161,308.0628 111.1626,308.0628 113.3858,304.212 111.1626,300.3612 113.3858,296.5104 117.8323,296.5104 120.0556,300.3612 117.8323,304.212 120.0556,308.0628 124.5021,308.0628 126.7253,304.212 131.1718,304.212 133.3951,308.0628 137.8416,308.0628 140.0648,304.212 137.8416,300.3612 133.3951,300.3612 131.1718,296.5104 133.3951,292.6596 131.1718,288.8088 126.7253,288.8088 124.5021,292.6596 120.0556,292.6596 117.8323,288.8088 120.0556,284.9581 124.5021,284.9581 126.7253,281.1073 124.5021,277.2565 126.7253,273.4057 131.1718,273.4057 133.3951,277.2565 137.8416,277.2565 140.0648,273.4057 137.8416,269.5549 133.3951,269.5549 131.1718,265.7041 133.3951,261.8534 137.8416,261.8534 140.0648,258.0026 137.8416,254.1518 140.0648,250.301 144.5113,250.301 146.7346,254.1518 144.5113,258.0026 146.7346,261.8534 151.1811,261.8534 153.4044,265.7041 151.1811,269.5549 146.7346,269.5549 144.5113,273.4057 146.7346,277.2565 151.1811,277.2565 153.4044,273.4057 157.8509,273.4057 160.0741,277.2565 157.8509,281.1073 160.0741,284.9581 164.5206,284.9581 166.7439,288.8088 164.5206,292.6596 160.0741,292.6596 157.8509,288.8088 153.4044,288.8088 151.1811,292.6596 153.4044,296.5104 151.1811,300.3612 146.7346,300.3612 144.5113,304.212 146.7346,308.0628 151.1811,308.0628 153.4044,304.212 157.8509,304.212 160.0741,308.0628 164.5206,308.0628 166.7439,304.212 164.5206,300.3612 166.7439,296.5104 171.1904,296.5104 173.4136,300.3612 171.1904,304.212 173.4136,308.0628 177.8601,308.0628 180.0834,311.9135 177.8601,315.7643 173.4136,315.7643 171.1904,319.6151 173.4136,323.4659 177.8601,323.4659 180.0834,319.6151 184.5299,319.6151 186.7531,323.4659 184.5299,327.3167 186.7531,331.1675 191.1996,331.1675 193.4229,335.0183 191.1996,338.869 186.7531,338.869 184.5299,335.0183 180.0834,335.0183 177.8601,338.869 173.4136,338.869 171.1904,335.0183 173.4136,331.1675 171.1904,327.3167 166.7439,327.3167 164.5206,331.1675 166.7439,335.0183 164.5206,338.869 160.0741,338.869 157.8509,342.7198 160.0741,346.5706 164.5206,346.5706 166.7439,350.4214 164.5206,354.2722 160.0741,354.2722 157.8509,350.4214 153.4044,350.4214 151.1811,354.2722 153.4044,358.123 151.1811,361.9737 146.7346,361.9737 144.5113,365.8245 146.7346,369.6753 151.1811,369.6753 153.4044,365.8245 157.8509,365.8245 160.0741,369.6753 164.5206,369.6753 166.7439,365.8245 164.5206,361.9737 166.7439,358.123 171.1904,358.123 173.4136,361.9737 171.1904,365.8245 173.4136,369.6753 177.8601,369.6753 180.0834,365.8245 184.5299,365.8245 186.7531,369.6753 191.1996,369.6753 193.4229,365.8245 191.1996,361.9737 186.7531,361.9737 184.5299,358.123 186.7531,354.2722 191.1996,354.2722 193.4229,350.4214 191.1996,346.5706 193.4229,342.7198 197.8694,342.7198 200.0926,346.5706 197.8694,350.4214 200.0926,354.2722 204.5391,354.2722 206.7624,358.123 204.5391,361.9737 200.0926,361.9737 197.8694,365.8245 200.0926,369.6753 204.5391,369.6753 206.7624,365.8245 211.2089,365.8245 213.4321,369.6753 211.2089,373.5261 213.4321,377.3769 217.8786,377.3769 220.1019,381.2277 217.8786,385.0785 213.4321,385.0785 211.2089,381.2277 206.7624,381.2277 204.5391,385.0785 206.7624,388.9292 204.5391,392.78 200.0926,392.78 197.8694,396.6308 200.0926,400.4816 204.5391,400.4816 206.7624,396.6308 211.2089,396.6308 213.4321,400.4816 217.8786,400.4816 220.1019,396.6308 217.8786,392.78 220.1019,388.9292 224.5484,388.9292 226.7717,392.78 224.5484,396.6308 226.7717,400.4816 231.2182,400.4816 233.4414,404.3324 231.2182,408.1832 226.7717,408.1832 224.5484,412.0339 226.7717,415.8847 231.2182,415.8847 233.4414,412.0339 237.8879,412.0339 240.1112,415.8847 237.8879,419.7355 240.1112,423.5863 244.5577,423.5863 246.7809,427.4371 244.5577,431.2879 240.1112,431.2879 237.8879,427.4371 233.4414,427.4371 231.2182,431.2879 226.7717,431.2879 224.5484,427.4371 226.7717,423.5863 224.5484,419.7355 220.1019,419.7355 217.8786,423.5863 220.1019,427.4371 217.8786,431.2879 213.4321,431.2879 211.2089,427.4371 206.7624,427.4371 204.5391,431.2879 200.0926,431.2879 197.8694,427.4371 200.0926,423.5863 204.5391,423.5863 206.7624,419.7355 204.5391,415.8847 200.0926,415.8847 197.8694,412.0339 200.0926,408.1832 197.8694,404.3324 193.4229,404.3324 191.1996,408.1832 193.4229,412.0339 191.1996,415.8847 186.7531,415.8847 184.5299,419.7355 186.7531,423.5863 191.1996,423.5863 193.4229,427.4371 191.1996,431.2879 186.7531,431.2879 184.5299,427.4371 180.0834,427.4371 177.8601,431.2879 180.0834,435.1387 177.8601,438.9894 173.4136,438.9894 171.1904,442.8402 173.4136,446.691 177.8601,446.691 180.0834,442.8402 184.5299,442.8402 186.7531,446.691 184.5299,450.5418 186.7531,454.3926 191.1996,454.3926 193.4229,458.2434 191.1996,462.0941 186.7531,462.0941 184.5299,458.2434 180.0834,458.2434 177.8601,462.0941 173.4136,462.0941 171.1904,458.2434 173.4136,454.3926 171.1904,450.5418 166.7439,450.5418 164.5206,454.3926 166.7439,458.2434 164.5206,462.0941 160.0741,462.0941 157.8509,465.9449 160.0741,469.7957 164.5206,469.7957 166.7439,473.6465 164.5206,477.4973 160.0741,477.4973 157.8509,473.6465 153.4044,473.6465 151.1811,477.4973 153.4044,481.3481 151.1811,485.1989 146.7346,485.1989 144.5113,489.0496 146.7346,492.9004 151.1811,492.9004 153.4044,489.0496 157.8509,489.0496 160.0741,492.9004 164.5206,492.9004 166.7439,489.0496 164.5206,485.1989 166.7439,481.3481 171.1904,481.3481 173.4136,485.1989 171.1904,489.0496 173.4136,492.9004 177.8601,492.9004 180.0834,489.0496 184.5299,489.0496 186.7531,492.9004 191.1996,492.9004 193.4229,489.0496 191.1996,485.1989 186.7531,485.1989 184.5299,481.3481 186.7531,477.4973 191.1996,477.4973 193.4229,473.6465 191.1996,469.7957 193.4229,465.9449 197.8694,465.9449 200.0926,469.7957 197.8694,473.6465 200.0926,477.4973 204.5391,477.4973 206.7624,481.3481 204.5391,485.1989 200.0926,485.1989 197.8694,489.0496 200.0926,492.9004 204.5391,492.9004 206.7624,489.0496 211.2089,489.0496 213.4321,492.9004 217.8786,492.9004 220.1019,489.0496 217.8786,485.1989 220.1019,481.3481 224.5484,481.3481 226.7717,485.1989 224.5484,489.0496 226.7717,492.9004 231.2182,492.9004 233.4414,489.0496 237.8879,489.0496 240.1112,492.9004 244.5577,492.9004 246.7809,489.0496 244.5577,485.1989 240.1112,485.1989 237.8879,481.3481 240.1112,477.4973 237.8879,473.6465 233.4414,473.6465 231.2182,477.4973 226.7717,477.4973 224.5484,473.6465 226.7717,469.7957 231.2182,469.7957 233.4414,465.9449 231.2182,462.0941 233.4414,458.2434 237.8879,458.2434 240.1112,462.0941 244.5577,462.0941 246.7809,458.2434 244.5577,454.3926 240.1112,454.3926 237.8879,450.5418 240.1112,446.691 244.5577,446.691 246.7809,442.8402 244.5577,438.9894 246.7809,435.1387 251.2274,435.1387 253.4507,438.9894 251.2274,442.8402 253.4507,446.691 257.8972,446.691 260.1204,450.5418 257.8972,454.3926 253.4507,454.3926 251.2274,458.2434 253.4507,462.0941 257.8972,462.0941 260.1204,458.2434 264.5669,458.2434 266.7902,462.0941 264.5669,465.9449 266.7902,469.7957 271.2367,469.7957 273.4599,473.6465 271.2367,477.4973 266.7902,477.4973 264.5669,473.6465 260.1204,473.6465 257.8972,477.4973 260.1204,481.3481 257.8972,485.1989 253.4507,485.1989 251.2274,489.0496 253.4507,492.9004 257.8972,492.9004 260.1204,489.0496 264.5669,489.0496 266.7902,492.9004 271.2367,492.9004 273.4599,489.0496 271.2367,485.1989 273.4599,481.3481 277.9064,481.3481 280.1297,485.1989 277.9064,489.0496 280.1297,492.9004 284.5762,492.9004 286.7994,489.0496 291.2459,489.0496 293.4692,492.9004 297.9157,492.9004 300.139,489.0496 297.9157,485.1989 293.4692,485.1989 291.2459,481.3481 293.4692,477.4973 297.9157,477.4973 300.139,473.6465 297.9157,469.7957 300.139,465.9449 304.5855,465.9449 306.8087,469.7957 304.5855,473.6465 306.8087,477.4973 311.2552,477.4973 313.4785,481.3481 311.2552,485.1989 306.8087,485.1989 304.5855,489.0496 306.8087,492.9004 311.2552,492.9004 313.4785,489.0496 317.925,489.0496 320.1482,492.9004 324.5947,492.9004 326.818,489.0496 324.5947,485.1989 326.818,481.3481 331.2645,481.3481 333.4877,485.1989 331.2645,489.0496 333.4877,492.9004 337.9342,492.9004 340.1575,489.0496 344.604,489.0496 346.8272,492.9004 351.2737,492.9004 353.497,489.0496 351.2737,485.1989 346.8272,485.1989 344.604,481.3481 346.8272,477.4973 344.604,473.6465 340.1575,473.6465 337.9342,477.4973 333.4877,477.4973 331.2645,473.6465 333.4877,469.7957 337.9342,469.7957 340.1575,465.9449 337.9342,462.0941 333.4877,462.0941 331.2645,458.2434 333.4877,454.3926 331.2645,450.5418 326.818,450.5418 324.5947,454.3926 326.818,458.2434 324.5947,462.0941 320.1482,462.0941 317.925,458.2434 313.4785,458.2434 311.2552,462.0941 306.8087,462.0941 304.5855,458.2434 306.8087,454.3926 311.2552,454.3926 313.4785,450.5418 311.2552,446.691 313.4785,442.8402 317.925,442.8402 320.1482,446.691 324.5947,446.691 326.818,442.8402 324.5947,438.9894 320.1482,438.9894 317.925,435.1387 320.1482,431.2879 324.5947,431.2879 326.818,427.4371 324.5947,423.5863 326.818,419.7355 331.2645,419.7355 333.4877,423.5863 331.2645,427.4371 333.4877,431.2879 337.9342,431.2879 340.1575,427.4371 344.604,427.4371 346.8272,431.2879 351.2737,431.2879 353.497,427.4371 351.2737,423.5863 346.8272,423.5863 344.604,419.7355 346.8272,415.8847 344.604,412.0339 340.1575,412.0339 337.9342,415.8847 333.4877,415.8847 331.2645,412.0339 333.4877,408.1832 337.9342,408.1832 340.1575,404.3324 337.9342,400.4816 340.1575,396.6308 344.604,396.6308 346.8272,400.4816 351.2737,400.4816 353.497,396.6308 351.2737,392.78 346.8272,392.78 344.604,388.9292 346.8272,385.0785 351.2737,385.0785 353.497,381.2277 351.2737,377.3769 353.497,373.5261 357.9435,373.5261 360.1667,377.3769 357.9435,381.2277 360.1667,385.0785 364.6132,385.0785 366.8365,388.9292 364.6132,392.78 360.1667,392.78 357.9435,396.6308 360.1667,400.4816 364.6132,400.4816 366.8365,396.6308 371.283,396.6308 373.5063,400.4816 371.283,404.3324 373.5063,408.1832 377.9528,408.1832 380.176,412.0339 377.9528,415.8847 373.5063,415.8847 371.283,412.0339 366.8365,412.0339 364.6132,415.8847 366.8365,419.7355 364.6132,423.5863 360.1667,423.5863 357.9435,427.4371 360.1667,431.2879 364.6132,431.2879 366.8365,427.4371 371.283,427.4371 373.5063,431.2879 377.9528,431.2879 380.176,427.4371 377.9528,423.5863 380.176,419.7355 384.6225,419.7355 386.8458,423.5863 384.6225,427.4371 386.8458,431.2879 391.2923,431.2879 393.5155,435.1387 391.2923,438.9894 386.8458,438.9894 384.6225,442.8402 386.8458,446.691 391.2923,446.691 393.5155,442.8402 397.962,442.8402 400.1853,446.691 397.962,450.5418 400.1853,454.3926 404.6318,454.3926 406.855,458.2434 404.6318,462.0941 400.1853,462.0941 397.962,458.2434 393.5155,458.2434 391.2923,462.0941 386.8458,462.0941 384.6225,458.2434 386.8458,454.3926 384.6225,450.5418 380.176,450.5418 377.9528,454.3926 380.176,458.2434 377.9528,462.0941 373.5063,462.0941 371.283,465.9449 373.5063,469.7957 377.9528,469.7957 380.176,473.6465 377.9528,477.4973 373.5063,477.4973 371.283,473.6465 366.8365,473.6465 364.6132,477.4973 366.8365,481.3481 364.6132,485.1989 360.1667,485.1989 357.9435,489.0496 360.1667,492.9004 364.6132,492.9004 366.8365,489.0496 371.283,489.0496 373.5063,492.9004 377.9528,492.9004 380.176,489.0496 377.9528,485.1989 380.176,481.3481 384.6225,481.3481 386.8458,485.1989 384.6225,489.0496 386.8458,492.9004 391.2923,492.9004 393.5155,489.0496 397.962,489.0496 400.1853,492.9004 404.6318,492.9004 406.855,489.0496 404.6318,485.1989 400.1853,485.1989 397.962,481.3481 400.1853,477.4973 404.6318,477.4973 406.855,473.6465 404.6318,469.7957 406.855,465.9449 411.3015,465.9449 413.5248,469.7957 411.3015,473.6465 413.5248,477.4973 417.9713,477.4973 420.1945,481.3481 417.9713,485.1989 413.5248,485.1989 411.3015,489.0496 413.5248,492.9004 417.9713,492.9004 420.1945,489.0496 424.641,489.0496 426.8643,492.9004 431.3108,492.9004 433.534,489.0496 431.3108,485.1989 433.534,481.3481 437.9805,481.3481 440.2038,485.1989 437.9805,489.0496 440.2038,492.9004 444.6503,492.9004 446.8736,489.0496 451.3201,489.0496 453.5433,492.9004 457.9898,492.9004 460.2131,489.0496 457.9898,485.1989 453.5433,485.1989 451.3201,481.3481 453.5433,477.4973 451.3201,473.6465 446.8736,473.6465 444.6503,477.4973 440.2038,477.4973 437.9805,473.6465 440.2038,469.7957 444.6503,469.7957 446.8736,465.9449 444.6503,462.0941 446.8736,458.2434 451.3201,458.2434 453.5433,462.0941 457.9898,462.0941 460.2131,458.2434 457.9898,454.3926 453.5433,454.3926 451.3201,450.5418 453.5433,446.691 457.9898,446.691 460.2131,442.8402 457.9898,438.9894 460.2131,435.1387 464.6596,435.1387 466.8828,438.9894 464.6596,442.8402 466.8828,446.691 471.3293,446.691 473.5526,450.5418 471.3293,454.3926 466.8828,454.3926 464.6596,458.2434 466.8828,462.0941 471.3293,462.0941 473.5526,458.2434 477.9991,458.2434 480.2223,462.0941 477.9991,465.9449 480.2223,469.7957 484.6688,469.7957 486.8921,473.6465 484.6688,477.4973 480.2223,477.4973 477.9991,473.6465 473.5526,473.6465 471.3293,477.4973 473.5526,481.3481 471.3293,485.1989 466.8828,485.1989 464.6596,489.0496 466.8828,492.9004 471.3293,492.9004 473.5526,489.0496 477.9991,489.0496 480.2223,492.9004 484.6688,492.9004 486.8921,489.0496 484.6688,485.1989 486.8921,481.3481 491.3386,481.3481 493.5618,485.1989 491.3386,489.0496 493.5618,492.9004 498.0083,492.9004 500.2316,489.0496 504.6781,489.0496 506.9013,492.9004 511.3478,492.9004 513.5711,489.0496 511.3478,485.1989 506.9013,485.1989 504.6781,481.3481 506.9013,477.4973 511.3478,477.4973 513.5711,473.6465 511.3478,469.7957 513.5711,465.9449 518.0176,465.9449 520.2409,469.7957 518.0176,473.6465 520.2409,477.4973 524.6874,477.4973 526.9106,481.3481 524.6874,485.1989 520.2409,485.1989 518.0176,489.0496 520.2409,492.9004 524.6874,492.9004 526.9106,489.0496 531.3571,489.0496 533.5804,492.9004 538.0269,492.9004 540.2501,489.0496 538.0269,485.1989 540.2501,481.3481 544.6966,481.3481 546.9199,485.1989 544.6966,489.0496 546.9199,492.9004 551.3664,492.9004 553.5896,489.0496 558.0361,489.0496 560.2594,492.9004 564.7059,492.9004 566.9291,489.0496 564.7059,485.1989 560.2594,485.1989 558.0361,481.3481 560.2594,477.4973 558.0361,473.6465 553.5896,473.6465 551.3664,477.4973 546.9199,477.4973 544.6966,473.6465 546.9199,469.7957 551.3664,469.7957 553.5896,465.9449 551.3664,462.0941 546.9199,462.0941 544.6966,458.2434 546.9199,454.3926 544.6966,450.5418 540.2501,450.5418 538.0269,454.3926 540.2501,458.2434 538.0269,462.0941 533.5804,462.0941 531.3571,458.2434 526.9106,458.2434 524.6874,462.0941 520.2409,462.0941 518.0176,458.2434 520.2409,454.3926 524.6874,454.3926 526.9106,450.5418 524.6874,446.691 526.9106,442.8402 531.3571,442.8402 533.5804,446.691 538.0269,446.691 540.2501,442.8402 538.0269,438.9894 533.5804,438.9894 531.3571,435.1387 533.5804,431.2879 531.3571,427.4371 526.9106,427.4371 524.6874,431.2879 520.2409,431.2879 518.0176,427.4371 520.2409,423.5863 524.6874,423.5863 526.9106,419.7355 524.6874,415.8847 520.2409,415.8847 518.0176,412.0339 520.2409,408.1832 518.0176,404.3324 513.5711,404.3324 511.3478,408.1832 513.5711,412.0339 511.3478,415.8847 506.9013,415.8847 504.6781,419.7355 506.9013,423.5863 511.3478,423.5863 513.5711,427.4371 511.3478,431.2879 506.9013,431.2879 504.6781,427.4371 500.2316,427.4371 498.0083,431.2879 493.5618,431.2879 491.3386,427.4371 493.5618,423.5863 491.3386,419.7355 486.8921,419.7355 484.6688,423.5863 486.8921,427.4371 484.6688,431.2879 480.2223,431.2879 477.9991,427.4371 473.5526,427.4371 471.3293,431.2879 466.8828,431.2879 464.6596,427.4371 466.8828,423.5863 471.3293,423.5863 473.5526,419.7355 471.3293,415.8847 473.5526,412.0339 477.9991,412.0339 480.2223,415.8847 484.6688,415.8847 486.8921,412.0339 484.6688,408.1832 480.2223,408.1832 477.9991,404.3324 480.2223,400.4816 484.6688,400.4816 486.8921,396.6308 484.6688,392.78 486.8921,388.9292 491.3386,388.9292 493.5618,392.78 491.3386,396.6308 493.5618,400.4816 498.0083,400.4816 500.2316,396.6308 504.6781,396.6308 506.9013,400.4816 511.3478,400.4816 513.5711,396.6308 511.3478,392.78 506.9013,392.78 504.6781,388.9292 506.9013,385.0785 504.6781,381.2277 500.2316,381.2277 498.0083,385.0785 493.5618,385.0785 491.3386,381.2277 493.5618,377.3769 498.0083,377.3769 500.2316,373.5261 498.0083,369.6753 493.5618,369.6753 491.3386,365.8245 493.5618,361.9737 491.3386,358.123 486.8921,358.123 484.6688,361.9737 486.8921,365.8245 484.6688,369.6753 480.2223,369.6753 477.9991,365.8245 473.5526,365.8245 471.3293,369.6753 466.8828,369.6753 464.6596,365.8245 466.8828,361.9737 471.3293,361.9737 473.5526,358.123 471.3293,354.2722 473.5526,350.4214 477.9991,350.4214 480.2223,354.2722 484.6688,354.2722 486.8921,350.4214 484.6688,346.5706 480.2223,346.5706 477.9991,342.7198 480.2223,338.869 477.9991,335.0183 473.5526,335.0183 471.3293,338.869 466.8828,338.869 464.6596,335.0183 466.8828,331.1675 471.3293,331.1675 473.5526,327.3167 471.3293,323.4659 466.8828,323.4659 464.6596,319.6151 466.8828,315.7643 464.6596,311.9135 460.2131,311.9135 457.9898,315.7643 460.2131,319.6151 457.9898,323.4659 453.5433,323.4659 451.3201,327.3167 453.5433,331.1675 457.9898,331.1675 460.2131,335.0183 457.9898,338.869 453.5433,338.869 451.3201,335.0183 446.8736,335.0183 444.6503,338.869 446.8736,342.7198 444.6503,346.5706 440.2038,346.5706 437.9805,350.4214 440.2038,354.2722 444.6503,354.2722 446.8736,350.4214 451.3201,350.4214 453.5433,354.2722 451.3201,358.123 453.5433,361.9737 457.9898,361.9737 460.2131,365.8245 457.9898,369.6753 453.5433,369.6753 451.3201,365.8245 446.8736,365.8245 444.6503,369.6753 440.2038,369.6753 437.9805,365.8245 440.2038,361.9737 437.9805,358.123 433.534,358.123 431.3108,361.9737 433.534,365.8245 431.3108,369.6753 426.8643,369.6753 424.641,365.8245 420.1945,365.8245 417.9713,369.6753 413.5248,369.6753 411.3015,365.8245 413.5248,361.9737 417.9713,361.9737 420.1945,358.123 417.9713,354.2722 413.5248,354.2722 411.3015,350.4214 413.5248,346.5706 411.3015,342.7198 406.855,342.7198 404.6318,346.5706 406.855,350.4214 404.6318,354.2722 400.1853,354.2722 397.962,358.123 400.1853,361.9737 404.6318,361.9737 406.855,365.8245 404.6318,369.6753 400.1853,369.6753 397.962,365.8245 393.5155,365.8245 391.2923,369.6753 386.8458,369.6753 384.6225,365.8245 386.8458,361.9737 384.6225,358.123 380.176,358.123 377.9528,361.9737 380.176,365.8245 377.9528,369.6753 373.5063,369.6753 371.283,365.8245 366.8365,365.8245 364.6132,369.6753 360.1667,369.6753 357.9435,365.8245 360.1667,361.9737 364.6132,361.9737 366.8365,358.123 364.6132,354.2722 366.8365,350.4214 371.283,350.4214 373.5063,354.2722 377.9528,354.2722 380.176,350.4214 377.9528,346.5706 373.5063,346.5706 371.283,342.7198 373.5063,338.869 377.9528,338.869 380.176,335.0183 377.9528,331.1675 380.176,327.3167 384.6225,327.3167 386.8458,331.1675 384.6225,335.0183 386.8458,338.869 391.2923,338.869 393.5155,335.0183 397.962,335.0183 400.1853,338.869 404.6318,338.869 406.855,335.0183 404.6318,331.1675 400.1853,331.1675 397.962,327.3167 400.1853,323.4659 397.962,319.6151 393.5155,319.6151 391.2923,323.4659 386.8458,323.4659 384.6225,319.6151 386.8458,315.7643 391.2923,315.7643 393.5155,311.9135 391.2923,308.0628 393.5155,304.212 397.962,304.212 400.1853,308.0628 404.6318,308.0628 406.855,304.212 404.6318,300.3612 400.1853,300.3612 397.962,296.5104 400.1853,292.6596 404.6318,292.6596 406.855,288.8088 404.6318,284.9581 406.855,281.1073 411.3015,281.1073 413.5248,284.9581 411.3015,288.8088 413.5248,292.6596 417.9713,292.6596 420.1945,296.5104 417.9713,300.3612 413.5248,300.3612 411.3015,304.212 413.5248,308.0628 417.9713,308.0628 420.1945,304.212 424.641,304.212 426.8643,308.0628 431.3108,308.0628 433.534,304.212 431.3108,300.3612 433.534,296.5104 437.9805,296.5104 440.2038,300.3612 437.9805,304.212 440.2038,308.0628 444.6503,308.0628 446.8736,304.212 451.3201,304.212 453.5433,308.0628 457.9898,308.0628 460.2131,304.212 457.9898,300.3612 453.5433,300.3612 451.3201,296.5104 453.5433,292.6596 451.3201,288.8088 446.8736,288.8088 444.6503,292.6596 440.2038,292.6596 437.9805,288.8088 440.2038,284.9581 444.6503,284.9581 446.8736,281.1073 444.6503,277.2565 440.2038,277.2565 437.9805,273.4057 440.2038,269.5549 437.9805,265.7041 433.534,265.7041 431.3108,269.5549 433.534,273.4057 431.3108,277.2565 426.8643,277.2565 424.641,273.4057 420.1945,273.4057 417.9713,277.2565 413.5248,277.2565 411.3015,273.4057 413.5248,269.5549 417.9713,269.5549 420.1945,265.7041 417.9713,261.8534 420.1945,258.0026 424.641,258.0026 426.8643,261.8534 431.3108,261.8534 433.534,258.0026 431.3108,254.1518 426.8643,254.1518 424.641,250.301 426.8643,246.4502 424.641,242.5994 420.1945,242.5994 417.9713,246.4502 413.5248,246.4502 411.3015,242.5994 413.5248,238.7486 417.9713,238.7486 420.1945,234.8979 417.9713,231.0471 413.5248,231.0471 411.3015,227.1963 413.5248,223.3455 411.3015,219.4947 406.855,219.4947 404.6318,223.3455 406.855,227.1963 404.6318,231.0471 400.1853,231.0471 397.962,234.8979 400.1853,238.7486 404.6318,238.7486 406.855,242.5994 404.6318,246.4502 400.1853,246.4502 397.962,242.5994 393.5155,242.5994 391.2923,246.4502 386.8458,246.4502 384.6225,242.5994 386.8458,238.7486 384.6225,234.8979 380.176,234.8979 377.9528,238.7486 380.176,242.5994 377.9528,246.4502 373.5063,246.4502 371.283,242.5994 366.8365,242.5994 364.6132,246.4502 360.1667,246.4502 357.9435,242.5994 360.1667,238.7486 364.6132,238.7486 366.8365,234.8979 364.6132,231.0471 366.8365,227.1963 371.283,227.1963 373.5063,231.0471 377.9528,231.0471 380.176,227.1963 377.9528,223.3455 373.5063,223.3455 371.283,219.4947 373.5063,215.6439 377.9528,215.6439 380.176,211.7932 377.9528,207.9424 380.176,204.0916 384.6225,204.0916 386.8458,207.9424 384.6225,211.7932 386.8458,215.6439 391.2923,215.6439 393.5155,211.7932 397.962,211.7932 400.1853,215.6439 404.6318,215.6439 406.855,211.7932 404.6318,207.9424 400.1853,207.9424 397.962,204.0916 400.1853,200.2408 397.962,196.39 393.5155,196.39 391.2923,200.2408 386.8458,200.2408 384.6225,196.39 386.8458,192.5392 391.2923,192.5392 393.5155,188.6884 391.2923,184.8377 386.8458,184.8377 384.6225,180.9869 386.8458,177.1361 384.6225,173.2853 380.176,173.2853 377.9528,177.1361 380.176,180.9869 377.9528,184.8377 373.5063,184.8377 371.283,180.9869 366.8365,180.9869 364.6132,184.8377 360.1667,184.8377 357.9435,180.9869 360.1667,177.1361 364.6132,177.1361 366.8365,173.2853 364.6132,169.4345 366.8365,165.5837 371.283,165.5837 373.5063,169.4345 377.9528,169.4345 380.176,165.5837 377.9528,161.733 373.5063,161.733 371.283,157.8822 373.5063,154.0314 371.283,150.1806 366.8365,150.1806 364.6132,154.0314 360.1667,154.0314 357.9435,150.1806 360.1667,146.3298 364.6132,146.3298 366.8365,142.479 364.6132,138.6282 360.1667,138.6282 357.9435,134.7775 360.1667,130.9267 357.9435,127.0759 353.497,127.0759 351.2737,130.9267 353.497,134.7775 351.2737,138.6282 346.8272,138.6282 344.604,142.479 346.8272,146.3298 351.2737,146.3298 353.497,150.1806 351.2737,154.0314 346.8272,154.0314 344.604,150.1806 340.1575,150.1806 337.9342,154.0314 340.1575,157.8822 337.9342,161.733 333.4877,161.733 331.2645,165.5837 333.4877,169.4345 337.9342,169.4345 340.1575,165.5837 344.604,165.5837 346.8272,169.4345 344.604,173.2853 346.8272,177.1361 351.2737,177.1361 353.497,180.9869 351.2737,184.8377 346.8272,184.8377 344.604,180.9869 340.1575,180.9869 337.9342,184.8377 333.4877,184.8377 331.2645,180.9869 333.4877,177.1361 331.2645,173.2853 326.818,173.2853 324.5947,177.1361 326.818,180.9869 324.5947,184.8377 320.1482,184.8377 317.925,188.6884 320.1482,192.5392 324.5947,192.5392 326.818,196.39 324.5947,200.2408 320.1482,200.2408 317.925,196.39 313.4785,196.39 311.2552,200.2408 313.4785,204.0916 311.2552,207.9424 306.8087,207.9424 304.5855,211.7932 306.8087,215.6439 311.2552,215.6439 313.4785,211.7932 317.925,211.7932 320.1482,215.6439 324.5947,215.6439 326.818,211.7932 324.5947,207.9424 326.818,204.0916 331.2645,204.0916 333.4877,207.9424 331.2645,211.7932 333.4877,215.6439 337.9342,215.6439 340.1575,219.4947 337.9342,223.3455 333.4877,223.3455 331.2645,227.1963 333.4877,231.0471 337.9342,231.0471 340.1575,227.1963 344.604,227.1963 346.8272,231.0471 344.604,234.8979 346.8272,238.7486 351.2737,238.7486 353.497,242.5994 351.2737,246.4502 346.8272,246.4502 344.604,242.5994 340.1575,242.5994 337.9342,246.4502 333.4877,246.4502 331.2645,242.5994 333.4877,238.7486 331.2645,234.8979 326.818,234.8979 324.5947,238.7486 326.818,242.5994 324.5947,246.4502 320.1482,246.4502 317.925,242.5994 313.4785,242.5994 311.2552,246.4502 306.8087,246.4502 304.5855,242.5994 306.8087,238.7486 311.2552,238.7486 313.4785,234.8979 311.2552,231.0471 306.8087,231.0471 304.5855,227.1963 306.8087,223.3455 304.5855,219.4947 300.139,219.4947 297.9157,223.3455 300.139,227.1963 297.9157,231.0471 293.4692,231.0471 291.2459,234.8979 293.4692,238.7486 297.9157,238.7486 300.139,242.5994 297.9157,246.4502 293.4692,246.4502 291.2459,242.5994 286.7994,242.5994 284.5762,246.4502 280.1297,246.4502 277.9064,242.5994 280.1297,238.7486 277.9064,234.8979 273.4599,234.8979 271.2367,238.7486 273.4599,242.5994 271.2367,246.4502 266.7902,246.4502 264.5669,242.5994 260.1204,242.5994 257.8972,246.4502 253.4507,246.4502 251.2274,242.5994 253.4507,238.7486 257.8972,238.7486 260.1204,234.8979 257.8972,231.0471 260.1204,227.1963 264.5669,227.1963 266.7902,231.0471 271.2367,231.0471 273.4599,227.1963 271.2367,223.3455 266.7902,223.3455 264.5669,219.4947 266.7902,215.6439 264.5669,211.7932 260.1204,211.7932 257.8972,215.6439 253.4507,215.6439 251.2274,211.7932 253.4507,207.9424 257.8972,207.9424 260.1204,204.0916 257.8972,200.2408 253.4507,200.2408 251.2274,196.39 253.4507,192.5392 251.2274,188.6884 246.7809,188.6884 244.5577,192.5392 246.7809,196.39 244.5577,200.2408 240.1112,200.2408 237.8879,204.0916 240.1112,207.9424 244.5577,207.9424 246.7809,211.7932 244.5577,215.6439 240.1112,215.6439 237.8879,211.7932 233.4414,211.7932 231.2182,215.6439 233.4414,219.4947 231.2182,223.3455 226.7717,223.3455 224.5484,227.1963 226.7717,231.0471 231.2182,231.0471 233.4414,227.1963 237.8879,227.1963 240.1112,231.0471 237.8879,234.8979 240.1112,238.7486 244.5577,238.7486 246.7809,242.5994 244.5577,246.4502 240.1112,246.4502 237.8879,242.5994 233.4414,242.5994 231.2182,246.4502 226.7717,246.4502 224.5484,242.5994 226.7717,238.7486 224.5484,234.8979 220.1019,234.8979 217.8786,238.7486 220.1019,242.5994 217.8786,246.4502 213.4321,246.4502 211.2089,242.5994 206.7624,242.5994 204.5391,246.4502 200.0926,246.4502 197.8694,242.5994 200.0926,238.7486 204.5391,238.7486 206.7624,234.8979 204.5391,231.0471 200.0926,231.0471 197.8694,227.1963 200.0926,223.3455 197.8694,219.4947 193.4229,219.4947 191.1996,223.3455 193.4229,227.1963 191.1996,231.0471 186.7531,231.0471 184.5299,234.8979 186.7531,238.7486 191.1996,238.7486 193.4229,242.5994 191.1996,246.4502 186.7531,246.4502 184.5299,242.5994 180.0834,242.5994 177.8601,246.4502 173.4136,246.4502 171.1904,242.5994 173.4136,238.7486 171.1904,234.8979 166.7439,234.8979 164.5206,238.7486 166.7439,242.5994 164.5206,246.4502 160.0741,246.4502 157.8509,242.5994 153.4044,242.5994 151.1811,246.4502 146.7346,246.4502 144.5113,242.5994 146.7346,238.7486 151.1811,238.7486 153.4044,234.8979 151.1811,231.0471 153.4044,227.1963 157.8509,227.1963 160.0741,231.0471 164.5206,231.0471 166.7439,227.1963 164.5206,223.3455 160.0741,223.3455 157.8509,219.4947 160.0741,215.6439 164.5206,215.6439 166.7439,211.7932 164.5206,207.9424 166.7439,204.0916 171.1904,204.0916 173.4136,207.9424 171.1904,211.7932 173.4136,215.6439 177.8601,215.6439 180.0834,211.7932 184.5299,211.7932 186.7531,215.6439 191.1996,215.6439 193.4229,211.7932 191.1996,207.9424 186.7531,207.9424 184.5299,204.0916 186.7531,200.2408 184.5299,196.39 180.0834,196.39 177.8601,200.2408 173.4136,200.2408 171.1904,196.39 173.4136,192.5392 177.8601,192.5392 180.0834,188.6884 177.8601,184.8377 180.0834,180.9869 184.5299,180.9869 186.7531,184.8377 191.1996,184.8377 193.4229,180.9869 191.1996,177.1361 186.7531,177.1361 184.5299,173.2853 186.7531,169.4345 191.1996,169.4345 193.4229,165.5837 191.1996,161.733 193.4229,157.8822 197.8694,157.8822 200.0926,161.733 197.8694,165.5837 200.0926,169.4345 204.5391,169.4345 206.7624,173.2853 204.5391,177.1361 200.0926,177.1361 197.8694,180.9869 200.0926,184.8377 204.5391,184.8377 206.7624,180.9869 211.2089,180.9869 213.4321,184.8377 217.8786,184.8377 220.1019,180.9869 217.8786,177.1361 220.1019,173.2853 224.5484,173.2853 226.7717,177.1361 224.5484,180.9869 226.7717,184.8377 231.2182,184.8377 233.4414,180.9869 237.8879,180.9869 240.1112,184.8377 244.5577,184.8377 246.7809,180.9869 244.5577,177.1361 240.1112,177.1361 237.8879,173.2853 240.1112,169.4345 237.8879,165.5837 233.4414,165.5837 231.2182,169.4345 226.7717,169.4345 224.5484,165.5837 226.7717,161.733 231.2182,161.733 233.4414,157.8822 231.2182,154.0314 226.7717,154.0314 224.5484,150.1806 226.7717,146.3298 224.5484,142.479 220.1019,142.479 217.8786,146.3298 220.1019,150.1806 217.8786,154.0314 213.4321,154.0314 211.2089,150.1806 206.7624,150.1806 204.5391,154.0314 200.0926,154.0314 197.8694,150.1806 200.0926,146.3298 204.5391,146.3298 206.7624,142.479 204.5391,138.6282 206.7624,134.7775 211.2089,134.7775 213.4321,138.6282 217.8786,138.6282 220.1019,134.7775 217.8786,130.9267 213.4321,130.9267 211.2089,127.0759 213.4321,123.2251 217.8786,123.2251 220.1019,119.3743 217.8786,115.5235 220.1019,111.6728 224.5484,111.6728 226.7717,115.5235 224.5484,119.3743 226.7717,123.2251 231.2182,123.2251 233.4414,119.3743 237.8879,119.3743 240.1112,123.2251 244.5577,123.2251 246.7809,119.3743 244.5577,115.5235 240.1112,115.5235 237.8879,111.6728 240.1112,107.822 237.8879,103.9712 233.4414,103.9712 231.2182,107.822 226.7717,107.822 224.5484,103.9712 226.7717,100.1204 231.2182,100.1204 233.4414,96.2696 231.2182,92.4188 233.4414,88.568 237.8879,88.568 240.1112,92.4188 244.5577,92.4188 246.7809,88.568 244.5577,84.7173 240.1112,84.7173 237.8879,80.8665 240.1112,77.0157 244.5577,77.0157 246.7809,73.1649 244.5577,69.3141 246.7809,65.4633 251.2274,65.4633 253.4507,69.3141 251.2274,73.1649 253.4507,77.0157 257.8972,77.0157 260.1204,80.8665 257.8972,84.7173 253.4507,84.7173 251.2274,88.568 253.4507,92.4188 257.8972,92.4188 260.1204,88.568 264.5669,88.568 266.7902,92.4188 264.5669,96.2696 266.7902,100.1204 271.2367,100.1204 273.4599,103.9712 271.2367,107.822 266.7902,107.822 264.5669,103.9712 260.1204,103.9712 257.8972,107.822 260.1204,111.6728 257.8972,115.5235 253.4507,115.5235 251.2274,119.3743 253.4507,123.2251 257.8972,123.2251 260.1204,119.3743 264.5669,119.3743 266.7902,123.2251 271.2367,123.2251 273.4599,119.3743 271.2367,115.5235 273.4599,111.6728 277.9064,111.6728 280.1297,115.5235 277.9064,119.3743 280.1297,123.2251 284.5762,123.2251 286.7994,119.3743 291.2459,119.3743 293.4692,123.2251 297.9157,123.2251 300.139,119.3743 297.9157,115.5235 293.4692,115.5235 291.2459,111.6728 293.4692,107.822 297.9157,107.822 300.139,103.9712 297.9157,100.1204 300.139,96.2696 304.5855,96.2696 306.8087,100.1204 304.5855,103.9712 306.8087,107.822 311.2552,107.822 313.4785,111.6728 311.2552,115.5235 306.8087,115.5235 304.5855,119.3743 306.8087,123.2251 311.2552,123.2251 313.4785,119.3743 317.925,119.3743 320.1482,123.2251 324.5947,123.2251 326.818,119.3743 324.5947,115.5235 326.818,111.6728 331.2645,111.6728 333.4877,115.5235 331.2645,119.3743 333.4877,123.2251 337.9342,123.2251 340.1575,119.3743 344.604,119.3743 346.8272,123.2251 351.2737,123.2251 353.497,119.3743 351.2737,115.5235 346.8272,115.5235 344.604,111.6728 346.8272,107.822 344.604,103.9712 340.1575,103.9712 337.9342,107.822 333.4877,107.822 331.2645,103.9712 333.4877,100.1204 337.9342,100.1204 340.1575,96.2696 337.9342,92.4188 333.4877,92.4188 331.2645,88.568 333.4877,84.7173 331.2645,80.8665 326.818,80.8665 324.5947,84.7173 326.818,88.568 324.5947,92.4188 320.1482,92.4188 317.925,88.568 313.4785,88.568 311.2552,92.4188 306.8087,92.4188 304.5855,88.568 306.8087,84.7173 311.2552,84.7173 313.4785,80.8665 311.2552,77.0157 313.4785,73.1649 317.925,73.1649 320.1482,77.0157 324.5947,77.0157 326.818,73.1649 324.5947,69.3141 320.1482,69.3141 317.925,65.4633 320.1482,61.6126 317.925,57.7618 313.4785,57.7618 311.2552,61.6126 306.8087,61.6126 304.5855,57.7618 306.8087,53.911 311.2552,53.911 313.4785,50.0602 311.2552,46.2094 306.8087,46.2094 304.5855,42.3586 306.8087,38.5078 304.5855,34.6571 300.139,34.6571 297.9157,38.5078 300.139,42.3586 297.9157,46.2094 293.4692,46.2094 291.2459,50.0602 293.4692,53.911 297.9157,53.911 300.139,57.7618 297.9157,61.6126 293.4692,61.6126 291.2459,57.7618 286.7994,57.7618 284.5762,61.6126 280.1297,61.6126 277.9064,57.7618 280.1297,53.911 277.9064,50.0602 273.4599,50.0602 271.2367,53.911 273.4599,57.7618 271.2367,61.6126 266.7902,61.6126 264.5669,57.7618 260.1204,57.7618 257.8972,61.6126 253.4507,61.6126 251.2274,57.7618 253.4507,53.911 257.8972,53.911 260.1204,50.0602 257.8972,46.2094 260.1204,42.3586 264.5669,42.3586 266.7902,46.2094 271.2367,46.2094 273.4599,42.3586 271.2367,38.5078 266.7902,38.5078 264.5669,34.6571 266.7902,30.8063 271.2367,30.8063 273.4599,26.9555 271.2367,23.1047 273.4599,19.2539 277.9064,19.2539 280.1297,23.1047 277.9064,26.9555 280.1297,30.8063 284.5762,30.8063 286.7994,26.9555 291.2459,26.9555 293.4692,30.8063 297.9157,30.8063 300.139,26.9555 297.9157,23.1047 293.4692,23.1047 291.2459,19.2539 293.4692,15.4031 291.2459,11.5524 286.7994,11.5524 284.5762,15.4031 280.1297,15.4031 277.9064,11.5524 280.1297,7.7016 284.5762,7.7016 286.7994,3.8508 284.5762,0.0"/>
  </g>
</svg>
