<?xml version="1.0" encoding="utf-8" ?>
<svg xmlns="http://www.w3.org/2000/svg" xmlns:cc="http://creativecommons.org/ns" xmlns:dc="http://purl.org/dc/elements/1.1/" xmlns:ev="http://www.w3.org/2001/xml-events" xmlns:inkscape="http://www.inkscape.org/namespaces/inkscape" xmlns:rdf="http://www.w3.org/1999/02/22-rdf-syntax-ns" xmlns:sodipodi="http://sodipodi.sourceforge.net/DTD/sodipodi-0.dtd" xmlns:xlink="http://www.w3.org/1999/xlink" baseProfile="tiny" height="12.99038106cm" version="1.2" viewBox="0 0 566.9291338582677 490.97503206676834" width="15.0cm">
  <metadata>
    <rdf:RDF>
      <cc:Work>
        <dc:format>image/svg+xml</dc:format>
        <dc:source>vpype sierpinski-triangle -d 6 -s 150mm color '#e76f51' write sierpinski-triangle.svg
</dc:source>
        <dc:date>2026-04-03T00:17:50.651642</dc:date>
      </cc:Work>
    </rdf:RDF>
  </metadata>
  <defs/>
  <g fill="none" id="layer1" inkscape:groupmode="layer" inkscape:label="1" stroke="#e76f51" style="display:inline">
    <polygon points="0.0,0.0 8.8583,0.0 4.4291,7.6715"/>
    <polygon points="8.8583,0.0 17.7165,0.0 13.2874,7.6715"/>
    <polygon points="4.4291,7.6715 13.2874,7.6715 8.8583,15.343"/>
    <polygon points="17.7165,0.0 26.5748,0.0 22.1457,7.6715"/>
    <polygon points="26.5748,0.0 35.4331,0.0 31.0039,7.6715"/>
    <polygon points="22.1457,7.6715 31.0039,7.6715 26.5748,15.343"/>
    <polygon points="8.8583,15.343 17.7165,15.343 13.2874,23.0145"/>
    <polygon points="17.7165,15.343 26.5748,15.343 22.1457,23.0145"/>
    <polygon points="13.2874,23.0145 22.1457,23.0145 17.7165,30.6859"/>
    <polygon points="35.4331,0.0 44.2913,0.0 39.8622,7.6715"/>
    <polygon points="44.2913,0.0 53.1496,0.0 48.7205,7.6715"/>
    <polygon points="39.8622,7.6715 48.7205,7.6715 44.2913,15.343"/>
    <polygon points="53.1496,0.0 62.0079,0.0 57.5787,7.6715"/>
    <polygon points="62.0079,0.0 70.8661,0.0 66.437,7.6715"/>
    <polygon points="57.5787,7.6715 66.437,7.6715 62.0079,15.343"/>
    <polygon points="44.2913,15.343 53.1496,15.343 48.7205,23.0145"/>
    <polygon points="53.1496,15.343 62.0079,15.343 57.5787,23.0145"/>
    <polygon points="48.7205,23.0145 57.5787,23.0145 53.1496,30.6859"/>
    <polygon points="17.7165,30.6859 26.5748,30.6859 22.1457,38.3574"/>
    <polygon points="26.5748,30.6859 35.4331,30.6859 31.0039,38.3574"/>
    <polygon points="22.1457,38.3574 31.0039,38.3574 26.5748,46.0289"/>
    <polygon points="35.4331,30.6859 44.2913,30.6859 39.8622,38.3574"/>
    <polygon points="44.2913,30.6859 53.1496,30.6859 48.7205,38.3574"/>
    <polygon points="39.8622,38.3574 48.7205,38.3574 44.2913,46.0289"/>
    <polygon points="26.5748,46.0289 35.4331,46.0289 31.0039,53.7004"/>
    <polygon points="35.4331,46.0289 44.2913,46.0289 39.8622,53.7004"/>
    <polygon points="31.0039,53.7004 39.8622,53.7004 35.4331,61.3719"/>
    <polygon points="70.8661,0.0 79.7244,0.0 75.2953,7.6715"/>
    <polygon points="79.7244,0.0 88.5827,0.0 84.1535,7.6715"/>
    <polygon points="75.2953,7.6715 84.1535,7.6715 79.7244,15.343"/>
    <polygon points="88.5827,0.0 97.4409,0.0 93.0118,7.6715"/>
    <polygon points="97.4409,0.0 106.2992,0.0 101.8701,7.6715"/>
    <polygon points="93.0118,7.6715 101.8701,7.6715 97.4409,15.343"/>
    <polygon points="79.7244,15.343 88.5827,15.343 84.1535,23.0145"/>
    <polygon points="88.5827,15.343 97.4409,15.343 93.0118,23.0145"/>
    <polygon points="84.1535,23.0145 93.0118,23.0145 88.5827,30.6859"/>
    <polygon points="106.2992,0.0 115.1575,0.0 110.7283,7.6715"/>
    <polygon points="115.1575,0.0 124.0157,0.0 119.5866,7.6715"/>
    <polygon points="110.7283,7.6715 119.5866,7.6715 115.1575,15.343"/>
    <polygon points="124.0157,0.0 132.874,0.0 128.4449,7.6715"/>
    <polygon points="132.874,0.0 141.7323,0.0 137.3031,7.6715"/>
    <polygon points="128.4449,7.6715 137.3031,7.6715 132.874,15.343"/>
    <polygon points="115.1575,15.343 124.0157,15.343 119.5866,23.0145"/>
    <polygon points="124.0157,15.343 132.874,15.343 128.4449,23.0145"/>
    <polygon points="119.5866,23.0145 128.4449,23.0145 124.0157,30.6859"/>
    <polygon points="88.5827,30.6859 97.4409,30.6859 93.0118,38.3574"/>
    <polygon points="97.4409,30.6859 106.2992,30.6859 101.8701,38.3574"/>
    <polygon points="93.0118,38.3574 101.8701,38.3574 97.4409,46.0289"/>
    <polygon points="106.2992,30.6859 115.1575,30.6859 110.7283,38.3574"/>
    <polygon points="115.1575,30.6859 124.0157,30.6859 119.5866,38.3574"/>
    <polygon points="110.7283,38.3574 119.5866,38.3574 115.1575,46.0289"/>
    <polygon points="97.4409,46.0289 106.2992,46.0289 101.8701,53.7004"/>
    <polygon points="106.2992,46.0289 115.1575,46.0289 110.7283,53.7004"/>
    <polygon points="101.8701,53.7004 110.7283,53.7004 106.2992,61.3719"/>
    <polygon points="35.4331,61.3719 44.2913,61.3719 39.8622,69.0434"/>
    <polygon points="44.2913,61.3719 53.1496,61.3719 48.7205,69.0434"/>
    <polygon points="39.8622,69.0434 48.7205,69.0434 44.2913,76.7148"/>
    <polygon points="53.1496,61.3719 62.0079,61.3719 57.5787,69.0434"/>
    <polygon points="62.0079,61.3719 70.8661,61.3719 66.437,69.0434"/>
    <polygon points="57.5787,69.0434 66.437,69.0434 62.0079,76.7148"/>
    <polygon points="44.2913,76.7148 53.1496,76.7148 48.7205,84.3863"/>
    <polygon points="53.1496,76.7148 62.0079,76.7148 57.5787,84.3863"/>
    <polygon points="48.7205,84.3863 57.5787,84.3863 53.1496,92.0578"/>
    <polygon points="70.8661,61.3719 79.7244,61.3719 75.2953,69.0434"/>
    <polygon points="79.7244,61.3719 88.5827,61.3719 84.1535,69.0434"/>
    <polygon points="75.2953,69.0434 84.1535,69.0434 79.7244,76.7148"/>
    <polygon points="88.5827,61.3719 97.4409,61.3719 93.0118,69.0434"/>
    <polygon points="97.4409,61.3719 106.2992,61.3719 101.8701,69.0434"/>
    <polygon points="93.0118,69.0434 101.8701,69.0434 97.4409,76.7148"/>
    <polygon points="79.7244,76.7148 88.5827,76.7148 84.1535,84.3863"/>
    <polygon points="88.5827,76.7148 97.4409,76.7148 93.0118,84.3863"/>
    <polygon points="84.1535,84.3863 93.0118,84.3863 88.5827,92.0578"/>
    <polygon points="53.1496,92.0578 62.0079,92.0578 57.5787,99.7293"/>
    <polygon points="62.0079,92.0578 70.8661,92.0578 66.437,99.7293"/>
    <polygon points="57.5787,99.7293 66.437,99.7293 62.0079,107.4008"/>
    <polygon points="70.8661,92.0578 79.7244,92.0578 75.2953,99.7293"/>
    <polygon points="79.7244,92.0578 88.5827,92.0578 84.1535,99.7293"/>
    <polygon points="75.2953,99.7293 84.1535,99.7293 79.7244,107.4008"/>
    <polygon points="62.0079,107.4008 70.8661,107.4008 66.437,115.0723"/>
    <polygon points="70.8661,107.4008 79.7244,107.4008 75.2953,115.0723"/>
    <polygon points="66.437,115.0723 75.2953,115.0723 70.8661,122.7438"/>
    <polygon points="141.7323,0.0 150.5906,0.0 146.1614,7.6715"/>
    <polygon points="150.5906,0.0 159.4488,0.0 155.0197,7.6715"/>
    <polygon points="146.1614,7.6715 155.0197,7.6715 150.5906,15.343"/>
    <polygon points="159.4488,0.0 168.3071,0.0 163.878,7.6715"/>
    <polygon points="168.3071,0.0 177.1654,0.0 172.7362,7.6715"/>
    <polygon points="163.878,7.6715 172.7362,7.6715 168.3071,15.343"/>
    <polygon points="150.5906,15.343 159.4488,15.343 155.0197,23.0145"/>
    <polygon points="159.4488,15.343 168.3071,15.343 163.878,23.0145"/>
    <polygon points="155.0197,23.0145 163.878,23.0145 159.4488,30.6859"/>
    <polygon points="177.1654,0.0 186.0236,0.0 181.5945,7.6715"/>
    <polygon points="186.0236,0.0 194.8819,0.0 190.4528,7.6715"/>
    <polygon points="181.5945,7.6715 190.4528,7.6715 186.0236,15.343"/>
    <polygon points="194.8819,0.0 203.7402,0.0 199.311,7.6715"/>
    <polygon points="203.7402,0.0 212.5984,0.0 208.1693,7.6715"/>
    <polygon points="199.311,7.6715 208.1693,7.6715 203.7402,15.343"/>
    <polygon points="186.0236,15.343 194.8819,15.343 190.4528,23.0145"/>
    <polygon points="194.8819,15.343 203.7402,15.343 199.311,23.0145"/>
    <polygon points="190.4528,23.0145 199.311,23.0145 194.8819,30.6859"/>
    <polygon points="159.4488,30.6859 168.3071,30.6859 163.878,38.3574"/>
    <polygon points="168.3071,30.6859 177.1654,30.6859 172.7362,38.3574"/>
    <polygon points="163.878,38.3574 172.7362,38.3574 168.3071,46.0289"/>
    <polygon points="177.1654,30.6859 186.0236,30.6859 181.5945,38.3574"/>
    <polygon points="186.0236,30.6859 194.8819,30.6859 190.4528,38.3574"/>
    <polygon points="181.5945,38.3574 190.4528,38.3574 186.0236,46.0289"/>
    <polygon points="168.3071,46.0289 177.1654,46.0289 172.7362,53.7004"/>
    <polygon points="177.1654,46.0289 186.0236,46.0289 181.5945,53.7004"/>
    <polygon points="172.7362,53.7004 181.5945,53.7004 177.1654,61.3719"/>
    <polygon points="212.5984,0.0 221.4567,0.0 217.0276,7.6715"/>
    <polygon points="221.4567,0.0 230.315,0.0 225.8858,7.6715"/>
    <polygon points="217.0276,7.6715 225.8858,7.6715 221.4567,15.343"/>
    <polygon points="230.315,0.0 239.1732,0.0 234.7441,7.6715"/>
    <polygon points="239.1732,0.0 248.0315,0.0 243.6024,7.6715"/>
    <polygon points="234.7441,7.6715 243.6024,7.6715 239.1732,15.343"/>
    <polygon points="221.4567,15.343 230.315,15.343 225.8858,23.0145"/>
    <polygon points="230.315,15.343 239.1732,15.343 234.7441,23.0145"/>
    <polygon points="225.8858,23.0145 234.7441,23.0145 230.315,30.6859"/>
    <polygon points="248.0315,0.0 256.8898,0.0 252.4606,7.6715"/>
    <polygon points="256.8898,0.0 265.748,0.0 261.3189,7.6715"/>
    <polygon points="252.4606,7.6715 261.3189,7.6715 256.8898,15.343"/>
    <polygon points="265.748,0.0 274.6063,0.0 270.1772,7.6715"/>
    <polygon points="274.6063,0.0 283.4646,0.0 279.0354,7.6715"/>
    <polygon points="270.1772,7.6715 279.0354,7.6715 274.6063,15.343"/>
    <polygon points="256.8898,15.343 265.748,15.343 261.3189,23.0145"/>
    <polygon points="265.748,15.343 274.6063,15.343 270.1772,23.0145"/>
    <polygon points="261.3189,23.0145 270.1772,23.0145 265.748,30.6859"/>
    <polygon points="230.315,30.6859 239.1732,30.6859 234.7441,38.3574"/>
    <polygon points="239.1732,30.6859 248.0315,30.6859 243.6024,38.3574"/>
    <polygon points="234.7441,38.3574 243.6024,38.3574 239.1732,46.0289"/>
    <polygon points="248.0315,30.6859 256.8898,30.6859 252.4606,38.3574"/>
    <polygon points="256.8898,30.6859 265.748,30.6859 261.3189,38.3574"/>
    <polygon points="252.4606,38.3574 261.3189,38.3574 256.8898,46.0289"/>
    <polygon points="239.1732,46.0289 248.0315,46.0289 243.6024,53.7004"/>
    <polygon points="248.0315,46.0289 256.8898,46.0289 252.4606,53.7004"/>
    <polygon points="243.6024,53.7004 252.4606,53.7004 248.0315,61.3719"/>
    <polygon points="177.1654,61.3719 186.0236,61.3719 181.5945,69.0434"/>
    <polygon points="186.0236,61.3719 194.8819,61.3719 190.4528,69.0434"/>
    <polygon points="181.5945,69.0434 190.4528,69.0434 186.0236,76.7148"/>
    <polygon points="194.8819,61.3719 203.7402,61.3719 199.311,69.0434"/>
    <polygon points="203.7402,61.3719 212.5984,61.3719 208.1693,69.0434"/>
    <polygon points="199.311,69.0434 208.1693,69.0434 203.7402,76.7148"/>
    <polygon points="186.0236,76.7148 194.8819,76.7148 190.4528,84.3863"/>
    <polygon points="194.8819,76.7148 203.7402,76.7148 199.311,84.3863"/>
    <polygon points="190.4528,84.3863 199.311,84.3863 194.8819,92.0578"/>
    <polygon points="212.5984,61.3719 221.4567,61.3719 217.0276,69.0434"/>
    <polygon points="221.4567,61.3719 230.315,61.3719 225.8858,69.0434"/>
    <polygon points="217.0276,69.0434 225.8858,69.0434 221.4567,76.7148"/>
    <polygon points="230.315,61.3719 239.1732,61.3719 234.7441,69.0434"/>
    <polygon points="239.1732,61.3719 248.0315,61.3719 243.6024,69.0434"/>
    <polygon points="234.7441,69.0434 243.6024,69.0434 239.1732,76.7148"/>
    <polygon points="221.4567,76.7148 230.315,76.7148 225.8858,84.3863"/>
    <polygon points="230.315,76.7148 239.1732,76.7148 234.7441,84.3863"/>
    <polygon points="225.8858,84.3863 234.7441,84.3863 230.315,92.0578"/>
    <polygon points="194.8819,92.0578 203.7402,92.0578 199.311,99.7293"/>
    <polygon points="203.7402,92.0578 212.5984,92.0578 208.1693,99.7293"/>
    <polygon points="199.311,99.7293 208.1693,99.7293 203.7402,107.4008"/>
    <polygon points="212.5984,92.0578 221.4567,92.0578 217.0276,99.7293"/>
    <polygon points="221.4567,92.0578 230.315,92.0578 225.8858,99.7293"/>
    <polygon points="217.0276,99.7293 225.8858,99.7293 221.4567,107.4008"/>
    <polygon points="203.7402,107.4008 212.5984,107.4008 208.1693,115.0723"/>
    <polygon points="212.5984,107.4008 221.4567,107.4008 217.0276,115.0723"/>
    <polygon points="208.1693,115.0723 217.0276,115.0723 212.5984,122.7438"/>
    <polygon points="70.8661,122.7438 79.7244,122.7438 75.2953,130.4152"/>
    <polygon points="79.7244,122.7438 88.5827,122.7438 84.1535,130.4152"/>
    <polygon points="75.2953,130.4152 84.1535,130.4152 79.7244,138.0867"/>
    <polygon points="88.5827,122.7438 97.4409,122.7438 93.0118,130.4152"/>
    <polygon points="97.4409,122.7438 106.2992,122.7438 101.8701,130.4152"/>
    <polygon points="93.0118,130.4152 101.8701,130.4152 97.4409,138.0867"/>
    <polygon points="79.7244,138.0867 88.5827,138.0867 84.1535,145.7582"/>
    <polygon points="88.5827,138.0867 97.4409,138.0867 93.0118,145.7582"/>
    <polygon points="84.1535,145.7582 93.0118,145.7582 88.5827,153.4297"/>
    <polygon points="106.2992,122.7438 115.1575,122.7438 110.7283,130.4152"/>
    <polygon points="115.1575,122.7438 124.0157,122.7438 119.5866,130.4152"/>
    <polygon points="110.7283,130.4152 119.5866,130.4152 115.1575,138.0867"/>
    <polygon points="124.0157,122.7438 132.874,122.7438 128.4449,130.4152"/>
    <polygon points="132.874,122.7438 141.7323,122.7438 137.3031,130.4152"/>
    <polygon points="128.4449,130.4152 137.3031,130.4152 132.874,138.0867"/>
    <polygon points="115.1575,138.0867 124.0157,138.0867 119.5866,145.7582"/>
    <polygon points="124.0157,138.0867 132.874,138.0867 128.4449,145.7582"/>
    <polygon points="119.5866,145.7582 128.4449,145.7582 124.0157,153.4297"/>
    <polygon points="88.5827,153.4297 97.4409,153.4297 93.0118,161.1012"/>
    <polygon points="97.4409,153.4297 106.2992,153.4297 101.8701,161.1012"/>
    <polygon points="93.0118,161.1012 101.8701,161.1012 97.4409,168.7727"/>
    <polygon points="106.2992,153.4297 115.1575,153.4297 110.7283,161.1012"/>
    <polygon points="115.1575,153.4297 124.0157,153.4297 119.5866,161.1012"/>
    <polygon points="110.7283,161.1012 119.5866,161.1012 115.1575,168.7727"/>
    <polygon points="97.4409,168.7727 106.2992,168.7727 101.8701,176.4442"/>
    <polygon points="106.2992,168.7727 115.1575,168.7727 110.7283,176.4442"/>
    <polygon points="101.8701,176.4442 110.7283,176.4442 106.2992,184.1156"/>
    <polygon points="141.7323,122.7438 150.5906,122.7438 146.1614,130.4152"/>
    <polygon points="150.5906,122.7438 159.4488,122.7438 155.0197,130.4152"/>
    <polygon points="146.1614,130.4152 155.0197,130.4152 150.5906,138.0867"/>
    <polygon points="159.4488,122.7438 168.3071,122.7438 163.878,130.4152"/>
    <polygon points="168.3071,122.7438 177.1654,122.7438 172.7362,130.4152"/>
    <polygon points="163.878,130.4152 172.7362,130.4152 168.3071,138.0867"/>
    <polygon points="150.5906,138.0867 159.4488,138.0867 155.0197,145.7582"/>
    <polygon points="159.4488,138.0867 168.3071,138.0867 163.878,145.7582"/>
    <polygon points="155.0197,145.7582 163.878,145.7582 159.4488,153.4297"/>
    <polygon points="177.1654,122.7438 186.0236,122.7438 181.5945,130.4152"/>
    <polygon points="186.0236,122.7438 194.8819,122.7438 190.4528,130.4152"/>
    <polygon points="181.5945,130.4152 190.4528,130.4152 186.0236,138.0867"/>
    <polygon points="194.8819,122.7438 203.7402,122.7438 199.311,130.4152"/>
    <polygon points="203.7402,122.7438 212.5984,122.7438 208.1693,130.4152"/>
    <polygon points="199.311,130.4152 208.1693,130.4152 203.7402,138.0867"/>
    <polygon points="186.0236,138.0867 194.8819,138.0867 190.4528,145.7582"/>
    <polygon points="194.8819,138.0867 203.7402,138.0867 199.311,145.7582"/>
    <polygon points="190.4528,145.7582 199.311,145.7582 194.8819,153.4297"/>
    <polygon points="159.4488,153.4297 168.3071,153.4297 163.878,161.1012"/>
    <polygon points="168.3071,153.4297 177.1654,153.4297 172.7362,161.1012"/>
    <polygon points="163.878,161.1012 172.7362,161.1012 168.3071,168.7727"/>
    <polygon points="177.1654,153.4297 186.0236,153.4297 181.5945,161.1012"/>
    <polygon points="186.0236,153.4297 194.8819,153.4297 190.4528,161.1012"/>
    <polygon points="181.5945,161.1012 190.4528,161.1012 186.0236,168.7727"/>
    <polygon points="168.3071,168.7727 177.1654,168.7727 172.7362,176.4442"/>
    <polygon points="177.1654,168.7727 186.0236,168.7727 181.5945,176.4442"/>
    <polygon points="172.7362,176.4442 181.5945,176.4442 177.1654,184.1156"/>
    <polygon points="106.2992,184.1156 115.1575,184.1156 110.7283,191.7871"/>
    <polygon points="115.1575,184.1156 124.0157,184.1156 119.5866,191.7871"/>
    <polygon points="110.7283,191.7871 119.5866,191.7871 115.1575,199.4586"/>
    <polygon points="124.0157,184.1156 132.874,184.1156 128.4449,191.7871"/>
    <polygon points="132.874,184.1156 141.7323,184.1156 137.3031,191.7871"/>
    <polygon points="128.4449,191.7871 137.3031,191.7871 132.874,199.4586"/>
    <polygon points="115.1575,199.4586 124.0157,199.4586 119.5866,207.1301"/>
    <polygon points="124.0157,199.4586 132.874,199.4586 128.4449,207.1301"/>
    <polygon points="119.5866,207.1301 128.4449,207.1301 124.0157,214.8016"/>
    <polygon points="141.7323,184.1156 150.5906,184.1156 146.1614,191.7871"/>
    <polygon points="150.5906,184.1156 159.4488,184.1156 155.0197,191.7871"/>
    <polygon points="146.1614,191.7871 155.0197,191.7871 150.5906,199.4586"/>
    <polygon points="159.4488,184.1156 168.3071,184.1156 163.878,191.7871"/>
    <polygon points="168.3071,184.1156 177.1654,184.1156 172.7362,191.7871"/>
    <polygon points="163.878,191.7871 172.7362,191.7871 168.3071,199.4586"/>
    <polygon points="150.5906,199.4586 159.4488,199.4586 155.0197,207.1301"/>
    <polygon points="159.4488,199.4586 168.3071,199.4586 163.878,207.1301"/>
    <polygon points="155.0197,207.1301 163.878,207.1301 159.4488,214.8016"/>
    <polygon points="124.0157,214.8016 132.874,214.8016 128.4449,222.4731"/>
    <polygon points="132.874,214.8016 141.7323,214.8016 137.3031,222.4731"/>
    <polygon points="128.4449,222.4731 137.3031,222.4731 132.874,230.1445"/>
    <polygon points="141.7323,214.8016 150.5906,214.8016 146.1614,222.4731"/>
    <polygon points="150.5906,214.8016 159.4488,214.8016 155.0197,222.4731"/>
    <polygon points="146.1614,222.4731 155.0197,222.4731 150.5906,230.1445"/>
    <polygon points="132.874,230.1445 141.7323,230.1445 137.3031,237.816"/>
    <polygon points="141.7323,230.1445 150.5906,230.1445 146.1614,237.816"/>
    <polygon points="137.3031,237.816 146.1614,237.816 141.7323,245.4875"/>
    <polygon points="283.4646,0.0 292.3228,0.0 287.8937,7.6715"/>
    <polygon points="292.3228,0.0 301.1811,0.0 296.752,7.6715"/>
    <polygon points="287.8937,7.6715 296.752,7.6715 292.3228,15.343"/>
    <polygon points="301.1811,0.0 310.0394,0.0 305.6102,7.6715"/>
    <polygon points="310.0394,0.0 318.8976,0.0 314.4685,7.6715"/>
    <polygon points="305.6102,7.6715 314.4685,7.6715 310.0394,15.343"/>
    <polygon points="292.3228,15.343 301.1811,15.343 296.752,23.0145"/>
    <polygon points="301.1811,15.343 310.0394,15.343 305.6102,23.0145"/>
    <polygon points="296.752,23.0145 305.6102,23.0145 301.1811,30.6859"/>
    <polygon points="318.8976,0.0 327.7559,0.0 323.3268,7.6715"/>
    <polygon points="327.7559,0.0 336.6142,0.0 332.185,7.6715"/>
    <polygon points="323.3268,7.6715 332.185,7.6715 327.7559,15.343"/>
    <polygon points="336.6142,0.0 345.4724,0.0 341.0433,7.6715"/>
    <polygon points="345.4724,0.0 354.3307,0.0 349.9016,7.6715"/>
    <polygon points="341.0433,7.6715 349.9016,7.6715 345.4724,15.343"/>
    <polygon points="327.7559,15.343 336.6142,15.343 332.185,23.0145"/>
    <polygon points="336.6142,15.343 345.4724,15.343 341.0433,23.0145"/>
    <polygon points="332.185,23.0145 341.0433,23.0145 336.6142,30.6859"/>
    <polygon points="301.1811,30.6859 310.0394,30.6859 305.6102,38.3574"/>
    <polygon points="310.0394,30.6859 318.8976,30.6859 314.4685,38.3574"/>
    <polygon points="305.6102,38.3574 314.4685,38.3574 310.0394,46.0289"/>
    <polygon points="318.8976,30.6859 327.7559,30.6859 323.3268,38.3574"/>
    <polygon points="327.7559,30.6859 336.6142,30.6859 332.185,38.3574"/>
    <polygon points="323.3268,38.3574 332.185,38.3574 327.7559,46.0289"/>
    <polygon points="310.0394,46.0289 318.8976,46.0289 314.4685,53.7004"/>
    <polygon points="318.8976,46.0289 327.7559,46.0289 323.3268,53.7004"/>
    <polygon points="314.4685,53.7004 323.3268,53.7004 318.8976,61.3719"/>
    <polygon points="354.3307,0.0 363.189,0.0 358.7598,7.6715"/>
    <polygon points="363.189,0.0 372.0472,0.0 367.6181,7.6715"/>
    <polygon points="358.7598,7.6715 367.6181,7.6715 363.189,15.343"/>
    <polygon points="372.0472,0.0 380.9055,0.0 376.4764,7.6715"/>
    <polygon points="380.9055,0.0 389.7638,0.0 385.3346,7.6715"/>
    <polygon points="376.4764,7.6715 385.3346,7.6715 380.9055,15.343"/>
    <polygon points="363.189,15.343 372.0472,15.343 367.6181,23.0145"/>
    <polygon points="372.0472,15.343 380.9055,15.343 376.4764,23.0145"/>
    <polygon points="367.6181,23.0145 376.4764,23.0145 372.0472,30.6859"/>
    <polygon points="389.7638,0.0 398.622,0.0 394.1929,7.6715"/>
    <polygon points="398.622,0.0 407.4803,0.0 403.0512,7.6715"/>
    <polygon points="394.1929,7.6715 403.0512,7.6715 398.622,15.343"/>
    <polygon points="407.4803,0.0 416.3386,0.0 411.9094,7.6715"/>
    <polygon points="416.3386,0.0 425.1969,0.0 420.7677,7.6715"/>
    <polygon points="411.9094,7.6715 420.7677,7.6715 416.3386,15.343"/>
    <polygon points="398.622,15.343 407.4803,15.343 403.0512,23.0145"/>
    <polygon points="407.4803,15.343 416.3386,15.343 411.9094,23.0145"/>
    <polygon points="403.0512,23.0145 411.9094,23.0145 407.4803,30.6859"/>
    <polygon points="372.0472,30.6859 380.9055,30.6859 376.4764,38.3574"/>
    <polygon points="380.9055,30.6859 389.7638,30.6859 385.3346,38.3574"/>
    <polygon points="376.4764,38.3574 385.3346,38.3574 380.9055,46.0289"/>
    <polygon points="389.7638,30.6859 398.622,30.6859 394.1929,38.3574"/>
    <polygon points="398.622,30.6859 407.4803,30.6859 403.0512,38.3574"/>
    <polygon points="394.1929,38.3574 403.0512,38.3574 398.622,46.0289"/>
    <polygon points="380.9055,46.0289 389.7638,46.0289 385.3346,53.7004"/>
    <polygon points="389.7638,46.0289 398.622,46.0289 394.1929,53.7004"/>
    <polygon points="385.3346,53.7004 394.1929,53.7004 389.7638,61.3719"/>
    <polygon points="318.8976,61.3719 327.7559,61.3719 323.3268,69.0434"/>
    <polygon points="327.7559,61.3719 336.6142,61.3719 332.185,69.0434"/>
    <polygon points="323.3268,69.0434 332.185,69.0434 327.7559,76.7148"/>
    <polygon points="336.6142,61.3719 345.4724,61.3719 341.0433,69.0434"/>
    <polygon points="345.4724,61.3719 354.3307,61.3719 349.9016,69.0434"/>
    <polygon points="341.0433,69.0434 349.9016,69.0434 345.4724,76.7148"/>
    <polygon points="327.7559,76.7148 336.6142,76.7148 332.185,84.3863"/>
    <polygon points="336.6142,76.7148 345.4724,76.7148 341.0433,84.3863"/>
    <polygon points="332.185,84.3863 341.0433,84.3863 336.6142,92.0578"/>
    <polygon points="354.3307,61.3719 363.189,61.3719 358.7598,69.0434"/>
    <polygon points="363.189,61.3719 372.0472,61.3719 367.6181,69.0434"/>
    <polygon points="358.7598,69.0434 367.6181,69.0434 363.189,76.7148"/>
    <polygon points="372.0472,61.3719 380.9055,61.3719 376.4764,69.0434"/>
    <polygon points="380.9055,61.3719 389.7638,61.3719 385.3346,69.0434"/>
    <polygon points="376.4764,69.0434 385.3346,69.0434 380.9055,76.7148"/>
    <polygon points="363.189,76.7148 372.0472,76.7148 367.6181,84.3863"/>
    <polygon points="372.0472,76.7148 380.9055,76.7148 376.4764,84.3863"/>
    <polygon points="367.6181,84.3863 376.4764,84.3863 372.0472,92.0578"/>
    <polygon points="336.6142,92.0578 345.4724,92.0578 341.0433,99.7293"/>
    <polygon points="345.4724,92.0578 354.3307,92.0578 349.9016,99.7293"/>
    <polygon points="341.0433,99.7293 349.9016,99.7293 345.4724,107.4008"/>
    <polygon points="354.3307,92.0578 363.189,92.0578 358.7598,99.7293"/>
    <polygon points="363.189,92.0578 372.0472,92.0578 367.6181,99.7293"/>
    <polygon points="358.7598,99.7293 367.6181,99.7293 363.189,107.4008"/>
    <polygon points="345.4724,107.4008 354.3307,107.4008 349.9016,115.0723"/>
    <polygon points="354.3307,107.4008 363.189,107.4008 358.7598,115.0723"/>
    <polygon points="349.9016,115.0723 358.7598,115.0723 354.3307,122.7438"/>
    <polygon points="425.1969,0.0 434.0551,0.0 429.626,7.6715"/>
    <polygon points="434.0551,0.0 442.9134,0.0 438.4843,7.6715"/>
    <polygon points="429.626,7.6715 438.4843,7.6715 434.0551,15.343"/>
    <polygon points="442.9134,0.0 451.7717,0.0 447.3425,7.6715"/>
    <polygon points="451.7717,0.0 460.6299,0.0 456.2008,7.6715"/>
    <polygon points="447.3425,7.6715 456.2008,7.6715 451.7717,15.343"/>
    <polygon points="434.0551,15.343 442.9134,15.343 438.4843,23.0145"/>
    <polygon points="442.9134,15.343 451.7717,15.343 447.3425,23.0145"/>
    <polygon points="438.4843,23.0145 447.3425,23.0145 442.9134,30.6859"/>
    <polygon points="460.6299,0.0 469.4882,0.0 465.0591,7.6715"/>
    <polygon points="469.4882,0.0 478.3465,0.0 473.9173,7.6715"/>
    <polygon points="465.0591,7.6715 473.9173,7.6715 469.4882,15.343"/>
    <polygon points="478.3465,0.0 487.2047,0.0 482.7756,7.6715"/>
    <polygon points="487.2047,0.0 496.063,0.0 491.6339,7.6715"/>
    <polygon points="482.7756,7.6715 491.6339,7.6715 487.2047,15.343"/>
    <polygon points="469.4882,15.343 478.3465,15.343 473.9173,23.0145"/>
    <polygon points="478.3465,15.343 487.2047,15.343 482.7756,23.0145"/>
    <polygon points="473.9173,23.0145 482.7756,23.0145 478.3465,30.6859"/>
    <polygon points="442.9134,30.6859 451.7717,30.6859 447.3425,38.3574"/>
    <polygon points="451.7717,30.6859 460.6299,30.6859 456.2008,38.3574"/>
    <polygon points="447.3425,38.3574 456.2008,38.3574 451.7717,46.0289"/>
    <polygon points="460.6299,30.6859 469.4882,30.6859 465.0591,38.3574"/>
    <polygon points="469.4882,30.6859 478.3465,30.6859 473.9173,38.3574"/>
    <polygon points="465.0591,38.3574 473.9173,38.3574 469.4882,46.0289"/>
    <polygon points="451.7717,46.0289 460.6299,46.0289 456.2008,53.7004"/>
    <polygon points="460.6299,46.0289 469.4882,46.0289 465.0591,53.7004"/>
    <polygon points="456.2008,53.7004 465.0591,53.7004 460.6299,61.3719"/>
    <polygon points="496.063,0.0 504.9213,0.0 500.4921,7.6715"/>
    <polygon points="504.9213,0.0 513.7795,0.0 509.3504,7.6715"/>
    <polygon points="500.4921,7.6715 509.3504,7.6715 504.9213,15.343"/>
    <polygon points="513.7795,0.0 522.6378,0.0 518.2087,7.6715"/>
    <polygon points="522.6378,0.0 531.4961,0.0 527.0669,7.6715"/>
    <polygon points="518.2087,7.6715 527.0669,7.6715 522.6378,15.343"/>
    <polygon points="504.9213,15.343 513.7795,15.343 509.3504,23.0145"/>
    <polygon points="513.7795,15.343 522.6378,15.343 518.2087,23.0145"/>
    <polygon points="509.3504,23.0145 518.2087,23.0145 513.7795,30.6859"/>
    <polygon points="531.4961,0.0 540.3543,0.0 535.9252,7.6715"/>
    <polygon points="540.3543,0.0 549.2126,0.0 544.7835,7.6715"/>
    <polygon points="535.9252,7.6715 544.7835,7.6715 540.3543,15.343"/>
    <polygon points="549.2126,0.0 558.0709,0.0 553.6417,7.6715"/>
    <polygon points="558.0709,0.0 566.9291,0.0 562.5,7.6715"/>
    <polygon points="553.6417,7.6715 562.5,7.6715 558.0709,15.343"/>
    <polygon points="540.3543,15.343 549.2126,15.343 544.7835,23.0145"/>
    <polygon points="549.2126,15.343 558.0709,15.343 553.6417,23.0145"/>
    <polygon points="544.7835,23.0145 553.6417,23.0145 549.2126,30.6859"/>
    <polygon points="513.7795,30.6859 522.6378,30.6859 518.2087,38.3574"/>
    <polygon points="522.6378,30.6859 531.4961,30.6859 527.0669,38.3574"/>
    <polygon points="518.2087,38.3574 527.0669,38.3574 522.6378,46.0289"/>
    <polygon points="531.4961,30.6859 540.3543,30.6859 535.9252,38.3574"/>
    <polygon points="540.3543,30.6859 549.2126,30.6859 544.7835,38.3574"/>
    <polygon points="535.9252,38.3574 544.7835,38.3574 540.3543,46.0289"/>
    <polygon points="522.6378,46.0289 531.4961,46.0289 527.0669,53.7004"/>
    <polygon points="531.4961,46.0289 540.3543,46.0289 535.9252,53.7004"/>
    <polygon points="527.0669,53.7004 535.9252,53.7004 531.4961,61.3719"/>
    <polygon points="460.6299,61.3719 469.4882,61.3719 465.0591,69.0434"/>
    <polygon points="469.4882,61.3719 478.3465,61.3719 473.9173,69.0434"/>
    <polygon points="465.0591,69.0434 473.9173,69.0434 469.4882,76.7148"/>
    <polygon points="478.3465,61.3719 487.2047,61.3719 482.7756,69.0434"/>
    <polygon points="487.2047,61.3719 496.063,61.3719 491.6339,69.0434"/>
    <polygon points="482.7756,69.0434 491.6339,69.0434 487.2047,76.7148"/>
    <polygon points="469.4882,76.7148 478.3465,76.7148 473.9173,84.3863"/>
    <polygon points="478.3465,76.7148 487.2047,76.7148 482.7756,84.3863"/>
    <polygon points="473.9173,84.3863 482.7756,84.3863 478.3465,92.0578"/>
    <polygon points="496.063,61.3719 504.9213,61.3719 500.4921,69.0434"/>
    <polygon points="504.9213,61.3719 513.7795,61.3719 509.3504,69.0434"/>
    <polygon points="500.4921,69.0434 509.3504,69.0434 504.9213,76.7148"/>
    <polygon points="513.7795,61.3719 522.6378,61.3719 518.2087,69.0434"/>
    <polygon points="522.6378,61.3719 531.4961,61.3719 527.0669,69.0434"/>
    <polygon points="518.2087,69.0434 527.0669,69.0434 522.6378,76.7148"/>
    <polygon points="504.9213,76.7148 513.7795,76.7148 509.3504,84.3863"/>
    <polygon points="513.7795,76.7148 522.6378,76.7148 518.2087,84.3863"/>
    <polygon points="509.3504,84.3863 518.2087,84.3863 513.7795,92.0578"/>
    <polygon points="478.3465,92.0578 487.2047,92.0578 482.7756,99.7293"/>
    <polygon points="487.2047,92.0578 496.063,92.0578 491.6339,99.7293"/>
    <polygon points="482.7756,99.7293 491.6339,99.7293 487.2047,107.4008"/>
    <polygon points="496.063,92.0578 504.9213,92.0578 500.4921,99.7293"/>
    <polygon points="504.9213,92.0578 513.7795,92.0578 509.3504,99.7293"/>
    <polygon points="500.4921,99.7293 509.3504,99.7293 504.9213,107.4008"/>
    <polygon points="487.2047,107.4008 496.063,107.4008 491.6339,115.0723"/>
    <polygon points="496.063,107.4008 504.9213,107.4008 500.4921,115.0723"/>
    <polygon points="491.6339,115.0723 500.4921,115.0723 496.063,122.7438"/>
    <polygon points="354.3307,122.7438 363.189,122.7438 358.7598,130.4152"/>
    <polygon points="363.189,122.7438 372.0472,122.7438 367.6181,130.4152"/>
    <polygon points="358.7598,130.4152 367.6181,130.4152 363.189,138.0867"/>
    <polygon points="372.0472,122.7438 380.9055,122.7438 376.4764,130.4152"/>
    <polygon points="380.9055,122.7438 389.7638,122.7438 385.3346,130.4152"/>
    <polygon points="376.4764,130.4152 385.3346,130.4152 380.9055,138.0867"/>
    <polygon points="363.189,138.0867 372.0472,138.0867 367.6181,145.7582"/>
    <polygon points="372.0472,138.0867 380.9055,138.0867 376.4764,145.7582"/>
    <polygon points="367.6181,145.7582 376.4764,145.7582 372.0472,153.4297"/>
    <polygon points="389.7638,122.7438 398.622,122.7438 394.1929,130.4152"/>
    <polygon points="398.622,122.7438 407.4803,122.7438 403.0512,130.4152"/>
    <polygon points="394.1929,130.4152 403.0512,130.4152 398.622,138.0867"/>
    <polygon points="407.4803,122.7438 416.3386,122.7438 411.9094,130.4152"/>
    <polygon points="416.3386,122.7438 425.1969,122.7438 420.7677,130.4152"/>
    <polygon points="411.9094,130.4152 420.7677,130.4152 416.3386,138.0867"/>
    <polygon points="398.622,138.0867 407.4803,138.0867 403.0512,145.7582"/>
    <polygon points="407.4803,138.0867 416.3386,138.0867 411.9094,145.7582"/>
    <polygon points="403.0512,145.7582 411.9094,145.7582 407.4803,153.4297"/>
    <polygon points="372.0472,153.4297 380.9055,153.4297 376.4764,161.1012"/>
    <polygon points="380.9055,153.4297 389.7638,153.4297 385.3346,161.1012"/>
    <polygon points="376.4764,161.1012 385.3346,161.1012 380.9055,168.7727"/>
    <polygon points="389.7638,153.4297 398.622,153.4297 394.1929,161.1012"/>
    <polygon points="398.622,153.4297 407.4803,153.4297 403.0512,161.1012"/>
    <polygon points="394.1929,161.1012 403.0512,161.1012 398.622,168.7727"/>
    <polygon points="380.9055,168.7727 389.7638,168.7727 385.3346,176.4442"/>
    <polygon points="389.7638,168.7727 398.622,168.7727 394.1929,176.4442"/>
    <polygon points="385.3346,176.4442 394.1929,176.4442 389.7638,184.1156"/>
    <polygon points="425.1969,122.7438 434.0551,122.7438 429.626,130.4152"/>
    <polygon points="434.0551,122.7438 442.9134,122.7438 438.4843,130.4152"/>
    <polygon points="429.626,130.4152 438.4843,130.4152 434.0551,138.0867"/>
    <polygon points="442.9134,122.7438 451.7717,122.7438 447.3425,130.4152"/>
    <polygon points="451.7717,122.7438 460.6299,122.7438 456.2008,130.4152"/>
    <polygon points="447.3425,130.4152 456.2008,130.4152 451.7717,138.0867"/>
    <polygon points="434.0551,138.0867 442.9134,138.0867 438.4843,145.7582"/>
    <polygon points="442.9134,138.0867 451.7717,138.0867 447.3425,145.7582"/>
    <polygon points="438.4843,145.7582 447.3425,145.7582 442.9134,153.4297"/>
    <polygon points="460.6299,122.7438 469.4882,122.7438 465.0591,130.4152"/>
    <polygon points="469.4882,122.7438 478.3465,122.7438 473.9173,130.4152"/>
    <polygon points="465.0591,130.4152 473.9173,130.4152 469.4882,138.0867"/>
    <polygon points="478.3465,122.7438 487.2047,122.7438 482.7756,130.4152"/>
    <polygon points="487.2047,122.7438 496.063,122.7438 491.6339,130.4152"/>
    <polygon points="482.7756,130.4152 491.6339,130.4152 487.2047,138.0867"/>
    <polygon points="469.4882,138.0867 478.3465,138.0867 473.9173,145.7582"/>
    <polygon points="478.3465,138.0867 487.2047,138.0867 482.7756,145.7582"/>
    <polygon points="473.9173,145.7582 482.7756,145.7582 478.3465,153.4297"/>
    <polygon points="442.9134,153.4297 451.7717,153.4297 447.3425,161.1012"/>
    <polygon points="451.7717,153.4297 460.6299,153.4297 456.2008,161.1012"/>
    <polygon points="447.3425,161.1012 456.2008,161.1012 451.7717,168.7727"/>
    <polygon points="460.6299,153.4297 469.4882,153.4297 465.0591,161.1012"/>
    <polygon points="469.4882,153.4297 478.3465,153.4297 473.9173,161.1012"/>
    <polygon points="465.0591,161.1012 473.9173,161.1012 469.4882,168.7727"/>
    <polygon points="451.7717,168.7727 460.6299,168.7727 456.2008,176.4442"/>
    <polygon points="460.6299,168.7727 469.4882,168.7727 465.0591,176.4442"/>
    <polygon points="456.2008,176.4442 465.0591,176.4442 460.6299,184.1156"/>
    <polygon points="389.7638,184.1156 398.622,184.1156 394.1929,191.7871"/>
    <polygon points="398.622,184.1156 407.4803,184.1156 403.0512,191.7871"/>
    <polygon points="394.1929,191.7871 403.0512,191.7871 398.622,199.4586"/>
    <polygon points="407.4803,184.1156 416.3386,184.1156 411.9094,191.7871"/>
    <polygon points="416.3386,184.1156 425.1969,184.1156 420.7677,191.7871"/>
    <polygon points="411.9094,191.7871 420.7677,191.7871 416.3386,199.4586"/>
    <polygon points="398.622,199.4586 407.4803,199.4586 403.0512,207.1301"/>
    <polygon points="407.4803,199.4586 416.3386,199.4586 411.9094,207.1301"/>
    <polygon points="403.0512,207.1301 411.9094,207.1301 407.4803,214.8016"/>
    <polygon points="425.1969,184.1156 434.0551,184.1156 429.626,191.7871"/>
    <polygon points="434.0551,184.1156 442.9134,184.1156 438.4843,191.7871"/>
    <polygon points="429.626,191.7871 438.4843,191.7871 434.0551,199.4586"/>
    <polygon points="442.9134,184.1156 451.7717,184.1156 447.3425,191.7871"/>
    <polygon points="451.7717,184.1156 460.6299,184.1156 456.2008,191.7871"/>
    <polygon points="447.3425,191.7871 456.2008,191.7871 451.7717,199.4586"/>
    <polygon points="434.0551,199.4586 442.9134,199.4586 438.4843,207.1301"/>
    <polygon points="442.9134,199.4586 451.7717,199.4586 447.3425,207.1301"/>
    <polygon points="438.4843,207.1301 447.3425,207.1301 442.9134,214.8016"/>
    <polygon points="407.4803,214.8016 416.3386,214.8016 411.9094,222.4731"/>
    <polygon points="416.3386,214.8016 425.1969,214.8016 420.7677,222.4731"/>
    <polygon points="411.9094,222.4731 420.7677,222.4731 416.3386,230.1445"/>
    <polygon points="425.1969,214.8016 434.0551,214.8016 429.626,222.4731"/>
    <polygon points="434.0551,214.8016 442.9134,214.8016 438.4843,222.4731"/>
    <polygon points="429.626,222.4731 438.4843,222.4731 434.0551,230.1445"/>
    <polygon points="416.3386,230.1445 425.1969,230.1445 420.7677,237.816"/>
    <polygon points="425.1969,230.1445 434.0551,230.1445 429.626,237.816"/>
    <polygon points="420.7677,237.816 429.626,237.816 425.1969,245.4875"/>
    <polygon points="141.7323,245.4875 150.5906,245.4875 146.1614,253.159"/>
    <polygon points="150.5906,245.4875 159.4488,245.4875 155.0197,253.159"/>
    <polygon points="146.1614,253.159 155.0197,253.159 150.5906,260.8305"/>
    <polygon points="159.4488,245.4875 168.3071,245.4875 163.878,253.159"/>
    <polygon points="168.3071,245.4875 177.1654,245.4875 172.7362,253.159"/>
    <polygon points="163.878,253.159 172.7362,253.159 168.3071,260.8305"/>
    <polygon points="150.5906,260.8305 159.4488,260.8305 155.0197,268.502"/>
    <polygon points="159.4488,260.8305 168.3071,260.8305 163.878,268.502"/>
    <polygon points="155.0197,268.502 163.878,268.502 159.4488,276.1735"/>
    <polygon points="177.1654,245.4875 186.0236,245.4875 181.5945,253.159"/>
    <polygon points="186.0236,245.4875 194.8819,245.4875 190.4528,253.159"/>
    <polygon points="181.5945,253.159 190.4528,253.159 186.0236,260.8305"/>
    <polygon points="194.8819,245.4875 203.7402,245.4875 199.311,253.159"/>
    <polygon points="203.7402,245.4875 212.5984,245.4875 208.1693,253.159"/>
    <polygon points="199.311,253.159 208.1693,253.159 203.7402,260.8305"/>
    <polygon points="186.0236,260.8305 194.8819,260.8305 190.4528,268.502"/>
    <polygon points="194.8819,260.8305 203.7402,260.8305 199.311,268.502"/>
    <polygon points="190.4528,268.502 199.311,268.502 194.8819,276.1735"/>
    <polygon points="159.4488,276.1735 168.3071,276.1735 163.878,283.8449"/>
    <polygon points="168.3071,276.1735 177.1654,276.1735 172.7362,283.8449"/>
    <polygon points="163.878,283.8449 172.7362,283.8449 168.3071,291.5164"/>
    <polygon points="177.1654,276.1735 186.0236,276.1735 181.5945,283.8449"/>
    <polygon points="186.0236,276.1735 194.8819,276.1735 190.4528,283.8449"/>
    <polygon points="181.5945,283.8449 190.4528,283.8449 186.0236,291.5164"/>
    <polygon points="168.3071,291.5164 177.1654,291.5164 172.7362,299.1879"/>
    <polygon points="177.1654,291.5164 186.0236,291.5164 181.5945,299.1879"/>
    <polygon points="172.7362,299.1879 181.5945,299.1879 177.1654,306.8594"/>
    <polygon points="212.5984,245.4875 221.4567,245.4875 217.0276,253.159"/>
    <polygon points="221.4567,245.4875 230.315,245.4875 225.8858,253.159"/>
    <polygon points="217.0276,253.159 225.8858,253.159 221.4567,260.8305"/>
    <polygon points="230.315,245.4875 239.1732,245.4875 234.7441,253.159"/>
    <polygon points="239.1732,245.4875 248.0315,245.4875 243.6024,253.159"/>
    <polygon points="234.7441,253.159 243.6024,253.159 239.1732,260.8305"/>
    <polygon points="221.4567,260.8305 230.315,260.8305 225.8858,268.502"/>
    <polygon points="230.315,260.8305 239.1732,260.8305 234.7441,268.502"/>
    <polygon points="225.8858,268.502 234.7441,268.502 230.315,276.1735"/>
    <polygon points="248.0315,245.4875 256.8898,245.4875 252.4606,253.159"/>
    <polygon points="256.8898,245.4875 265.748,245.4875 261.3189,253.159"/>
    <polygon points="252.4606,253.159 261.3189,253.159 256.8898,260.8305"/>
    <polygon points="265.748,245.4875 274.6063,245.4875 270.1772,253.159"/>
    <polygon points="274.6063,245.4875 283.4646,245.4875 279.0354,253.159"/>
    <polygon points="270.1772,253.159 279.0354,253.159 274.6063,260.8305"/>
    <polygon points="256.8898,260.8305 265.748,260.8305 261.3189,268.502"/>
    <polygon points="265.748,260.8305 274.6063,260.8305 270.1772,268.502"/>
    <polygon points="261.3189,268.502 270.1772,268.502 265.748,276.1735"/>
    <polygon points="230.315,276.1735 239.1732,276.1735 234.7441,283.8449"/>
    <polygon points="239.1732,276.1735 248.0315,276.1735 243.6024,283.8449"/>
    <polygon points="234.7441,283.8449 243.6024,283.8449 239.1732,291.5164"/>
    <polygon points="248.0315,276.1735 256.8898,276.1735 252.4606,283.8449"/>
    <polygon points="256.8898,276.1735 265.748,276.1735 261.3189,283.8449"/>
    <polygon points="252.4606,283.8449 261.3189,283.8449 256.8898,291.5164"/>
    <polygon points="239.1732,291.5164 248.0315,291.5164 243.6024,299.1879"/>
    <polygon points="248.0315,291.5164 256.8898,291.5164 252.4606,299.1879"/>
    <polygon points="243.6024,299.1879 252.4606,299.1879 248.0315,306.8594"/>
    <polygon points="177.1654,306.8594 186.0236,306.8594 181.5945,314.5309"/>
    <polygon points="186.0236,306.8594 194.8819,306.8594 190.4528,314.5309"/>
    <polygon points="181.5945,314.5309 190.4528,314.5309 186.0236,322.2024"/>
    <polygon points="194.8819,306.8594 203.7402,306.8594 199.311,314.5309"/>
    <polygon points="203.7402,306.8594 212.5984,306.8594 208.1693,314.5309"/>
    <polygon points="199.311,314.5309 208.1693,314.5309 203.7402,322.2024"/>
    <polygon points="186.0236,322.2024 194.8819,322.2024 190.4528,329.8738"/>
    <polygon points="194.8819,322.2024 203.7402,322.2024 199.311,329.8738"/>
    <polygon points="190.4528,329.8738 199.311,329.8738 194.8819,337.5453"/>
    <polygon points="212.5984,306.8594 221.4567,306.8594 217.0276,314.5309"/>
    <polygon points="221.4567,306.8594 230.315,306.8594 225.8858,314.5309"/>
    <polygon points="217.0276,314.5309 225.8858,314.5309 221.4567,322.2024"/>
    <polygon points="230.315,306.8594 239.1732,306.8594 234.7441,314.5309"/>
    <polygon points="239.1732,306.8594 248.0315,306.8594 243.6024,314.5309"/>
    <polygon points="234.7441,314.5309 243.6024,314.5309 239.1732,322.2024"/>
    <polygon points="221.4567,322.2024 230.315,322.2024 225.8858,329.8738"/>
    <polygon points="230.315,322.2024 239.1732,322.2024 234.7441,329.8738"/>
    <polygon points="225.8858,329.8738 234.7441,329.8738 230.315,337.5453"/>
    <polygon points="194.8819,337.5453 203.7402,337.5453 199.311,345.2168"/>
    <polygon points="203.7402,337.5453 212.5984,337.5453 208.1693,345.2168"/>
    <polygon points="199.311,345.2168 208.1693,345.2168 203.7402,352.8883"/>
    <polygon points="212.5984,337.5453 221.4567,337.5453 217.0276,345.2168"/>
    <polygon points="221.4567,337.5453 230.315,337.5453 225.8858,345.2168"/>
    <polygon points="217.0276,345.2168 225.8858,345.2168 221.4567,352.8883"/>
    <polygon points="203.7402,352.8883 212.5984,352.8883 208.1693,360.5598"/>
    <polygon points="212.5984,352.8883 221.4567,352.8883 217.0276,360.5598"/>
    <polygon points="208.1693,360.5598 217.0276,360.5598 212.5984,368.2313"/>
    <polygon points="283.4646,245.4875 292.3228,245.4875 287.8937,253.159"/>
    <polygon points="292.3228,245.4875 301.1811,245.4875 296.752,253.159"/>
    <polygon points="287.8937,253.159 296.752,253.159 292.3228,260.8305"/>
    <polygon points="301.1811,245.4875 310.0394,245.4875 305.6102,253.159"/>
    <polygon points="310.0394,245.4875 318.8976,245.4875 314.4685,253.159"/>
    <polygon points="305.6102,253.159 314.4685,253.159 310.0394,260.8305"/>
    <polygon points="292.3228,260.8305 301.1811,260.8305 296.752,268.502"/>
    <polygon points="301.1811,260.8305 310.0394,260.8305 305.6102,268.502"/>
    <polygon points="296.752,268.502 305.6102,268.502 301.1811,276.1735"/>
    <polygon points="318.8976,245.4875 327.7559,245.4875 323.3268,253.159"/>
    <polygon points="327.7559,245.4875 336.6142,245.4875 332.185,253.159"/>
    <polygon points="323.3268,253.159 332.185,253.159 327.7559,260.8305"/>
    <polygon points="336.6142,245.4875 345.4724,245.4875 341.0433,253.159"/>
    <polygon points="345.4724,245.4875 354.3307,245.4875 349.9016,253.159"/>
    <polygon points="341.0433,253.159 349.9016,253.159 345.4724,260.8305"/>
    <polygon points="327.7559,260.8305 336.6142,260.8305 332.185,268.502"/>
    <polygon points="336.6142,260.8305 345.4724,260.8305 341.0433,268.502"/>
    <polygon points="332.185,268.502 341.0433,268.502 336.6142,276.1735"/>
    <polygon points="301.1811,276.1735 310.0394,276.1735 305.6102,283.8449"/>
    <polygon points="310.0394,276.1735 318.8976,276.1735 314.4685,283.8449"/>
    <polygon points="305.6102,283.8449 314.4685,283.8449 310.0394,291.5164"/>
    <polygon points="318.8976,276.1735 327.7559,276.1735 323.3268,283.8449"/>
    <polygon points="327.7559,276.1735 336.6142,276.1735 332.185,283.8449"/>
    <polygon points="323.3268,283.8449 332.185,283.8449 327.7559,291.5164"/>
    <polygon points="310.0394,291.5164 318.8976,291.5164 314.4685,299.1879"/>
    <polygon points="318.8976,291.5164 327.7559,291.5164 323.3268,299.1879"/>
    <polygon points="314.4685,299.1879 323.3268,299.1879 318.8976,306.8594"/>
    <polygon points="354.3307,245.4875 363.189,245.4875 358.7598,253.159"/>
    <polygon points="363.189,245.4875 372.0472,245.4875 367.6181,253.159"/>
    <polygon points="358.7598,253.159 367.6181,253.159 363.189,260.8305"/>
    <polygon points="372.0472,245.4875 380.9055,245.4875 376.4764,253.159"/>
    <polygon points="380.9055,245.4875 389.7638,245.4875 385.3346,253.159"/>
    <polygon points="376.4764,253.159 385.3346,253.159 380.9055,260.8305"/>
    <polygon points="363.189,260.8305 372.0472,260.8305 367.6181,268.502"/>
    <polygon points="372.0472,260.8305 380.9055,260.8305 376.4764,268.502"/>
    <polygon points="367.6181,268.502 376.4764,268.502 372.0472,276.1735"/>
    <polygon points="389.7638,245.4875 398.622,245.4875 394.1929,253.159"/>
    <polygon points="398.622,245.4875 407.4803,245.4875 403.0512,253.159"/>
    <polygon points="394.1929,253.159 403.0512,253.159 398.622,260.8305"/>
    <polygon points="407.4803,245.4875 416.3386,245.4875 411.9094,253.159"/>
    <polygon points="416.3386,245.4875 425.1969,245.4875 420.7677,253.159"/>
    <polygon points="411.9094,253.159 420.7677,253.159 416.3386,260.8305"/>
    <polygon points="398.622,260.8305 407.4803,260.8305 403.0512,268.502"/>
    <polygon points="407.4803,260.8305 416.3386,260.8305 411.9094,268.502"/>
    <polygon points="403.0512,268.502 411.9094,268.502 407.4803,276.1735"/>
    <polygon points="372.0472,276.1735 380.9055,276.1735 376.4764,283.8449"/>
    <polygon points="380.9055,276.1735 389.7638,276.1735 385.3346,283.8449"/>
    <polygon points="376.4764,283.8449 385.3346,283.8449 380.9055,291.5164"/>
    <polygon points="389.7638,276.1735 398.622,276.1735 394.1929,283.8449"/>
    <polygon points="398.622,276.1735 407.4803,276.1735 403.0512,283.8449"/>
    <polygon points="394.1929,283.8449 403.0512,283.8449 398.622,291.5164"/>
    <polygon points="380.9055,291.5164 389.7638,291.5164 385.3346,299.1879"/>
    <polygon points="389.7638,291.5164 398.622,291.5164 394.1929,299.1879"/>
    <polygon points="385.3346,299.1879 394.1929,299.1879 389.7638,306.8594"/>
    <polygon points="318.8976,306.8594 327.7559,306.8594 323.3268,314.5309"/>
    <polygon points="327.7559,306.8594 336.6142,306.8594 332.185,314.5309"/>
    <polygon points="323.3268,314.5309 332.185,314.5309 327.7559,322.2024"/>
    <polygon points="336.6142,306.8594 345.4724,306.8594 341.0433,314.5309"/>
    <polygon points="345.4724,306.8594 354.3307,306.8594 349.9016,314.5309"/>
    <polygon points="341.0433,314.5309 349.9016,314.5309 345.4724,322.2024"/>
    <polygon points="327.7559,322.2024 336.6142,322.2024 332.185,329.8738"/>
    <polygon points="336.6142,322.2024 345.4724,322.2024 341.0433,329.8738"/>
    <polygon points="332.185,329.8738 341.0433,329.8738 336.6142,337.5453"/>
    <polygon points="354.3307,306.8594 363.189,306.8594 358.7598,314.5309"/>
    <polygon points="363.189,306.8594 372.0472,306.8594 367.6181,314.5309"/>
    <polygon points="358.7598,314.5309 367.6181,314.5309 363.189,322.2024"/>
    <polygon points="372.0472,306.8594 380.9055,306.8594 376.4764,314.5309"/>
    <polygon points="380.9055,306.8594 389.7638,306.8594 385.3346,314.5309"/>
    <polygon points="376.4764,314.5309 385.3346,314.5309 380.9055,322.2024"/>
    <polygon points="363.189,322.2024 372.0472,322.2024 367.6181,329.8738"/>
    <polygon points="372.0472,322.2024 380.9055,322.2024 376.4764,329.8738"/>
    <polygon points="367.6181,329.8738 376.4764,329.8738 372.0472,337.5453"/>
    <polygon points="336.6142,337.5453 345.4724,337.5453 341.0433,345.2168"/>
    <polygon points="345.4724,337.5453 354.3307,337.5453 349.9016,345.2168"/>
    <polygon points="341.0433,345.2168 349.9016,345.2168 345.4724,352.8883"/>
    <polygon points="354.3307,337.5453 363.189,337.5453 358.7598,345.2168"/>
    <polygon points="363.189,337.5453 372.0472,337.5453 367.6181,345.2168"/>
    <polygon points="358.7598,345.2168 367.6181,345.2168 363.189,352.8883"/>
    <polygon points="345.4724,352.8883 354.3307,352.8883 349.9016,360.5598"/>
    <polygon points="354.3307,352.8883 363.189,352.8883 358.7598,360.5598"/>
    <polygon points="349.9016,360.5598 358.7598,360.5598 354.3307,368.2313"/>
    <polygon points="212.5984,368.2313 221.4567,368.2313 217.0276,375.9028"/>
    <polygon points="221.4567,368.2313 230.315,368.2313 225.8858,375.9028"/>
    <polygon points="217.0276,375.9028 225.8858,375.9028 221.4567,383.5742"/>
    <polygon points="230.315,368.2313 239.1732,368.2313 234.7441,375.9028"/>
    <polygon points="239.1732,368.2313 248.0315,368.2313 243.6024,375.9028"/>
    <polygon points="234.7441,375.9028 243.6024,375.9028 239.1732,383.5742"/>
    <polygon points="221.4567,383.5742 230.315,383.5742 225.8858,391.2457"/>
    <polygon points="230.315,383.5742 239.1732,383.5742 234.7441,391.2457"/>
    <polygon points="225.8858,391.2457 234.7441,391.2457 230.315,398.9172"/>
    <polygon points="248.0315,368.2313 256.8898,368.2313 252.4606,375.9028"/>
    <polygon points="256.8898,368.2313 265.748,368.2313 261.3189,375.9028"/>
    <polygon points="252.4606,375.9028 261.3189,375.9028 256.8898,383.5742"/>
    <polygon points="265.748,368.2313 274.6063,368.2313 270.1772,375.9028"/>
    <polygon points="274.6063,368.2313 283.4646,368.2313 279.0354,375.9028"/>
    <polygon points="270.1772,375.9028 279.0354,375.9028 274.6063,383.5742"/>
    <polygon points="256.8898,383.5742 265.748,383.5742 261.3189,391.2457"/>
    <polygon points="265.748,383.5742 274.6063,383.5742 270.1772,391.2457"/>
    <polygon points="261.3189,391.2457 270.1772,391.2457 265.748,398.9172"/>
    <polygon points="230.315,398.9172 239.1732,398.9172 234.7441,406.5887"/>
    <polygon points="239.1732,398.9172 248.0315,398.9172 243.6024,406.5887"/>
    <polygon points="234.7441,406.5887 243.6024,406.5887 239.1732,414.2602"/>
    <polygon points="248.0315,398.9172 256.8898,398.9172 252.4606,406.5887"/>
    <polygon points="256.8898,398.9172 265.748,398.9172 261.3189,406.5887"/>
    <polygon points="252.4606,406.5887 261.3189,406.5887 256.8898,414.2602"/>
    <polygon points="239.1732,414.2602 248.0315,414.2602 243.6024,421.9317"/>
    <polygon points="248.0315,414.2602 256.8898,414.2602 252.4606,421.9317"/>
    <polygon points="243.6024,421.9317 252.4606,421.9317 248.0315,429.6032"/>
    <polygon points="283.4646,368.2313 292.3228,368.2313 287.8937,375.9028"/>
    <polygon points="292.3228,368.2313 301.1811,368.2313 296.752,375.9028"/>
    <polygon points="287.8937,375.9028 296.752,375.9028 292.3228,383.5742"/>
    <polygon points="301.1811,368.2313 310.0394,368.2313 305.6102,375.9028"/>
    <polygon points="310.0394,368.2313 318.8976,368.2313 314.4685,375.9028"/>
    <polygon points="305.6102,375.9028 314.4685,375.9028 310.0394,383.5742"/>
    <polygon points="292.3228,383.5742 301.1811,383.5742 296.752,391.2457"/>
    <polygon points="301.1811,383.5742 310.0394,383.5742 305.6102,391.2457"/>
    <polygon points="296.752,391.2457 305.6102,391.2457 301.1811,398.9172"/>
    <polygon points="318.8976,368.2313 327.7559,368.2313 323.3268,375.9028"/>
    <polygon points="327.7559,368.2313 336.6142,368.2313 332.185,375.9028"/>
    <polygon points="323.3268,375.9028 332.185,375.9028 327.7559,383.5742"/>
    <polygon points="336.6142,368.2313 345.4724,368.2313 341.0433,375.9028"/>
    <polygon points="345.4724,368.2313 354.3307,368.2313 349.9016,375.9028"/>
    <polygon points="341.0433,375.9028 349.9016,375.9028 345.4724,383.5742"/>
    <polygon points="327.7559,383.5742 336.6142,383.5742 332.185,391.2457"/>
    <polygon points="336.6142,383.5742 345.4724,383.5742 341.0433,391.2457"/>
    <polygon points="332.185,391.2457 341.0433,391.2457 336.6142,398.9172"/>
    <polygon points="301.1811,398.9172 310.0394,398.9172 305.6102,406.5887"/>
    <polygon points="310.0394,398.9172 318.8976,398.9172 314.4685,406.5887"/>
    <polygon points="305.6102,406.5887 314.4685,406.5887 310.0394,414.2602"/>
    <polygon points="318.8976,398.9172 327.7559,398.9172 323.3268,406.5887"/>
    <polygon points="327.7559,398.9172 336.6142,398.9172 332.185,406.5887"/>
    <polygon points="323.3268,406.5887 332.185,406.5887 327.7559,414.2602"/>
    <polygon points="310.0394,414.2602 318.8976,414.2602 314.4685,421.9317"/>
    <polygon points="318.8976,414.2602 327.7559,414.2602 323.3268,421.9317"/>
    <polygon points="314.4685,421.9317 323.3268,421.9317 318.8976,429.6032"/>
    <polygon points="248.0315,429.6032 256.8898,429.6032 252.4606,437.2746"/>
    <polygon points="256.8898,429.6032 265.748,429.6032 261.3189,437.2746"/>
    <polygon points="252.4606,437.2746 261.3189,437.2746 256.8898,444.9461"/>
    <polygon points="265.748,429.6032 274.6063,429.6032 270.1772,437.2746"/>
    <polygon points="274.6063,429.6032 283.4646,429.6032 279.0354,437.2746"/>
    <polygon points="270.1772,437.2746 279.0354,437.2746 274.6063,444.9461"/>
    <polygon points="256.8898,444.9461 265.748,444.9461 261.3189,452.6176"/>
    <polygon points="265.748,444.9461 274.6063,444.9461 270.1772,452.6176"/>
    <polygon points="261.3189,452.6176 270.1772,452.6176 265.748,460.2891"/>
    <polygon points="283.4646,429.6032 292.3228,429.6032 287.8937,437.2746"/>
    <polygon points="292.3228,429.6032 301.1811,429.6032 296.752,437.2746"/>
    <polygon points="287.8937,437.2746 296.752,437.2746 292.3228,444.9461"/>
    <polygon points="301.1811,429.6032 310.0394,429.6032 305.6102,437.2746"/>
    <polygon points="310.0394,429.6032 318.8976,429.6032 314.4685,437.2746"/>
    <polygon points="305.6102,437.2746 314.4685,437.2746 310.0394,444.9461"/>
    <polygon points="292.3228,444.9461 301.1811,444.9461 296.752,452.6176"/>
    <polygon points="301.1811,444.9461 310.0394,444.9461 305.6102,452.6176"/>
    <polygon points="296.752,452.6176 305.6102,452.6176 301.1811,460.2891"/>
    <polygon points="265.748,460.2891 274.6063,460.2891 270.1772,467.9606"/>
    <polygon points="274.6063,460.2891 283.4646,460.2891 279.0354,467.9606"/>
    <polygon points="270.1772,467.9606 279.0354,467.9606 274.6063,475.6321"/>
    <polygon points="283.4646,460.2891 292.3228,460.2891 287.8937,467.9606"/>
    <polygon points="292.3228,460.2891 301.1811,460.2891 296.752,467.9606"/>
    <polygon points="287.8937,467.9606 296.752,467.9606 292.3228,475.6321"/>
    <polygon points="274.6063,475.6321 283.4646,475.6321 279.0354,483.3035"/>
    <polygon points="283.4646,475.6321 292.3228,475.6321 287.8937,483.3035"/>
    <polygon points="279.0354,483.3035 287.8937,483.3035 283.4646,490.975"/>
  </g>
</svg>
